  0
SECTION
  2
HEADER
  9
$ANGBASE
  50
0.0
  9
$ANGDIR
  70
1
  9
$MEASUREMENT
  70
1
  0
ENDSEC
  0
SECTION
  2
TABLES
  0
TABLE
  2
LTYPE
  70
4
  0
LTYPE
  5
40F
  2
CONTINUOUS
  70
0
  3
Solid line
  72
65
  73
0
  40
0.0
  0
LTYPE
  5
410
  2
DASHDOT
 70
0
  3
Dash Dot ____ _ ____ _
 72
65
 73
4
 40
2.0
 49
1.25
 49
-0.25
 49
0.25
 49
-0.25
  0
LTYPE
  5
411
  2
DASHED
 70
0
  3
Dashed __ __ __ __ __
 72
65
 73
2
 40
0.75
 49
0.5
 49
-0.25
  0
LTYPE
  5
43B
  2
DOTTED
 70
0
  3
Dotted .  .  .  .
 72
65
 73
2
 40
0.2
 49
0.0
 49
-0.2
  0
ENDTAB
  0
TABLE
  2
STYLE
  70
4
  0
STYLE
  2
KICAD
  70
0
  40
0
  41
1
  42
1
  50
0
  71
0
  3
isocp.shx
  0
STYLE
  2
KICADB
  70
0
  40
0
  41
1
  42
1
  50
0
  71
0
  3
isocp.shx
  0
STYLE
  2
KICADI
  70
0
  40
0
  41
1
  42
1
  50
15
  71
0
  3
isocp.shx
  0
STYLE
  2
KICADBI
  70
0
  40
0
  41
1
  42
1
  50
15
  71
0
  3
isocp.shx
  0
ENDTAB
  0
TABLE
  2
LAYER
  70
1
  0
LAYER
  2
BLACK
  70
0
  62
7
  6
CONTINUOUS
  0
ENDTAB
  0
ENDSEC
  0
SECTION
  2
ENTITIES
0
LINE
8
BLACK
6
CONTINUOUS
10
22.3424
20
-84.4189
11
22.3424
21
-84.9903
0
LINE
8
BLACK
6
CONTINUOUS
10
22.3424
20
-84.7046
11
21.3424
21
-84.7046
0
LINE
8
BLACK
6
CONTINUOUS
10
21.3424
20
-84.7046
11
21.4852
21
-84.7998
0
LINE
8
BLACK
6
CONTINUOUS
10
21.4852
20
-84.7998
11
21.5805
21
-84.8951
0
LINE
8
BLACK
6
CONTINUOUS
10
21.5805
20
-84.8951
11
21.6281
21
-84.9903
0
LINE
8
BLACK
6
CONTINUOUS
10
21.4376
20
-84.0379
11
21.39
21
-83.9903
0
LINE
8
BLACK
6
CONTINUOUS
10
21.39
20
-83.9903
11
21.3424
21
-83.8951
0
LINE
8
BLACK
6
CONTINUOUS
10
21.3424
20
-83.8951
11
21.3424
21
-83.657
0
LINE
8
BLACK
6
CONTINUOUS
10
21.3424
20
-83.657
11
21.39
21
-83.5617
0
LINE
8
BLACK
6
CONTINUOUS
10
21.39
20
-83.5617
11
21.4376
21
-83.5141
0
LINE
8
BLACK
6
CONTINUOUS
10
21.4376
20
-83.5141
11
21.5329
21
-83.4665
0
LINE
8
BLACK
6
CONTINUOUS
10
21.5329
20
-83.4665
11
21.6281
21
-83.4665
0
LINE
8
BLACK
6
CONTINUOUS
10
21.6281
20
-83.4665
11
21.771
21
-83.5141
0
LINE
8
BLACK
6
CONTINUOUS
10
21.771
20
-83.5141
11
22.3424
21
-84.0855
0
LINE
8
BLACK
6
CONTINUOUS
10
22.3424
20
-84.0855
11
22.3424
21
-83.4665
0
LINE
8
BLACK
6
CONTINUOUS
10
21.4376
20
-83.0855
11
21.39
21
-83.0379
0
LINE
8
BLACK
6
CONTINUOUS
10
21.39
20
-83.0379
11
21.3424
21
-82.9427
0
LINE
8
BLACK
6
CONTINUOUS
10
21.3424
20
-82.9427
11
21.3424
21
-82.7046
0
LINE
8
BLACK
6
CONTINUOUS
10
21.3424
20
-82.7046
11
21.39
21
-82.6093
0
LINE
8
BLACK
6
CONTINUOUS
10
21.39
20
-82.6093
11
21.4376
21
-82.5617
0
LINE
8
BLACK
6
CONTINUOUS
10
21.4376
20
-82.5617
11
21.5329
21
-82.5141
0
LINE
8
BLACK
6
CONTINUOUS
10
21.5329
20
-82.5141
11
21.6281
21
-82.5141
0
LINE
8
BLACK
6
CONTINUOUS
10
21.6281
20
-82.5141
11
21.771
21
-82.5617
0
LINE
8
BLACK
6
CONTINUOUS
10
21.771
20
-82.5617
11
22.3424
21
-83.1332
0
LINE
8
BLACK
6
CONTINUOUS
10
22.3424
20
-83.1332
11
22.3424
21
-82.5141
0
LINE
8
BLACK
6
CONTINUOUS
10
22.2471
20
-82.0855
11
22.2948
21
-82.0379
0
LINE
8
BLACK
6
CONTINUOUS
10
22.2948
20
-82.0379
11
22.3424
21
-82.0855
0
LINE
8
BLACK
6
CONTINUOUS
10
22.3424
20
-82.0855
11
22.2948
21
-82.1332
0
LINE
8
BLACK
6
CONTINUOUS
10
22.2948
20
-82.1332
11
22.2471
21
-82.0855
0
LINE
8
BLACK
6
CONTINUOUS
10
22.2471
20
-82.0855
11
22.3424
21
-82.0855
0
LINE
8
BLACK
6
CONTINUOUS
10
21.3424
20
-81.1332
11
21.3424
21
-81.6093
0
LINE
8
BLACK
6
CONTINUOUS
10
21.3424
20
-81.6093
11
21.8186
21
-81.657
0
LINE
8
BLACK
6
CONTINUOUS
10
21.8186
20
-81.657
11
21.771
21
-81.6093
0
LINE
8
BLACK
6
CONTINUOUS
10
21.771
20
-81.6093
11
21.7233
21
-81.5141
0
LINE
8
BLACK
6
CONTINUOUS
10
21.7233
20
-81.5141
11
21.7233
21
-81.276
0
LINE
8
BLACK
6
CONTINUOUS
10
21.7233
20
-81.276
11
21.771
21
-81.1808
0
LINE
8
BLACK
6
CONTINUOUS
10
21.771
20
-81.1808
11
21.8186
21
-81.1332
0
LINE
8
BLACK
6
CONTINUOUS
10
21.8186
20
-81.1332
11
21.9138
21
-81.0855
0
LINE
8
BLACK
6
CONTINUOUS
10
21.9138
20
-81.0855
11
22.1519
21
-81.0855
0
LINE
8
BLACK
6
CONTINUOUS
10
22.1519
20
-81.0855
11
22.2471
21
-81.1332
0
LINE
8
BLACK
6
CONTINUOUS
10
22.2471
20
-81.1332
11
22.2948
21
-81.1808
0
LINE
8
BLACK
6
CONTINUOUS
10
22.2948
20
-81.1808
11
22.3424
21
-81.276
0
LINE
8
BLACK
6
CONTINUOUS
10
22.3424
20
-81.276
11
22.3424
21
-81.5141
0
LINE
8
BLACK
6
CONTINUOUS
10
22.3424
20
-81.5141
11
22.2948
21
-81.6093
0
LINE
8
BLACK
6
CONTINUOUS
10
22.2948
20
-81.6093
11
22.2471
21
-81.657
0
LINE
8
BLACK
6
CONTINUOUS
10
21.6757
20
-80.2284
11
22.3424
21
-80.2284
0
LINE
8
BLACK
6
CONTINUOUS
10
21.2948
20
-80.4665
11
22.009
21
-80.7046
0
LINE
8
BLACK
6
CONTINUOUS
10
22.009
20
-80.7046
11
22.009
21
-80.0855
0
LINE
8
BLACK
6
CONTINUOUS
10
21.3424
20
-79.7998
11
21.3424
21
-79.1808
0
LINE
8
BLACK
6
CONTINUOUS
10
21.3424
20
-79.1808
11
21.7233
21
-79.5141
0
LINE
8
BLACK
6
CONTINUOUS
10
21.7233
20
-79.5141
11
21.7233
21
-79.3713
0
LINE
8
BLACK
6
CONTINUOUS
10
21.7233
20
-79.3713
11
21.771
21
-79.276
0
LINE
8
BLACK
6
CONTINUOUS
10
21.771
20
-79.276
11
21.8186
21
-79.2284
0
LINE
8
BLACK
6
CONTINUOUS
10
21.8186
20
-79.2284
11
21.9138
21
-79.1808
0
LINE
8
BLACK
6
CONTINUOUS
10
21.9138
20
-79.1808
11
22.1519
21
-79.1808
0
LINE
8
BLACK
6
CONTINUOUS
10
22.1519
20
-79.1808
11
22.2471
21
-79.2284
0
LINE
8
BLACK
6
CONTINUOUS
10
22.2471
20
-79.2284
11
22.2948
21
-79.276
0
LINE
8
BLACK
6
CONTINUOUS
10
22.2948
20
-79.276
11
22.3424
21
-79.3713
0
LINE
8
BLACK
6
CONTINUOUS
10
22.3424
20
-79.3713
11
22.3424
21
-79.657
0
LINE
8
BLACK
6
CONTINUOUS
10
22.3424
20
-79.657
11
22.2948
21
-79.7522
0
LINE
8
BLACK
6
CONTINUOUS
10
22.2948
20
-79.7522
11
22.2471
21
-79.7998
0
LINE
8
BLACK
6
CONTINUOUS
10
22.3424
20
-77.9903
11
21.6757
21
-77.9903
0
LINE
8
BLACK
6
CONTINUOUS
10
21.771
20
-77.9903
11
21.7233
21
-77.9427
0
LINE
8
BLACK
6
CONTINUOUS
10
21.7233
20
-77.9427
11
21.6757
21
-77.8474
0
LINE
8
BLACK
6
CONTINUOUS
10
21.6757
20
-77.8474
11
21.6757
21
-77.7046
0
LINE
8
BLACK
6
CONTINUOUS
10
21.6757
20
-77.7046
11
21.7233
21
-77.6093
0
LINE
8
BLACK
6
CONTINUOUS
10
21.7233
20
-77.6093
11
21.8186
21
-77.5617
0
LINE
8
BLACK
6
CONTINUOUS
10
21.8186
20
-77.5617
11
22.3424
21
-77.5617
0
LINE
8
BLACK
6
CONTINUOUS
10
21.8186
20
-77.5617
11
21.7233
21
-77.5141
0
LINE
8
BLACK
6
CONTINUOUS
10
21.7233
20
-77.5141
11
21.6757
21
-77.4189
0
LINE
8
BLACK
6
CONTINUOUS
10
21.6757
20
-77.4189
11
21.6757
21
-77.276
0
LINE
8
BLACK
6
CONTINUOUS
10
21.6757
20
-77.276
11
21.7233
21
-77.1808
0
LINE
8
BLACK
6
CONTINUOUS
10
21.7233
20
-77.1808
11
21.8186
21
-77.1332
0
LINE
8
BLACK
6
CONTINUOUS
10
21.8186
20
-77.1332
11
22.3424
21
-77.1332
0
LINE
8
BLACK
6
CONTINUOUS
10
22.3424
20
-76.657
11
21.6757
21
-76.657
0
LINE
8
BLACK
6
CONTINUOUS
10
21.771
20
-76.657
11
21.7233
21
-76.6093
0
LINE
8
BLACK
6
CONTINUOUS
10
21.7233
20
-76.6093
11
21.6757
21
-76.5141
0
LINE
8
BLACK
6
CONTINUOUS
10
21.6757
20
-76.5141
11
21.6757
21
-76.3713
0
LINE
8
BLACK
6
CONTINUOUS
10
21.6757
20
-76.3713
11
21.7233
21
-76.276
0
LINE
8
BLACK
6
CONTINUOUS
10
21.7233
20
-76.276
11
21.8186
21
-76.2284
0
LINE
8
BLACK
6
CONTINUOUS
10
21.8186
20
-76.2284
11
22.3424
21
-76.2284
0
LINE
8
BLACK
6
CONTINUOUS
10
21.8186
20
-76.2284
11
21.7233
21
-76.1808
0
LINE
8
BLACK
6
CONTINUOUS
10
21.7233
20
-76.1808
11
21.6757
21
-76.0855
0
LINE
8
BLACK
6
CONTINUOUS
10
21.6757
20
-76.0855
11
21.6757
21
-75.9427
0
LINE
8
BLACK
6
CONTINUOUS
10
21.6757
20
-75.9427
11
21.7233
21
-75.8474
0
LINE
8
BLACK
6
CONTINUOUS
10
21.7233
20
-75.8474
11
21.8186
21
-75.7998
0
LINE
8
BLACK
6
CONTINUOUS
10
21.8186
20
-75.7998
11
22.3424
21
-75.7998
0
LINE
8
BLACK
6
CONTINUOUS
10
23.19
20
-141.642
11
23.19
21
-19.1
0
LINE
8
BLACK
6
CONTINUOUS
10
23.4575
20
-141.642
11
22.6036
21
-141.642
0
LINE
8
BLACK
6
CONTINUOUS
10
23.4575
20
-19.1
11
22.6036
21
-19.1
0
LINE
8
BLACK
6
CONTINUOUS
10
23.19
20
-19.1
11
23.7764
21
-20.2265
0
LINE
8
BLACK
6
CONTINUOUS
10
23.19
20
-19.1
11
22.6036
21
-20.2265
0
LINE
8
BLACK
6
CONTINUOUS
10
23.19
20
-141.642
11
23.7764
21
-140.516
0
LINE
8
BLACK
6
CONTINUOUS
10
23.19
20
-141.642
11
22.6036
21
-140.516
0
LINE
8
BLACK
6
CONTINUOUS
10
109.286
20
-145.862
11
108.715
21
-145.862
0
LINE
8
BLACK
6
CONTINUOUS
10
109
20
-145.862
11
109
21
-144.862
0
LINE
8
BLACK
6
CONTINUOUS
10
109
20
-144.862
11
108.905
21
-145.005
0
LINE
8
BLACK
6
CONTINUOUS
10
108.905
20
-145.005
11
108.81
21
-145.1
0
LINE
8
BLACK
6
CONTINUOUS
10
108.81
20
-145.1
11
108.715
21
-145.148
0
LINE
8
BLACK
6
CONTINUOUS
10
109.619
20
-144.862
11
110.286
21
-144.862
0
LINE
8
BLACK
6
CONTINUOUS
10
110.286
20
-144.862
11
109.858
21
-145.862
0
LINE
8
BLACK
6
CONTINUOUS
10
111.096
20
-144.862
11
110.905
21
-144.862
0
LINE
8
BLACK
6
CONTINUOUS
10
110.905
20
-144.862
11
110.81
21
-144.91
0
LINE
8
BLACK
6
CONTINUOUS
10
110.81
20
-144.91
11
110.762
21
-144.958
0
LINE
8
BLACK
6
CONTINUOUS
10
110.762
20
-144.958
11
110.667
21
-145.1
0
LINE
8
BLACK
6
CONTINUOUS
10
110.667
20
-145.1
11
110.619
21
-145.291
0
LINE
8
BLACK
6
CONTINUOUS
10
110.619
20
-145.291
11
110.619
21
-145.672
0
LINE
8
BLACK
6
CONTINUOUS
10
110.619
20
-145.672
11
110.667
21
-145.767
0
LINE
8
BLACK
6
CONTINUOUS
10
110.667
20
-145.767
11
110.715
21
-145.815
0
LINE
8
BLACK
6
CONTINUOUS
10
110.715
20
-145.815
11
110.81
21
-145.862
0
LINE
8
BLACK
6
CONTINUOUS
10
110.81
20
-145.862
11
111
21
-145.862
0
LINE
8
BLACK
6
CONTINUOUS
10
111
20
-145.862
11
111.096
21
-145.815
0
LINE
8
BLACK
6
CONTINUOUS
10
111.096
20
-145.815
11
111.143
21
-145.767
0
LINE
8
BLACK
6
CONTINUOUS
10
111.143
20
-145.767
11
111.191
21
-145.672
0
LINE
8
BLACK
6
CONTINUOUS
10
111.191
20
-145.672
11
111.191
21
-145.434
0
LINE
8
BLACK
6
CONTINUOUS
10
111.191
20
-145.434
11
111.143
21
-145.339
0
LINE
8
BLACK
6
CONTINUOUS
10
111.143
20
-145.339
11
111.096
21
-145.291
0
LINE
8
BLACK
6
CONTINUOUS
10
111.096
20
-145.291
11
111
21
-145.243
0
LINE
8
BLACK
6
CONTINUOUS
10
111
20
-145.243
11
110.81
21
-145.243
0
LINE
8
BLACK
6
CONTINUOUS
10
110.81
20
-145.243
11
110.715
21
-145.291
0
LINE
8
BLACK
6
CONTINUOUS
10
110.715
20
-145.291
11
110.667
21
-145.339
0
LINE
8
BLACK
6
CONTINUOUS
10
110.667
20
-145.339
11
110.619
21
-145.434
0
LINE
8
BLACK
6
CONTINUOUS
10
111.619
20
-145.767
11
111.667
21
-145.815
0
LINE
8
BLACK
6
CONTINUOUS
10
111.667
20
-145.815
11
111.619
21
-145.862
0
LINE
8
BLACK
6
CONTINUOUS
10
111.619
20
-145.862
11
111.572
21
-145.815
0
LINE
8
BLACK
6
CONTINUOUS
10
111.572
20
-145.815
11
111.619
21
-145.767
0
LINE
8
BLACK
6
CONTINUOUS
10
111.619
20
-145.767
11
111.619
21
-145.862
0
LINE
8
BLACK
6
CONTINUOUS
10
112
20
-144.862
11
112.667
21
-144.862
0
LINE
8
BLACK
6
CONTINUOUS
10
112.667
20
-144.862
11
112.239
21
-145.862
0
LINE
8
BLACK
6
CONTINUOUS
10
113.477
20
-145.196
11
113.477
21
-145.862
0
LINE
8
BLACK
6
CONTINUOUS
10
113.239
20
-144.815
11
113
21
-145.529
0
LINE
8
BLACK
6
CONTINUOUS
10
113
20
-145.529
11
113.619
21
-145.529
0
LINE
8
BLACK
6
CONTINUOUS
10
113.905
20
-144.862
11
114.524
21
-144.862
0
LINE
8
BLACK
6
CONTINUOUS
10
114.524
20
-144.862
11
114.191
21
-145.243
0
LINE
8
BLACK
6
CONTINUOUS
10
114.191
20
-145.243
11
114.334
21
-145.243
0
LINE
8
BLACK
6
CONTINUOUS
10
114.334
20
-145.243
11
114.429
21
-145.291
0
LINE
8
BLACK
6
CONTINUOUS
10
114.429
20
-145.291
11
114.477
21
-145.339
0
LINE
8
BLACK
6
CONTINUOUS
10
114.477
20
-145.339
11
114.524
21
-145.434
0
LINE
8
BLACK
6
CONTINUOUS
10
114.524
20
-145.434
11
114.524
21
-145.672
0
LINE
8
BLACK
6
CONTINUOUS
10
114.524
20
-145.672
11
114.477
21
-145.767
0
LINE
8
BLACK
6
CONTINUOUS
10
114.477
20
-145.767
11
114.429
21
-145.815
0
LINE
8
BLACK
6
CONTINUOUS
10
114.429
20
-145.815
11
114.334
21
-145.862
0
LINE
8
BLACK
6
CONTINUOUS
10
114.334
20
-145.862
11
114.048
21
-145.862
0
LINE
8
BLACK
6
CONTINUOUS
10
114.048
20
-145.862
11
113.953
21
-145.815
0
LINE
8
BLACK
6
CONTINUOUS
10
113.953
20
-145.815
11
113.905
21
-145.767
0
LINE
8
BLACK
6
CONTINUOUS
10
115.715
20
-145.862
11
115.715
21
-145.196
0
LINE
8
BLACK
6
CONTINUOUS
10
115.715
20
-145.291
11
115.762
21
-145.243
0
LINE
8
BLACK
6
CONTINUOUS
10
115.762
20
-145.243
11
115.858
21
-145.196
0
LINE
8
BLACK
6
CONTINUOUS
10
115.858
20
-145.196
11
116
21
-145.196
0
LINE
8
BLACK
6
CONTINUOUS
10
116
20
-145.196
11
116.096
21
-145.243
0
LINE
8
BLACK
6
CONTINUOUS
10
116.096
20
-145.243
11
116.143
21
-145.339
0
LINE
8
BLACK
6
CONTINUOUS
10
116.143
20
-145.339
11
116.143
21
-145.862
0
LINE
8
BLACK
6
CONTINUOUS
10
116.143
20
-145.339
11
116.191
21
-145.243
0
LINE
8
BLACK
6
CONTINUOUS
10
116.191
20
-145.243
11
116.286
21
-145.196
0
LINE
8
BLACK
6
CONTINUOUS
10
116.286
20
-145.196
11
116.429
21
-145.196
0
LINE
8
BLACK
6
CONTINUOUS
10
116.429
20
-145.196
11
116.524
21
-145.243
0
LINE
8
BLACK
6
CONTINUOUS
10
116.524
20
-145.243
11
116.572
21
-145.339
0
LINE
8
BLACK
6
CONTINUOUS
10
116.572
20
-145.339
11
116.572
21
-145.862
0
LINE
8
BLACK
6
CONTINUOUS
10
117.048
20
-145.862
11
117.048
21
-145.196
0
LINE
8
BLACK
6
CONTINUOUS
10
117.048
20
-145.291
11
117.096
21
-145.243
0
LINE
8
BLACK
6
CONTINUOUS
10
117.096
20
-145.243
11
117.191
21
-145.196
0
LINE
8
BLACK
6
CONTINUOUS
10
117.191
20
-145.196
11
117.334
21
-145.196
0
LINE
8
BLACK
6
CONTINUOUS
10
117.334
20
-145.196
11
117.429
21
-145.243
0
LINE
8
BLACK
6
CONTINUOUS
10
117.429
20
-145.243
11
117.477
21
-145.339
0
LINE
8
BLACK
6
CONTINUOUS
10
117.477
20
-145.339
11
117.477
21
-145.862
0
LINE
8
BLACK
6
CONTINUOUS
10
117.477
20
-145.339
11
117.524
21
-145.243
0
LINE
8
BLACK
6
CONTINUOUS
10
117.524
20
-145.243
11
117.619
21
-145.196
0
LINE
8
BLACK
6
CONTINUOUS
10
117.619
20
-145.196
11
117.762
21
-145.196
0
LINE
8
BLACK
6
CONTINUOUS
10
117.762
20
-145.196
11
117.858
21
-145.243
0
LINE
8
BLACK
6
CONTINUOUS
10
117.858
20
-145.243
11
117.905
21
-145.339
0
LINE
8
BLACK
6
CONTINUOUS
10
117.905
20
-145.339
11
117.905
21
-145.862
0
LINE
8
BLACK
6
CONTINUOUS
10
24.9625
20
-144.11
11
201.705
21
-144.11
0
LINE
8
BLACK
6
CONTINUOUS
10
24.9625
20
-143.088
11
24.9625
21
-144.696
0
LINE
8
BLACK
6
CONTINUOUS
10
201.705
20
-143.088
11
201.705
21
-144.696
0
LINE
8
BLACK
6
CONTINUOUS
10
201.705
20
-144.11
11
200.578
21
-144.696
0
LINE
8
BLACK
6
CONTINUOUS
10
201.705
20
-144.11
11
200.578
21
-143.524
0
LINE
8
BLACK
6
CONTINUOUS
10
24.9625
20
-144.11
11
26.089
21
-144.696
0
LINE
8
BLACK
6
CONTINUOUS
10
24.9625
20
-144.11
11
26.089
21
-143.524
0
CIRCLE
8
BLACK
10
27.8438
20
-100.2
40
1.1
0
CIRCLE
8
BLACK
10
144.025
20
-97.2
40
1.1
0
CIRCLE
8
BLACK
10
139.262
20
-43.05
40
1.1
0
CIRCLE
8
BLACK
10
91.6375
20
-62.1
40
1.1
0
CIRCLE
8
BLACK
10
44.0125
20
-43.05
40
1.1
0
CIRCLE
8
BLACK
10
199.155
20
-31.8
40
1.1
0
CIRCLE
8
BLACK
10
199.155
20
-53.705
40
1.1
0
CIRCLE
8
BLACK
10
197.905
20
-62.19
40
1.1
0
CIRCLE
8
BLACK
10
171.655
20
-62.19
40
1.1
0
CIRCLE
8
BLACK
10
197.905
20
-94.85
40
1.1
0
CIRCLE
8
BLACK
10
171.655
20
-94.85
40
1.1
0
CIRCLE
8
BLACK
10
197.905
20
-106.418
40
1.1
0
CIRCLE
8
BLACK
10
171.655
20
-106.418
40
1.1
0
CIRCLE
8
BLACK
10
197.905
20
-139.078
40
1.1
0
CIRCLE
8
BLACK
10
171.655
20
-139.078
40
1.1
0
CIRCLE
8
BLACK
10
129.04
20
-139.078
40
1.1
0
CIRCLE
8
BLACK
10
102.79
20
-139.078
40
1.1
0
CIRCLE
8
BLACK
10
129.04
20
-106.418
40
1.1
0
CIRCLE
8
BLACK
10
102.79
20
-106.418
40
1.1
0
LINE
8
BLACK
6
CONTINUOUS
10
25.4575
20
-141.642
11
55.8325
21
-141.642
0
LINE
8
BLACK
6
CONTINUOUS
10
201.705
20
-141.147
11
201.705
21
-65.195
0
LINE
8
BLACK
6
CONTINUOUS
10
55.8325
20
-141.642
11
201.15
21
-141.642
0
LINE
8
BLACK
6
CONTINUOUS
10
201.21
20
-19.1
11
181.46
21
-19.1
0
ARC
8
BLACK
10
25.4875
20
-141.118
40
0.525856
50
-183.27
51
-93.2705
0
LINE
8
BLACK
6
CONTINUOUS
10
24.9625
20
-141.088
11
24.9625
21
-19.595
0
LINE
8
BLACK
6
CONTINUOUS
10
25.5175
20
-19.1
11
181.46
21
-19.1
0
LINE
8
BLACK
6
CONTINUOUS
10
201.705
20
-65.195
11
201.705
21
-19.6575
0
ARC
8
BLACK
10
201.18
20
-141.118
40
0.525856
50
-93.2705
51
-3.27049
0
ARC
8
BLACK
10
201.18
20
-19.625
40
0.525856
50
-3.27049
51
86.7295
0
ARC
8
BLACK
10
25.4875
20
-19.625
40
0.525856
50
86.7295
51
176.73
  0
ENDSEC
  0
EOF
