  0
SECTION
  2
HEADER
  9
$ANGBASE
  50
0.0
  9
$ANGDIR
  70
1
  9
$MEASUREMENT
  70
1
  0
ENDSEC
  0
SECTION
  2
TABLES
  0
TABLE
  2
LTYPE
  70
4
  0
LTYPE
  5
40F
  2
CONTINUOUS
  70
0
  3
Solid line
  72
65
  73
0
  40
0.0
  0
LTYPE
  5
410
  2
DASHDOT
 70
0
  3
Dash Dot ____ _ ____ _
 72
65
 73
4
 40
2.0
 49
1.25
 49
-0.25
 49
0.25
 49
-0.25
  0
LTYPE
  5
411
  2
DASHED
 70
0
  3
Dashed __ __ __ __ __
 72
65
 73
2
 40
0.75
 49
0.5
 49
-0.25
  0
LTYPE
  5
43B
  2
DOTTED
 70
0
  3
Dotted .  .  .  .
 72
65
 73
2
 40
0.2
 49
0.0
 49
-0.2
  0
ENDTAB
  0
TABLE
  2
STYLE
  70
4
  0
STYLE
  2
KICAD
  70
0
  40
0
  41
1
  42
1
  50
0
  71
0
  3
isocp.shx
  0
STYLE
  2
KICADB
  70
0
  40
0
  41
1
  42
1
  50
0
  71
0
  3
isocp.shx
  0
STYLE
  2
KICADI
  70
0
  40
0
  41
1
  42
1
  50
15
  71
0
  3
isocp.shx
  0
STYLE
  2
KICADBI
  70
0
  40
0
  41
1
  42
1
  50
15
  71
0
  3
isocp.shx
  0
ENDTAB
  0
TABLE
  2
LAYER
  70
1
  0
LAYER
  2
BLACK
  70
0
  62
7
  6
CONTINUOUS
  0
ENDTAB
  0
ENDSEC
  0
SECTION
  2
ENTITIES
0
LINE
8
BLACK
6
CONTINUOUS
10
195.581
20
-59.955
11
195.581
21
-64.425
0
LINE
8
BLACK
6
CONTINUOUS
10
178.531
20
-69.025
11
178.531
21
-72.255
0
LINE
8
BLACK
6
CONTINUOUS
10
176.804
20
-59.955
11
176.804
21
-58.755
0
LINE
8
BLACK
6
CONTINUOUS
10
178.531
20
-59.955
11
178.531
21
-64.425
0
LINE
8
BLACK
6
CONTINUOUS
10
171.779
20
-69.025
11
170.954
21
-69.025
0
LINE
8
BLACK
6
CONTINUOUS
10
178.531
20
-64.425
11
180.056
21
-64.425
0
LINE
8
BLACK
6
CONTINUOUS
10
195.581
20
-69.025
11
195.581
21
-72.255
0
LINE
8
BLACK
6
CONTINUOUS
10
197.307
20
-59.955
11
195.582
21
-59.955
0
LINE
8
BLACK
6
CONTINUOUS
10
202.332
20
-72.255
11
202.332
21
-69.025
0
LINE
8
BLACK
6
CONTINUOUS
10
176.804
20
-59.955
11
178.529
21
-59.955
0
LINE
8
BLACK
6
CONTINUOUS
10
202.332
20
-66.24
11
203.157
21
-66.24
0
LINE
8
BLACK
6
CONTINUOUS
10
202.332
20
-72.255
11
195.582
21
-72.255
0
LINE
8
BLACK
6
CONTINUOUS
10
171.779
20
-66.24
11
171.779
21
-59.955
0
LINE
8
BLACK
6
CONTINUOUS
10
202.332
20
-66.24
11
202.332
21
-59.955
0
LINE
8
BLACK
6
CONTINUOUS
10
178.531
20
-69.025
11
180.056
21
-69.025
0
LINE
8
BLACK
6
CONTINUOUS
10
195.581
20
-64.425
11
194.056
21
-64.425
0
LINE
8
BLACK
6
CONTINUOUS
10
203.157
20
-66.24
11
203.157
21
-69.025
0
LINE
8
BLACK
6
CONTINUOUS
10
171.779
20
-66.24
11
170.954
21
-66.24
0
LINE
8
BLACK
6
CONTINUOUS
10
171.779
20
-72.255
11
178.529
21
-72.255
0
LINE
8
BLACK
6
CONTINUOUS
10
200.607
20
-58.755
11
197.307
21
-58.755
0
LINE
8
BLACK
6
CONTINUOUS
10
200.607
20
-59.955
11
200.607
21
-58.755
0
LINE
8
BLACK
6
CONTINUOUS
10
195.581
20
-69.025
11
194.056
21
-69.025
0
LINE
8
BLACK
6
CONTINUOUS
10
197.307
20
-59.955
11
197.307
21
-58.755
0
LINE
8
BLACK
6
CONTINUOUS
10
202.332
20
-59.955
11
200.607
21
-59.955
0
LINE
8
BLACK
6
CONTINUOUS
10
171.779
20
-59.955
11
173.504
21
-59.955
0
LINE
8
BLACK
6
CONTINUOUS
10
173.504
20
-59.955
11
173.504
21
-58.755
0
LINE
8
BLACK
6
CONTINUOUS
10
170.954
20
-66.24
11
170.954
21
-69.025
0
LINE
8
BLACK
6
CONTINUOUS
10
173.504
20
-58.755
11
176.804
21
-58.755
0
LINE
8
BLACK
6
CONTINUOUS
10
171.779
20
-72.255
11
171.779
21
-69.025
0
LINE
8
BLACK
6
CONTINUOUS
10
202.332
20
-69.025
11
203.157
21
-69.025
0
LINE
8
BLACK
6
CONTINUOUS
10
206.894
20
-74.3543
11
206.894
21
-73.7352
0
LINE
8
BLACK
6
CONTINUOUS
10
206.894
20
-73.7352
11
207.275
21
-74.0686
0
LINE
8
BLACK
6
CONTINUOUS
10
207.275
20
-74.0686
11
207.275
21
-73.9257
0
LINE
8
BLACK
6
CONTINUOUS
10
207.275
20
-73.9257
11
207.323
21
-73.8305
0
LINE
8
BLACK
6
CONTINUOUS
10
207.323
20
-73.8305
11
207.37
21
-73.7829
0
LINE
8
BLACK
6
CONTINUOUS
10
207.37
20
-73.7829
11
207.466
21
-73.7352
0
LINE
8
BLACK
6
CONTINUOUS
10
207.466
20
-73.7352
11
207.704
21
-73.7352
0
LINE
8
BLACK
6
CONTINUOUS
10
207.704
20
-73.7352
11
207.799
21
-73.7829
0
LINE
8
BLACK
6
CONTINUOUS
10
207.799
20
-73.7829
11
207.847
21
-73.8305
0
LINE
8
BLACK
6
CONTINUOUS
10
207.847
20
-73.8305
11
207.894
21
-73.9257
0
LINE
8
BLACK
6
CONTINUOUS
10
207.894
20
-73.9257
11
207.894
21
-74.2114
0
LINE
8
BLACK
6
CONTINUOUS
10
207.894
20
-74.2114
11
207.847
21
-74.3067
0
LINE
8
BLACK
6
CONTINUOUS
10
207.847
20
-74.3067
11
207.799
21
-74.3543
0
LINE
8
BLACK
6
CONTINUOUS
10
207.799
20
-73.3067
11
207.847
21
-73.259
0
LINE
8
BLACK
6
CONTINUOUS
10
207.847
20
-73.259
11
207.894
21
-73.3067
0
LINE
8
BLACK
6
CONTINUOUS
10
207.894
20
-73.3067
11
207.847
21
-73.3543
0
LINE
8
BLACK
6
CONTINUOUS
10
207.847
20
-73.3543
11
207.799
21
-73.3067
0
LINE
8
BLACK
6
CONTINUOUS
10
207.799
20
-73.3067
11
207.894
21
-73.3067
0
LINE
8
BLACK
6
CONTINUOUS
10
206.989
20
-72.8781
11
206.942
21
-72.8305
0
LINE
8
BLACK
6
CONTINUOUS
10
206.942
20
-72.8305
11
206.894
21
-72.7352
0
LINE
8
BLACK
6
CONTINUOUS
10
206.894
20
-72.7352
11
206.894
21
-72.4971
0
LINE
8
BLACK
6
CONTINUOUS
10
206.894
20
-72.4971
11
206.942
21
-72.4019
0
LINE
8
BLACK
6
CONTINUOUS
10
206.942
20
-72.4019
11
206.989
21
-72.3543
0
LINE
8
BLACK
6
CONTINUOUS
10
206.989
20
-72.3543
11
207.085
21
-72.3067
0
LINE
8
BLACK
6
CONTINUOUS
10
207.085
20
-72.3067
11
207.18
21
-72.3067
0
LINE
8
BLACK
6
CONTINUOUS
10
207.18
20
-72.3067
11
207.323
21
-72.3543
0
LINE
8
BLACK
6
CONTINUOUS
10
207.323
20
-72.3543
11
207.894
21
-72.9257
0
LINE
8
BLACK
6
CONTINUOUS
10
207.894
20
-72.9257
11
207.894
21
-72.3067
0
LINE
8
BLACK
6
CONTINUOUS
10
206.894
20
-71.9733
11
206.894
21
-71.3543
0
LINE
8
BLACK
6
CONTINUOUS
10
206.894
20
-71.3543
11
207.275
21
-71.6876
0
LINE
8
BLACK
6
CONTINUOUS
10
207.275
20
-71.6876
11
207.275
21
-71.5448
0
LINE
8
BLACK
6
CONTINUOUS
10
207.275
20
-71.5448
11
207.323
21
-71.4495
0
LINE
8
BLACK
6
CONTINUOUS
10
207.323
20
-71.4495
11
207.37
21
-71.4019
0
LINE
8
BLACK
6
CONTINUOUS
10
207.37
20
-71.4019
11
207.466
21
-71.3543
0
LINE
8
BLACK
6
CONTINUOUS
10
207.466
20
-71.3543
11
207.704
21
-71.3543
0
LINE
8
BLACK
6
CONTINUOUS
10
207.704
20
-71.3543
11
207.799
21
-71.4019
0
LINE
8
BLACK
6
CONTINUOUS
10
207.799
20
-71.4019
11
207.847
21
-71.4495
0
LINE
8
BLACK
6
CONTINUOUS
10
207.847
20
-71.4495
11
207.894
21
-71.5448
0
LINE
8
BLACK
6
CONTINUOUS
10
207.894
20
-71.5448
11
207.894
21
-71.8305
0
LINE
8
BLACK
6
CONTINUOUS
10
207.894
20
-71.8305
11
207.847
21
-71.9257
0
LINE
8
BLACK
6
CONTINUOUS
10
207.847
20
-71.9257
11
207.799
21
-71.9733
0
LINE
8
BLACK
6
CONTINUOUS
10
206.894
20
-70.7352
11
206.894
21
-70.64
0
LINE
8
BLACK
6
CONTINUOUS
10
206.894
20
-70.64
11
206.942
21
-70.5448
0
LINE
8
BLACK
6
CONTINUOUS
10
206.942
20
-70.5448
11
206.989
21
-70.4971
0
LINE
8
BLACK
6
CONTINUOUS
10
206.989
20
-70.4971
11
207.085
21
-70.4495
0
LINE
8
BLACK
6
CONTINUOUS
10
207.085
20
-70.4495
11
207.275
21
-70.4019
0
LINE
8
BLACK
6
CONTINUOUS
10
207.275
20
-70.4019
11
207.513
21
-70.4019
0
LINE
8
BLACK
6
CONTINUOUS
10
207.513
20
-70.4019
11
207.704
21
-70.4495
0
LINE
8
BLACK
6
CONTINUOUS
10
207.704
20
-70.4495
11
207.799
21
-70.4971
0
LINE
8
BLACK
6
CONTINUOUS
10
207.799
20
-70.4971
11
207.847
21
-70.5448
0
LINE
8
BLACK
6
CONTINUOUS
10
207.847
20
-70.5448
11
207.894
21
-70.64
0
LINE
8
BLACK
6
CONTINUOUS
10
207.894
20
-70.64
11
207.894
21
-70.7352
0
LINE
8
BLACK
6
CONTINUOUS
10
207.894
20
-70.7352
11
207.847
21
-70.8305
0
LINE
8
BLACK
6
CONTINUOUS
10
207.847
20
-70.8305
11
207.799
21
-70.8781
0
LINE
8
BLACK
6
CONTINUOUS
10
207.799
20
-70.8781
11
207.704
21
-70.9257
0
LINE
8
BLACK
6
CONTINUOUS
10
207.704
20
-70.9257
11
207.513
21
-70.9733
0
LINE
8
BLACK
6
CONTINUOUS
10
207.513
20
-70.9733
11
207.275
21
-70.9733
0
LINE
8
BLACK
6
CONTINUOUS
10
207.275
20
-70.9733
11
207.085
21
-70.9257
0
LINE
8
BLACK
6
CONTINUOUS
10
207.085
20
-70.9257
11
206.989
21
-70.8781
0
LINE
8
BLACK
6
CONTINUOUS
10
206.989
20
-70.8781
11
206.942
21
-70.8305
0
LINE
8
BLACK
6
CONTINUOUS
10
206.942
20
-70.8305
11
206.894
21
-70.7352
0
LINE
8
BLACK
6
CONTINUOUS
10
207.894
20
-69.2114
11
207.227
21
-69.2114
0
LINE
8
BLACK
6
CONTINUOUS
10
207.323
20
-69.2114
11
207.275
21
-69.1638
0
LINE
8
BLACK
6
CONTINUOUS
10
207.275
20
-69.1638
11
207.227
21
-69.0686
0
LINE
8
BLACK
6
CONTINUOUS
10
207.227
20
-69.0686
11
207.227
21
-68.9257
0
LINE
8
BLACK
6
CONTINUOUS
10
207.227
20
-68.9257
11
207.275
21
-68.8305
0
LINE
8
BLACK
6
CONTINUOUS
10
207.275
20
-68.8305
11
207.37
21
-68.7829
0
LINE
8
BLACK
6
CONTINUOUS
10
207.37
20
-68.7829
11
207.894
21
-68.7829
0
LINE
8
BLACK
6
CONTINUOUS
10
207.37
20
-68.7829
11
207.275
21
-68.7352
0
LINE
8
BLACK
6
CONTINUOUS
10
207.275
20
-68.7352
11
207.227
21
-68.64
0
LINE
8
BLACK
6
CONTINUOUS
10
207.227
20
-68.64
11
207.227
21
-68.4971
0
LINE
8
BLACK
6
CONTINUOUS
10
207.227
20
-68.4971
11
207.275
21
-68.4019
0
LINE
8
BLACK
6
CONTINUOUS
10
207.275
20
-68.4019
11
207.37
21
-68.3543
0
LINE
8
BLACK
6
CONTINUOUS
10
207.37
20
-68.3543
11
207.894
21
-68.3543
0
LINE
8
BLACK
6
CONTINUOUS
10
207.894
20
-67.8781
11
207.227
21
-67.8781
0
LINE
8
BLACK
6
CONTINUOUS
10
207.323
20
-67.8781
11
207.275
21
-67.8305
0
LINE
8
BLACK
6
CONTINUOUS
10
207.275
20
-67.8305
11
207.227
21
-67.7352
0
LINE
8
BLACK
6
CONTINUOUS
10
207.227
20
-67.7352
11
207.227
21
-67.5924
0
LINE
8
BLACK
6
CONTINUOUS
10
207.227
20
-67.5924
11
207.275
21
-67.4971
0
LINE
8
BLACK
6
CONTINUOUS
10
207.275
20
-67.4971
11
207.37
21
-67.4495
0
LINE
8
BLACK
6
CONTINUOUS
10
207.37
20
-67.4495
11
207.894
21
-67.4495
0
LINE
8
BLACK
6
CONTINUOUS
10
207.37
20
-67.4495
11
207.275
21
-67.4019
0
LINE
8
BLACK
6
CONTINUOUS
10
207.275
20
-67.4019
11
207.227
21
-67.3067
0
LINE
8
BLACK
6
CONTINUOUS
10
207.227
20
-67.3067
11
207.227
21
-67.1638
0
LINE
8
BLACK
6
CONTINUOUS
10
207.227
20
-67.1638
11
207.275
21
-67.0686
0
LINE
8
BLACK
6
CONTINUOUS
10
207.275
20
-67.0686
11
207.37
21
-67.021
0
LINE
8
BLACK
6
CONTINUOUS
10
207.37
20
-67.021
11
207.894
21
-67.021
0
LINE
8
BLACK
6
CONTINUOUS
10
206.242
20
-72.255
11
206.242
21
-69.025
0
LINE
8
BLACK
6
CONTINUOUS
10
204.332
20
-72.255
11
206.828
21
-72.255
0
LINE
8
BLACK
6
CONTINUOUS
10
204.332
20
-69.025
11
206.828
21
-69.025
0
LINE
8
BLACK
6
CONTINUOUS
10
206.242
20
-69.025
11
206.828
21
-70.1515
0
LINE
8
BLACK
6
CONTINUOUS
10
206.242
20
-69.025
11
205.655
21
-70.1515
0
LINE
8
BLACK
6
CONTINUOUS
10
206.242
20
-72.255
11
206.828
21
-71.1285
0
LINE
8
BLACK
6
CONTINUOUS
10
206.242
20
-72.255
11
205.655
21
-71.1285
0
LINE
8
BLACK
6
CONTINUOUS
10
191.723
20
-77.4874
11
191.152
21
-77.4874
0
LINE
8
BLACK
6
CONTINUOUS
10
191.438
20
-77.4874
11
191.438
21
-76.4874
0
LINE
8
BLACK
6
CONTINUOUS
10
191.438
20
-76.4874
11
191.342
21
-76.6302
0
LINE
8
BLACK
6
CONTINUOUS
10
191.342
20
-76.6302
11
191.247
21
-76.7255
0
LINE
8
BLACK
6
CONTINUOUS
10
191.247
20
-76.7255
11
191.152
21
-76.7731
0
LINE
8
BLACK
6
CONTINUOUS
10
192.152
20
-77.3921
11
192.199
21
-77.4398
0
LINE
8
BLACK
6
CONTINUOUS
10
192.199
20
-77.4398
11
192.152
21
-77.4874
0
LINE
8
BLACK
6
CONTINUOUS
10
192.152
20
-77.4874
11
192.104
21
-77.4398
0
LINE
8
BLACK
6
CONTINUOUS
10
192.104
20
-77.4398
11
192.152
21
-77.3921
0
LINE
8
BLACK
6
CONTINUOUS
10
192.152
20
-77.3921
11
192.152
21
-77.4874
0
LINE
8
BLACK
6
CONTINUOUS
10
193.104
20
-76.4874
11
192.628
21
-76.4874
0
LINE
8
BLACK
6
CONTINUOUS
10
192.628
20
-76.4874
11
192.58
21
-76.9636
0
LINE
8
BLACK
6
CONTINUOUS
10
192.58
20
-76.9636
11
192.628
21
-76.916
0
LINE
8
BLACK
6
CONTINUOUS
10
192.628
20
-76.916
11
192.723
21
-76.8683
0
LINE
8
BLACK
6
CONTINUOUS
10
192.723
20
-76.8683
11
192.961
21
-76.8683
0
LINE
8
BLACK
6
CONTINUOUS
10
192.961
20
-76.8683
11
193.057
21
-76.916
0
LINE
8
BLACK
6
CONTINUOUS
10
193.057
20
-76.916
11
193.104
21
-76.9636
0
LINE
8
BLACK
6
CONTINUOUS
10
193.104
20
-76.9636
11
193.152
21
-77.0588
0
LINE
8
BLACK
6
CONTINUOUS
10
193.152
20
-77.0588
11
193.152
21
-77.2969
0
LINE
8
BLACK
6
CONTINUOUS
10
193.152
20
-77.2969
11
193.104
21
-77.3921
0
LINE
8
BLACK
6
CONTINUOUS
10
193.104
20
-77.3921
11
193.057
21
-77.4398
0
LINE
8
BLACK
6
CONTINUOUS
10
193.057
20
-77.4398
11
192.961
21
-77.4874
0
LINE
8
BLACK
6
CONTINUOUS
10
192.961
20
-77.4874
11
192.723
21
-77.4874
0
LINE
8
BLACK
6
CONTINUOUS
10
192.723
20
-77.4874
11
192.628
21
-77.4398
0
LINE
8
BLACK
6
CONTINUOUS
10
192.628
20
-77.4398
11
192.58
21
-77.3921
0
LINE
8
BLACK
6
CONTINUOUS
10
193.533
20
-76.5826
11
193.58
21
-76.535
0
LINE
8
BLACK
6
CONTINUOUS
10
193.58
20
-76.535
11
193.676
21
-76.4874
0
LINE
8
BLACK
6
CONTINUOUS
10
193.676
20
-76.4874
11
193.914
21
-76.4874
0
LINE
8
BLACK
6
CONTINUOUS
10
193.914
20
-76.4874
11
194.009
21
-76.535
0
LINE
8
BLACK
6
CONTINUOUS
10
194.009
20
-76.535
11
194.057
21
-76.5826
0
LINE
8
BLACK
6
CONTINUOUS
10
194.057
20
-76.5826
11
194.104
21
-76.6779
0
LINE
8
BLACK
6
CONTINUOUS
10
194.104
20
-76.6779
11
194.104
21
-76.7731
0
LINE
8
BLACK
6
CONTINUOUS
10
194.104
20
-76.7731
11
194.057
21
-76.916
0
LINE
8
BLACK
6
CONTINUOUS
10
194.057
20
-76.916
11
193.485
21
-77.4874
0
LINE
8
BLACK
6
CONTINUOUS
10
193.485
20
-77.4874
11
194.104
21
-77.4874
0
LINE
8
BLACK
6
CONTINUOUS
10
195.009
20
-76.4874
11
194.533
21
-76.4874
0
LINE
8
BLACK
6
CONTINUOUS
10
194.533
20
-76.4874
11
194.485
21
-76.9636
0
LINE
8
BLACK
6
CONTINUOUS
10
194.485
20
-76.9636
11
194.533
21
-76.916
0
LINE
8
BLACK
6
CONTINUOUS
10
194.533
20
-76.916
11
194.628
21
-76.8683
0
LINE
8
BLACK
6
CONTINUOUS
10
194.628
20
-76.8683
11
194.866
21
-76.8683
0
LINE
8
BLACK
6
CONTINUOUS
10
194.866
20
-76.8683
11
194.961
21
-76.916
0
LINE
8
BLACK
6
CONTINUOUS
10
194.961
20
-76.916
11
195.009
21
-76.9636
0
LINE
8
BLACK
6
CONTINUOUS
10
195.009
20
-76.9636
11
195.057
21
-77.0588
0
LINE
8
BLACK
6
CONTINUOUS
10
195.057
20
-77.0588
11
195.057
21
-77.2969
0
LINE
8
BLACK
6
CONTINUOUS
10
195.057
20
-77.2969
11
195.009
21
-77.3921
0
LINE
8
BLACK
6
CONTINUOUS
10
195.009
20
-77.3921
11
194.961
21
-77.4398
0
LINE
8
BLACK
6
CONTINUOUS
10
194.961
20
-77.4398
11
194.866
21
-77.4874
0
LINE
8
BLACK
6
CONTINUOUS
10
194.866
20
-77.4874
11
194.628
21
-77.4874
0
LINE
8
BLACK
6
CONTINUOUS
10
194.628
20
-77.4874
11
194.533
21
-77.4398
0
LINE
8
BLACK
6
CONTINUOUS
10
194.533
20
-77.4398
11
194.485
21
-77.3921
0
LINE
8
BLACK
6
CONTINUOUS
10
196.247
20
-77.4874
11
196.247
21
-76.8207
0
LINE
8
BLACK
6
CONTINUOUS
10
196.247
20
-76.916
11
196.295
21
-76.8683
0
LINE
8
BLACK
6
CONTINUOUS
10
196.295
20
-76.8683
11
196.39
21
-76.8207
0
LINE
8
BLACK
6
CONTINUOUS
10
196.39
20
-76.8207
11
196.533
21
-76.8207
0
LINE
8
BLACK
6
CONTINUOUS
10
196.533
20
-76.8207
11
196.628
21
-76.8683
0
LINE
8
BLACK
6
CONTINUOUS
10
196.628
20
-76.8683
11
196.676
21
-76.9636
0
LINE
8
BLACK
6
CONTINUOUS
10
196.676
20
-76.9636
11
196.676
21
-77.4874
0
LINE
8
BLACK
6
CONTINUOUS
10
196.676
20
-76.9636
11
196.723
21
-76.8683
0
LINE
8
BLACK
6
CONTINUOUS
10
196.723
20
-76.8683
11
196.819
21
-76.8207
0
LINE
8
BLACK
6
CONTINUOUS
10
196.819
20
-76.8207
11
196.961
21
-76.8207
0
LINE
8
BLACK
6
CONTINUOUS
10
196.961
20
-76.8207
11
197.057
21
-76.8683
0
LINE
8
BLACK
6
CONTINUOUS
10
197.057
20
-76.8683
11
197.104
21
-76.9636
0
LINE
8
BLACK
6
CONTINUOUS
10
197.104
20
-76.9636
11
197.104
21
-77.4874
0
LINE
8
BLACK
6
CONTINUOUS
10
197.58
20
-77.4874
11
197.58
21
-76.8207
0
LINE
8
BLACK
6
CONTINUOUS
10
197.58
20
-76.916
11
197.628
21
-76.8683
0
LINE
8
BLACK
6
CONTINUOUS
10
197.628
20
-76.8683
11
197.723
21
-76.8207
0
LINE
8
BLACK
6
CONTINUOUS
10
197.723
20
-76.8207
11
197.866
21
-76.8207
0
LINE
8
BLACK
6
CONTINUOUS
10
197.866
20
-76.8207
11
197.961
21
-76.8683
0
LINE
8
BLACK
6
CONTINUOUS
10
197.961
20
-76.8683
11
198.009
21
-76.9636
0
LINE
8
BLACK
6
CONTINUOUS
10
198.009
20
-76.9636
11
198.009
21
-77.4874
0
LINE
8
BLACK
6
CONTINUOUS
10
198.009
20
-76.9636
11
198.057
21
-76.8683
0
LINE
8
BLACK
6
CONTINUOUS
10
198.057
20
-76.8683
11
198.152
21
-76.8207
0
LINE
8
BLACK
6
CONTINUOUS
10
198.152
20
-76.8207
11
198.295
21
-76.8207
0
LINE
8
BLACK
6
CONTINUOUS
10
198.295
20
-76.8207
11
198.39
21
-76.8683
0
LINE
8
BLACK
6
CONTINUOUS
10
198.39
20
-76.8683
11
198.438
21
-76.9636
0
LINE
8
BLACK
6
CONTINUOUS
10
198.438
20
-76.9636
11
198.438
21
-77.4874
0
LINE
8
BLACK
6
CONTINUOUS
10
194.056
20
-75.835
11
195.581
21
-75.835
0
LINE
8
BLACK
6
CONTINUOUS
10
194.056
20
-75.835
11
194.056
21
-76.4214
0
LINE
8
BLACK
6
CONTINUOUS
10
195.581
20
-75.835
11
195.581
21
-76.4214
0
LINE
8
BLACK
6
CONTINUOUS
10
195.581
20
-75.835
11
194.454
21
-76.4214
0
LINE
8
BLACK
6
CONTINUOUS
10
195.581
20
-75.835
11
194.454
21
-75.2486
0
LINE
8
BLACK
6
CONTINUOUS
10
194.056
20
-75.835
11
195.183
21
-76.4214
0
LINE
8
BLACK
6
CONTINUOUS
10
194.056
20
-75.835
11
195.183
21
-75.2486
0
LINE
8
BLACK
6
CONTINUOUS
10
168.994
20
-69.6764
11
168.994
21
-70.2479
0
LINE
8
BLACK
6
CONTINUOUS
10
168.994
20
-69.9621
11
167.994
21
-69.9621
0
LINE
8
BLACK
6
CONTINUOUS
10
167.994
20
-69.9621
11
168.137
21
-70.0574
0
LINE
8
BLACK
6
CONTINUOUS
10
168.137
20
-70.0574
11
168.232
21
-70.1526
0
LINE
8
BLACK
6
CONTINUOUS
10
168.232
20
-70.1526
11
168.28
21
-70.2479
0
LINE
8
BLACK
6
CONTINUOUS
10
168.089
20
-69.2955
11
168.042
21
-69.2479
0
LINE
8
BLACK
6
CONTINUOUS
10
168.042
20
-69.2479
11
167.994
21
-69.1526
0
LINE
8
BLACK
6
CONTINUOUS
10
167.994
20
-69.1526
11
167.994
21
-68.9145
0
LINE
8
BLACK
6
CONTINUOUS
10
167.994
20
-68.9145
11
168.042
21
-68.8193
0
LINE
8
BLACK
6
CONTINUOUS
10
168.042
20
-68.8193
11
168.089
21
-68.7717
0
LINE
8
BLACK
6
CONTINUOUS
10
168.089
20
-68.7717
11
168.185
21
-68.724
0
LINE
8
BLACK
6
CONTINUOUS
10
168.185
20
-68.724
11
168.28
21
-68.724
0
LINE
8
BLACK
6
CONTINUOUS
10
168.28
20
-68.724
11
168.423
21
-68.7717
0
LINE
8
BLACK
6
CONTINUOUS
10
168.423
20
-68.7717
11
168.994
21
-69.3431
0
LINE
8
BLACK
6
CONTINUOUS
10
168.994
20
-69.3431
11
168.994
21
-68.724
0
LINE
8
BLACK
6
CONTINUOUS
10
168.899
20
-68.2955
11
168.947
21
-68.2479
0
LINE
8
BLACK
6
CONTINUOUS
10
168.947
20
-68.2479
11
168.994
21
-68.2955
0
LINE
8
BLACK
6
CONTINUOUS
10
168.994
20
-68.2955
11
168.947
21
-68.3431
0
LINE
8
BLACK
6
CONTINUOUS
10
168.947
20
-68.3431
11
168.899
21
-68.2955
0
LINE
8
BLACK
6
CONTINUOUS
10
168.899
20
-68.2955
11
168.994
21
-68.2955
0
LINE
8
BLACK
6
CONTINUOUS
10
167.994
20
-67.9145
11
167.994
21
-67.2955
0
LINE
8
BLACK
6
CONTINUOUS
10
167.994
20
-67.2955
11
168.375
21
-67.6288
0
LINE
8
BLACK
6
CONTINUOUS
10
168.375
20
-67.6288
11
168.375
21
-67.486
0
LINE
8
BLACK
6
CONTINUOUS
10
168.375
20
-67.486
11
168.423
21
-67.3907
0
LINE
8
BLACK
6
CONTINUOUS
10
168.423
20
-67.3907
11
168.47
21
-67.3431
0
LINE
8
BLACK
6
CONTINUOUS
10
168.47
20
-67.3431
11
168.566
21
-67.2955
0
LINE
8
BLACK
6
CONTINUOUS
10
168.566
20
-67.2955
11
168.804
21
-67.2955
0
LINE
8
BLACK
6
CONTINUOUS
10
168.804
20
-67.2955
11
168.899
21
-67.3431
0
LINE
8
BLACK
6
CONTINUOUS
10
168.899
20
-67.3431
11
168.947
21
-67.3907
0
LINE
8
BLACK
6
CONTINUOUS
10
168.947
20
-67.3907
11
168.994
21
-67.486
0
LINE
8
BLACK
6
CONTINUOUS
10
168.994
20
-67.486
11
168.994
21
-67.7717
0
LINE
8
BLACK
6
CONTINUOUS
10
168.994
20
-67.7717
11
168.947
21
-67.8669
0
LINE
8
BLACK
6
CONTINUOUS
10
168.947
20
-67.8669
11
168.899
21
-67.9145
0
LINE
8
BLACK
6
CONTINUOUS
10
167.994
20
-66.6764
11
167.994
21
-66.5812
0
LINE
8
BLACK
6
CONTINUOUS
10
167.994
20
-66.5812
11
168.042
21
-66.486
0
LINE
8
BLACK
6
CONTINUOUS
10
168.042
20
-66.486
11
168.089
21
-66.4383
0
LINE
8
BLACK
6
CONTINUOUS
10
168.089
20
-66.4383
11
168.185
21
-66.3907
0
LINE
8
BLACK
6
CONTINUOUS
10
168.185
20
-66.3907
11
168.375
21
-66.3431
0
LINE
8
BLACK
6
CONTINUOUS
10
168.375
20
-66.3431
11
168.613
21
-66.3431
0
LINE
8
BLACK
6
CONTINUOUS
10
168.613
20
-66.3431
11
168.804
21
-66.3907
0
LINE
8
BLACK
6
CONTINUOUS
10
168.804
20
-66.3907
11
168.899
21
-66.4383
0
LINE
8
BLACK
6
CONTINUOUS
10
168.899
20
-66.4383
11
168.947
21
-66.486
0
LINE
8
BLACK
6
CONTINUOUS
10
168.947
20
-66.486
11
168.994
21
-66.5812
0
LINE
8
BLACK
6
CONTINUOUS
10
168.994
20
-66.5812
11
168.994
21
-66.6764
0
LINE
8
BLACK
6
CONTINUOUS
10
168.994
20
-66.6764
11
168.947
21
-66.7717
0
LINE
8
BLACK
6
CONTINUOUS
10
168.947
20
-66.7717
11
168.899
21
-66.8193
0
LINE
8
BLACK
6
CONTINUOUS
10
168.899
20
-66.8193
11
168.804
21
-66.8669
0
LINE
8
BLACK
6
CONTINUOUS
10
168.804
20
-66.8669
11
168.613
21
-66.9145
0
LINE
8
BLACK
6
CONTINUOUS
10
168.613
20
-66.9145
11
168.375
21
-66.9145
0
LINE
8
BLACK
6
CONTINUOUS
10
168.375
20
-66.9145
11
168.185
21
-66.8669
0
LINE
8
BLACK
6
CONTINUOUS
10
168.185
20
-66.8669
11
168.089
21
-66.8193
0
LINE
8
BLACK
6
CONTINUOUS
10
168.089
20
-66.8193
11
168.042
21
-66.7717
0
LINE
8
BLACK
6
CONTINUOUS
10
168.042
20
-66.7717
11
167.994
21
-66.6764
0
LINE
8
BLACK
6
CONTINUOUS
10
167.994
20
-65.724
11
167.994
21
-65.6288
0
LINE
8
BLACK
6
CONTINUOUS
10
167.994
20
-65.6288
11
168.042
21
-65.5336
0
LINE
8
BLACK
6
CONTINUOUS
10
168.042
20
-65.5336
11
168.089
21
-65.486
0
LINE
8
BLACK
6
CONTINUOUS
10
168.089
20
-65.486
11
168.185
21
-65.4383
0
LINE
8
BLACK
6
CONTINUOUS
10
168.185
20
-65.4383
11
168.375
21
-65.3907
0
LINE
8
BLACK
6
CONTINUOUS
10
168.375
20
-65.3907
11
168.613
21
-65.3907
0
LINE
8
BLACK
6
CONTINUOUS
10
168.613
20
-65.3907
11
168.804
21
-65.4383
0
LINE
8
BLACK
6
CONTINUOUS
10
168.804
20
-65.4383
11
168.899
21
-65.486
0
LINE
8
BLACK
6
CONTINUOUS
10
168.899
20
-65.486
11
168.947
21
-65.5336
0
LINE
8
BLACK
6
CONTINUOUS
10
168.947
20
-65.5336
11
168.994
21
-65.6288
0
LINE
8
BLACK
6
CONTINUOUS
10
168.994
20
-65.6288
11
168.994
21
-65.724
0
LINE
8
BLACK
6
CONTINUOUS
10
168.994
20
-65.724
11
168.947
21
-65.8193
0
LINE
8
BLACK
6
CONTINUOUS
10
168.947
20
-65.8193
11
168.899
21
-65.8669
0
LINE
8
BLACK
6
CONTINUOUS
10
168.899
20
-65.8669
11
168.804
21
-65.9145
0
LINE
8
BLACK
6
CONTINUOUS
10
168.804
20
-65.9145
11
168.613
21
-65.9621
0
LINE
8
BLACK
6
CONTINUOUS
10
168.613
20
-65.9621
11
168.375
21
-65.9621
0
LINE
8
BLACK
6
CONTINUOUS
10
168.375
20
-65.9621
11
168.185
21
-65.9145
0
LINE
8
BLACK
6
CONTINUOUS
10
168.185
20
-65.9145
11
168.089
21
-65.8669
0
LINE
8
BLACK
6
CONTINUOUS
10
168.089
20
-65.8669
11
168.042
21
-65.8193
0
LINE
8
BLACK
6
CONTINUOUS
10
168.042
20
-65.8193
11
167.994
21
-65.724
0
LINE
8
BLACK
6
CONTINUOUS
10
168.994
20
-64.2002
11
168.327
21
-64.2002
0
LINE
8
BLACK
6
CONTINUOUS
10
168.423
20
-64.2002
11
168.375
21
-64.1526
0
LINE
8
BLACK
6
CONTINUOUS
10
168.375
20
-64.1526
11
168.327
21
-64.0574
0
LINE
8
BLACK
6
CONTINUOUS
10
168.327
20
-64.0574
11
168.327
21
-63.9145
0
LINE
8
BLACK
6
CONTINUOUS
10
168.327
20
-63.9145
11
168.375
21
-63.8193
0
LINE
8
BLACK
6
CONTINUOUS
10
168.375
20
-63.8193
11
168.47
21
-63.7717
0
LINE
8
BLACK
6
CONTINUOUS
10
168.47
20
-63.7717
11
168.994
21
-63.7717
0
LINE
8
BLACK
6
CONTINUOUS
10
168.47
20
-63.7717
11
168.375
21
-63.724
0
LINE
8
BLACK
6
CONTINUOUS
10
168.375
20
-63.724
11
168.327
21
-63.6288
0
LINE
8
BLACK
6
CONTINUOUS
10
168.327
20
-63.6288
11
168.327
21
-63.486
0
LINE
8
BLACK
6
CONTINUOUS
10
168.327
20
-63.486
11
168.375
21
-63.3907
0
LINE
8
BLACK
6
CONTINUOUS
10
168.375
20
-63.3907
11
168.47
21
-63.3431
0
LINE
8
BLACK
6
CONTINUOUS
10
168.47
20
-63.3431
11
168.994
21
-63.3431
0
LINE
8
BLACK
6
CONTINUOUS
10
168.994
20
-62.8669
11
168.327
21
-62.8669
0
LINE
8
BLACK
6
CONTINUOUS
10
168.423
20
-62.8669
11
168.375
21
-62.8193
0
LINE
8
BLACK
6
CONTINUOUS
10
168.375
20
-62.8193
11
168.327
21
-62.724
0
LINE
8
BLACK
6
CONTINUOUS
10
168.327
20
-62.724
11
168.327
21
-62.5812
0
LINE
8
BLACK
6
CONTINUOUS
10
168.327
20
-62.5812
11
168.375
21
-62.486
0
LINE
8
BLACK
6
CONTINUOUS
10
168.375
20
-62.486
11
168.47
21
-62.4383
0
LINE
8
BLACK
6
CONTINUOUS
10
168.47
20
-62.4383
11
168.994
21
-62.4383
0
LINE
8
BLACK
6
CONTINUOUS
10
168.47
20
-62.4383
11
168.375
21
-62.3907
0
LINE
8
BLACK
6
CONTINUOUS
10
168.375
20
-62.3907
11
168.327
21
-62.2955
0
LINE
8
BLACK
6
CONTINUOUS
10
168.327
20
-62.2955
11
168.327
21
-62.1526
0
LINE
8
BLACK
6
CONTINUOUS
10
168.327
20
-62.1526
11
168.375
21
-62.0574
0
LINE
8
BLACK
6
CONTINUOUS
10
168.375
20
-62.0574
11
168.47
21
-62.0098
0
LINE
8
BLACK
6
CONTINUOUS
10
168.47
20
-62.0098
11
168.994
21
-62.0098
0
LINE
8
BLACK
6
CONTINUOUS
10
169.742
20
-59.955
11
169.742
21
-72.255
0
LINE
8
BLACK
6
CONTINUOUS
10
170.779
20
-59.955
11
169.155
21
-59.955
0
LINE
8
BLACK
6
CONTINUOUS
10
170.779
20
-72.255
11
169.155
21
-72.255
0
LINE
8
BLACK
6
CONTINUOUS
10
169.742
20
-72.255
11
169.155
21
-71.1285
0
LINE
8
BLACK
6
CONTINUOUS
10
169.742
20
-72.255
11
170.328
21
-71.1285
0
LINE
8
BLACK
6
CONTINUOUS
10
169.742
20
-59.955
11
169.155
21
-61.0815
0
LINE
8
BLACK
6
CONTINUOUS
10
169.742
20
-59.955
11
170.328
21
-61.0815
0
LINE
8
BLACK
6
CONTINUOUS
10
176.198
20
-77.1274
11
175.627
21
-77.1274
0
LINE
8
BLACK
6
CONTINUOUS
10
175.912
20
-77.1274
11
175.912
21
-76.1274
0
LINE
8
BLACK
6
CONTINUOUS
10
175.912
20
-76.1274
11
175.817
21
-76.2702
0
LINE
8
BLACK
6
CONTINUOUS
10
175.817
20
-76.2702
11
175.722
21
-76.3655
0
LINE
8
BLACK
6
CONTINUOUS
10
175.722
20
-76.3655
11
175.627
21
-76.4131
0
LINE
8
BLACK
6
CONTINUOUS
10
176.627
20
-77.0321
11
176.674
21
-77.0798
0
LINE
8
BLACK
6
CONTINUOUS
10
176.674
20
-77.0798
11
176.627
21
-77.1274
0
LINE
8
BLACK
6
CONTINUOUS
10
176.627
20
-77.1274
11
176.579
21
-77.0798
0
LINE
8
BLACK
6
CONTINUOUS
10
176.579
20
-77.0798
11
176.627
21
-77.0321
0
LINE
8
BLACK
6
CONTINUOUS
10
176.627
20
-77.0321
11
176.627
21
-77.1274
0
LINE
8
BLACK
6
CONTINUOUS
10
177.579
20
-76.1274
11
177.103
21
-76.1274
0
LINE
8
BLACK
6
CONTINUOUS
10
177.103
20
-76.1274
11
177.055
21
-76.6036
0
LINE
8
BLACK
6
CONTINUOUS
10
177.055
20
-76.6036
11
177.103
21
-76.556
0
LINE
8
BLACK
6
CONTINUOUS
10
177.103
20
-76.556
11
177.198
21
-76.5083
0
LINE
8
BLACK
6
CONTINUOUS
10
177.198
20
-76.5083
11
177.436
21
-76.5083
0
LINE
8
BLACK
6
CONTINUOUS
10
177.436
20
-76.5083
11
177.531
21
-76.556
0
LINE
8
BLACK
6
CONTINUOUS
10
177.531
20
-76.556
11
177.579
21
-76.6036
0
LINE
8
BLACK
6
CONTINUOUS
10
177.579
20
-76.6036
11
177.627
21
-76.6988
0
LINE
8
BLACK
6
CONTINUOUS
10
177.627
20
-76.6988
11
177.627
21
-76.9369
0
LINE
8
BLACK
6
CONTINUOUS
10
177.627
20
-76.9369
11
177.579
21
-77.0321
0
LINE
8
BLACK
6
CONTINUOUS
10
177.579
20
-77.0321
11
177.531
21
-77.0798
0
LINE
8
BLACK
6
CONTINUOUS
10
177.531
20
-77.0798
11
177.436
21
-77.1274
0
LINE
8
BLACK
6
CONTINUOUS
10
177.436
20
-77.1274
11
177.198
21
-77.1274
0
LINE
8
BLACK
6
CONTINUOUS
10
177.198
20
-77.1274
11
177.103
21
-77.0798
0
LINE
8
BLACK
6
CONTINUOUS
10
177.103
20
-77.0798
11
177.055
21
-77.0321
0
LINE
8
BLACK
6
CONTINUOUS
10
178.008
20
-76.2226
11
178.055
21
-76.175
0
LINE
8
BLACK
6
CONTINUOUS
10
178.055
20
-76.175
11
178.15
21
-76.1274
0
LINE
8
BLACK
6
CONTINUOUS
10
178.15
20
-76.1274
11
178.388
21
-76.1274
0
LINE
8
BLACK
6
CONTINUOUS
10
178.388
20
-76.1274
11
178.484
21
-76.175
0
LINE
8
BLACK
6
CONTINUOUS
10
178.484
20
-76.175
11
178.531
21
-76.2226
0
LINE
8
BLACK
6
CONTINUOUS
10
178.531
20
-76.2226
11
178.579
21
-76.3179
0
LINE
8
BLACK
6
CONTINUOUS
10
178.579
20
-76.3179
11
178.579
21
-76.4131
0
LINE
8
BLACK
6
CONTINUOUS
10
178.579
20
-76.4131
11
178.531
21
-76.556
0
LINE
8
BLACK
6
CONTINUOUS
10
178.531
20
-76.556
11
177.96
21
-77.1274
0
LINE
8
BLACK
6
CONTINUOUS
10
177.96
20
-77.1274
11
178.579
21
-77.1274
0
LINE
8
BLACK
6
CONTINUOUS
10
179.484
20
-76.1274
11
179.008
21
-76.1274
0
LINE
8
BLACK
6
CONTINUOUS
10
179.008
20
-76.1274
11
178.96
21
-76.6036
0
LINE
8
BLACK
6
CONTINUOUS
10
178.96
20
-76.6036
11
179.008
21
-76.556
0
LINE
8
BLACK
6
CONTINUOUS
10
179.008
20
-76.556
11
179.103
21
-76.5083
0
LINE
8
BLACK
6
CONTINUOUS
10
179.103
20
-76.5083
11
179.341
21
-76.5083
0
LINE
8
BLACK
6
CONTINUOUS
10
179.341
20
-76.5083
11
179.436
21
-76.556
0
LINE
8
BLACK
6
CONTINUOUS
10
179.436
20
-76.556
11
179.484
21
-76.6036
0
LINE
8
BLACK
6
CONTINUOUS
10
179.484
20
-76.6036
11
179.531
21
-76.6988
0
LINE
8
BLACK
6
CONTINUOUS
10
179.531
20
-76.6988
11
179.531
21
-76.9369
0
LINE
8
BLACK
6
CONTINUOUS
10
179.531
20
-76.9369
11
179.484
21
-77.0321
0
LINE
8
BLACK
6
CONTINUOUS
10
179.484
20
-77.0321
11
179.436
21
-77.0798
0
LINE
8
BLACK
6
CONTINUOUS
10
179.436
20
-77.0798
11
179.341
21
-77.1274
0
LINE
8
BLACK
6
CONTINUOUS
10
179.341
20
-77.1274
11
179.103
21
-77.1274
0
LINE
8
BLACK
6
CONTINUOUS
10
179.103
20
-77.1274
11
179.008
21
-77.0798
0
LINE
8
BLACK
6
CONTINUOUS
10
179.008
20
-77.0798
11
178.96
21
-77.0321
0
LINE
8
BLACK
6
CONTINUOUS
10
180.722
20
-77.1274
11
180.722
21
-76.4607
0
LINE
8
BLACK
6
CONTINUOUS
10
180.722
20
-76.556
11
180.769
21
-76.5083
0
LINE
8
BLACK
6
CONTINUOUS
10
180.769
20
-76.5083
11
180.865
21
-76.4607
0
LINE
8
BLACK
6
CONTINUOUS
10
180.865
20
-76.4607
11
181.008
21
-76.4607
0
LINE
8
BLACK
6
CONTINUOUS
10
181.008
20
-76.4607
11
181.103
21
-76.5083
0
LINE
8
BLACK
6
CONTINUOUS
10
181.103
20
-76.5083
11
181.15
21
-76.6036
0
LINE
8
BLACK
6
CONTINUOUS
10
181.15
20
-76.6036
11
181.15
21
-77.1274
0
LINE
8
BLACK
6
CONTINUOUS
10
181.15
20
-76.6036
11
181.198
21
-76.5083
0
LINE
8
BLACK
6
CONTINUOUS
10
181.198
20
-76.5083
11
181.293
21
-76.4607
0
LINE
8
BLACK
6
CONTINUOUS
10
181.293
20
-76.4607
11
181.436
21
-76.4607
0
LINE
8
BLACK
6
CONTINUOUS
10
181.436
20
-76.4607
11
181.531
21
-76.5083
0
LINE
8
BLACK
6
CONTINUOUS
10
181.531
20
-76.5083
11
181.579
21
-76.6036
0
LINE
8
BLACK
6
CONTINUOUS
10
181.579
20
-76.6036
11
181.579
21
-77.1274
0
LINE
8
BLACK
6
CONTINUOUS
10
182.055
20
-77.1274
11
182.055
21
-76.4607
0
LINE
8
BLACK
6
CONTINUOUS
10
182.055
20
-76.556
11
182.103
21
-76.5083
0
LINE
8
BLACK
6
CONTINUOUS
10
182.103
20
-76.5083
11
182.198
21
-76.4607
0
LINE
8
BLACK
6
CONTINUOUS
10
182.198
20
-76.4607
11
182.341
21
-76.4607
0
LINE
8
BLACK
6
CONTINUOUS
10
182.341
20
-76.4607
11
182.436
21
-76.5083
0
LINE
8
BLACK
6
CONTINUOUS
10
182.436
20
-76.5083
11
182.484
21
-76.6036
0
LINE
8
BLACK
6
CONTINUOUS
10
182.484
20
-76.6036
11
182.484
21
-77.1274
0
LINE
8
BLACK
6
CONTINUOUS
10
182.484
20
-76.6036
11
182.531
21
-76.5083
0
LINE
8
BLACK
6
CONTINUOUS
10
182.531
20
-76.5083
11
182.627
21
-76.4607
0
LINE
8
BLACK
6
CONTINUOUS
10
182.627
20
-76.4607
11
182.769
21
-76.4607
0
LINE
8
BLACK
6
CONTINUOUS
10
182.769
20
-76.4607
11
182.865
21
-76.5083
0
LINE
8
BLACK
6
CONTINUOUS
10
182.865
20
-76.5083
11
182.912
21
-76.6036
0
LINE
8
BLACK
6
CONTINUOUS
10
182.912
20
-76.6036
11
182.912
21
-77.1274
0
LINE
8
BLACK
6
CONTINUOUS
10
178.531
20
-75.475
11
180.056
21
-75.475
0
LINE
8
BLACK
6
CONTINUOUS
10
178.531
20
-75.475
11
178.531
21
-76.0614
0
LINE
8
BLACK
6
CONTINUOUS
10
180.056
20
-75.475
11
180.056
21
-76.0614
0
LINE
8
BLACK
6
CONTINUOUS
10
180.056
20
-75.475
11
178.929
21
-76.0614
0
LINE
8
BLACK
6
CONTINUOUS
10
180.056
20
-75.475
11
178.929
21
-74.8886
0
LINE
8
BLACK
6
CONTINUOUS
10
178.531
20
-75.475
11
179.657
21
-76.0614
0
LINE
8
BLACK
6
CONTINUOUS
10
178.531
20
-75.475
11
179.657
21
-74.8886
0
LINE
8
BLACK
6
CONTINUOUS
10
195.767
20
-74.3474
11
195.576
21
-74.3474
0
LINE
8
BLACK
6
CONTINUOUS
10
195.576
20
-74.3474
11
195.481
21
-74.395
0
LINE
8
BLACK
6
CONTINUOUS
10
195.481
20
-74.395
11
195.433
21
-74.4426
0
LINE
8
BLACK
6
CONTINUOUS
10
195.433
20
-74.4426
11
195.338
21
-74.5855
0
LINE
8
BLACK
6
CONTINUOUS
10
195.338
20
-74.5855
11
195.291
21
-74.776
0
LINE
8
BLACK
6
CONTINUOUS
10
195.291
20
-74.776
11
195.291
21
-75.1569
0
LINE
8
BLACK
6
CONTINUOUS
10
195.291
20
-75.1569
11
195.338
21
-75.2521
0
LINE
8
BLACK
6
CONTINUOUS
10
195.338
20
-75.2521
11
195.386
21
-75.2998
0
LINE
8
BLACK
6
CONTINUOUS
10
195.386
20
-75.2998
11
195.481
21
-75.3474
0
LINE
8
BLACK
6
CONTINUOUS
10
195.481
20
-75.3474
11
195.672
21
-75.3474
0
LINE
8
BLACK
6
CONTINUOUS
10
195.672
20
-75.3474
11
195.767
21
-75.2998
0
LINE
8
BLACK
6
CONTINUOUS
10
195.767
20
-75.2998
11
195.814
21
-75.2521
0
LINE
8
BLACK
6
CONTINUOUS
10
195.814
20
-75.2521
11
195.862
21
-75.1569
0
LINE
8
BLACK
6
CONTINUOUS
10
195.862
20
-75.1569
11
195.862
21
-74.9188
0
LINE
8
BLACK
6
CONTINUOUS
10
195.862
20
-74.9188
11
195.814
21
-74.8236
0
LINE
8
BLACK
6
CONTINUOUS
10
195.814
20
-74.8236
11
195.767
21
-74.776
0
LINE
8
BLACK
6
CONTINUOUS
10
195.767
20
-74.776
11
195.672
21
-74.7283
0
LINE
8
BLACK
6
CONTINUOUS
10
195.672
20
-74.7283
11
195.481
21
-74.7283
0
LINE
8
BLACK
6
CONTINUOUS
10
195.481
20
-74.7283
11
195.386
21
-74.776
0
LINE
8
BLACK
6
CONTINUOUS
10
195.386
20
-74.776
11
195.338
21
-74.8236
0
LINE
8
BLACK
6
CONTINUOUS
10
195.338
20
-74.8236
11
195.291
21
-74.9188
0
LINE
8
BLACK
6
CONTINUOUS
10
196.291
20
-75.2521
11
196.338
21
-75.2998
0
LINE
8
BLACK
6
CONTINUOUS
10
196.338
20
-75.2998
11
196.291
21
-75.3474
0
LINE
8
BLACK
6
CONTINUOUS
10
196.291
20
-75.3474
11
196.243
21
-75.2998
0
LINE
8
BLACK
6
CONTINUOUS
10
196.243
20
-75.2998
11
196.291
21
-75.2521
0
LINE
8
BLACK
6
CONTINUOUS
10
196.291
20
-75.2521
11
196.291
21
-75.3474
0
LINE
8
BLACK
6
CONTINUOUS
10
196.672
20
-74.3474
11
197.338
21
-74.3474
0
LINE
8
BLACK
6
CONTINUOUS
10
197.338
20
-74.3474
11
196.91
21
-75.3474
0
LINE
8
BLACK
6
CONTINUOUS
10
198.195
20
-74.3474
11
197.719
21
-74.3474
0
LINE
8
BLACK
6
CONTINUOUS
10
197.719
20
-74.3474
11
197.672
21
-74.8236
0
LINE
8
BLACK
6
CONTINUOUS
10
197.672
20
-74.8236
11
197.719
21
-74.776
0
LINE
8
BLACK
6
CONTINUOUS
10
197.719
20
-74.776
11
197.814
21
-74.7283
0
LINE
8
BLACK
6
CONTINUOUS
10
197.814
20
-74.7283
11
198.052
21
-74.7283
0
LINE
8
BLACK
6
CONTINUOUS
10
198.052
20
-74.7283
11
198.148
21
-74.776
0
LINE
8
BLACK
6
CONTINUOUS
10
198.148
20
-74.776
11
198.195
21
-74.8236
0
LINE
8
BLACK
6
CONTINUOUS
10
198.195
20
-74.8236
11
198.243
21
-74.9188
0
LINE
8
BLACK
6
CONTINUOUS
10
198.243
20
-74.9188
11
198.243
21
-75.1569
0
LINE
8
BLACK
6
CONTINUOUS
10
198.243
20
-75.1569
11
198.195
21
-75.2521
0
LINE
8
BLACK
6
CONTINUOUS
10
198.195
20
-75.2521
11
198.148
21
-75.2998
0
LINE
8
BLACK
6
CONTINUOUS
10
198.148
20
-75.2998
11
198.052
21
-75.3474
0
LINE
8
BLACK
6
CONTINUOUS
10
198.052
20
-75.3474
11
197.814
21
-75.3474
0
LINE
8
BLACK
6
CONTINUOUS
10
197.814
20
-75.3474
11
197.719
21
-75.2998
0
LINE
8
BLACK
6
CONTINUOUS
10
197.719
20
-75.2998
11
197.672
21
-75.2521
0
LINE
8
BLACK
6
CONTINUOUS
10
198.862
20
-74.3474
11
198.957
21
-74.3474
0
LINE
8
BLACK
6
CONTINUOUS
10
198.957
20
-74.3474
11
199.052
21
-74.395
0
LINE
8
BLACK
6
CONTINUOUS
10
199.052
20
-74.395
11
199.1
21
-74.4426
0
LINE
8
BLACK
6
CONTINUOUS
10
199.1
20
-74.4426
11
199.148
21
-74.5379
0
LINE
8
BLACK
6
CONTINUOUS
10
199.148
20
-74.5379
11
199.195
21
-74.7283
0
LINE
8
BLACK
6
CONTINUOUS
10
199.195
20
-74.7283
11
199.195
21
-74.9664
0
LINE
8
BLACK
6
CONTINUOUS
10
199.195
20
-74.9664
11
199.148
21
-75.1569
0
LINE
8
BLACK
6
CONTINUOUS
10
199.148
20
-75.1569
11
199.1
21
-75.2521
0
LINE
8
BLACK
6
CONTINUOUS
10
199.1
20
-75.2521
11
199.052
21
-75.2998
0
LINE
8
BLACK
6
CONTINUOUS
10
199.052
20
-75.2998
11
198.957
21
-75.3474
0
LINE
8
BLACK
6
CONTINUOUS
10
198.957
20
-75.3474
11
198.862
21
-75.3474
0
LINE
8
BLACK
6
CONTINUOUS
10
198.862
20
-75.3474
11
198.767
21
-75.2998
0
LINE
8
BLACK
6
CONTINUOUS
10
198.767
20
-75.2998
11
198.719
21
-75.2521
0
LINE
8
BLACK
6
CONTINUOUS
10
198.719
20
-75.2521
11
198.672
21
-75.1569
0
LINE
8
BLACK
6
CONTINUOUS
10
198.672
20
-75.1569
11
198.624
21
-74.9664
0
LINE
8
BLACK
6
CONTINUOUS
10
198.624
20
-74.9664
11
198.624
21
-74.7283
0
LINE
8
BLACK
6
CONTINUOUS
10
198.624
20
-74.7283
11
198.672
21
-74.5379
0
LINE
8
BLACK
6
CONTINUOUS
10
198.672
20
-74.5379
11
198.719
21
-74.4426
0
LINE
8
BLACK
6
CONTINUOUS
10
198.719
20
-74.4426
11
198.767
21
-74.395
0
LINE
8
BLACK
6
CONTINUOUS
10
198.767
20
-74.395
11
198.862
21
-74.3474
0
LINE
8
BLACK
6
CONTINUOUS
10
200.386
20
-75.3474
11
200.386
21
-74.6807
0
LINE
8
BLACK
6
CONTINUOUS
10
200.386
20
-74.776
11
200.433
21
-74.7283
0
LINE
8
BLACK
6
CONTINUOUS
10
200.433
20
-74.7283
11
200.529
21
-74.6807
0
LINE
8
BLACK
6
CONTINUOUS
10
200.529
20
-74.6807
11
200.672
21
-74.6807
0
LINE
8
BLACK
6
CONTINUOUS
10
200.672
20
-74.6807
11
200.767
21
-74.7283
0
LINE
8
BLACK
6
CONTINUOUS
10
200.767
20
-74.7283
11
200.814
21
-74.8236
0
LINE
8
BLACK
6
CONTINUOUS
10
200.814
20
-74.8236
11
200.814
21
-75.3474
0
LINE
8
BLACK
6
CONTINUOUS
10
200.814
20
-74.8236
11
200.862
21
-74.7283
0
LINE
8
BLACK
6
CONTINUOUS
10
200.862
20
-74.7283
11
200.957
21
-74.6807
0
LINE
8
BLACK
6
CONTINUOUS
10
200.957
20
-74.6807
11
201.1
21
-74.6807
0
LINE
8
BLACK
6
CONTINUOUS
10
201.1
20
-74.6807
11
201.195
21
-74.7283
0
LINE
8
BLACK
6
CONTINUOUS
10
201.195
20
-74.7283
11
201.243
21
-74.8236
0
LINE
8
BLACK
6
CONTINUOUS
10
201.243
20
-74.8236
11
201.243
21
-75.3474
0
LINE
8
BLACK
6
CONTINUOUS
10
201.719
20
-75.3474
11
201.719
21
-74.6807
0
LINE
8
BLACK
6
CONTINUOUS
10
201.719
20
-74.776
11
201.767
21
-74.7283
0
LINE
8
BLACK
6
CONTINUOUS
10
201.767
20
-74.7283
11
201.862
21
-74.6807
0
LINE
8
BLACK
6
CONTINUOUS
10
201.862
20
-74.6807
11
202.005
21
-74.6807
0
LINE
8
BLACK
6
CONTINUOUS
10
202.005
20
-74.6807
11
202.1
21
-74.7283
0
LINE
8
BLACK
6
CONTINUOUS
10
202.1
20
-74.7283
11
202.148
21
-74.8236
0
LINE
8
BLACK
6
CONTINUOUS
10
202.148
20
-74.8236
11
202.148
21
-75.3474
0
LINE
8
BLACK
6
CONTINUOUS
10
202.148
20
-74.8236
11
202.195
21
-74.7283
0
LINE
8
BLACK
6
CONTINUOUS
10
202.195
20
-74.7283
11
202.291
21
-74.6807
0
LINE
8
BLACK
6
CONTINUOUS
10
202.291
20
-74.6807
11
202.433
21
-74.6807
0
LINE
8
BLACK
6
CONTINUOUS
10
202.433
20
-74.6807
11
202.529
21
-74.7283
0
LINE
8
BLACK
6
CONTINUOUS
10
202.529
20
-74.7283
11
202.576
21
-74.8236
0
LINE
8
BLACK
6
CONTINUOUS
10
202.576
20
-74.8236
11
202.576
21
-75.3474
0
LINE
8
BLACK
6
CONTINUOUS
10
202.332
20
-73.695
11
195.582
21
-73.695
0
LINE
8
BLACK
6
CONTINUOUS
10
202.332
20
-73.255
11
202.332
21
-74.2814
0
LINE
8
BLACK
6
CONTINUOUS
10
195.582
20
-73.255
11
195.582
21
-74.2814
0
LINE
8
BLACK
6
CONTINUOUS
10
195.582
20
-73.695
11
196.709
21
-73.1086
0
LINE
8
BLACK
6
CONTINUOUS
10
195.582
20
-73.695
11
196.709
21
-74.2814
0
LINE
8
BLACK
6
CONTINUOUS
10
202.332
20
-73.695
11
201.206
21
-73.1086
0
LINE
8
BLACK
6
CONTINUOUS
10
202.332
20
-73.695
11
201.206
21
-74.2814
0
LINE
8
BLACK
6
CONTINUOUS
10
183.484
20
-57.3574
11
182.913
21
-57.3574
0
LINE
8
BLACK
6
CONTINUOUS
10
183.199
20
-57.3574
11
183.199
21
-56.3574
0
LINE
8
BLACK
6
CONTINUOUS
10
183.199
20
-56.3574
11
183.103
21
-56.5002
0
LINE
8
BLACK
6
CONTINUOUS
10
183.103
20
-56.5002
11
183.008
21
-56.5955
0
LINE
8
BLACK
6
CONTINUOUS
10
183.008
20
-56.5955
11
182.913
21
-56.6431
0
LINE
8
BLACK
6
CONTINUOUS
10
184.342
20
-56.6907
11
184.342
21
-57.3574
0
LINE
8
BLACK
6
CONTINUOUS
10
184.103
20
-56.3098
11
183.865
21
-57.024
0
LINE
8
BLACK
6
CONTINUOUS
10
183.865
20
-57.024
11
184.484
21
-57.024
0
LINE
8
BLACK
6
CONTINUOUS
10
184.865
20
-57.2621
11
184.913
21
-57.3098
0
LINE
8
BLACK
6
CONTINUOUS
10
184.913
20
-57.3098
11
184.865
21
-57.3574
0
LINE
8
BLACK
6
CONTINUOUS
10
184.865
20
-57.3574
11
184.818
21
-57.3098
0
LINE
8
BLACK
6
CONTINUOUS
10
184.818
20
-57.3098
11
184.865
21
-57.2621
0
LINE
8
BLACK
6
CONTINUOUS
10
184.865
20
-57.2621
11
184.865
21
-57.3574
0
LINE
8
BLACK
6
CONTINUOUS
10
185.532
20
-56.3574
11
185.627
21
-56.3574
0
LINE
8
BLACK
6
CONTINUOUS
10
185.627
20
-56.3574
11
185.723
21
-56.405
0
LINE
8
BLACK
6
CONTINUOUS
10
185.723
20
-56.405
11
185.77
21
-56.4526
0
LINE
8
BLACK
6
CONTINUOUS
10
185.77
20
-56.4526
11
185.818
21
-56.5479
0
LINE
8
BLACK
6
CONTINUOUS
10
185.818
20
-56.5479
11
185.865
21
-56.7383
0
LINE
8
BLACK
6
CONTINUOUS
10
185.865
20
-56.7383
11
185.865
21
-56.9764
0
LINE
8
BLACK
6
CONTINUOUS
10
185.865
20
-56.9764
11
185.818
21
-57.1669
0
LINE
8
BLACK
6
CONTINUOUS
10
185.818
20
-57.1669
11
185.77
21
-57.2621
0
LINE
8
BLACK
6
CONTINUOUS
10
185.77
20
-57.2621
11
185.723
21
-57.3098
0
LINE
8
BLACK
6
CONTINUOUS
10
185.723
20
-57.3098
11
185.627
21
-57.3574
0
LINE
8
BLACK
6
CONTINUOUS
10
185.627
20
-57.3574
11
185.532
21
-57.3574
0
LINE
8
BLACK
6
CONTINUOUS
10
185.532
20
-57.3574
11
185.437
21
-57.3098
0
LINE
8
BLACK
6
CONTINUOUS
10
185.437
20
-57.3098
11
185.389
21
-57.2621
0
LINE
8
BLACK
6
CONTINUOUS
10
185.389
20
-57.2621
11
185.342
21
-57.1669
0
LINE
8
BLACK
6
CONTINUOUS
10
185.342
20
-57.1669
11
185.294
21
-56.9764
0
LINE
8
BLACK
6
CONTINUOUS
10
185.294
20
-56.9764
11
185.294
21
-56.7383
0
LINE
8
BLACK
6
CONTINUOUS
10
185.294
20
-56.7383
11
185.342
21
-56.5479
0
LINE
8
BLACK
6
CONTINUOUS
10
185.342
20
-56.5479
11
185.389
21
-56.4526
0
LINE
8
BLACK
6
CONTINUOUS
10
185.389
20
-56.4526
11
185.437
21
-56.405
0
LINE
8
BLACK
6
CONTINUOUS
10
185.437
20
-56.405
11
185.532
21
-56.3574
0
LINE
8
BLACK
6
CONTINUOUS
10
186.484
20
-56.3574
11
186.58
21
-56.3574
0
LINE
8
BLACK
6
CONTINUOUS
10
186.58
20
-56.3574
11
186.675
21
-56.405
0
LINE
8
BLACK
6
CONTINUOUS
10
186.675
20
-56.405
11
186.723
21
-56.4526
0
LINE
8
BLACK
6
CONTINUOUS
10
186.723
20
-56.4526
11
186.77
21
-56.5479
0
LINE
8
BLACK
6
CONTINUOUS
10
186.77
20
-56.5479
11
186.818
21
-56.7383
0
LINE
8
BLACK
6
CONTINUOUS
10
186.818
20
-56.7383
11
186.818
21
-56.9764
0
LINE
8
BLACK
6
CONTINUOUS
10
186.818
20
-56.9764
11
186.77
21
-57.1669
0
LINE
8
BLACK
6
CONTINUOUS
10
186.77
20
-57.1669
11
186.723
21
-57.2621
0
LINE
8
BLACK
6
CONTINUOUS
10
186.723
20
-57.2621
11
186.675
21
-57.3098
0
LINE
8
BLACK
6
CONTINUOUS
10
186.675
20
-57.3098
11
186.58
21
-57.3574
0
LINE
8
BLACK
6
CONTINUOUS
10
186.58
20
-57.3574
11
186.484
21
-57.3574
0
LINE
8
BLACK
6
CONTINUOUS
10
186.484
20
-57.3574
11
186.389
21
-57.3098
0
LINE
8
BLACK
6
CONTINUOUS
10
186.389
20
-57.3098
11
186.342
21
-57.2621
0
LINE
8
BLACK
6
CONTINUOUS
10
186.342
20
-57.2621
11
186.294
21
-57.1669
0
LINE
8
BLACK
6
CONTINUOUS
10
186.294
20
-57.1669
11
186.246
21
-56.9764
0
LINE
8
BLACK
6
CONTINUOUS
10
186.246
20
-56.9764
11
186.246
21
-56.7383
0
LINE
8
BLACK
6
CONTINUOUS
10
186.246
20
-56.7383
11
186.294
21
-56.5479
0
LINE
8
BLACK
6
CONTINUOUS
10
186.294
20
-56.5479
11
186.342
21
-56.4526
0
LINE
8
BLACK
6
CONTINUOUS
10
186.342
20
-56.4526
11
186.389
21
-56.405
0
LINE
8
BLACK
6
CONTINUOUS
10
186.389
20
-56.405
11
186.484
21
-56.3574
0
LINE
8
BLACK
6
CONTINUOUS
10
187.437
20
-56.3574
11
187.532
21
-56.3574
0
LINE
8
BLACK
6
CONTINUOUS
10
187.532
20
-56.3574
11
187.627
21
-56.405
0
LINE
8
BLACK
6
CONTINUOUS
10
187.627
20
-56.405
11
187.675
21
-56.4526
0
LINE
8
BLACK
6
CONTINUOUS
10
187.675
20
-56.4526
11
187.723
21
-56.5479
0
LINE
8
BLACK
6
CONTINUOUS
10
187.723
20
-56.5479
11
187.77
21
-56.7383
0
LINE
8
BLACK
6
CONTINUOUS
10
187.77
20
-56.7383
11
187.77
21
-56.9764
0
LINE
8
BLACK
6
CONTINUOUS
10
187.77
20
-56.9764
11
187.723
21
-57.1669
0
LINE
8
BLACK
6
CONTINUOUS
10
187.723
20
-57.1669
11
187.675
21
-57.2621
0
LINE
8
BLACK
6
CONTINUOUS
10
187.675
20
-57.2621
11
187.627
21
-57.3098
0
LINE
8
BLACK
6
CONTINUOUS
10
187.627
20
-57.3098
11
187.532
21
-57.3574
0
LINE
8
BLACK
6
CONTINUOUS
10
187.532
20
-57.3574
11
187.437
21
-57.3574
0
LINE
8
BLACK
6
CONTINUOUS
10
187.437
20
-57.3574
11
187.342
21
-57.3098
0
LINE
8
BLACK
6
CONTINUOUS
10
187.342
20
-57.3098
11
187.294
21
-57.2621
0
LINE
8
BLACK
6
CONTINUOUS
10
187.294
20
-57.2621
11
187.246
21
-57.1669
0
LINE
8
BLACK
6
CONTINUOUS
10
187.246
20
-57.1669
11
187.199
21
-56.9764
0
LINE
8
BLACK
6
CONTINUOUS
10
187.199
20
-56.9764
11
187.199
21
-56.7383
0
LINE
8
BLACK
6
CONTINUOUS
10
187.199
20
-56.7383
11
187.246
21
-56.5479
0
LINE
8
BLACK
6
CONTINUOUS
10
187.246
20
-56.5479
11
187.294
21
-56.4526
0
LINE
8
BLACK
6
CONTINUOUS
10
187.294
20
-56.4526
11
187.342
21
-56.405
0
LINE
8
BLACK
6
CONTINUOUS
10
187.342
20
-56.405
11
187.437
21
-56.3574
0
LINE
8
BLACK
6
CONTINUOUS
10
188.961
20
-57.3574
11
188.961
21
-56.6907
0
LINE
8
BLACK
6
CONTINUOUS
10
188.961
20
-56.786
11
189.008
21
-56.7383
0
LINE
8
BLACK
6
CONTINUOUS
10
189.008
20
-56.7383
11
189.103
21
-56.6907
0
LINE
8
BLACK
6
CONTINUOUS
10
189.103
20
-56.6907
11
189.246
21
-56.6907
0
LINE
8
BLACK
6
CONTINUOUS
10
189.246
20
-56.6907
11
189.342
21
-56.7383
0
LINE
8
BLACK
6
CONTINUOUS
10
189.342
20
-56.7383
11
189.389
21
-56.8336
0
LINE
8
BLACK
6
CONTINUOUS
10
189.389
20
-56.8336
11
189.389
21
-57.3574
0
LINE
8
BLACK
6
CONTINUOUS
10
189.389
20
-56.8336
11
189.437
21
-56.7383
0
LINE
8
BLACK
6
CONTINUOUS
10
189.437
20
-56.7383
11
189.532
21
-56.6907
0
LINE
8
BLACK
6
CONTINUOUS
10
189.532
20
-56.6907
11
189.675
21
-56.6907
0
LINE
8
BLACK
6
CONTINUOUS
10
189.675
20
-56.6907
11
189.77
21
-56.7383
0
LINE
8
BLACK
6
CONTINUOUS
10
189.77
20
-56.7383
11
189.818
21
-56.8336
0
LINE
8
BLACK
6
CONTINUOUS
10
189.818
20
-56.8336
11
189.818
21
-57.3574
0
LINE
8
BLACK
6
CONTINUOUS
10
190.294
20
-57.3574
11
190.294
21
-56.6907
0
LINE
8
BLACK
6
CONTINUOUS
10
190.294
20
-56.786
11
190.342
21
-56.7383
0
LINE
8
BLACK
6
CONTINUOUS
10
190.342
20
-56.7383
11
190.437
21
-56.6907
0
LINE
8
BLACK
6
CONTINUOUS
10
190.437
20
-56.6907
11
190.58
21
-56.6907
0
LINE
8
BLACK
6
CONTINUOUS
10
190.58
20
-56.6907
11
190.675
21
-56.7383
0
LINE
8
BLACK
6
CONTINUOUS
10
190.675
20
-56.7383
11
190.723
21
-56.8336
0
LINE
8
BLACK
6
CONTINUOUS
10
190.723
20
-56.8336
11
190.723
21
-57.3574
0
LINE
8
BLACK
6
CONTINUOUS
10
190.723
20
-56.8336
11
190.77
21
-56.7383
0
LINE
8
BLACK
6
CONTINUOUS
10
190.77
20
-56.7383
11
190.865
21
-56.6907
0
LINE
8
BLACK
6
CONTINUOUS
10
190.865
20
-56.6907
11
191.008
21
-56.6907
0
LINE
8
BLACK
6
CONTINUOUS
10
191.008
20
-56.6907
11
191.103
21
-56.7383
0
LINE
8
BLACK
6
CONTINUOUS
10
191.103
20
-56.7383
11
191.151
21
-56.8336
0
LINE
8
BLACK
6
CONTINUOUS
10
191.151
20
-56.8336
11
191.151
21
-57.3574
0
LINE
8
BLACK
6
CONTINUOUS
10
180.056
20
-58.105
11
194.056
21
-58.105
0
LINE
8
BLACK
6
CONTINUOUS
10
180.056
20
-58.725
11
180.056
21
-57.5186
0
LINE
8
BLACK
6
CONTINUOUS
10
194.056
20
-58.725
11
194.056
21
-57.5186
0
LINE
8
BLACK
6
CONTINUOUS
10
194.056
20
-58.105
11
192.929
21
-58.6914
0
LINE
8
BLACK
6
CONTINUOUS
10
194.056
20
-58.105
11
192.929
21
-57.5186
0
LINE
8
BLACK
6
CONTINUOUS
10
180.056
20
-58.105
11
181.182
21
-58.6914
0
LINE
8
BLACK
6
CONTINUOUS
10
180.056
20
-58.105
11
181.182
21
-57.5186
0
LINE
8
BLACK
6
CONTINUOUS
10
195.243
20
-55.8474
11
195.862
21
-55.8474
0
LINE
8
BLACK
6
CONTINUOUS
10
195.862
20
-55.8474
11
195.529
21
-56.2283
0
LINE
8
BLACK
6
CONTINUOUS
10
195.529
20
-56.2283
11
195.672
21
-56.2283
0
LINE
8
BLACK
6
CONTINUOUS
10
195.672
20
-56.2283
11
195.767
21
-56.276
0
LINE
8
BLACK
6
CONTINUOUS
10
195.767
20
-56.276
11
195.814
21
-56.3236
0
LINE
8
BLACK
6
CONTINUOUS
10
195.814
20
-56.3236
11
195.862
21
-56.4188
0
LINE
8
BLACK
6
CONTINUOUS
10
195.862
20
-56.4188
11
195.862
21
-56.6569
0
LINE
8
BLACK
6
CONTINUOUS
10
195.862
20
-56.6569
11
195.814
21
-56.7521
0
LINE
8
BLACK
6
CONTINUOUS
10
195.814
20
-56.7521
11
195.767
21
-56.7998
0
LINE
8
BLACK
6
CONTINUOUS
10
195.767
20
-56.7998
11
195.672
21
-56.8474
0
LINE
8
BLACK
6
CONTINUOUS
10
195.672
20
-56.8474
11
195.386
21
-56.8474
0
LINE
8
BLACK
6
CONTINUOUS
10
195.386
20
-56.8474
11
195.291
21
-56.7998
0
LINE
8
BLACK
6
CONTINUOUS
10
195.291
20
-56.7998
11
195.243
21
-56.7521
0
LINE
8
BLACK
6
CONTINUOUS
10
196.291
20
-56.7521
11
196.338
21
-56.7998
0
LINE
8
BLACK
6
CONTINUOUS
10
196.338
20
-56.7998
11
196.291
21
-56.8474
0
LINE
8
BLACK
6
CONTINUOUS
10
196.291
20
-56.8474
11
196.243
21
-56.7998
0
LINE
8
BLACK
6
CONTINUOUS
10
196.243
20
-56.7998
11
196.291
21
-56.7521
0
LINE
8
BLACK
6
CONTINUOUS
10
196.291
20
-56.7521
11
196.291
21
-56.8474
0
LINE
8
BLACK
6
CONTINUOUS
10
196.672
20
-55.8474
11
197.291
21
-55.8474
0
LINE
8
BLACK
6
CONTINUOUS
10
197.291
20
-55.8474
11
196.957
21
-56.2283
0
LINE
8
BLACK
6
CONTINUOUS
10
196.957
20
-56.2283
11
197.1
21
-56.2283
0
LINE
8
BLACK
6
CONTINUOUS
10
197.1
20
-56.2283
11
197.195
21
-56.276
0
LINE
8
BLACK
6
CONTINUOUS
10
197.195
20
-56.276
11
197.243
21
-56.3236
0
LINE
8
BLACK
6
CONTINUOUS
10
197.243
20
-56.3236
11
197.291
21
-56.4188
0
LINE
8
BLACK
6
CONTINUOUS
10
197.291
20
-56.4188
11
197.291
21
-56.6569
0
LINE
8
BLACK
6
CONTINUOUS
10
197.291
20
-56.6569
11
197.243
21
-56.7521
0
LINE
8
BLACK
6
CONTINUOUS
10
197.243
20
-56.7521
11
197.195
21
-56.7998
0
LINE
8
BLACK
6
CONTINUOUS
10
197.195
20
-56.7998
11
197.1
21
-56.8474
0
LINE
8
BLACK
6
CONTINUOUS
10
197.1
20
-56.8474
11
196.814
21
-56.8474
0
LINE
8
BLACK
6
CONTINUOUS
10
196.814
20
-56.8474
11
196.719
21
-56.7998
0
LINE
8
BLACK
6
CONTINUOUS
10
196.719
20
-56.7998
11
196.672
21
-56.7521
0
LINE
8
BLACK
6
CONTINUOUS
10
197.91
20
-55.8474
11
198.005
21
-55.8474
0
LINE
8
BLACK
6
CONTINUOUS
10
198.005
20
-55.8474
11
198.1
21
-55.895
0
LINE
8
BLACK
6
CONTINUOUS
10
198.1
20
-55.895
11
198.148
21
-55.9426
0
LINE
8
BLACK
6
CONTINUOUS
10
198.148
20
-55.9426
11
198.195
21
-56.0379
0
LINE
8
BLACK
6
CONTINUOUS
10
198.195
20
-56.0379
11
198.243
21
-56.2283
0
LINE
8
BLACK
6
CONTINUOUS
10
198.243
20
-56.2283
11
198.243
21
-56.4664
0
LINE
8
BLACK
6
CONTINUOUS
10
198.243
20
-56.4664
11
198.195
21
-56.6569
0
LINE
8
BLACK
6
CONTINUOUS
10
198.195
20
-56.6569
11
198.148
21
-56.7521
0
LINE
8
BLACK
6
CONTINUOUS
10
198.148
20
-56.7521
11
198.1
21
-56.7998
0
LINE
8
BLACK
6
CONTINUOUS
10
198.1
20
-56.7998
11
198.005
21
-56.8474
0
LINE
8
BLACK
6
CONTINUOUS
10
198.005
20
-56.8474
11
197.91
21
-56.8474
0
LINE
8
BLACK
6
CONTINUOUS
10
197.91
20
-56.8474
11
197.814
21
-56.7998
0
LINE
8
BLACK
6
CONTINUOUS
10
197.814
20
-56.7998
11
197.767
21
-56.7521
0
LINE
8
BLACK
6
CONTINUOUS
10
197.767
20
-56.7521
11
197.719
21
-56.6569
0
LINE
8
BLACK
6
CONTINUOUS
10
197.719
20
-56.6569
11
197.672
21
-56.4664
0
LINE
8
BLACK
6
CONTINUOUS
10
197.672
20
-56.4664
11
197.672
21
-56.2283
0
LINE
8
BLACK
6
CONTINUOUS
10
197.672
20
-56.2283
11
197.719
21
-56.0379
0
LINE
8
BLACK
6
CONTINUOUS
10
197.719
20
-56.0379
11
197.767
21
-55.9426
0
LINE
8
BLACK
6
CONTINUOUS
10
197.767
20
-55.9426
11
197.814
21
-55.895
0
LINE
8
BLACK
6
CONTINUOUS
10
197.814
20
-55.895
11
197.91
21
-55.8474
0
LINE
8
BLACK
6
CONTINUOUS
10
198.862
20
-55.8474
11
198.957
21
-55.8474
0
LINE
8
BLACK
6
CONTINUOUS
10
198.957
20
-55.8474
11
199.052
21
-55.895
0
LINE
8
BLACK
6
CONTINUOUS
10
199.052
20
-55.895
11
199.1
21
-55.9426
0
LINE
8
BLACK
6
CONTINUOUS
10
199.1
20
-55.9426
11
199.148
21
-56.0379
0
LINE
8
BLACK
6
CONTINUOUS
10
199.148
20
-56.0379
11
199.195
21
-56.2283
0
LINE
8
BLACK
6
CONTINUOUS
10
199.195
20
-56.2283
11
199.195
21
-56.4664
0
LINE
8
BLACK
6
CONTINUOUS
10
199.195
20
-56.4664
11
199.148
21
-56.6569
0
LINE
8
BLACK
6
CONTINUOUS
10
199.148
20
-56.6569
11
199.1
21
-56.7521
0
LINE
8
BLACK
6
CONTINUOUS
10
199.1
20
-56.7521
11
199.052
21
-56.7998
0
LINE
8
BLACK
6
CONTINUOUS
10
199.052
20
-56.7998
11
198.957
21
-56.8474
0
LINE
8
BLACK
6
CONTINUOUS
10
198.957
20
-56.8474
11
198.862
21
-56.8474
0
LINE
8
BLACK
6
CONTINUOUS
10
198.862
20
-56.8474
11
198.767
21
-56.7998
0
LINE
8
BLACK
6
CONTINUOUS
10
198.767
20
-56.7998
11
198.719
21
-56.7521
0
LINE
8
BLACK
6
CONTINUOUS
10
198.719
20
-56.7521
11
198.672
21
-56.6569
0
LINE
8
BLACK
6
CONTINUOUS
10
198.672
20
-56.6569
11
198.624
21
-56.4664
0
LINE
8
BLACK
6
CONTINUOUS
10
198.624
20
-56.4664
11
198.624
21
-56.2283
0
LINE
8
BLACK
6
CONTINUOUS
10
198.624
20
-56.2283
11
198.672
21
-56.0379
0
LINE
8
BLACK
6
CONTINUOUS
10
198.672
20
-56.0379
11
198.719
21
-55.9426
0
LINE
8
BLACK
6
CONTINUOUS
10
198.719
20
-55.9426
11
198.767
21
-55.895
0
LINE
8
BLACK
6
CONTINUOUS
10
198.767
20
-55.895
11
198.862
21
-55.8474
0
LINE
8
BLACK
6
CONTINUOUS
10
200.386
20
-56.8474
11
200.386
21
-56.1807
0
LINE
8
BLACK
6
CONTINUOUS
10
200.386
20
-56.276
11
200.433
21
-56.2283
0
LINE
8
BLACK
6
CONTINUOUS
10
200.433
20
-56.2283
11
200.529
21
-56.1807
0
LINE
8
BLACK
6
CONTINUOUS
10
200.529
20
-56.1807
11
200.672
21
-56.1807
0
LINE
8
BLACK
6
CONTINUOUS
10
200.672
20
-56.1807
11
200.767
21
-56.2283
0
LINE
8
BLACK
6
CONTINUOUS
10
200.767
20
-56.2283
11
200.814
21
-56.3236
0
LINE
8
BLACK
6
CONTINUOUS
10
200.814
20
-56.3236
11
200.814
21
-56.8474
0
LINE
8
BLACK
6
CONTINUOUS
10
200.814
20
-56.3236
11
200.862
21
-56.2283
0
LINE
8
BLACK
6
CONTINUOUS
10
200.862
20
-56.2283
11
200.957
21
-56.1807
0
LINE
8
BLACK
6
CONTINUOUS
10
200.957
20
-56.1807
11
201.1
21
-56.1807
0
LINE
8
BLACK
6
CONTINUOUS
10
201.1
20
-56.1807
11
201.195
21
-56.2283
0
LINE
8
BLACK
6
CONTINUOUS
10
201.195
20
-56.2283
11
201.243
21
-56.3236
0
LINE
8
BLACK
6
CONTINUOUS
10
201.243
20
-56.3236
11
201.243
21
-56.8474
0
LINE
8
BLACK
6
CONTINUOUS
10
201.719
20
-56.8474
11
201.719
21
-56.1807
0
LINE
8
BLACK
6
CONTINUOUS
10
201.719
20
-56.276
11
201.767
21
-56.2283
0
LINE
8
BLACK
6
CONTINUOUS
10
201.767
20
-56.2283
11
201.862
21
-56.1807
0
LINE
8
BLACK
6
CONTINUOUS
10
201.862
20
-56.1807
11
202.005
21
-56.1807
0
LINE
8
BLACK
6
CONTINUOUS
10
202.005
20
-56.1807
11
202.1
21
-56.2283
0
LINE
8
BLACK
6
CONTINUOUS
10
202.1
20
-56.2283
11
202.148
21
-56.3236
0
LINE
8
BLACK
6
CONTINUOUS
10
202.148
20
-56.3236
11
202.148
21
-56.8474
0
LINE
8
BLACK
6
CONTINUOUS
10
202.148
20
-56.3236
11
202.195
21
-56.2283
0
LINE
8
BLACK
6
CONTINUOUS
10
202.195
20
-56.2283
11
202.291
21
-56.1807
0
LINE
8
BLACK
6
CONTINUOUS
10
202.291
20
-56.1807
11
202.433
21
-56.1807
0
LINE
8
BLACK
6
CONTINUOUS
10
202.433
20
-56.1807
11
202.529
21
-56.2283
0
LINE
8
BLACK
6
CONTINUOUS
10
202.529
20
-56.2283
11
202.576
21
-56.3236
0
LINE
8
BLACK
6
CONTINUOUS
10
202.576
20
-56.3236
11
202.576
21
-56.8474
0
LINE
8
BLACK
6
CONTINUOUS
10
197.307
20
-57.595
11
200.607
21
-57.595
0
LINE
8
BLACK
6
CONTINUOUS
10
197.307
20
-57.755
11
197.307
21
-57.0086
0
LINE
8
BLACK
6
CONTINUOUS
10
200.607
20
-57.755
11
200.607
21
-57.0086
0
LINE
8
BLACK
6
CONTINUOUS
10
200.607
20
-57.595
11
199.481
21
-58.1814
0
LINE
8
BLACK
6
CONTINUOUS
10
200.607
20
-57.595
11
199.481
21
-57.0086
0
LINE
8
BLACK
6
CONTINUOUS
10
197.307
20
-57.595
11
198.434
21
-58.1814
0
LINE
8
BLACK
6
CONTINUOUS
10
197.307
20
-57.595
11
198.434
21
-57.0086
0
LINE
8
BLACK
6
CONTINUOUS
10
206.204
20
-66.288
11
206.204
21
-66.4785
0
LINE
8
BLACK
6
CONTINUOUS
10
206.204
20
-66.4785
11
206.252
21
-66.5737
0
LINE
8
BLACK
6
CONTINUOUS
10
206.252
20
-66.5737
11
206.299
21
-66.6213
0
LINE
8
BLACK
6
CONTINUOUS
10
206.299
20
-66.6213
11
206.442
21
-66.7165
0
LINE
8
BLACK
6
CONTINUOUS
10
206.442
20
-66.7165
11
206.633
21
-66.7642
0
LINE
8
BLACK
6
CONTINUOUS
10
206.633
20
-66.7642
11
207.014
21
-66.7642
0
LINE
8
BLACK
6
CONTINUOUS
10
207.014
20
-66.7642
11
207.109
21
-66.7165
0
LINE
8
BLACK
6
CONTINUOUS
10
207.109
20
-66.7165
11
207.157
21
-66.6689
0
LINE
8
BLACK
6
CONTINUOUS
10
207.157
20
-66.6689
11
207.204
21
-66.5737
0
LINE
8
BLACK
6
CONTINUOUS
10
207.204
20
-66.5737
11
207.204
21
-66.3832
0
LINE
8
BLACK
6
CONTINUOUS
10
207.204
20
-66.3832
11
207.157
21
-66.288
0
LINE
8
BLACK
6
CONTINUOUS
10
207.157
20
-66.288
11
207.109
21
-66.2404
0
LINE
8
BLACK
6
CONTINUOUS
10
207.109
20
-66.2404
11
207.014
21
-66.1927
0
LINE
8
BLACK
6
CONTINUOUS
10
207.014
20
-66.1927
11
206.776
21
-66.1927
0
LINE
8
BLACK
6
CONTINUOUS
10
206.776
20
-66.1927
11
206.68
21
-66.2404
0
LINE
8
BLACK
6
CONTINUOUS
10
206.68
20
-66.2404
11
206.633
21
-66.288
0
LINE
8
BLACK
6
CONTINUOUS
10
206.633
20
-66.288
11
206.585
21
-66.3832
0
LINE
8
BLACK
6
CONTINUOUS
10
206.585
20
-66.3832
11
206.585
21
-66.5737
0
LINE
8
BLACK
6
CONTINUOUS
10
206.585
20
-66.5737
11
206.633
21
-66.6689
0
LINE
8
BLACK
6
CONTINUOUS
10
206.633
20
-66.6689
11
206.68
21
-66.7165
0
LINE
8
BLACK
6
CONTINUOUS
10
206.68
20
-66.7165
11
206.776
21
-66.7642
0
LINE
8
BLACK
6
CONTINUOUS
10
207.109
20
-65.7642
11
207.157
21
-65.7165
0
LINE
8
BLACK
6
CONTINUOUS
10
207.157
20
-65.7165
11
207.204
21
-65.7642
0
LINE
8
BLACK
6
CONTINUOUS
10
207.204
20
-65.7642
11
207.157
21
-65.8118
0
LINE
8
BLACK
6
CONTINUOUS
10
207.157
20
-65.8118
11
207.109
21
-65.7642
0
LINE
8
BLACK
6
CONTINUOUS
10
207.109
20
-65.7642
11
207.204
21
-65.7642
0
LINE
8
BLACK
6
CONTINUOUS
10
206.299
20
-65.3356
11
206.252
21
-65.288
0
LINE
8
BLACK
6
CONTINUOUS
10
206.252
20
-65.288
11
206.204
21
-65.1927
0
LINE
8
BLACK
6
CONTINUOUS
10
206.204
20
-65.1927
11
206.204
21
-64.9546
0
LINE
8
BLACK
6
CONTINUOUS
10
206.204
20
-64.9546
11
206.252
21
-64.8594
0
LINE
8
BLACK
6
CONTINUOUS
10
206.252
20
-64.8594
11
206.299
21
-64.8118
0
LINE
8
BLACK
6
CONTINUOUS
10
206.299
20
-64.8118
11
206.395
21
-64.7642
0
LINE
8
BLACK
6
CONTINUOUS
10
206.395
20
-64.7642
11
206.49
21
-64.7642
0
LINE
8
BLACK
6
CONTINUOUS
10
206.49
20
-64.7642
11
206.633
21
-64.8118
0
LINE
8
BLACK
6
CONTINUOUS
10
206.633
20
-64.8118
11
207.204
21
-65.3832
0
LINE
8
BLACK
6
CONTINUOUS
10
207.204
20
-65.3832
11
207.204
21
-64.7642
0
LINE
8
BLACK
6
CONTINUOUS
10
206.633
20
-64.1927
11
206.585
21
-64.288
0
LINE
8
BLACK
6
CONTINUOUS
10
206.585
20
-64.288
11
206.537
21
-64.3356
0
LINE
8
BLACK
6
CONTINUOUS
10
206.537
20
-64.3356
11
206.442
21
-64.3832
0
LINE
8
BLACK
6
CONTINUOUS
10
206.442
20
-64.3832
11
206.395
21
-64.3832
0
LINE
8
BLACK
6
CONTINUOUS
10
206.395
20
-64.3832
11
206.299
21
-64.3356
0
LINE
8
BLACK
6
CONTINUOUS
10
206.299
20
-64.3356
11
206.252
21
-64.288
0
LINE
8
BLACK
6
CONTINUOUS
10
206.252
20
-64.288
11
206.204
21
-64.1927
0
LINE
8
BLACK
6
CONTINUOUS
10
206.204
20
-64.1927
11
206.204
21
-64.0023
0
LINE
8
BLACK
6
CONTINUOUS
10
206.204
20
-64.0023
11
206.252
21
-63.907
0
LINE
8
BLACK
6
CONTINUOUS
10
206.252
20
-63.907
11
206.299
21
-63.8594
0
LINE
8
BLACK
6
CONTINUOUS
10
206.299
20
-63.8594
11
206.395
21
-63.8118
0
LINE
8
BLACK
6
CONTINUOUS
10
206.395
20
-63.8118
11
206.442
21
-63.8118
0
LINE
8
BLACK
6
CONTINUOUS
10
206.442
20
-63.8118
11
206.537
21
-63.8594
0
LINE
8
BLACK
6
CONTINUOUS
10
206.537
20
-63.8594
11
206.585
21
-63.907
0
LINE
8
BLACK
6
CONTINUOUS
10
206.585
20
-63.907
11
206.633
21
-64.0023
0
LINE
8
BLACK
6
CONTINUOUS
10
206.633
20
-64.0023
11
206.633
21
-64.1927
0
LINE
8
BLACK
6
CONTINUOUS
10
206.633
20
-64.1927
11
206.68
21
-64.288
0
LINE
8
BLACK
6
CONTINUOUS
10
206.68
20
-64.288
11
206.728
21
-64.3356
0
LINE
8
BLACK
6
CONTINUOUS
10
206.728
20
-64.3356
11
206.823
21
-64.3832
0
LINE
8
BLACK
6
CONTINUOUS
10
206.823
20
-64.3832
11
207.014
21
-64.3832
0
LINE
8
BLACK
6
CONTINUOUS
10
207.014
20
-64.3832
11
207.109
21
-64.3356
0
LINE
8
BLACK
6
CONTINUOUS
10
207.109
20
-64.3356
11
207.157
21
-64.288
0
LINE
8
BLACK
6
CONTINUOUS
10
207.157
20
-64.288
11
207.204
21
-64.1927
0
LINE
8
BLACK
6
CONTINUOUS
10
207.204
20
-64.1927
11
207.204
21
-64.0023
0
LINE
8
BLACK
6
CONTINUOUS
10
207.204
20
-64.0023
11
207.157
21
-63.907
0
LINE
8
BLACK
6
CONTINUOUS
10
207.157
20
-63.907
11
207.109
21
-63.8594
0
LINE
8
BLACK
6
CONTINUOUS
10
207.109
20
-63.8594
11
207.014
21
-63.8118
0
LINE
8
BLACK
6
CONTINUOUS
10
207.014
20
-63.8118
11
206.823
21
-63.8118
0
LINE
8
BLACK
6
CONTINUOUS
10
206.823
20
-63.8118
11
206.728
21
-63.8594
0
LINE
8
BLACK
6
CONTINUOUS
10
206.728
20
-63.8594
11
206.68
21
-63.907
0
LINE
8
BLACK
6
CONTINUOUS
10
206.68
20
-63.907
11
206.633
21
-64.0023
0
LINE
8
BLACK
6
CONTINUOUS
10
206.204
20
-62.907
11
206.204
21
-63.3832
0
LINE
8
BLACK
6
CONTINUOUS
10
206.204
20
-63.3832
11
206.68
21
-63.4308
0
LINE
8
BLACK
6
CONTINUOUS
10
206.68
20
-63.4308
11
206.633
21
-63.3832
0
LINE
8
BLACK
6
CONTINUOUS
10
206.633
20
-63.3832
11
206.585
21
-63.288
0
LINE
8
BLACK
6
CONTINUOUS
10
206.585
20
-63.288
11
206.585
21
-63.0499
0
LINE
8
BLACK
6
CONTINUOUS
10
206.585
20
-63.0499
11
206.633
21
-62.9546
0
LINE
8
BLACK
6
CONTINUOUS
10
206.633
20
-62.9546
11
206.68
21
-62.907
0
LINE
8
BLACK
6
CONTINUOUS
10
206.68
20
-62.907
11
206.776
21
-62.8594
0
LINE
8
BLACK
6
CONTINUOUS
10
206.776
20
-62.8594
11
207.014
21
-62.8594
0
LINE
8
BLACK
6
CONTINUOUS
10
207.014
20
-62.8594
11
207.109
21
-62.907
0
LINE
8
BLACK
6
CONTINUOUS
10
207.109
20
-62.907
11
207.157
21
-62.9546
0
LINE
8
BLACK
6
CONTINUOUS
10
207.157
20
-62.9546
11
207.204
21
-63.0499
0
LINE
8
BLACK
6
CONTINUOUS
10
207.204
20
-63.0499
11
207.204
21
-63.288
0
LINE
8
BLACK
6
CONTINUOUS
10
207.204
20
-63.288
11
207.157
21
-63.3832
0
LINE
8
BLACK
6
CONTINUOUS
10
207.157
20
-63.3832
11
207.109
21
-63.4308
0
LINE
8
BLACK
6
CONTINUOUS
10
207.204
20
-61.6689
11
206.537
21
-61.6689
0
LINE
8
BLACK
6
CONTINUOUS
10
206.633
20
-61.6689
11
206.585
21
-61.6213
0
LINE
8
BLACK
6
CONTINUOUS
10
206.585
20
-61.6213
11
206.537
21
-61.5261
0
LINE
8
BLACK
6
CONTINUOUS
10
206.537
20
-61.5261
11
206.537
21
-61.3832
0
LINE
8
BLACK
6
CONTINUOUS
10
206.537
20
-61.3832
11
206.585
21
-61.288
0
LINE
8
BLACK
6
CONTINUOUS
10
206.585
20
-61.288
11
206.68
21
-61.2404
0
LINE
8
BLACK
6
CONTINUOUS
10
206.68
20
-61.2404
11
207.204
21
-61.2404
0
LINE
8
BLACK
6
CONTINUOUS
10
206.68
20
-61.2404
11
206.585
21
-61.1927
0
LINE
8
BLACK
6
CONTINUOUS
10
206.585
20
-61.1927
11
206.537
21
-61.0975
0
LINE
8
BLACK
6
CONTINUOUS
10
206.537
20
-61.0975
11
206.537
21
-60.9546
0
LINE
8
BLACK
6
CONTINUOUS
10
206.537
20
-60.9546
11
206.585
21
-60.8594
0
LINE
8
BLACK
6
CONTINUOUS
10
206.585
20
-60.8594
11
206.68
21
-60.8118
0
LINE
8
BLACK
6
CONTINUOUS
10
206.68
20
-60.8118
11
207.204
21
-60.8118
0
LINE
8
BLACK
6
CONTINUOUS
10
207.204
20
-60.3356
11
206.537
21
-60.3356
0
LINE
8
BLACK
6
CONTINUOUS
10
206.633
20
-60.3356
11
206.585
21
-60.288
0
LINE
8
BLACK
6
CONTINUOUS
10
206.585
20
-60.288
11
206.537
21
-60.1927
0
LINE
8
BLACK
6
CONTINUOUS
10
206.537
20
-60.1927
11
206.537
21
-60.0499
0
LINE
8
BLACK
6
CONTINUOUS
10
206.537
20
-60.0499
11
206.585
21
-59.9546
0
LINE
8
BLACK
6
CONTINUOUS
10
206.585
20
-59.9546
11
206.68
21
-59.907
0
LINE
8
BLACK
6
CONTINUOUS
10
206.68
20
-59.907
11
207.204
21
-59.907
0
LINE
8
BLACK
6
CONTINUOUS
10
206.68
20
-59.907
11
206.585
21
-59.8594
0
LINE
8
BLACK
6
CONTINUOUS
10
206.585
20
-59.8594
11
206.537
21
-59.7642
0
LINE
8
BLACK
6
CONTINUOUS
10
206.537
20
-59.7642
11
206.537
21
-59.6213
0
LINE
8
BLACK
6
CONTINUOUS
10
206.537
20
-59.6213
11
206.585
21
-59.5261
0
LINE
8
BLACK
6
CONTINUOUS
10
206.585
20
-59.5261
11
206.68
21
-59.4785
0
LINE
8
BLACK
6
CONTINUOUS
10
206.68
20
-59.4785
11
207.204
21
-59.4785
0
LINE
8
BLACK
6
CONTINUOUS
10
205.552
20
-66.24
11
205.552
21
-59.955
0
LINE
8
BLACK
6
CONTINUOUS
10
204.332
20
-66.24
11
206.138
21
-66.24
0
LINE
8
BLACK
6
CONTINUOUS
10
204.332
20
-59.955
11
206.138
21
-59.955
0
LINE
8
BLACK
6
CONTINUOUS
10
205.552
20
-59.955
11
206.138
21
-61.0815
0
LINE
8
BLACK
6
CONTINUOUS
10
205.552
20
-59.955
11
204.965
21
-61.0815
0
LINE
8
BLACK
6
CONTINUOUS
10
205.552
20
-66.24
11
206.138
21
-65.1135
0
LINE
8
BLACK
6
CONTINUOUS
10
205.552
20
-66.24
11
204.965
21
-65.1135
0
LINE
8
BLACK
6
CONTINUOUS
10
174.572
20
-56.1674
11
174
21
-56.1674
0
LINE
8
BLACK
6
CONTINUOUS
10
174.286
20
-56.1674
11
174.286
21
-55.1674
0
LINE
8
BLACK
6
CONTINUOUS
10
174.286
20
-55.1674
11
174.191
21
-55.3102
0
LINE
8
BLACK
6
CONTINUOUS
10
174.191
20
-55.3102
11
174.095
21
-55.4055
0
LINE
8
BLACK
6
CONTINUOUS
10
174.095
20
-55.4055
11
174
21
-55.4531
0
LINE
8
BLACK
6
CONTINUOUS
10
175
20
-56.0721
11
175.048
21
-56.1198
0
LINE
8
BLACK
6
CONTINUOUS
10
175.048
20
-56.1198
11
175
21
-56.1674
0
LINE
8
BLACK
6
CONTINUOUS
10
175
20
-56.1674
11
174.953
21
-56.1198
0
LINE
8
BLACK
6
CONTINUOUS
10
174.953
20
-56.1198
11
175
21
-56.0721
0
LINE
8
BLACK
6
CONTINUOUS
10
175
20
-56.0721
11
175
21
-56.1674
0
LINE
8
BLACK
6
CONTINUOUS
10
175.381
20
-55.1674
11
176.048
21
-55.1674
0
LINE
8
BLACK
6
CONTINUOUS
10
176.048
20
-55.1674
11
175.619
21
-56.1674
0
LINE
8
BLACK
6
CONTINUOUS
10
176.381
20
-55.2626
11
176.429
21
-55.215
0
LINE
8
BLACK
6
CONTINUOUS
10
176.429
20
-55.215
11
176.524
21
-55.1674
0
LINE
8
BLACK
6
CONTINUOUS
10
176.524
20
-55.1674
11
176.762
21
-55.1674
0
LINE
8
BLACK
6
CONTINUOUS
10
176.762
20
-55.1674
11
176.857
21
-55.215
0
LINE
8
BLACK
6
CONTINUOUS
10
176.857
20
-55.215
11
176.905
21
-55.2626
0
LINE
8
BLACK
6
CONTINUOUS
10
176.905
20
-55.2626
11
176.953
21
-55.3579
0
LINE
8
BLACK
6
CONTINUOUS
10
176.953
20
-55.3579
11
176.953
21
-55.4531
0
LINE
8
BLACK
6
CONTINUOUS
10
176.953
20
-55.4531
11
176.905
21
-55.596
0
LINE
8
BLACK
6
CONTINUOUS
10
176.905
20
-55.596
11
176.334
21
-56.1674
0
LINE
8
BLACK
6
CONTINUOUS
10
176.334
20
-56.1674
11
176.953
21
-56.1674
0
LINE
8
BLACK
6
CONTINUOUS
10
177.857
20
-55.1674
11
177.381
21
-55.1674
0
LINE
8
BLACK
6
CONTINUOUS
10
177.381
20
-55.1674
11
177.334
21
-55.6436
0
LINE
8
BLACK
6
CONTINUOUS
10
177.334
20
-55.6436
11
177.381
21
-55.596
0
LINE
8
BLACK
6
CONTINUOUS
10
177.381
20
-55.596
11
177.476
21
-55.5483
0
LINE
8
BLACK
6
CONTINUOUS
10
177.476
20
-55.5483
11
177.714
21
-55.5483
0
LINE
8
BLACK
6
CONTINUOUS
10
177.714
20
-55.5483
11
177.81
21
-55.596
0
LINE
8
BLACK
6
CONTINUOUS
10
177.81
20
-55.596
11
177.857
21
-55.6436
0
LINE
8
BLACK
6
CONTINUOUS
10
177.857
20
-55.6436
11
177.905
21
-55.7388
0
LINE
8
BLACK
6
CONTINUOUS
10
177.905
20
-55.7388
11
177.905
21
-55.9769
0
LINE
8
BLACK
6
CONTINUOUS
10
177.905
20
-55.9769
11
177.857
21
-56.0721
0
LINE
8
BLACK
6
CONTINUOUS
10
177.857
20
-56.0721
11
177.81
21
-56.1198
0
LINE
8
BLACK
6
CONTINUOUS
10
177.81
20
-56.1198
11
177.714
21
-56.1674
0
LINE
8
BLACK
6
CONTINUOUS
10
177.714
20
-56.1674
11
177.476
21
-56.1674
0
LINE
8
BLACK
6
CONTINUOUS
10
177.476
20
-56.1674
11
177.381
21
-56.1198
0
LINE
8
BLACK
6
CONTINUOUS
10
177.381
20
-56.1198
11
177.334
21
-56.0721
0
LINE
8
BLACK
6
CONTINUOUS
10
179.095
20
-56.1674
11
179.095
21
-55.5007
0
LINE
8
BLACK
6
CONTINUOUS
10
179.095
20
-55.596
11
179.143
21
-55.5483
0
LINE
8
BLACK
6
CONTINUOUS
10
179.143
20
-55.5483
11
179.238
21
-55.5007
0
LINE
8
BLACK
6
CONTINUOUS
10
179.238
20
-55.5007
11
179.381
21
-55.5007
0
LINE
8
BLACK
6
CONTINUOUS
10
179.381
20
-55.5007
11
179.476
21
-55.5483
0
LINE
8
BLACK
6
CONTINUOUS
10
179.476
20
-55.5483
11
179.524
21
-55.6436
0
LINE
8
BLACK
6
CONTINUOUS
10
179.524
20
-55.6436
11
179.524
21
-56.1674
0
LINE
8
BLACK
6
CONTINUOUS
10
179.524
20
-55.6436
11
179.572
21
-55.5483
0
LINE
8
BLACK
6
CONTINUOUS
10
179.572
20
-55.5483
11
179.667
21
-55.5007
0
LINE
8
BLACK
6
CONTINUOUS
10
179.667
20
-55.5007
11
179.81
21
-55.5007
0
LINE
8
BLACK
6
CONTINUOUS
10
179.81
20
-55.5007
11
179.905
21
-55.5483
0
LINE
8
BLACK
6
CONTINUOUS
10
179.905
20
-55.5483
11
179.953
21
-55.6436
0
LINE
8
BLACK
6
CONTINUOUS
10
179.953
20
-55.6436
11
179.953
21
-56.1674
0
LINE
8
BLACK
6
CONTINUOUS
10
180.429
20
-56.1674
11
180.429
21
-55.5007
0
LINE
8
BLACK
6
CONTINUOUS
10
180.429
20
-55.596
11
180.476
21
-55.5483
0
LINE
8
BLACK
6
CONTINUOUS
10
180.476
20
-55.5483
11
180.572
21
-55.5007
0
LINE
8
BLACK
6
CONTINUOUS
10
180.572
20
-55.5007
11
180.714
21
-55.5007
0
LINE
8
BLACK
6
CONTINUOUS
10
180.714
20
-55.5007
11
180.81
21
-55.5483
0
LINE
8
BLACK
6
CONTINUOUS
10
180.81
20
-55.5483
11
180.857
21
-55.6436
0
LINE
8
BLACK
6
CONTINUOUS
10
180.857
20
-55.6436
11
180.857
21
-56.1674
0
LINE
8
BLACK
6
CONTINUOUS
10
180.857
20
-55.6436
11
180.905
21
-55.5483
0
LINE
8
BLACK
6
CONTINUOUS
10
180.905
20
-55.5483
11
181
21
-55.5007
0
LINE
8
BLACK
6
CONTINUOUS
10
181
20
-55.5007
11
181.143
21
-55.5007
0
LINE
8
BLACK
6
CONTINUOUS
10
181.143
20
-55.5007
11
181.238
21
-55.5483
0
LINE
8
BLACK
6
CONTINUOUS
10
181.238
20
-55.5483
11
181.286
21
-55.6436
0
LINE
8
BLACK
6
CONTINUOUS
10
181.286
20
-55.6436
11
181.286
21
-56.1674
0
LINE
8
BLACK
6
CONTINUOUS
10
176.804
20
-56.915
11
178.529
21
-56.915
0
LINE
8
BLACK
6
CONTINUOUS
10
176.804
20
-57.455
11
176.804
21
-56.3286
0
LINE
8
BLACK
6
CONTINUOUS
10
178.529
20
-57.455
11
178.529
21
-56.3286
0
LINE
8
BLACK
6
CONTINUOUS
10
178.529
20
-56.915
11
177.403
21
-57.5014
0
LINE
8
BLACK
6
CONTINUOUS
10
178.529
20
-56.915
11
177.403
21
-56.3286
0
LINE
8
BLACK
6
CONTINUOUS
10
176.804
20
-56.915
11
177.931
21
-57.5014
0
LINE
8
BLACK
6
CONTINUOUS
10
176.804
20
-56.915
11
177.931
21
-56.3286
0
LINE
8
BLACK
6
CONTINUOUS
10
171.964
20
-73.5074
11
171.774
21
-73.5074
0
LINE
8
BLACK
6
CONTINUOUS
10
171.774
20
-73.5074
11
171.678
21
-73.555
0
LINE
8
BLACK
6
CONTINUOUS
10
171.678
20
-73.555
11
171.631
21
-73.6026
0
LINE
8
BLACK
6
CONTINUOUS
10
171.631
20
-73.6026
11
171.535
21
-73.7455
0
LINE
8
BLACK
6
CONTINUOUS
10
171.535
20
-73.7455
11
171.488
21
-73.936
0
LINE
8
BLACK
6
CONTINUOUS
10
171.488
20
-73.936
11
171.488
21
-74.3169
0
LINE
8
BLACK
6
CONTINUOUS
10
171.488
20
-74.3169
11
171.535
21
-74.4121
0
LINE
8
BLACK
6
CONTINUOUS
10
171.535
20
-74.4121
11
171.583
21
-74.4598
0
LINE
8
BLACK
6
CONTINUOUS
10
171.583
20
-74.4598
11
171.678
21
-74.5074
0
LINE
8
BLACK
6
CONTINUOUS
10
171.678
20
-74.5074
11
171.869
21
-74.5074
0
LINE
8
BLACK
6
CONTINUOUS
10
171.869
20
-74.5074
11
171.964
21
-74.4598
0
LINE
8
BLACK
6
CONTINUOUS
10
171.964
20
-74.4598
11
172.012
21
-74.4121
0
LINE
8
BLACK
6
CONTINUOUS
10
172.012
20
-74.4121
11
172.059
21
-74.3169
0
LINE
8
BLACK
6
CONTINUOUS
10
172.059
20
-74.3169
11
172.059
21
-74.0788
0
LINE
8
BLACK
6
CONTINUOUS
10
172.059
20
-74.0788
11
172.012
21
-73.9836
0
LINE
8
BLACK
6
CONTINUOUS
10
172.012
20
-73.9836
11
171.964
21
-73.936
0
LINE
8
BLACK
6
CONTINUOUS
10
171.964
20
-73.936
11
171.869
21
-73.8883
0
LINE
8
BLACK
6
CONTINUOUS
10
171.869
20
-73.8883
11
171.678
21
-73.8883
0
LINE
8
BLACK
6
CONTINUOUS
10
171.678
20
-73.8883
11
171.583
21
-73.936
0
LINE
8
BLACK
6
CONTINUOUS
10
171.583
20
-73.936
11
171.535
21
-73.9836
0
LINE
8
BLACK
6
CONTINUOUS
10
171.535
20
-73.9836
11
171.488
21
-74.0788
0
LINE
8
BLACK
6
CONTINUOUS
10
172.488
20
-74.4121
11
172.535
21
-74.4598
0
LINE
8
BLACK
6
CONTINUOUS
10
172.535
20
-74.4598
11
172.488
21
-74.5074
0
LINE
8
BLACK
6
CONTINUOUS
10
172.488
20
-74.5074
11
172.44
21
-74.4598
0
LINE
8
BLACK
6
CONTINUOUS
10
172.44
20
-74.4598
11
172.488
21
-74.4121
0
LINE
8
BLACK
6
CONTINUOUS
10
172.488
20
-74.4121
11
172.488
21
-74.5074
0
LINE
8
BLACK
6
CONTINUOUS
10
172.869
20
-73.5074
11
173.535
21
-73.5074
0
LINE
8
BLACK
6
CONTINUOUS
10
173.535
20
-73.5074
11
173.107
21
-74.5074
0
LINE
8
BLACK
6
CONTINUOUS
10
174.393
20
-73.5074
11
173.916
21
-73.5074
0
LINE
8
BLACK
6
CONTINUOUS
10
173.916
20
-73.5074
11
173.869
21
-73.9836
0
LINE
8
BLACK
6
CONTINUOUS
10
173.869
20
-73.9836
11
173.916
21
-73.936
0
LINE
8
BLACK
6
CONTINUOUS
10
173.916
20
-73.936
11
174.012
21
-73.8883
0
LINE
8
BLACK
6
CONTINUOUS
10
174.012
20
-73.8883
11
174.25
21
-73.8883
0
LINE
8
BLACK
6
CONTINUOUS
10
174.25
20
-73.8883
11
174.345
21
-73.936
0
LINE
8
BLACK
6
CONTINUOUS
10
174.345
20
-73.936
11
174.393
21
-73.9836
0
LINE
8
BLACK
6
CONTINUOUS
10
174.393
20
-73.9836
11
174.44
21
-74.0788
0
LINE
8
BLACK
6
CONTINUOUS
10
174.44
20
-74.0788
11
174.44
21
-74.3169
0
LINE
8
BLACK
6
CONTINUOUS
10
174.44
20
-74.3169
11
174.393
21
-74.4121
0
LINE
8
BLACK
6
CONTINUOUS
10
174.393
20
-74.4121
11
174.345
21
-74.4598
0
LINE
8
BLACK
6
CONTINUOUS
10
174.345
20
-74.4598
11
174.25
21
-74.5074
0
LINE
8
BLACK
6
CONTINUOUS
10
174.25
20
-74.5074
11
174.012
21
-74.5074
0
LINE
8
BLACK
6
CONTINUOUS
10
174.012
20
-74.5074
11
173.916
21
-74.4598
0
LINE
8
BLACK
6
CONTINUOUS
10
173.916
20
-74.4598
11
173.869
21
-74.4121
0
LINE
8
BLACK
6
CONTINUOUS
10
175.059
20
-73.5074
11
175.154
21
-73.5074
0
LINE
8
BLACK
6
CONTINUOUS
10
175.154
20
-73.5074
11
175.25
21
-73.555
0
LINE
8
BLACK
6
CONTINUOUS
10
175.25
20
-73.555
11
175.297
21
-73.6026
0
LINE
8
BLACK
6
CONTINUOUS
10
175.297
20
-73.6026
11
175.345
21
-73.6979
0
LINE
8
BLACK
6
CONTINUOUS
10
175.345
20
-73.6979
11
175.393
21
-73.8883
0
LINE
8
BLACK
6
CONTINUOUS
10
175.393
20
-73.8883
11
175.393
21
-74.1264
0
LINE
8
BLACK
6
CONTINUOUS
10
175.393
20
-74.1264
11
175.345
21
-74.3169
0
LINE
8
BLACK
6
CONTINUOUS
10
175.345
20
-74.3169
11
175.297
21
-74.4121
0
LINE
8
BLACK
6
CONTINUOUS
10
175.297
20
-74.4121
11
175.25
21
-74.4598
0
LINE
8
BLACK
6
CONTINUOUS
10
175.25
20
-74.4598
11
175.154
21
-74.5074
0
LINE
8
BLACK
6
CONTINUOUS
10
175.154
20
-74.5074
11
175.059
21
-74.5074
0
LINE
8
BLACK
6
CONTINUOUS
10
175.059
20
-74.5074
11
174.964
21
-74.4598
0
LINE
8
BLACK
6
CONTINUOUS
10
174.964
20
-74.4598
11
174.916
21
-74.4121
0
LINE
8
BLACK
6
CONTINUOUS
10
174.916
20
-74.4121
11
174.869
21
-74.3169
0
LINE
8
BLACK
6
CONTINUOUS
10
174.869
20
-74.3169
11
174.821
21
-74.1264
0
LINE
8
BLACK
6
CONTINUOUS
10
174.821
20
-74.1264
11
174.821
21
-73.8883
0
LINE
8
BLACK
6
CONTINUOUS
10
174.821
20
-73.8883
11
174.869
21
-73.6979
0
LINE
8
BLACK
6
CONTINUOUS
10
174.869
20
-73.6979
11
174.916
21
-73.6026
0
LINE
8
BLACK
6
CONTINUOUS
10
174.916
20
-73.6026
11
174.964
21
-73.555
0
LINE
8
BLACK
6
CONTINUOUS
10
174.964
20
-73.555
11
175.059
21
-73.5074
0
LINE
8
BLACK
6
CONTINUOUS
10
176.583
20
-74.5074
11
176.583
21
-73.8407
0
LINE
8
BLACK
6
CONTINUOUS
10
176.583
20
-73.936
11
176.631
21
-73.8883
0
LINE
8
BLACK
6
CONTINUOUS
10
176.631
20
-73.8883
11
176.726
21
-73.8407
0
LINE
8
BLACK
6
CONTINUOUS
10
176.726
20
-73.8407
11
176.869
21
-73.8407
0
LINE
8
BLACK
6
CONTINUOUS
10
176.869
20
-73.8407
11
176.964
21
-73.8883
0
LINE
8
BLACK
6
CONTINUOUS
10
176.964
20
-73.8883
11
177.012
21
-73.9836
0
LINE
8
BLACK
6
CONTINUOUS
10
177.012
20
-73.9836
11
177.012
21
-74.5074
0
LINE
8
BLACK
6
CONTINUOUS
10
177.012
20
-73.9836
11
177.059
21
-73.8883
0
LINE
8
BLACK
6
CONTINUOUS
10
177.059
20
-73.8883
11
177.154
21
-73.8407
0
LINE
8
BLACK
6
CONTINUOUS
10
177.154
20
-73.8407
11
177.297
21
-73.8407
0
LINE
8
BLACK
6
CONTINUOUS
10
177.297
20
-73.8407
11
177.393
21
-73.8883
0
LINE
8
BLACK
6
CONTINUOUS
10
177.393
20
-73.8883
11
177.44
21
-73.9836
0
LINE
8
BLACK
6
CONTINUOUS
10
177.44
20
-73.9836
11
177.44
21
-74.5074
0
LINE
8
BLACK
6
CONTINUOUS
10
177.916
20
-74.5074
11
177.916
21
-73.8407
0
LINE
8
BLACK
6
CONTINUOUS
10
177.916
20
-73.936
11
177.964
21
-73.8883
0
LINE
8
BLACK
6
CONTINUOUS
10
177.964
20
-73.8883
11
178.059
21
-73.8407
0
LINE
8
BLACK
6
CONTINUOUS
10
178.059
20
-73.8407
11
178.202
21
-73.8407
0
LINE
8
BLACK
6
CONTINUOUS
10
178.202
20
-73.8407
11
178.297
21
-73.8883
0
LINE
8
BLACK
6
CONTINUOUS
10
178.297
20
-73.8883
11
178.345
21
-73.9836
0
LINE
8
BLACK
6
CONTINUOUS
10
178.345
20
-73.9836
11
178.345
21
-74.5074
0
LINE
8
BLACK
6
CONTINUOUS
10
178.345
20
-73.9836
11
178.393
21
-73.8883
0
LINE
8
BLACK
6
CONTINUOUS
10
178.393
20
-73.8883
11
178.488
21
-73.8407
0
LINE
8
BLACK
6
CONTINUOUS
10
178.488
20
-73.8407
11
178.631
21
-73.8407
0
LINE
8
BLACK
6
CONTINUOUS
10
178.631
20
-73.8407
11
178.726
21
-73.8883
0
LINE
8
BLACK
6
CONTINUOUS
10
178.726
20
-73.8883
11
178.774
21
-73.9836
0
LINE
8
BLACK
6
CONTINUOUS
10
178.774
20
-73.9836
11
178.774
21
-74.5074
0
LINE
8
BLACK
6
CONTINUOUS
10
178.529
20
-75.255
11
171.779
21
-75.255
0
LINE
8
BLACK
6
CONTINUOUS
10
178.529
20
-75.255
11
178.529
21
-74.6686
0
LINE
8
BLACK
6
CONTINUOUS
10
171.779
20
-75.255
11
171.779
21
-74.6686
0
LINE
8
BLACK
6
CONTINUOUS
10
171.779
20
-75.255
11
172.906
21
-74.6686
0
LINE
8
BLACK
6
CONTINUOUS
10
171.779
20
-75.255
11
172.906
21
-75.8414
0
LINE
8
BLACK
6
CONTINUOUS
10
178.529
20
-75.255
11
177.403
21
-74.6686
0
LINE
8
BLACK
6
CONTINUOUS
10
178.529
20
-75.255
11
177.403
21
-75.8414
0
LINE
8
BLACK
6
CONTINUOUS
10
169.547
20
-57.3674
11
168.975
21
-57.3674
0
LINE
8
BLACK
6
CONTINUOUS
10
169.261
20
-57.3674
11
169.261
21
-56.3674
0
LINE
8
BLACK
6
CONTINUOUS
10
169.261
20
-56.3674
11
169.166
21
-56.5102
0
LINE
8
BLACK
6
CONTINUOUS
10
169.166
20
-56.5102
11
169.071
21
-56.6055
0
LINE
8
BLACK
6
CONTINUOUS
10
169.071
20
-56.6055
11
168.975
21
-56.6531
0
LINE
8
BLACK
6
CONTINUOUS
10
169.975
20
-57.2721
11
170.023
21
-57.3198
0
LINE
8
BLACK
6
CONTINUOUS
10
170.023
20
-57.3198
11
169.975
21
-57.3674
0
LINE
8
BLACK
6
CONTINUOUS
10
169.975
20
-57.3674
11
169.928
21
-57.3198
0
LINE
8
BLACK
6
CONTINUOUS
10
169.928
20
-57.3198
11
169.975
21
-57.2721
0
LINE
8
BLACK
6
CONTINUOUS
10
169.975
20
-57.2721
11
169.975
21
-57.3674
0
LINE
8
BLACK
6
CONTINUOUS
10
170.356
20
-56.3674
11
171.023
21
-56.3674
0
LINE
8
BLACK
6
CONTINUOUS
10
171.023
20
-56.3674
11
170.594
21
-57.3674
0
LINE
8
BLACK
6
CONTINUOUS
10
171.356
20
-56.4626
11
171.404
21
-56.415
0
LINE
8
BLACK
6
CONTINUOUS
10
171.404
20
-56.415
11
171.499
21
-56.3674
0
LINE
8
BLACK
6
CONTINUOUS
10
171.499
20
-56.3674
11
171.737
21
-56.3674
0
LINE
8
BLACK
6
CONTINUOUS
10
171.737
20
-56.3674
11
171.832
21
-56.415
0
LINE
8
BLACK
6
CONTINUOUS
10
171.832
20
-56.415
11
171.88
21
-56.4626
0
LINE
8
BLACK
6
CONTINUOUS
10
171.88
20
-56.4626
11
171.928
21
-56.5579
0
LINE
8
BLACK
6
CONTINUOUS
10
171.928
20
-56.5579
11
171.928
21
-56.6531
0
LINE
8
BLACK
6
CONTINUOUS
10
171.928
20
-56.6531
11
171.88
21
-56.796
0
LINE
8
BLACK
6
CONTINUOUS
10
171.88
20
-56.796
11
171.309
21
-57.3674
0
LINE
8
BLACK
6
CONTINUOUS
10
171.309
20
-57.3674
11
171.928
21
-57.3674
0
LINE
8
BLACK
6
CONTINUOUS
10
172.832
20
-56.3674
11
172.356
21
-56.3674
0
LINE
8
BLACK
6
CONTINUOUS
10
172.356
20
-56.3674
11
172.309
21
-56.8436
0
LINE
8
BLACK
6
CONTINUOUS
10
172.309
20
-56.8436
11
172.356
21
-56.796
0
LINE
8
BLACK
6
CONTINUOUS
10
172.356
20
-56.796
11
172.452
21
-56.7483
0
LINE
8
BLACK
6
CONTINUOUS
10
172.452
20
-56.7483
11
172.69
21
-56.7483
0
LINE
8
BLACK
6
CONTINUOUS
10
172.69
20
-56.7483
11
172.785
21
-56.796
0
LINE
8
BLACK
6
CONTINUOUS
10
172.785
20
-56.796
11
172.832
21
-56.8436
0
LINE
8
BLACK
6
CONTINUOUS
10
172.832
20
-56.8436
11
172.88
21
-56.9388
0
LINE
8
BLACK
6
CONTINUOUS
10
172.88
20
-56.9388
11
172.88
21
-57.1769
0
LINE
8
BLACK
6
CONTINUOUS
10
172.88
20
-57.1769
11
172.832
21
-57.2721
0
LINE
8
BLACK
6
CONTINUOUS
10
172.832
20
-57.2721
11
172.785
21
-57.3198
0
LINE
8
BLACK
6
CONTINUOUS
10
172.785
20
-57.3198
11
172.69
21
-57.3674
0
LINE
8
BLACK
6
CONTINUOUS
10
172.69
20
-57.3674
11
172.452
21
-57.3674
0
LINE
8
BLACK
6
CONTINUOUS
10
172.452
20
-57.3674
11
172.356
21
-57.3198
0
LINE
8
BLACK
6
CONTINUOUS
10
172.356
20
-57.3198
11
172.309
21
-57.2721
0
LINE
8
BLACK
6
CONTINUOUS
10
174.071
20
-57.3674
11
174.071
21
-56.7007
0
LINE
8
BLACK
6
CONTINUOUS
10
174.071
20
-56.796
11
174.118
21
-56.7483
0
LINE
8
BLACK
6
CONTINUOUS
10
174.118
20
-56.7483
11
174.213
21
-56.7007
0
LINE
8
BLACK
6
CONTINUOUS
10
174.213
20
-56.7007
11
174.356
21
-56.7007
0
LINE
8
BLACK
6
CONTINUOUS
10
174.356
20
-56.7007
11
174.452
21
-56.7483
0
LINE
8
BLACK
6
CONTINUOUS
10
174.452
20
-56.7483
11
174.499
21
-56.8436
0
LINE
8
BLACK
6
CONTINUOUS
10
174.499
20
-56.8436
11
174.499
21
-57.3674
0
LINE
8
BLACK
6
CONTINUOUS
10
174.499
20
-56.8436
11
174.547
21
-56.7483
0
LINE
8
BLACK
6
CONTINUOUS
10
174.547
20
-56.7483
11
174.642
21
-56.7007
0
LINE
8
BLACK
6
CONTINUOUS
10
174.642
20
-56.7007
11
174.785
21
-56.7007
0
LINE
8
BLACK
6
CONTINUOUS
10
174.785
20
-56.7007
11
174.88
21
-56.7483
0
LINE
8
BLACK
6
CONTINUOUS
10
174.88
20
-56.7483
11
174.928
21
-56.8436
0
LINE
8
BLACK
6
CONTINUOUS
10
174.928
20
-56.8436
11
174.928
21
-57.3674
0
LINE
8
BLACK
6
CONTINUOUS
10
175.404
20
-57.3674
11
175.404
21
-56.7007
0
LINE
8
BLACK
6
CONTINUOUS
10
175.404
20
-56.796
11
175.452
21
-56.7483
0
LINE
8
BLACK
6
CONTINUOUS
10
175.452
20
-56.7483
11
175.547
21
-56.7007
0
LINE
8
BLACK
6
CONTINUOUS
10
175.547
20
-56.7007
11
175.69
21
-56.7007
0
LINE
8
BLACK
6
CONTINUOUS
10
175.69
20
-56.7007
11
175.785
21
-56.7483
0
LINE
8
BLACK
6
CONTINUOUS
10
175.785
20
-56.7483
11
175.832
21
-56.8436
0
LINE
8
BLACK
6
CONTINUOUS
10
175.832
20
-56.8436
11
175.832
21
-57.3674
0
LINE
8
BLACK
6
CONTINUOUS
10
175.832
20
-56.8436
11
175.88
21
-56.7483
0
LINE
8
BLACK
6
CONTINUOUS
10
175.88
20
-56.7483
11
175.975
21
-56.7007
0
LINE
8
BLACK
6
CONTINUOUS
10
175.975
20
-56.7007
11
176.118
21
-56.7007
0
LINE
8
BLACK
6
CONTINUOUS
10
176.118
20
-56.7007
11
176.213
21
-56.7483
0
LINE
8
BLACK
6
CONTINUOUS
10
176.213
20
-56.7483
11
176.261
21
-56.8436
0
LINE
8
BLACK
6
CONTINUOUS
10
176.261
20
-56.8436
11
176.261
21
-57.3674
0
LINE
8
BLACK
6
CONTINUOUS
10
171.779
20
-58.115
11
173.504
21
-58.115
0
LINE
8
BLACK
6
CONTINUOUS
10
171.779
20
-58.455
11
171.779
21
-57.5286
0
LINE
8
BLACK
6
CONTINUOUS
10
173.504
20
-58.455
11
173.504
21
-57.5286
0
LINE
8
BLACK
6
CONTINUOUS
10
173.504
20
-58.115
11
172.378
21
-58.7014
0
LINE
8
BLACK
6
CONTINUOUS
10
173.504
20
-58.115
11
172.378
21
-57.5286
0
LINE
8
BLACK
6
CONTINUOUS
10
171.779
20
-58.115
11
172.906
21
-58.7014
0
LINE
8
BLACK
6
CONTINUOUS
10
171.779
20
-58.115
11
172.906
21
-57.5286
0
LINE
8
BLACK
6
CONTINUOUS
10
232.472
20
-70.6601
11
232.472
21
-71.2315
0
LINE
8
BLACK
6
CONTINUOUS
10
232.472
20
-70.9458
11
231.472
21
-70.9458
0
LINE
8
BLACK
6
CONTINUOUS
10
231.472
20
-70.9458
11
231.615
21
-71.0411
0
LINE
8
BLACK
6
CONTINUOUS
10
231.615
20
-71.0411
11
231.71
21
-71.1363
0
LINE
8
BLACK
6
CONTINUOUS
10
231.71
20
-71.1363
11
231.758
21
-71.2315
0
LINE
8
BLACK
6
CONTINUOUS
10
231.472
20
-70.0411
11
231.472
21
-69.9458
0
LINE
8
BLACK
6
CONTINUOUS
10
231.472
20
-69.9458
11
231.52
21
-69.8506
0
LINE
8
BLACK
6
CONTINUOUS
10
231.52
20
-69.8506
11
231.568
21
-69.803
0
LINE
8
BLACK
6
CONTINUOUS
10
231.568
20
-69.803
11
231.663
21
-69.7554
0
LINE
8
BLACK
6
CONTINUOUS
10
231.663
20
-69.7554
11
231.853
21
-69.7077
0
LINE
8
BLACK
6
CONTINUOUS
10
231.853
20
-69.7077
11
232.091
21
-69.7077
0
LINE
8
BLACK
6
CONTINUOUS
10
232.091
20
-69.7077
11
232.282
21
-69.7554
0
LINE
8
BLACK
6
CONTINUOUS
10
232.282
20
-69.7554
11
232.377
21
-69.803
0
LINE
8
BLACK
6
CONTINUOUS
10
232.377
20
-69.803
11
232.425
21
-69.8506
0
LINE
8
BLACK
6
CONTINUOUS
10
232.425
20
-69.8506
11
232.472
21
-69.9458
0
LINE
8
BLACK
6
CONTINUOUS
10
232.472
20
-69.9458
11
232.472
21
-70.0411
0
LINE
8
BLACK
6
CONTINUOUS
10
232.472
20
-70.0411
11
232.425
21
-70.1363
0
LINE
8
BLACK
6
CONTINUOUS
10
232.425
20
-70.1363
11
232.377
21
-70.1839
0
LINE
8
BLACK
6
CONTINUOUS
10
232.377
20
-70.1839
11
232.282
21
-70.2315
0
LINE
8
BLACK
6
CONTINUOUS
10
232.282
20
-70.2315
11
232.091
21
-70.2792
0
LINE
8
BLACK
6
CONTINUOUS
10
232.091
20
-70.2792
11
231.853
21
-70.2792
0
LINE
8
BLACK
6
CONTINUOUS
10
231.853
20
-70.2792
11
231.663
21
-70.2315
0
LINE
8
BLACK
6
CONTINUOUS
10
231.663
20
-70.2315
11
231.568
21
-70.1839
0
LINE
8
BLACK
6
CONTINUOUS
10
231.568
20
-70.1839
11
231.52
21
-70.1363
0
LINE
8
BLACK
6
CONTINUOUS
10
231.52
20
-70.1363
11
231.472
21
-70.0411
0
LINE
8
BLACK
6
CONTINUOUS
10
231.806
20
-68.8506
11
232.472
21
-68.8506
0
LINE
8
BLACK
6
CONTINUOUS
10
231.425
20
-69.0887
11
232.139
21
-69.3268
0
LINE
8
BLACK
6
CONTINUOUS
10
232.139
20
-69.3268
11
232.139
21
-68.7077
0
LINE
8
BLACK
6
CONTINUOUS
10
232.377
20
-68.3268
11
232.425
21
-68.2792
0
LINE
8
BLACK
6
CONTINUOUS
10
232.425
20
-68.2792
11
232.472
21
-68.3268
0
LINE
8
BLACK
6
CONTINUOUS
10
232.472
20
-68.3268
11
232.425
21
-68.3744
0
LINE
8
BLACK
6
CONTINUOUS
10
232.425
20
-68.3744
11
232.377
21
-68.3268
0
LINE
8
BLACK
6
CONTINUOUS
10
232.377
20
-68.3268
11
232.472
21
-68.3268
0
LINE
8
BLACK
6
CONTINUOUS
10
231.472
20
-67.9458
11
231.472
21
-67.2792
0
LINE
8
BLACK
6
CONTINUOUS
10
231.472
20
-67.2792
11
232.472
21
-67.7077
0
LINE
8
BLACK
6
CONTINUOUS
10
231.472
20
-66.9935
11
231.472
21
-66.3268
0
LINE
8
BLACK
6
CONTINUOUS
10
231.472
20
-66.3268
11
232.472
21
-66.7554
0
LINE
8
BLACK
6
CONTINUOUS
10
231.472
20
-65.4696
11
231.472
21
-65.9458
0
LINE
8
BLACK
6
CONTINUOUS
10
231.472
20
-65.9458
11
231.949
21
-65.9935
0
LINE
8
BLACK
6
CONTINUOUS
10
231.949
20
-65.9935
11
231.901
21
-65.9458
0
LINE
8
BLACK
6
CONTINUOUS
10
231.901
20
-65.9458
11
231.853
21
-65.8506
0
LINE
8
BLACK
6
CONTINUOUS
10
231.853
20
-65.8506
11
231.853
21
-65.6125
0
LINE
8
BLACK
6
CONTINUOUS
10
231.853
20
-65.6125
11
231.901
21
-65.5173
0
LINE
8
BLACK
6
CONTINUOUS
10
231.901
20
-65.5173
11
231.949
21
-65.4696
0
LINE
8
BLACK
6
CONTINUOUS
10
231.949
20
-65.4696
11
232.044
21
-65.422
0
LINE
8
BLACK
6
CONTINUOUS
10
232.044
20
-65.422
11
232.282
21
-65.422
0
LINE
8
BLACK
6
CONTINUOUS
10
232.282
20
-65.422
11
232.377
21
-65.4696
0
LINE
8
BLACK
6
CONTINUOUS
10
232.377
20
-65.4696
11
232.425
21
-65.5173
0
LINE
8
BLACK
6
CONTINUOUS
10
232.425
20
-65.5173
11
232.472
21
-65.6125
0
LINE
8
BLACK
6
CONTINUOUS
10
232.472
20
-65.6125
11
232.472
21
-65.8506
0
LINE
8
BLACK
6
CONTINUOUS
10
232.472
20
-65.8506
11
232.425
21
-65.9458
0
LINE
8
BLACK
6
CONTINUOUS
10
232.425
20
-65.9458
11
232.377
21
-65.9935
0
LINE
8
BLACK
6
CONTINUOUS
10
232.472
20
-64.2315
11
231.806
21
-64.2315
0
LINE
8
BLACK
6
CONTINUOUS
10
231.901
20
-64.2315
11
231.853
21
-64.1839
0
LINE
8
BLACK
6
CONTINUOUS
10
231.853
20
-64.1839
11
231.806
21
-64.0887
0
LINE
8
BLACK
6
CONTINUOUS
10
231.806
20
-64.0887
11
231.806
21
-63.9458
0
LINE
8
BLACK
6
CONTINUOUS
10
231.806
20
-63.9458
11
231.853
21
-63.8506
0
LINE
8
BLACK
6
CONTINUOUS
10
231.853
20
-63.8506
11
231.949
21
-63.803
0
LINE
8
BLACK
6
CONTINUOUS
10
231.949
20
-63.803
11
232.472
21
-63.803
0
LINE
8
BLACK
6
CONTINUOUS
10
231.949
20
-63.803
11
231.853
21
-63.7554
0
LINE
8
BLACK
6
CONTINUOUS
10
231.853
20
-63.7554
11
231.806
21
-63.6601
0
LINE
8
BLACK
6
CONTINUOUS
10
231.806
20
-63.6601
11
231.806
21
-63.5173
0
LINE
8
BLACK
6
CONTINUOUS
10
231.806
20
-63.5173
11
231.853
21
-63.422
0
LINE
8
BLACK
6
CONTINUOUS
10
231.853
20
-63.422
11
231.949
21
-63.3744
0
LINE
8
BLACK
6
CONTINUOUS
10
231.949
20
-63.3744
11
232.472
21
-63.3744
0
LINE
8
BLACK
6
CONTINUOUS
10
232.472
20
-62.8982
11
231.806
21
-62.8982
0
LINE
8
BLACK
6
CONTINUOUS
10
231.901
20
-62.8982
11
231.853
21
-62.8506
0
LINE
8
BLACK
6
CONTINUOUS
10
231.853
20
-62.8506
11
231.806
21
-62.7554
0
LINE
8
BLACK
6
CONTINUOUS
10
231.806
20
-62.7554
11
231.806
21
-62.6125
0
LINE
8
BLACK
6
CONTINUOUS
10
231.806
20
-62.6125
11
231.853
21
-62.5173
0
LINE
8
BLACK
6
CONTINUOUS
10
231.853
20
-62.5173
11
231.949
21
-62.4696
0
LINE
8
BLACK
6
CONTINUOUS
10
231.949
20
-62.4696
11
232.472
21
-62.4696
0
LINE
8
BLACK
6
CONTINUOUS
10
231.949
20
-62.4696
11
231.853
21
-62.422
0
LINE
8
BLACK
6
CONTINUOUS
10
231.853
20
-62.422
11
231.806
21
-62.3268
0
LINE
8
BLACK
6
CONTINUOUS
10
231.806
20
-62.3268
11
231.806
21
-62.1839
0
LINE
8
BLACK
6
CONTINUOUS
10
231.806
20
-62.1839
11
231.853
21
-62.0887
0
LINE
8
BLACK
6
CONTINUOUS
10
231.853
20
-62.0887
11
231.949
21
-62.0411
0
LINE
8
BLACK
6
CONTINUOUS
10
231.949
20
-62.0411
11
232.472
21
-62.0411
0
LINE
8
BLACK
6
CONTINUOUS
10
230.72
20
-119
11
230.72
21
-14.225
0
LINE
8
BLACK
6
CONTINUOUS
10
229.537
20
-119
11
231.306
21
-119
0
LINE
8
BLACK
6
CONTINUOUS
10
229.537
20
-14.225
11
231.306
21
-14.225
0
LINE
8
BLACK
6
CONTINUOUS
10
230.72
20
-14.225
11
231.306
21
-15.3515
0
LINE
8
BLACK
6
CONTINUOUS
10
230.72
20
-14.225
11
230.134
21
-15.3515
0
LINE
8
BLACK
6
CONTINUOUS
10
230.72
20
-119
11
231.306
21
-117.873
0
LINE
8
BLACK
6
CONTINUOUS
10
230.72
20
-119
11
230.134
21
-117.873
0
CIRCLE
8
BLACK
10
122.762
20
-57.225
40
1.1
0
LINE
8
BLACK
6
CONTINUOUS
10
41.8224
20
-103.12
11
41.87
21
-103.167
0
LINE
8
BLACK
6
CONTINUOUS
10
41.87
20
-103.167
11
41.9176
21
-103.262
0
LINE
8
BLACK
6
CONTINUOUS
10
41.9176
20
-103.262
11
41.9176
21
-103.501
0
LINE
8
BLACK
6
CONTINUOUS
10
41.9176
20
-103.501
11
41.87
21
-103.596
0
LINE
8
BLACK
6
CONTINUOUS
10
41.87
20
-103.596
11
41.8224
21
-103.643
0
LINE
8
BLACK
6
CONTINUOUS
10
41.8224
20
-103.643
11
41.7271
21
-103.691
0
LINE
8
BLACK
6
CONTINUOUS
10
41.7271
20
-103.691
11
41.6319
21
-103.691
0
LINE
8
BLACK
6
CONTINUOUS
10
41.6319
20
-103.691
11
41.489
21
-103.643
0
LINE
8
BLACK
6
CONTINUOUS
10
41.489
20
-103.643
11
40.9176
21
-103.072
0
LINE
8
BLACK
6
CONTINUOUS
10
40.9176
20
-103.072
11
40.9176
21
-103.691
0
LINE
8
BLACK
6
CONTINUOUS
10
41.9176
20
-104.024
11
41.9176
21
-104.643
0
LINE
8
BLACK
6
CONTINUOUS
10
41.9176
20
-104.643
11
41.5367
21
-104.31
0
LINE
8
BLACK
6
CONTINUOUS
10
41.5367
20
-104.31
11
41.5367
21
-104.453
0
LINE
8
BLACK
6
CONTINUOUS
10
41.5367
20
-104.453
11
41.489
21
-104.548
0
LINE
8
BLACK
6
CONTINUOUS
10
41.489
20
-104.548
11
41.4414
21
-104.596
0
LINE
8
BLACK
6
CONTINUOUS
10
41.4414
20
-104.596
11
41.3462
21
-104.643
0
LINE
8
BLACK
6
CONTINUOUS
10
41.3462
20
-104.643
11
41.1081
21
-104.643
0
LINE
8
BLACK
6
CONTINUOUS
10
41.1081
20
-104.643
11
41.0129
21
-104.596
0
LINE
8
BLACK
6
CONTINUOUS
10
41.0129
20
-104.596
11
40.9652
21
-104.548
0
LINE
8
BLACK
6
CONTINUOUS
10
40.9652
20
-104.548
11
40.9176
21
-104.453
0
LINE
8
BLACK
6
CONTINUOUS
10
40.9176
20
-104.453
11
40.9176
21
-104.167
0
LINE
8
BLACK
6
CONTINUOUS
10
40.9176
20
-104.167
11
40.9652
21
-104.072
0
LINE
8
BLACK
6
CONTINUOUS
10
40.9652
20
-104.072
11
41.0129
21
-104.024
0
LINE
8
BLACK
6
CONTINUOUS
10
41.0129
20
-105.072
11
40.9652
21
-105.12
0
LINE
8
BLACK
6
CONTINUOUS
10
40.9652
20
-105.12
11
40.9176
21
-105.072
0
LINE
8
BLACK
6
CONTINUOUS
10
40.9176
20
-105.072
11
40.9652
21
-105.024
0
LINE
8
BLACK
6
CONTINUOUS
10
40.9652
20
-105.024
11
41.0129
21
-105.072
0
LINE
8
BLACK
6
CONTINUOUS
10
41.0129
20
-105.072
11
40.9176
21
-105.072
0
LINE
8
BLACK
6
CONTINUOUS
10
40.9176
20
-105.596
11
40.9176
21
-105.786
0
LINE
8
BLACK
6
CONTINUOUS
10
40.9176
20
-105.786
11
40.9652
21
-105.882
0
LINE
8
BLACK
6
CONTINUOUS
10
40.9652
20
-105.882
11
41.0129
21
-105.929
0
LINE
8
BLACK
6
CONTINUOUS
10
41.0129
20
-105.929
11
41.1557
21
-106.024
0
LINE
8
BLACK
6
CONTINUOUS
10
41.1557
20
-106.024
11
41.3462
21
-106.072
0
LINE
8
BLACK
6
CONTINUOUS
10
41.3462
20
-106.072
11
41.7271
21
-106.072
0
LINE
8
BLACK
6
CONTINUOUS
10
41.7271
20
-106.072
11
41.8224
21
-106.024
0
LINE
8
BLACK
6
CONTINUOUS
10
41.8224
20
-106.024
11
41.87
21
-105.977
0
LINE
8
BLACK
6
CONTINUOUS
10
41.87
20
-105.977
11
41.9176
21
-105.882
0
LINE
8
BLACK
6
CONTINUOUS
10
41.9176
20
-105.882
11
41.9176
21
-105.691
0
LINE
8
BLACK
6
CONTINUOUS
10
41.9176
20
-105.691
11
41.87
21
-105.596
0
LINE
8
BLACK
6
CONTINUOUS
10
41.87
20
-105.596
11
41.8224
21
-105.548
0
LINE
8
BLACK
6
CONTINUOUS
10
41.8224
20
-105.548
11
41.7271
21
-105.501
0
LINE
8
BLACK
6
CONTINUOUS
10
41.7271
20
-105.501
11
41.489
21
-105.501
0
LINE
8
BLACK
6
CONTINUOUS
10
41.489
20
-105.501
11
41.3938
21
-105.548
0
LINE
8
BLACK
6
CONTINUOUS
10
41.3938
20
-105.548
11
41.3462
21
-105.596
0
LINE
8
BLACK
6
CONTINUOUS
10
41.3462
20
-105.596
11
41.2986
21
-105.691
0
LINE
8
BLACK
6
CONTINUOUS
10
41.2986
20
-105.691
11
41.2986
21
-105.882
0
LINE
8
BLACK
6
CONTINUOUS
10
41.2986
20
-105.882
11
41.3462
21
-105.977
0
LINE
8
BLACK
6
CONTINUOUS
10
41.3462
20
-105.977
11
41.3938
21
-106.024
0
LINE
8
BLACK
6
CONTINUOUS
10
41.3938
20
-106.024
11
41.489
21
-106.072
0
LINE
8
BLACK
6
CONTINUOUS
10
41.8224
20
-106.453
11
41.87
21
-106.501
0
LINE
8
BLACK
6
CONTINUOUS
10
41.87
20
-106.501
11
41.9176
21
-106.596
0
LINE
8
BLACK
6
CONTINUOUS
10
41.9176
20
-106.596
11
41.9176
21
-106.834
0
LINE
8
BLACK
6
CONTINUOUS
10
41.9176
20
-106.834
11
41.87
21
-106.929
0
LINE
8
BLACK
6
CONTINUOUS
10
41.87
20
-106.929
11
41.8224
21
-106.977
0
LINE
8
BLACK
6
CONTINUOUS
10
41.8224
20
-106.977
11
41.7271
21
-107.024
0
LINE
8
BLACK
6
CONTINUOUS
10
41.7271
20
-107.024
11
41.6319
21
-107.024
0
LINE
8
BLACK
6
CONTINUOUS
10
41.6319
20
-107.024
11
41.489
21
-106.977
0
LINE
8
BLACK
6
CONTINUOUS
10
41.489
20
-106.977
11
40.9176
21
-106.405
0
LINE
8
BLACK
6
CONTINUOUS
10
40.9176
20
-106.405
11
40.9176
21
-107.024
0
LINE
8
BLACK
6
CONTINUOUS
10
41.9176
20
-107.929
11
41.9176
21
-107.453
0
LINE
8
BLACK
6
CONTINUOUS
10
41.9176
20
-107.453
11
41.4414
21
-107.405
0
LINE
8
BLACK
6
CONTINUOUS
10
41.4414
20
-107.405
11
41.489
21
-107.453
0
LINE
8
BLACK
6
CONTINUOUS
10
41.489
20
-107.453
11
41.5367
21
-107.548
0
LINE
8
BLACK
6
CONTINUOUS
10
41.5367
20
-107.548
11
41.5367
21
-107.786
0
LINE
8
BLACK
6
CONTINUOUS
10
41.5367
20
-107.786
11
41.489
21
-107.882
0
LINE
8
BLACK
6
CONTINUOUS
10
41.489
20
-107.882
11
41.4414
21
-107.929
0
LINE
8
BLACK
6
CONTINUOUS
10
41.4414
20
-107.929
11
41.3462
21
-107.977
0
LINE
8
BLACK
6
CONTINUOUS
10
41.3462
20
-107.977
11
41.1081
21
-107.977
0
LINE
8
BLACK
6
CONTINUOUS
10
41.1081
20
-107.977
11
41.0129
21
-107.929
0
LINE
8
BLACK
6
CONTINUOUS
10
41.0129
20
-107.929
11
40.9652
21
-107.882
0
LINE
8
BLACK
6
CONTINUOUS
10
40.9652
20
-107.882
11
40.9176
21
-107.786
0
LINE
8
BLACK
6
CONTINUOUS
10
40.9176
20
-107.786
11
40.9176
21
-107.548
0
LINE
8
BLACK
6
CONTINUOUS
10
40.9176
20
-107.548
11
40.9652
21
-107.453
0
LINE
8
BLACK
6
CONTINUOUS
10
40.9652
20
-107.453
11
41.0129
21
-107.405
0
LINE
8
BLACK
6
CONTINUOUS
10
40.9176
20
-109.167
11
41.5843
21
-109.167
0
LINE
8
BLACK
6
CONTINUOUS
10
41.489
20
-109.167
11
41.5367
21
-109.215
0
LINE
8
BLACK
6
CONTINUOUS
10
41.5367
20
-109.215
11
41.5843
21
-109.31
0
LINE
8
BLACK
6
CONTINUOUS
10
41.5843
20
-109.31
11
41.5843
21
-109.453
0
LINE
8
BLACK
6
CONTINUOUS
10
41.5843
20
-109.453
11
41.5367
21
-109.548
0
LINE
8
BLACK
6
CONTINUOUS
10
41.5367
20
-109.548
11
41.4414
21
-109.596
0
LINE
8
BLACK
6
CONTINUOUS
10
41.4414
20
-109.596
11
40.9176
21
-109.596
0
LINE
8
BLACK
6
CONTINUOUS
10
41.4414
20
-109.596
11
41.5367
21
-109.643
0
LINE
8
BLACK
6
CONTINUOUS
10
41.5367
20
-109.643
11
41.5843
21
-109.739
0
LINE
8
BLACK
6
CONTINUOUS
10
41.5843
20
-109.739
11
41.5843
21
-109.882
0
LINE
8
BLACK
6
CONTINUOUS
10
41.5843
20
-109.882
11
41.5367
21
-109.977
0
LINE
8
BLACK
6
CONTINUOUS
10
41.5367
20
-109.977
11
41.4414
21
-110.024
0
LINE
8
BLACK
6
CONTINUOUS
10
41.4414
20
-110.024
11
40.9176
21
-110.024
0
LINE
8
BLACK
6
CONTINUOUS
10
40.9176
20
-110.501
11
41.5843
21
-110.501
0
LINE
8
BLACK
6
CONTINUOUS
10
41.489
20
-110.501
11
41.5367
21
-110.548
0
LINE
8
BLACK
6
CONTINUOUS
10
41.5367
20
-110.548
11
41.5843
21
-110.643
0
LINE
8
BLACK
6
CONTINUOUS
10
41.5843
20
-110.643
11
41.5843
21
-110.786
0
LINE
8
BLACK
6
CONTINUOUS
10
41.5843
20
-110.786
11
41.5367
21
-110.882
0
LINE
8
BLACK
6
CONTINUOUS
10
41.5367
20
-110.882
11
41.4414
21
-110.929
0
LINE
8
BLACK
6
CONTINUOUS
10
41.4414
20
-110.929
11
40.9176
21
-110.929
0
LINE
8
BLACK
6
CONTINUOUS
10
41.4414
20
-110.929
11
41.5367
21
-110.977
0
LINE
8
BLACK
6
CONTINUOUS
10
41.5367
20
-110.977
11
41.5843
21
-111.072
0
LINE
8
BLACK
6
CONTINUOUS
10
41.5843
20
-111.072
11
41.5843
21
-111.215
0
LINE
8
BLACK
6
CONTINUOUS
10
41.5843
20
-111.215
11
41.5367
21
-111.31
0
LINE
8
BLACK
6
CONTINUOUS
10
41.5367
20
-111.31
11
41.4414
21
-111.358
0
LINE
8
BLACK
6
CONTINUOUS
10
41.4414
20
-111.358
11
40.9176
21
-111.358
0
LINE
8
BLACK
6
CONTINUOUS
10
42.67
20
-95.3
11
42.67
21
-119.225
0
LINE
8
BLACK
6
CONTINUOUS
10
43.2375
20
-95.3
11
42.0836
21
-95.3
0
LINE
8
BLACK
6
CONTINUOUS
10
43.2375
20
-119.225
11
42.0836
21
-119.225
0
LINE
8
BLACK
6
CONTINUOUS
10
42.67
20
-119.225
11
42.0836
21
-118.098
0
LINE
8
BLACK
6
CONTINUOUS
10
42.67
20
-119.225
11
43.2564
21
-118.098
0
LINE
8
BLACK
6
CONTINUOUS
10
42.67
20
-95.3
11
42.0836
21
-96.4265
0
LINE
8
BLACK
6
CONTINUOUS
10
42.67
20
-95.3
11
43.2564
21
-96.4265
0
LINE
8
BLACK
6
CONTINUOUS
10
83.4247
20
-121.142
11
82.9485
21
-121.142
0
LINE
8
BLACK
6
CONTINUOUS
10
82.9485
20
-121.142
11
82.9009
21
-121.619
0
LINE
8
BLACK
6
CONTINUOUS
10
82.9009
20
-121.619
11
82.9485
21
-121.571
0
LINE
8
BLACK
6
CONTINUOUS
10
82.9485
20
-121.571
11
83.0438
21
-121.523
0
LINE
8
BLACK
6
CONTINUOUS
10
83.0438
20
-121.523
11
83.2818
21
-121.523
0
LINE
8
BLACK
6
CONTINUOUS
10
83.2818
20
-121.523
11
83.3771
21
-121.571
0
LINE
8
BLACK
6
CONTINUOUS
10
83.3771
20
-121.571
11
83.4247
21
-121.619
0
LINE
8
BLACK
6
CONTINUOUS
10
83.4247
20
-121.619
11
83.4723
21
-121.714
0
LINE
8
BLACK
6
CONTINUOUS
10
83.4723
20
-121.714
11
83.4723
21
-121.952
0
LINE
8
BLACK
6
CONTINUOUS
10
83.4723
20
-121.952
11
83.4247
21
-122.047
0
LINE
8
BLACK
6
CONTINUOUS
10
83.4247
20
-122.047
11
83.3771
21
-122.095
0
LINE
8
BLACK
6
CONTINUOUS
10
83.3771
20
-122.095
11
83.2818
21
-122.142
0
LINE
8
BLACK
6
CONTINUOUS
10
83.2818
20
-122.142
11
83.0438
21
-122.142
0
LINE
8
BLACK
6
CONTINUOUS
10
83.0438
20
-122.142
11
82.9485
21
-122.095
0
LINE
8
BLACK
6
CONTINUOUS
10
82.9485
20
-122.095
11
82.9009
21
-122.047
0
LINE
8
BLACK
6
CONTINUOUS
10
83.8533
20
-121.238
11
83.9009
21
-121.19
0
LINE
8
BLACK
6
CONTINUOUS
10
83.9009
20
-121.19
11
83.9961
21
-121.142
0
LINE
8
BLACK
6
CONTINUOUS
10
83.9961
20
-121.142
11
84.2342
21
-121.142
0
LINE
8
BLACK
6
CONTINUOUS
10
84.2342
20
-121.142
11
84.3295
21
-121.19
0
LINE
8
BLACK
6
CONTINUOUS
10
84.3295
20
-121.19
11
84.3771
21
-121.238
0
LINE
8
BLACK
6
CONTINUOUS
10
84.3771
20
-121.238
11
84.4247
21
-121.333
0
LINE
8
BLACK
6
CONTINUOUS
10
84.4247
20
-121.333
11
84.4247
21
-121.428
0
LINE
8
BLACK
6
CONTINUOUS
10
84.4247
20
-121.428
11
84.3771
21
-121.571
0
LINE
8
BLACK
6
CONTINUOUS
10
84.3771
20
-121.571
11
83.8057
21
-122.142
0
LINE
8
BLACK
6
CONTINUOUS
10
83.8057
20
-122.142
11
84.4247
21
-122.142
0
LINE
8
BLACK
6
CONTINUOUS
10
84.8533
20
-122.047
11
84.9009
21
-122.095
0
LINE
8
BLACK
6
CONTINUOUS
10
84.9009
20
-122.095
11
84.8533
21
-122.142
0
LINE
8
BLACK
6
CONTINUOUS
10
84.8533
20
-122.142
11
84.8057
21
-122.095
0
LINE
8
BLACK
6
CONTINUOUS
10
84.8057
20
-122.095
11
84.8533
21
-122.047
0
LINE
8
BLACK
6
CONTINUOUS
10
84.8533
20
-122.047
11
84.8533
21
-122.142
0
LINE
8
BLACK
6
CONTINUOUS
10
85.2342
20
-121.142
11
85.8533
21
-121.142
0
LINE
8
BLACK
6
CONTINUOUS
10
85.8533
20
-121.142
11
85.5199
21
-121.523
0
LINE
8
BLACK
6
CONTINUOUS
10
85.5199
20
-121.523
11
85.6628
21
-121.523
0
LINE
8
BLACK
6
CONTINUOUS
10
85.6628
20
-121.523
11
85.758
21
-121.571
0
LINE
8
BLACK
6
CONTINUOUS
10
85.758
20
-121.571
11
85.8057
21
-121.619
0
LINE
8
BLACK
6
CONTINUOUS
10
85.8057
20
-121.619
11
85.8533
21
-121.714
0
LINE
8
BLACK
6
CONTINUOUS
10
85.8533
20
-121.714
11
85.8533
21
-121.952
0
LINE
8
BLACK
6
CONTINUOUS
10
85.8533
20
-121.952
11
85.8057
21
-122.047
0
LINE
8
BLACK
6
CONTINUOUS
10
85.8057
20
-122.047
11
85.758
21
-122.095
0
LINE
8
BLACK
6
CONTINUOUS
10
85.758
20
-122.095
11
85.6628
21
-122.142
0
LINE
8
BLACK
6
CONTINUOUS
10
85.6628
20
-122.142
11
85.3771
21
-122.142
0
LINE
8
BLACK
6
CONTINUOUS
10
85.3771
20
-122.142
11
85.2818
21
-122.095
0
LINE
8
BLACK
6
CONTINUOUS
10
85.2818
20
-122.095
11
85.2342
21
-122.047
0
LINE
8
BLACK
6
CONTINUOUS
10
86.4247
20
-121.571
11
86.3295
21
-121.523
0
LINE
8
BLACK
6
CONTINUOUS
10
86.3295
20
-121.523
11
86.2818
21
-121.476
0
LINE
8
BLACK
6
CONTINUOUS
10
86.2818
20
-121.476
11
86.2342
21
-121.38
0
LINE
8
BLACK
6
CONTINUOUS
10
86.2342
20
-121.38
11
86.2342
21
-121.333
0
LINE
8
BLACK
6
CONTINUOUS
10
86.2342
20
-121.333
11
86.2818
21
-121.238
0
LINE
8
BLACK
6
CONTINUOUS
10
86.2818
20
-121.238
11
86.3295
21
-121.19
0
LINE
8
BLACK
6
CONTINUOUS
10
86.3295
20
-121.19
11
86.4247
21
-121.142
0
LINE
8
BLACK
6
CONTINUOUS
10
86.4247
20
-121.142
11
86.6152
21
-121.142
0
LINE
8
BLACK
6
CONTINUOUS
10
86.6152
20
-121.142
11
86.7104
21
-121.19
0
LINE
8
BLACK
6
CONTINUOUS
10
86.7104
20
-121.19
11
86.758
21
-121.238
0
LINE
8
BLACK
6
CONTINUOUS
10
86.758
20
-121.238
11
86.8057
21
-121.333
0
LINE
8
BLACK
6
CONTINUOUS
10
86.8057
20
-121.333
11
86.8057
21
-121.38
0
LINE
8
BLACK
6
CONTINUOUS
10
86.8057
20
-121.38
11
86.758
21
-121.476
0
LINE
8
BLACK
6
CONTINUOUS
10
86.758
20
-121.476
11
86.7104
21
-121.523
0
LINE
8
BLACK
6
CONTINUOUS
10
86.7104
20
-121.523
11
86.6152
21
-121.571
0
LINE
8
BLACK
6
CONTINUOUS
10
86.6152
20
-121.571
11
86.4247
21
-121.571
0
LINE
8
BLACK
6
CONTINUOUS
10
86.4247
20
-121.571
11
86.3295
21
-121.619
0
LINE
8
BLACK
6
CONTINUOUS
10
86.3295
20
-121.619
11
86.2818
21
-121.666
0
LINE
8
BLACK
6
CONTINUOUS
10
86.2818
20
-121.666
11
86.2342
21
-121.761
0
LINE
8
BLACK
6
CONTINUOUS
10
86.2342
20
-121.761
11
86.2342
21
-121.952
0
LINE
8
BLACK
6
CONTINUOUS
10
86.2342
20
-121.952
11
86.2818
21
-122.047
0
LINE
8
BLACK
6
CONTINUOUS
10
86.2818
20
-122.047
11
86.3295
21
-122.095
0
LINE
8
BLACK
6
CONTINUOUS
10
86.3295
20
-122.095
11
86.4247
21
-122.142
0
LINE
8
BLACK
6
CONTINUOUS
10
86.4247
20
-122.142
11
86.6152
21
-122.142
0
LINE
8
BLACK
6
CONTINUOUS
10
86.6152
20
-122.142
11
86.7104
21
-122.095
0
LINE
8
BLACK
6
CONTINUOUS
10
86.7104
20
-122.095
11
86.758
21
-122.047
0
LINE
8
BLACK
6
CONTINUOUS
10
86.758
20
-122.047
11
86.8057
21
-121.952
0
LINE
8
BLACK
6
CONTINUOUS
10
86.8057
20
-121.952
11
86.8057
21
-121.761
0
LINE
8
BLACK
6
CONTINUOUS
10
86.8057
20
-121.761
11
86.758
21
-121.666
0
LINE
8
BLACK
6
CONTINUOUS
10
86.758
20
-121.666
11
86.7104
21
-121.619
0
LINE
8
BLACK
6
CONTINUOUS
10
86.7104
20
-121.619
11
86.6152
21
-121.571
0
LINE
8
BLACK
6
CONTINUOUS
10
87.3771
20
-121.571
11
87.2818
21
-121.523
0
LINE
8
BLACK
6
CONTINUOUS
10
87.2818
20
-121.523
11
87.2342
21
-121.476
0
LINE
8
BLACK
6
CONTINUOUS
10
87.2342
20
-121.476
11
87.1866
21
-121.38
0
LINE
8
BLACK
6
CONTINUOUS
10
87.1866
20
-121.38
11
87.1866
21
-121.333
0
LINE
8
BLACK
6
CONTINUOUS
10
87.1866
20
-121.333
11
87.2342
21
-121.238
0
LINE
8
BLACK
6
CONTINUOUS
10
87.2342
20
-121.238
11
87.2818
21
-121.19
0
LINE
8
BLACK
6
CONTINUOUS
10
87.2818
20
-121.19
11
87.3771
21
-121.142
0
LINE
8
BLACK
6
CONTINUOUS
10
87.3771
20
-121.142
11
87.5676
21
-121.142
0
LINE
8
BLACK
6
CONTINUOUS
10
87.5676
20
-121.142
11
87.6628
21
-121.19
0
LINE
8
BLACK
6
CONTINUOUS
10
87.6628
20
-121.19
11
87.7104
21
-121.238
0
LINE
8
BLACK
6
CONTINUOUS
10
87.7104
20
-121.238
11
87.758
21
-121.333
0
LINE
8
BLACK
6
CONTINUOUS
10
87.758
20
-121.333
11
87.758
21
-121.38
0
LINE
8
BLACK
6
CONTINUOUS
10
87.758
20
-121.38
11
87.7104
21
-121.476
0
LINE
8
BLACK
6
CONTINUOUS
10
87.7104
20
-121.476
11
87.6628
21
-121.523
0
LINE
8
BLACK
6
CONTINUOUS
10
87.6628
20
-121.523
11
87.5676
21
-121.571
0
LINE
8
BLACK
6
CONTINUOUS
10
87.5676
20
-121.571
11
87.3771
21
-121.571
0
LINE
8
BLACK
6
CONTINUOUS
10
87.3771
20
-121.571
11
87.2818
21
-121.619
0
LINE
8
BLACK
6
CONTINUOUS
10
87.2818
20
-121.619
11
87.2342
21
-121.666
0
LINE
8
BLACK
6
CONTINUOUS
10
87.2342
20
-121.666
11
87.1866
21
-121.761
0
LINE
8
BLACK
6
CONTINUOUS
10
87.1866
20
-121.761
11
87.1866
21
-121.952
0
LINE
8
BLACK
6
CONTINUOUS
10
87.1866
20
-121.952
11
87.2342
21
-122.047
0
LINE
8
BLACK
6
CONTINUOUS
10
87.2342
20
-122.047
11
87.2818
21
-122.095
0
LINE
8
BLACK
6
CONTINUOUS
10
87.2818
20
-122.095
11
87.3771
21
-122.142
0
LINE
8
BLACK
6
CONTINUOUS
10
87.3771
20
-122.142
11
87.5676
21
-122.142
0
LINE
8
BLACK
6
CONTINUOUS
10
87.5676
20
-122.142
11
87.6628
21
-122.095
0
LINE
8
BLACK
6
CONTINUOUS
10
87.6628
20
-122.095
11
87.7104
21
-122.047
0
LINE
8
BLACK
6
CONTINUOUS
10
87.7104
20
-122.047
11
87.758
21
-121.952
0
LINE
8
BLACK
6
CONTINUOUS
10
87.758
20
-121.952
11
87.758
21
-121.761
0
LINE
8
BLACK
6
CONTINUOUS
10
87.758
20
-121.761
11
87.7104
21
-121.666
0
LINE
8
BLACK
6
CONTINUOUS
10
87.7104
20
-121.666
11
87.6628
21
-121.619
0
LINE
8
BLACK
6
CONTINUOUS
10
87.6628
20
-121.619
11
87.5676
21
-121.571
0
LINE
8
BLACK
6
CONTINUOUS
10
88.9485
20
-122.142
11
88.9485
21
-121.476
0
LINE
8
BLACK
6
CONTINUOUS
10
88.9485
20
-121.571
11
88.9961
21
-121.523
0
LINE
8
BLACK
6
CONTINUOUS
10
88.9961
20
-121.523
11
89.0914
21
-121.476
0
LINE
8
BLACK
6
CONTINUOUS
10
89.0914
20
-121.476
11
89.2342
21
-121.476
0
LINE
8
BLACK
6
CONTINUOUS
10
89.2342
20
-121.476
11
89.3295
21
-121.523
0
LINE
8
BLACK
6
CONTINUOUS
10
89.3295
20
-121.523
11
89.3771
21
-121.619
0
LINE
8
BLACK
6
CONTINUOUS
10
89.3771
20
-121.619
11
89.3771
21
-122.142
0
LINE
8
BLACK
6
CONTINUOUS
10
89.3771
20
-121.619
11
89.4247
21
-121.523
0
LINE
8
BLACK
6
CONTINUOUS
10
89.4247
20
-121.523
11
89.5199
21
-121.476
0
LINE
8
BLACK
6
CONTINUOUS
10
89.5199
20
-121.476
11
89.6628
21
-121.476
0
LINE
8
BLACK
6
CONTINUOUS
10
89.6628
20
-121.476
11
89.758
21
-121.523
0
LINE
8
BLACK
6
CONTINUOUS
10
89.758
20
-121.523
11
89.8057
21
-121.619
0
LINE
8
BLACK
6
CONTINUOUS
10
89.8057
20
-121.619
11
89.8057
21
-122.142
0
LINE
8
BLACK
6
CONTINUOUS
10
90.2818
20
-122.142
11
90.2818
21
-121.476
0
LINE
8
BLACK
6
CONTINUOUS
10
90.2818
20
-121.571
11
90.3295
21
-121.523
0
LINE
8
BLACK
6
CONTINUOUS
10
90.3295
20
-121.523
11
90.4247
21
-121.476
0
LINE
8
BLACK
6
CONTINUOUS
10
90.4247
20
-121.476
11
90.5676
21
-121.476
0
LINE
8
BLACK
6
CONTINUOUS
10
90.5676
20
-121.476
11
90.6628
21
-121.523
0
LINE
8
BLACK
6
CONTINUOUS
10
90.6628
20
-121.523
11
90.7104
21
-121.619
0
LINE
8
BLACK
6
CONTINUOUS
10
90.7104
20
-121.619
11
90.7104
21
-122.142
0
LINE
8
BLACK
6
CONTINUOUS
10
90.7104
20
-121.619
11
90.758
21
-121.523
0
LINE
8
BLACK
6
CONTINUOUS
10
90.758
20
-121.523
11
90.8533
21
-121.476
0
LINE
8
BLACK
6
CONTINUOUS
10
90.8533
20
-121.476
11
90.9961
21
-121.476
0
LINE
8
BLACK
6
CONTINUOUS
10
90.9961
20
-121.476
11
91.0914
21
-121.523
0
LINE
8
BLACK
6
CONTINUOUS
10
91.0914
20
-121.523
11
91.139
21
-121.619
0
LINE
8
BLACK
6
CONTINUOUS
10
91.139
20
-121.619
11
91.139
21
-122.142
0
LINE
8
BLACK
6
CONTINUOUS
10
113.237
20
-120.39
11
60.85
21
-120.39
0
LINE
8
BLACK
6
CONTINUOUS
10
113.237
20
-120.3
11
113.237
21
-120.976
0
LINE
8
BLACK
6
CONTINUOUS
10
60.85
20
-120.3
11
60.85
21
-120.976
0
LINE
8
BLACK
6
CONTINUOUS
10
60.85
20
-120.39
11
61.9765
21
-119.804
0
LINE
8
BLACK
6
CONTINUOUS
10
60.85
20
-120.39
11
61.9765
21
-120.976
0
LINE
8
BLACK
6
CONTINUOUS
10
113.237
20
-120.39
11
112.111
21
-119.804
0
LINE
8
BLACK
6
CONTINUOUS
10
113.237
20
-120.39
11
112.111
21
-120.976
0
LINE
8
BLACK
6
CONTINUOUS
10
166.34
20
-125.177
11
165.768
21
-125.177
0
LINE
8
BLACK
6
CONTINUOUS
10
166.054
20
-125.177
11
166.054
21
-124.177
0
LINE
8
BLACK
6
CONTINUOUS
10
166.054
20
-124.177
11
165.959
21
-124.32
0
LINE
8
BLACK
6
CONTINUOUS
10
165.959
20
-124.32
11
165.864
21
-124.415
0
LINE
8
BLACK
6
CONTINUOUS
10
165.864
20
-124.415
11
165.768
21
-124.463
0
LINE
8
BLACK
6
CONTINUOUS
10
167.292
20
-125.177
11
166.721
21
-125.177
0
LINE
8
BLACK
6
CONTINUOUS
10
167.007
20
-125.177
11
167.007
21
-124.177
0
LINE
8
BLACK
6
CONTINUOUS
10
167.007
20
-124.177
11
166.911
21
-124.32
0
LINE
8
BLACK
6
CONTINUOUS
10
166.911
20
-124.32
11
166.816
21
-124.415
0
LINE
8
BLACK
6
CONTINUOUS
10
166.816
20
-124.415
11
166.721
21
-124.463
0
LINE
8
BLACK
6
CONTINUOUS
10
168.149
20
-124.511
11
168.149
21
-125.177
0
LINE
8
BLACK
6
CONTINUOUS
10
167.911
20
-124.13
11
167.673
21
-124.844
0
LINE
8
BLACK
6
CONTINUOUS
10
167.673
20
-124.844
11
168.292
21
-124.844
0
LINE
8
BLACK
6
CONTINUOUS
10
168.673
20
-125.082
11
168.721
21
-125.13
0
LINE
8
BLACK
6
CONTINUOUS
10
168.721
20
-125.13
11
168.673
21
-125.177
0
LINE
8
BLACK
6
CONTINUOUS
10
168.673
20
-125.177
11
168.626
21
-125.13
0
LINE
8
BLACK
6
CONTINUOUS
10
168.626
20
-125.13
11
168.673
21
-125.082
0
LINE
8
BLACK
6
CONTINUOUS
10
168.673
20
-125.082
11
168.673
21
-125.177
0
LINE
8
BLACK
6
CONTINUOUS
10
169.054
20
-124.177
11
169.673
21
-124.177
0
LINE
8
BLACK
6
CONTINUOUS
10
169.673
20
-124.177
11
169.34
21
-124.558
0
LINE
8
BLACK
6
CONTINUOUS
10
169.34
20
-124.558
11
169.483
21
-124.558
0
LINE
8
BLACK
6
CONTINUOUS
10
169.483
20
-124.558
11
169.578
21
-124.606
0
LINE
8
BLACK
6
CONTINUOUS
10
169.578
20
-124.606
11
169.626
21
-124.654
0
LINE
8
BLACK
6
CONTINUOUS
10
169.626
20
-124.654
11
169.673
21
-124.749
0
LINE
8
BLACK
6
CONTINUOUS
10
169.673
20
-124.749
11
169.673
21
-124.987
0
LINE
8
BLACK
6
CONTINUOUS
10
169.673
20
-124.987
11
169.626
21
-125.082
0
LINE
8
BLACK
6
CONTINUOUS
10
169.626
20
-125.082
11
169.578
21
-125.13
0
LINE
8
BLACK
6
CONTINUOUS
10
169.578
20
-125.13
11
169.483
21
-125.177
0
LINE
8
BLACK
6
CONTINUOUS
10
169.483
20
-125.177
11
169.197
21
-125.177
0
LINE
8
BLACK
6
CONTINUOUS
10
169.197
20
-125.177
11
169.102
21
-125.13
0
LINE
8
BLACK
6
CONTINUOUS
10
169.102
20
-125.13
11
169.054
21
-125.082
0
LINE
8
BLACK
6
CONTINUOUS
10
170.292
20
-124.177
11
170.387
21
-124.177
0
LINE
8
BLACK
6
CONTINUOUS
10
170.387
20
-124.177
11
170.483
21
-124.225
0
LINE
8
BLACK
6
CONTINUOUS
10
170.483
20
-124.225
11
170.53
21
-124.273
0
LINE
8
BLACK
6
CONTINUOUS
10
170.53
20
-124.273
11
170.578
21
-124.368
0
LINE
8
BLACK
6
CONTINUOUS
10
170.578
20
-124.368
11
170.626
21
-124.558
0
LINE
8
BLACK
6
CONTINUOUS
10
170.626
20
-124.558
11
170.626
21
-124.796
0
LINE
8
BLACK
6
CONTINUOUS
10
170.626
20
-124.796
11
170.578
21
-124.987
0
LINE
8
BLACK
6
CONTINUOUS
10
170.578
20
-124.987
11
170.53
21
-125.082
0
LINE
8
BLACK
6
CONTINUOUS
10
170.53
20
-125.082
11
170.483
21
-125.13
0
LINE
8
BLACK
6
CONTINUOUS
10
170.483
20
-125.13
11
170.387
21
-125.177
0
LINE
8
BLACK
6
CONTINUOUS
10
170.387
20
-125.177
11
170.292
21
-125.177
0
LINE
8
BLACK
6
CONTINUOUS
10
170.292
20
-125.177
11
170.197
21
-125.13
0
LINE
8
BLACK
6
CONTINUOUS
10
170.197
20
-125.13
11
170.149
21
-125.082
0
LINE
8
BLACK
6
CONTINUOUS
10
170.149
20
-125.082
11
170.102
21
-124.987
0
LINE
8
BLACK
6
CONTINUOUS
10
170.102
20
-124.987
11
170.054
21
-124.796
0
LINE
8
BLACK
6
CONTINUOUS
10
170.054
20
-124.796
11
170.054
21
-124.558
0
LINE
8
BLACK
6
CONTINUOUS
10
170.054
20
-124.558
11
170.102
21
-124.368
0
LINE
8
BLACK
6
CONTINUOUS
10
170.102
20
-124.368
11
170.149
21
-124.273
0
LINE
8
BLACK
6
CONTINUOUS
10
170.149
20
-124.273
11
170.197
21
-124.225
0
LINE
8
BLACK
6
CONTINUOUS
10
170.197
20
-124.225
11
170.292
21
-124.177
0
LINE
8
BLACK
6
CONTINUOUS
10
171.245
20
-124.177
11
171.34
21
-124.177
0
LINE
8
BLACK
6
CONTINUOUS
10
171.34
20
-124.177
11
171.435
21
-124.225
0
LINE
8
BLACK
6
CONTINUOUS
10
171.435
20
-124.225
11
171.483
21
-124.273
0
LINE
8
BLACK
6
CONTINUOUS
10
171.483
20
-124.273
11
171.53
21
-124.368
0
LINE
8
BLACK
6
CONTINUOUS
10
171.53
20
-124.368
11
171.578
21
-124.558
0
LINE
8
BLACK
6
CONTINUOUS
10
171.578
20
-124.558
11
171.578
21
-124.796
0
LINE
8
BLACK
6
CONTINUOUS
10
171.578
20
-124.796
11
171.53
21
-124.987
0
LINE
8
BLACK
6
CONTINUOUS
10
171.53
20
-124.987
11
171.483
21
-125.082
0
LINE
8
BLACK
6
CONTINUOUS
10
171.483
20
-125.082
11
171.435
21
-125.13
0
LINE
8
BLACK
6
CONTINUOUS
10
171.435
20
-125.13
11
171.34
21
-125.177
0
LINE
8
BLACK
6
CONTINUOUS
10
171.34
20
-125.177
11
171.245
21
-125.177
0
LINE
8
BLACK
6
CONTINUOUS
10
171.245
20
-125.177
11
171.149
21
-125.13
0
LINE
8
BLACK
6
CONTINUOUS
10
171.149
20
-125.13
11
171.102
21
-125.082
0
LINE
8
BLACK
6
CONTINUOUS
10
171.102
20
-125.082
11
171.054
21
-124.987
0
LINE
8
BLACK
6
CONTINUOUS
10
171.054
20
-124.987
11
171.007
21
-124.796
0
LINE
8
BLACK
6
CONTINUOUS
10
171.007
20
-124.796
11
171.007
21
-124.558
0
LINE
8
BLACK
6
CONTINUOUS
10
171.007
20
-124.558
11
171.054
21
-124.368
0
LINE
8
BLACK
6
CONTINUOUS
10
171.054
20
-124.368
11
171.102
21
-124.273
0
LINE
8
BLACK
6
CONTINUOUS
10
171.102
20
-124.273
11
171.149
21
-124.225
0
LINE
8
BLACK
6
CONTINUOUS
10
171.149
20
-124.225
11
171.245
21
-124.177
0
LINE
8
BLACK
6
CONTINUOUS
10
172.768
20
-125.177
11
172.768
21
-124.511
0
LINE
8
BLACK
6
CONTINUOUS
10
172.768
20
-124.606
11
172.816
21
-124.558
0
LINE
8
BLACK
6
CONTINUOUS
10
172.816
20
-124.558
11
172.911
21
-124.511
0
LINE
8
BLACK
6
CONTINUOUS
10
172.911
20
-124.511
11
173.054
21
-124.511
0
LINE
8
BLACK
6
CONTINUOUS
10
173.054
20
-124.511
11
173.149
21
-124.558
0
LINE
8
BLACK
6
CONTINUOUS
10
173.149
20
-124.558
11
173.197
21
-124.654
0
LINE
8
BLACK
6
CONTINUOUS
10
173.197
20
-124.654
11
173.197
21
-125.177
0
LINE
8
BLACK
6
CONTINUOUS
10
173.197
20
-124.654
11
173.245
21
-124.558
0
LINE
8
BLACK
6
CONTINUOUS
10
173.245
20
-124.558
11
173.34
21
-124.511
0
LINE
8
BLACK
6
CONTINUOUS
10
173.34
20
-124.511
11
173.483
21
-124.511
0
LINE
8
BLACK
6
CONTINUOUS
10
173.483
20
-124.511
11
173.578
21
-124.558
0
LINE
8
BLACK
6
CONTINUOUS
10
173.578
20
-124.558
11
173.626
21
-124.654
0
LINE
8
BLACK
6
CONTINUOUS
10
173.626
20
-124.654
11
173.626
21
-125.177
0
LINE
8
BLACK
6
CONTINUOUS
10
174.102
20
-125.177
11
174.102
21
-124.511
0
LINE
8
BLACK
6
CONTINUOUS
10
174.102
20
-124.606
11
174.149
21
-124.558
0
LINE
8
BLACK
6
CONTINUOUS
10
174.149
20
-124.558
11
174.245
21
-124.511
0
LINE
8
BLACK
6
CONTINUOUS
10
174.245
20
-124.511
11
174.387
21
-124.511
0
LINE
8
BLACK
6
CONTINUOUS
10
174.387
20
-124.511
11
174.483
21
-124.558
0
LINE
8
BLACK
6
CONTINUOUS
10
174.483
20
-124.558
11
174.53
21
-124.654
0
LINE
8
BLACK
6
CONTINUOUS
10
174.53
20
-124.654
11
174.53
21
-125.177
0
LINE
8
BLACK
6
CONTINUOUS
10
174.53
20
-124.654
11
174.578
21
-124.558
0
LINE
8
BLACK
6
CONTINUOUS
10
174.578
20
-124.558
11
174.673
21
-124.511
0
LINE
8
BLACK
6
CONTINUOUS
10
174.673
20
-124.511
11
174.816
21
-124.511
0
LINE
8
BLACK
6
CONTINUOUS
10
174.816
20
-124.511
11
174.911
21
-124.558
0
LINE
8
BLACK
6
CONTINUOUS
10
174.911
20
-124.558
11
174.959
21
-124.654
0
LINE
8
BLACK
6
CONTINUOUS
10
174.959
20
-124.654
11
174.959
21
-125.177
0
LINE
8
BLACK
6
CONTINUOUS
10
113.237
20
-123.425
11
227.537
21
-123.425
0
LINE
8
BLACK
6
CONTINUOUS
10
113.237
20
-123.225
11
113.237
21
-124.011
0
LINE
8
BLACK
6
CONTINUOUS
10
227.537
20
-123.225
11
227.537
21
-124.011
0
LINE
8
BLACK
6
CONTINUOUS
10
227.537
20
-123.425
11
226.411
21
-124.011
0
LINE
8
BLACK
6
CONTINUOUS
10
227.537
20
-123.425
11
226.411
21
-122.839
0
LINE
8
BLACK
6
CONTINUOUS
10
113.237
20
-123.425
11
114.364
21
-124.011
0
LINE
8
BLACK
6
CONTINUOUS
10
113.237
20
-123.425
11
114.364
21
-122.839
0
LINE
8
BLACK
6
CONTINUOUS
10
207.778
20
-82.2036
11
207.778
21
-81.6321
0
LINE
8
BLACK
6
CONTINUOUS
10
207.778
20
-81.9179
11
208.778
21
-81.9179
0
LINE
8
BLACK
6
CONTINUOUS
10
208.778
20
-81.9179
11
208.635
21
-81.8226
0
LINE
8
BLACK
6
CONTINUOUS
10
208.635
20
-81.8226
11
208.54
21
-81.7274
0
LINE
8
BLACK
6
CONTINUOUS
10
208.54
20
-81.7274
11
208.492
21
-81.6321
0
LINE
8
BLACK
6
CONTINUOUS
10
208.444
20
-83.0607
11
207.778
21
-83.0607
0
LINE
8
BLACK
6
CONTINUOUS
10
208.825
20
-82.8226
11
208.111
21
-82.5845
0
LINE
8
BLACK
6
CONTINUOUS
10
208.111
20
-82.5845
11
208.111
21
-83.2036
0
LINE
8
BLACK
6
CONTINUOUS
10
207.873
20
-83.5845
11
207.825
21
-83.6321
0
LINE
8
BLACK
6
CONTINUOUS
10
207.825
20
-83.6321
11
207.778
21
-83.5845
0
LINE
8
BLACK
6
CONTINUOUS
10
207.778
20
-83.5845
11
207.825
21
-83.5369
0
LINE
8
BLACK
6
CONTINUOUS
10
207.825
20
-83.5369
11
207.873
21
-83.5845
0
LINE
8
BLACK
6
CONTINUOUS
10
207.873
20
-83.5845
11
207.778
21
-83.5845
0
LINE
8
BLACK
6
CONTINUOUS
10
208.778
20
-84.2512
11
208.778
21
-84.3464
0
LINE
8
BLACK
6
CONTINUOUS
10
208.778
20
-84.3464
11
208.73
21
-84.4417
0
LINE
8
BLACK
6
CONTINUOUS
10
208.73
20
-84.4417
11
208.682
21
-84.4893
0
LINE
8
BLACK
6
CONTINUOUS
10
208.682
20
-84.4893
11
208.587
21
-84.5369
0
LINE
8
BLACK
6
CONTINUOUS
10
208.587
20
-84.5369
11
208.397
21
-84.5845
0
LINE
8
BLACK
6
CONTINUOUS
10
208.397
20
-84.5845
11
208.159
21
-84.5845
0
LINE
8
BLACK
6
CONTINUOUS
10
208.159
20
-84.5845
11
207.968
21
-84.5369
0
LINE
8
BLACK
6
CONTINUOUS
10
207.968
20
-84.5369
11
207.873
21
-84.4893
0
LINE
8
BLACK
6
CONTINUOUS
10
207.873
20
-84.4893
11
207.825
21
-84.4417
0
LINE
8
BLACK
6
CONTINUOUS
10
207.825
20
-84.4417
11
207.778
21
-84.3464
0
LINE
8
BLACK
6
CONTINUOUS
10
207.778
20
-84.3464
11
207.778
21
-84.2512
0
LINE
8
BLACK
6
CONTINUOUS
10
207.778
20
-84.2512
11
207.825
21
-84.156
0
LINE
8
BLACK
6
CONTINUOUS
10
207.825
20
-84.156
11
207.873
21
-84.1083
0
LINE
8
BLACK
6
CONTINUOUS
10
207.873
20
-84.1083
11
207.968
21
-84.0607
0
LINE
8
BLACK
6
CONTINUOUS
10
207.968
20
-84.0607
11
208.159
21
-84.0131
0
LINE
8
BLACK
6
CONTINUOUS
10
208.159
20
-84.0131
11
208.397
21
-84.0131
0
LINE
8
BLACK
6
CONTINUOUS
10
208.397
20
-84.0131
11
208.587
21
-84.0607
0
LINE
8
BLACK
6
CONTINUOUS
10
208.587
20
-84.0607
11
208.682
21
-84.1083
0
LINE
8
BLACK
6
CONTINUOUS
10
208.682
20
-84.1083
11
208.73
21
-84.156
0
LINE
8
BLACK
6
CONTINUOUS
10
208.73
20
-84.156
11
208.778
21
-84.2512
0
LINE
8
BLACK
6
CONTINUOUS
10
208.778
20
-85.2036
11
208.778
21
-85.2988
0
LINE
8
BLACK
6
CONTINUOUS
10
208.778
20
-85.2988
11
208.73
21
-85.394
0
LINE
8
BLACK
6
CONTINUOUS
10
208.73
20
-85.394
11
208.682
21
-85.4417
0
LINE
8
BLACK
6
CONTINUOUS
10
208.682
20
-85.4417
11
208.587
21
-85.4893
0
LINE
8
BLACK
6
CONTINUOUS
10
208.587
20
-85.4893
11
208.397
21
-85.5369
0
LINE
8
BLACK
6
CONTINUOUS
10
208.397
20
-85.5369
11
208.159
21
-85.5369
0
LINE
8
BLACK
6
CONTINUOUS
10
208.159
20
-85.5369
11
207.968
21
-85.4893
0
LINE
8
BLACK
6
CONTINUOUS
10
207.968
20
-85.4893
11
207.873
21
-85.4417
0
LINE
8
BLACK
6
CONTINUOUS
10
207.873
20
-85.4417
11
207.825
21
-85.394
0
LINE
8
BLACK
6
CONTINUOUS
10
207.825
20
-85.394
11
207.778
21
-85.2988
0
LINE
8
BLACK
6
CONTINUOUS
10
207.778
20
-85.2988
11
207.778
21
-85.2036
0
LINE
8
BLACK
6
CONTINUOUS
10
207.778
20
-85.2036
11
207.825
21
-85.1083
0
LINE
8
BLACK
6
CONTINUOUS
10
207.825
20
-85.1083
11
207.873
21
-85.0607
0
LINE
8
BLACK
6
CONTINUOUS
10
207.873
20
-85.0607
11
207.968
21
-85.0131
0
LINE
8
BLACK
6
CONTINUOUS
10
207.968
20
-85.0131
11
208.159
21
-84.9655
0
LINE
8
BLACK
6
CONTINUOUS
10
208.159
20
-84.9655
11
208.397
21
-84.9655
0
LINE
8
BLACK
6
CONTINUOUS
10
208.397
20
-84.9655
11
208.587
21
-85.0131
0
LINE
8
BLACK
6
CONTINUOUS
10
208.587
20
-85.0131
11
208.682
21
-85.0607
0
LINE
8
BLACK
6
CONTINUOUS
10
208.682
20
-85.0607
11
208.73
21
-85.1083
0
LINE
8
BLACK
6
CONTINUOUS
10
208.73
20
-85.1083
11
208.778
21
-85.2036
0
LINE
8
BLACK
6
CONTINUOUS
10
208.778
20
-86.156
11
208.778
21
-86.2512
0
LINE
8
BLACK
6
CONTINUOUS
10
208.778
20
-86.2512
11
208.73
21
-86.3464
0
LINE
8
BLACK
6
CONTINUOUS
10
208.73
20
-86.3464
11
208.682
21
-86.394
0
LINE
8
BLACK
6
CONTINUOUS
10
208.682
20
-86.394
11
208.587
21
-86.4417
0
LINE
8
BLACK
6
CONTINUOUS
10
208.587
20
-86.4417
11
208.397
21
-86.4893
0
LINE
8
BLACK
6
CONTINUOUS
10
208.397
20
-86.4893
11
208.159
21
-86.4893
0
LINE
8
BLACK
6
CONTINUOUS
10
208.159
20
-86.4893
11
207.968
21
-86.4417
0
LINE
8
BLACK
6
CONTINUOUS
10
207.968
20
-86.4417
11
207.873
21
-86.394
0
LINE
8
BLACK
6
CONTINUOUS
10
207.873
20
-86.394
11
207.825
21
-86.3464
0
LINE
8
BLACK
6
CONTINUOUS
10
207.825
20
-86.3464
11
207.778
21
-86.2512
0
LINE
8
BLACK
6
CONTINUOUS
10
207.778
20
-86.2512
11
207.778
21
-86.156
0
LINE
8
BLACK
6
CONTINUOUS
10
207.778
20
-86.156
11
207.825
21
-86.0607
0
LINE
8
BLACK
6
CONTINUOUS
10
207.825
20
-86.0607
11
207.873
21
-86.0131
0
LINE
8
BLACK
6
CONTINUOUS
10
207.873
20
-86.0131
11
207.968
21
-85.9655
0
LINE
8
BLACK
6
CONTINUOUS
10
207.968
20
-85.9655
11
208.159
21
-85.9179
0
LINE
8
BLACK
6
CONTINUOUS
10
208.159
20
-85.9179
11
208.397
21
-85.9179
0
LINE
8
BLACK
6
CONTINUOUS
10
208.397
20
-85.9179
11
208.587
21
-85.9655
0
LINE
8
BLACK
6
CONTINUOUS
10
208.587
20
-85.9655
11
208.682
21
-86.0131
0
LINE
8
BLACK
6
CONTINUOUS
10
208.682
20
-86.0131
11
208.73
21
-86.0607
0
LINE
8
BLACK
6
CONTINUOUS
10
208.73
20
-86.0607
11
208.778
21
-86.156
0
LINE
8
BLACK
6
CONTINUOUS
10
207.778
20
-87.6798
11
208.444
21
-87.6798
0
LINE
8
BLACK
6
CONTINUOUS
10
208.349
20
-87.6798
11
208.397
21
-87.7274
0
LINE
8
BLACK
6
CONTINUOUS
10
208.397
20
-87.7274
11
208.444
21
-87.8226
0
LINE
8
BLACK
6
CONTINUOUS
10
208.444
20
-87.8226
11
208.444
21
-87.9655
0
LINE
8
BLACK
6
CONTINUOUS
10
208.444
20
-87.9655
11
208.397
21
-88.0607
0
LINE
8
BLACK
6
CONTINUOUS
10
208.397
20
-88.0607
11
208.301
21
-88.1083
0
LINE
8
BLACK
6
CONTINUOUS
10
208.301
20
-88.1083
11
207.778
21
-88.1083
0
LINE
8
BLACK
6
CONTINUOUS
10
208.301
20
-88.1083
11
208.397
21
-88.156
0
LINE
8
BLACK
6
CONTINUOUS
10
208.397
20
-88.156
11
208.444
21
-88.2512
0
LINE
8
BLACK
6
CONTINUOUS
10
208.444
20
-88.2512
11
208.444
21
-88.394
0
LINE
8
BLACK
6
CONTINUOUS
10
208.444
20
-88.394
11
208.397
21
-88.4893
0
LINE
8
BLACK
6
CONTINUOUS
10
208.397
20
-88.4893
11
208.301
21
-88.5369
0
LINE
8
BLACK
6
CONTINUOUS
10
208.301
20
-88.5369
11
207.778
21
-88.5369
0
LINE
8
BLACK
6
CONTINUOUS
10
207.778
20
-89.0131
11
208.444
21
-89.0131
0
LINE
8
BLACK
6
CONTINUOUS
10
208.349
20
-89.0131
11
208.397
21
-89.0607
0
LINE
8
BLACK
6
CONTINUOUS
10
208.397
20
-89.0607
11
208.444
21
-89.156
0
LINE
8
BLACK
6
CONTINUOUS
10
208.444
20
-89.156
11
208.444
21
-89.2988
0
LINE
8
BLACK
6
CONTINUOUS
10
208.444
20
-89.2988
11
208.397
21
-89.394
0
LINE
8
BLACK
6
CONTINUOUS
10
208.397
20
-89.394
11
208.301
21
-89.4417
0
LINE
8
BLACK
6
CONTINUOUS
10
208.301
20
-89.4417
11
207.778
21
-89.4417
0
LINE
8
BLACK
6
CONTINUOUS
10
208.301
20
-89.4417
11
208.397
21
-89.4893
0
LINE
8
BLACK
6
CONTINUOUS
10
208.397
20
-89.4893
11
208.444
21
-89.5845
0
LINE
8
BLACK
6
CONTINUOUS
10
208.444
20
-89.5845
11
208.444
21
-89.7274
0
LINE
8
BLACK
6
CONTINUOUS
10
208.444
20
-89.7274
11
208.397
21
-89.8226
0
LINE
8
BLACK
6
CONTINUOUS
10
208.397
20
-89.8226
11
208.301
21
-89.8702
0
LINE
8
BLACK
6
CONTINUOUS
10
208.301
20
-89.8702
11
207.778
21
-89.8702
0
LINE
8
BLACK
6
CONTINUOUS
10
209.53
20
-78.775
11
209.53
21
-92.775
0
LINE
8
BLACK
6
CONTINUOUS
10
210.012
20
-78.775
11
208.944
21
-78.775
0
LINE
8
BLACK
6
CONTINUOUS
10
210.012
20
-92.775
11
208.944
21
-92.775
0
LINE
8
BLACK
6
CONTINUOUS
10
209.53
20
-92.775
11
208.944
21
-91.6485
0
LINE
8
BLACK
6
CONTINUOUS
10
209.53
20
-92.775
11
210.116
21
-91.6485
0
LINE
8
BLACK
6
CONTINUOUS
10
209.53
20
-78.775
11
208.944
21
-79.9015
0
LINE
8
BLACK
6
CONTINUOUS
10
209.53
20
-78.775
11
210.116
21
-79.9015
0
LINE
8
BLACK
6
CONTINUOUS
10
214.441
20
-75.6524
11
213.869
21
-75.6524
0
LINE
8
BLACK
6
CONTINUOUS
10
214.155
20
-75.6524
11
214.155
21
-74.6524
0
LINE
8
BLACK
6
CONTINUOUS
10
214.155
20
-74.6524
11
214.06
21
-74.7952
0
LINE
8
BLACK
6
CONTINUOUS
10
214.06
20
-74.7952
11
213.964
21
-74.8905
0
LINE
8
BLACK
6
CONTINUOUS
10
213.964
20
-74.8905
11
213.869
21
-74.9381
0
LINE
8
BLACK
6
CONTINUOUS
10
215.298
20
-74.9857
11
215.298
21
-75.6524
0
LINE
8
BLACK
6
CONTINUOUS
10
215.06
20
-74.6048
11
214.822
21
-75.319
0
LINE
8
BLACK
6
CONTINUOUS
10
214.822
20
-75.319
11
215.441
21
-75.319
0
LINE
8
BLACK
6
CONTINUOUS
10
215.822
20
-75.5571
11
215.869
21
-75.6048
0
LINE
8
BLACK
6
CONTINUOUS
10
215.869
20
-75.6048
11
215.822
21
-75.6524
0
LINE
8
BLACK
6
CONTINUOUS
10
215.822
20
-75.6524
11
215.774
21
-75.6048
0
LINE
8
BLACK
6
CONTINUOUS
10
215.774
20
-75.6048
11
215.822
21
-75.5571
0
LINE
8
BLACK
6
CONTINUOUS
10
215.822
20
-75.5571
11
215.822
21
-75.6524
0
LINE
8
BLACK
6
CONTINUOUS
10
216.488
20
-74.6524
11
216.583
21
-74.6524
0
LINE
8
BLACK
6
CONTINUOUS
10
216.583
20
-74.6524
11
216.679
21
-74.7
0
LINE
8
BLACK
6
CONTINUOUS
10
216.679
20
-74.7
11
216.726
21
-74.7476
0
LINE
8
BLACK
6
CONTINUOUS
10
216.726
20
-74.7476
11
216.774
21
-74.8429
0
LINE
8
BLACK
6
CONTINUOUS
10
216.774
20
-74.8429
11
216.822
21
-75.0333
0
LINE
8
BLACK
6
CONTINUOUS
10
216.822
20
-75.0333
11
216.822
21
-75.2714
0
LINE
8
BLACK
6
CONTINUOUS
10
216.822
20
-75.2714
11
216.774
21
-75.4619
0
LINE
8
BLACK
6
CONTINUOUS
10
216.774
20
-75.4619
11
216.726
21
-75.5571
0
LINE
8
BLACK
6
CONTINUOUS
10
216.726
20
-75.5571
11
216.679
21
-75.6048
0
LINE
8
BLACK
6
CONTINUOUS
10
216.679
20
-75.6048
11
216.583
21
-75.6524
0
LINE
8
BLACK
6
CONTINUOUS
10
216.583
20
-75.6524
11
216.488
21
-75.6524
0
LINE
8
BLACK
6
CONTINUOUS
10
216.488
20
-75.6524
11
216.393
21
-75.6048
0
LINE
8
BLACK
6
CONTINUOUS
10
216.393
20
-75.6048
11
216.345
21
-75.5571
0
LINE
8
BLACK
6
CONTINUOUS
10
216.345
20
-75.5571
11
216.298
21
-75.4619
0
LINE
8
BLACK
6
CONTINUOUS
10
216.298
20
-75.4619
11
216.25
21
-75.2714
0
LINE
8
BLACK
6
CONTINUOUS
10
216.25
20
-75.2714
11
216.25
21
-75.0333
0
LINE
8
BLACK
6
CONTINUOUS
10
216.25
20
-75.0333
11
216.298
21
-74.8429
0
LINE
8
BLACK
6
CONTINUOUS
10
216.298
20
-74.8429
11
216.345
21
-74.7476
0
LINE
8
BLACK
6
CONTINUOUS
10
216.345
20
-74.7476
11
216.393
21
-74.7
0
LINE
8
BLACK
6
CONTINUOUS
10
216.393
20
-74.7
11
216.488
21
-74.6524
0
LINE
8
BLACK
6
CONTINUOUS
10
217.441
20
-74.6524
11
217.536
21
-74.6524
0
LINE
8
BLACK
6
CONTINUOUS
10
217.536
20
-74.6524
11
217.631
21
-74.7
0
LINE
8
BLACK
6
CONTINUOUS
10
217.631
20
-74.7
11
217.679
21
-74.7476
0
LINE
8
BLACK
6
CONTINUOUS
10
217.679
20
-74.7476
11
217.726
21
-74.8429
0
LINE
8
BLACK
6
CONTINUOUS
10
217.726
20
-74.8429
11
217.774
21
-75.0333
0
LINE
8
BLACK
6
CONTINUOUS
10
217.774
20
-75.0333
11
217.774
21
-75.2714
0
LINE
8
BLACK
6
CONTINUOUS
10
217.774
20
-75.2714
11
217.726
21
-75.4619
0
LINE
8
BLACK
6
CONTINUOUS
10
217.726
20
-75.4619
11
217.679
21
-75.5571
0
LINE
8
BLACK
6
CONTINUOUS
10
217.679
20
-75.5571
11
217.631
21
-75.6048
0
LINE
8
BLACK
6
CONTINUOUS
10
217.631
20
-75.6048
11
217.536
21
-75.6524
0
LINE
8
BLACK
6
CONTINUOUS
10
217.536
20
-75.6524
11
217.441
21
-75.6524
0
LINE
8
BLACK
6
CONTINUOUS
10
217.441
20
-75.6524
11
217.345
21
-75.6048
0
LINE
8
BLACK
6
CONTINUOUS
10
217.345
20
-75.6048
11
217.298
21
-75.5571
0
LINE
8
BLACK
6
CONTINUOUS
10
217.298
20
-75.5571
11
217.25
21
-75.4619
0
LINE
8
BLACK
6
CONTINUOUS
10
217.25
20
-75.4619
11
217.202
21
-75.2714
0
LINE
8
BLACK
6
CONTINUOUS
10
217.202
20
-75.2714
11
217.202
21
-75.0333
0
LINE
8
BLACK
6
CONTINUOUS
10
217.202
20
-75.0333
11
217.25
21
-74.8429
0
LINE
8
BLACK
6
CONTINUOUS
10
217.25
20
-74.8429
11
217.298
21
-74.7476
0
LINE
8
BLACK
6
CONTINUOUS
10
217.298
20
-74.7476
11
217.345
21
-74.7
0
LINE
8
BLACK
6
CONTINUOUS
10
217.345
20
-74.7
11
217.441
21
-74.6524
0
LINE
8
BLACK
6
CONTINUOUS
10
218.393
20
-74.6524
11
218.488
21
-74.6524
0
LINE
8
BLACK
6
CONTINUOUS
10
218.488
20
-74.6524
11
218.583
21
-74.7
0
LINE
8
BLACK
6
CONTINUOUS
10
218.583
20
-74.7
11
218.631
21
-74.7476
0
LINE
8
BLACK
6
CONTINUOUS
10
218.631
20
-74.7476
11
218.679
21
-74.8429
0
LINE
8
BLACK
6
CONTINUOUS
10
218.679
20
-74.8429
11
218.726
21
-75.0333
0
LINE
8
BLACK
6
CONTINUOUS
10
218.726
20
-75.0333
11
218.726
21
-75.2714
0
LINE
8
BLACK
6
CONTINUOUS
10
218.726
20
-75.2714
11
218.679
21
-75.4619
0
LINE
8
BLACK
6
CONTINUOUS
10
218.679
20
-75.4619
11
218.631
21
-75.5571
0
LINE
8
BLACK
6
CONTINUOUS
10
218.631
20
-75.5571
11
218.583
21
-75.6048
0
LINE
8
BLACK
6
CONTINUOUS
10
218.583
20
-75.6048
11
218.488
21
-75.6524
0
LINE
8
BLACK
6
CONTINUOUS
10
218.488
20
-75.6524
11
218.393
21
-75.6524
0
LINE
8
BLACK
6
CONTINUOUS
10
218.393
20
-75.6524
11
218.298
21
-75.6048
0
LINE
8
BLACK
6
CONTINUOUS
10
218.298
20
-75.6048
11
218.25
21
-75.5571
0
LINE
8
BLACK
6
CONTINUOUS
10
218.25
20
-75.5571
11
218.202
21
-75.4619
0
LINE
8
BLACK
6
CONTINUOUS
10
218.202
20
-75.4619
11
218.155
21
-75.2714
0
LINE
8
BLACK
6
CONTINUOUS
10
218.155
20
-75.2714
11
218.155
21
-75.0333
0
LINE
8
BLACK
6
CONTINUOUS
10
218.155
20
-75.0333
11
218.202
21
-74.8429
0
LINE
8
BLACK
6
CONTINUOUS
10
218.202
20
-74.8429
11
218.25
21
-74.7476
0
LINE
8
BLACK
6
CONTINUOUS
10
218.25
20
-74.7476
11
218.298
21
-74.7
0
LINE
8
BLACK
6
CONTINUOUS
10
218.298
20
-74.7
11
218.393
21
-74.6524
0
LINE
8
BLACK
6
CONTINUOUS
10
219.917
20
-75.6524
11
219.917
21
-74.9857
0
LINE
8
BLACK
6
CONTINUOUS
10
219.917
20
-75.081
11
219.964
21
-75.0333
0
LINE
8
BLACK
6
CONTINUOUS
10
219.964
20
-75.0333
11
220.06
21
-74.9857
0
LINE
8
BLACK
6
CONTINUOUS
10
220.06
20
-74.9857
11
220.202
21
-74.9857
0
LINE
8
BLACK
6
CONTINUOUS
10
220.202
20
-74.9857
11
220.298
21
-75.0333
0
LINE
8
BLACK
6
CONTINUOUS
10
220.298
20
-75.0333
11
220.345
21
-75.1286
0
LINE
8
BLACK
6
CONTINUOUS
10
220.345
20
-75.1286
11
220.345
21
-75.6524
0
LINE
8
BLACK
6
CONTINUOUS
10
220.345
20
-75.1286
11
220.393
21
-75.0333
0
LINE
8
BLACK
6
CONTINUOUS
10
220.393
20
-75.0333
11
220.488
21
-74.9857
0
LINE
8
BLACK
6
CONTINUOUS
10
220.488
20
-74.9857
11
220.631
21
-74.9857
0
LINE
8
BLACK
6
CONTINUOUS
10
220.631
20
-74.9857
11
220.726
21
-75.0333
0
LINE
8
BLACK
6
CONTINUOUS
10
220.726
20
-75.0333
11
220.774
21
-75.1286
0
LINE
8
BLACK
6
CONTINUOUS
10
220.774
20
-75.1286
11
220.774
21
-75.6524
0
LINE
8
BLACK
6
CONTINUOUS
10
221.25
20
-75.6524
11
221.25
21
-74.9857
0
LINE
8
BLACK
6
CONTINUOUS
10
221.25
20
-75.081
11
221.298
21
-75.0333
0
LINE
8
BLACK
6
CONTINUOUS
10
221.298
20
-75.0333
11
221.393
21
-74.9857
0
LINE
8
BLACK
6
CONTINUOUS
10
221.393
20
-74.9857
11
221.536
21
-74.9857
0
LINE
8
BLACK
6
CONTINUOUS
10
221.536
20
-74.9857
11
221.631
21
-75.0333
0
LINE
8
BLACK
6
CONTINUOUS
10
221.631
20
-75.0333
11
221.679
21
-75.1286
0
LINE
8
BLACK
6
CONTINUOUS
10
221.679
20
-75.1286
11
221.679
21
-75.6524
0
LINE
8
BLACK
6
CONTINUOUS
10
221.679
20
-75.1286
11
221.726
21
-75.0333
0
LINE
8
BLACK
6
CONTINUOUS
10
221.726
20
-75.0333
11
221.822
21
-74.9857
0
LINE
8
BLACK
6
CONTINUOUS
10
221.822
20
-74.9857
11
221.964
21
-74.9857
0
LINE
8
BLACK
6
CONTINUOUS
10
221.964
20
-74.9857
11
222.06
21
-75.0333
0
LINE
8
BLACK
6
CONTINUOUS
10
222.06
20
-75.0333
11
222.107
21
-75.1286
0
LINE
8
BLACK
6
CONTINUOUS
10
222.107
20
-75.1286
11
222.107
21
-75.6524
0
LINE
8
BLACK
6
CONTINUOUS
10
211.012
20
-76.5
11
225.012
21
-76.5
0
LINE
8
BLACK
6
CONTINUOUS
10
211.012
20
-76.775
11
211.012
21
-75.9136
0
LINE
8
BLACK
6
CONTINUOUS
10
225.012
20
-76.775
11
225.012
21
-75.9136
0
LINE
8
BLACK
6
CONTINUOUS
10
225.012
20
-76.5
11
223.885
21
-77.0864
0
LINE
8
BLACK
6
CONTINUOUS
10
225.012
20
-76.5
11
223.885
21
-75.9136
0
LINE
8
BLACK
6
CONTINUOUS
10
211.012
20
-76.5
11
212.139
21
-77.0864
0
LINE
8
BLACK
6
CONTINUOUS
10
211.012
20
-76.5
11
212.139
21
-75.9136
0
LINE
8
BLACK
6
CONTINUOUS
10
135.265
20
-9.83738
11
134.693
21
-9.83738
0
LINE
8
BLACK
6
CONTINUOUS
10
134.979
20
-9.83738
11
134.979
21
-8.83738
0
LINE
8
BLACK
6
CONTINUOUS
10
134.979
20
-8.83738
11
134.884
21
-8.98024
0
LINE
8
BLACK
6
CONTINUOUS
10
134.884
20
-8.98024
11
134.789
21
-9.07548
0
LINE
8
BLACK
6
CONTINUOUS
10
134.789
20
-9.07548
11
134.693
21
-9.12309
0
LINE
8
BLACK
6
CONTINUOUS
10
135.598
20
-8.83738
11
136.265
21
-8.83738
0
LINE
8
BLACK
6
CONTINUOUS
10
136.265
20
-8.83738
11
135.836
21
-9.83738
0
LINE
8
BLACK
6
CONTINUOUS
10
137.074
20
-8.83738
11
136.884
21
-8.83738
0
LINE
8
BLACK
6
CONTINUOUS
10
136.884
20
-8.83738
11
136.789
21
-8.885
0
LINE
8
BLACK
6
CONTINUOUS
10
136.789
20
-8.885
11
136.741
21
-8.93262
0
LINE
8
BLACK
6
CONTINUOUS
10
136.741
20
-8.93262
11
136.646
21
-9.07548
0
LINE
8
BLACK
6
CONTINUOUS
10
136.646
20
-9.07548
11
136.598
21
-9.26595
0
LINE
8
BLACK
6
CONTINUOUS
10
136.598
20
-9.26595
11
136.598
21
-9.6469
0
LINE
8
BLACK
6
CONTINUOUS
10
136.598
20
-9.6469
11
136.646
21
-9.74214
0
LINE
8
BLACK
6
CONTINUOUS
10
136.646
20
-9.74214
11
136.693
21
-9.78976
0
LINE
8
BLACK
6
CONTINUOUS
10
136.693
20
-9.78976
11
136.789
21
-9.83738
0
LINE
8
BLACK
6
CONTINUOUS
10
136.789
20
-9.83738
11
136.979
21
-9.83738
0
LINE
8
BLACK
6
CONTINUOUS
10
136.979
20
-9.83738
11
137.074
21
-9.78976
0
LINE
8
BLACK
6
CONTINUOUS
10
137.074
20
-9.78976
11
137.122
21
-9.74214
0
LINE
8
BLACK
6
CONTINUOUS
10
137.122
20
-9.74214
11
137.17
21
-9.6469
0
LINE
8
BLACK
6
CONTINUOUS
10
137.17
20
-9.6469
11
137.17
21
-9.40881
0
LINE
8
BLACK
6
CONTINUOUS
10
137.17
20
-9.40881
11
137.122
21
-9.31357
0
LINE
8
BLACK
6
CONTINUOUS
10
137.122
20
-9.31357
11
137.074
21
-9.26595
0
LINE
8
BLACK
6
CONTINUOUS
10
137.074
20
-9.26595
11
136.979
21
-9.21833
0
LINE
8
BLACK
6
CONTINUOUS
10
136.979
20
-9.21833
11
136.789
21
-9.21833
0
LINE
8
BLACK
6
CONTINUOUS
10
136.789
20
-9.21833
11
136.693
21
-9.26595
0
LINE
8
BLACK
6
CONTINUOUS
10
136.693
20
-9.26595
11
136.646
21
-9.31357
0
LINE
8
BLACK
6
CONTINUOUS
10
136.646
20
-9.31357
11
136.598
21
-9.40881
0
LINE
8
BLACK
6
CONTINUOUS
10
137.598
20
-9.74214
11
137.646
21
-9.78976
0
LINE
8
BLACK
6
CONTINUOUS
10
137.646
20
-9.78976
11
137.598
21
-9.83738
0
LINE
8
BLACK
6
CONTINUOUS
10
137.598
20
-9.83738
11
137.551
21
-9.78976
0
LINE
8
BLACK
6
CONTINUOUS
10
137.551
20
-9.78976
11
137.598
21
-9.74214
0
LINE
8
BLACK
6
CONTINUOUS
10
137.598
20
-9.74214
11
137.598
21
-9.83738
0
LINE
8
BLACK
6
CONTINUOUS
10
138.503
20
-9.17071
11
138.503
21
-9.83738
0
LINE
8
BLACK
6
CONTINUOUS
10
138.265
20
-8.78976
11
138.027
21
-9.50405
0
LINE
8
BLACK
6
CONTINUOUS
10
138.027
20
-9.50405
11
138.646
21
-9.50405
0
LINE
8
BLACK
6
CONTINUOUS
10
139.503
20
-8.83738
11
139.027
21
-8.83738
0
LINE
8
BLACK
6
CONTINUOUS
10
139.027
20
-8.83738
11
138.979
21
-9.31357
0
LINE
8
BLACK
6
CONTINUOUS
10
138.979
20
-9.31357
11
139.027
21
-9.26595
0
LINE
8
BLACK
6
CONTINUOUS
10
139.027
20
-9.26595
11
139.122
21
-9.21833
0
LINE
8
BLACK
6
CONTINUOUS
10
139.122
20
-9.21833
11
139.36
21
-9.21833
0
LINE
8
BLACK
6
CONTINUOUS
10
139.36
20
-9.21833
11
139.455
21
-9.26595
0
LINE
8
BLACK
6
CONTINUOUS
10
139.455
20
-9.26595
11
139.503
21
-9.31357
0
LINE
8
BLACK
6
CONTINUOUS
10
139.503
20
-9.31357
11
139.551
21
-9.40881
0
LINE
8
BLACK
6
CONTINUOUS
10
139.551
20
-9.40881
11
139.551
21
-9.6469
0
LINE
8
BLACK
6
CONTINUOUS
10
139.551
20
-9.6469
11
139.503
21
-9.74214
0
LINE
8
BLACK
6
CONTINUOUS
10
139.503
20
-9.74214
11
139.455
21
-9.78976
0
LINE
8
BLACK
6
CONTINUOUS
10
139.455
20
-9.78976
11
139.36
21
-9.83738
0
LINE
8
BLACK
6
CONTINUOUS
10
139.36
20
-9.83738
11
139.122
21
-9.83738
0
LINE
8
BLACK
6
CONTINUOUS
10
139.122
20
-9.83738
11
139.027
21
-9.78976
0
LINE
8
BLACK
6
CONTINUOUS
10
139.027
20
-9.78976
11
138.979
21
-9.74214
0
LINE
8
BLACK
6
CONTINUOUS
10
140.17
20
-8.83738
11
140.265
21
-8.83738
0
LINE
8
BLACK
6
CONTINUOUS
10
140.265
20
-8.83738
11
140.36
21
-8.885
0
LINE
8
BLACK
6
CONTINUOUS
10
140.36
20
-8.885
11
140.408
21
-8.93262
0
LINE
8
BLACK
6
CONTINUOUS
10
140.408
20
-8.93262
11
140.455
21
-9.02786
0
LINE
8
BLACK
6
CONTINUOUS
10
140.455
20
-9.02786
11
140.503
21
-9.21833
0
LINE
8
BLACK
6
CONTINUOUS
10
140.503
20
-9.21833
11
140.503
21
-9.45643
0
LINE
8
BLACK
6
CONTINUOUS
10
140.503
20
-9.45643
11
140.455
21
-9.6469
0
LINE
8
BLACK
6
CONTINUOUS
10
140.455
20
-9.6469
11
140.408
21
-9.74214
0
LINE
8
BLACK
6
CONTINUOUS
10
140.408
20
-9.74214
11
140.36
21
-9.78976
0
LINE
8
BLACK
6
CONTINUOUS
10
140.36
20
-9.78976
11
140.265
21
-9.83738
0
LINE
8
BLACK
6
CONTINUOUS
10
140.265
20
-9.83738
11
140.17
21
-9.83738
0
LINE
8
BLACK
6
CONTINUOUS
10
140.17
20
-9.83738
11
140.074
21
-9.78976
0
LINE
8
BLACK
6
CONTINUOUS
10
140.074
20
-9.78976
11
140.027
21
-9.74214
0
LINE
8
BLACK
6
CONTINUOUS
10
140.027
20
-9.74214
11
139.979
21
-9.6469
0
LINE
8
BLACK
6
CONTINUOUS
10
139.979
20
-9.6469
11
139.932
21
-9.45643
0
LINE
8
BLACK
6
CONTINUOUS
10
139.932
20
-9.45643
11
139.932
21
-9.21833
0
LINE
8
BLACK
6
CONTINUOUS
10
139.932
20
-9.21833
11
139.979
21
-9.02786
0
LINE
8
BLACK
6
CONTINUOUS
10
139.979
20
-9.02786
11
140.027
21
-8.93262
0
LINE
8
BLACK
6
CONTINUOUS
10
140.027
20
-8.93262
11
140.074
21
-8.885
0
LINE
8
BLACK
6
CONTINUOUS
10
140.074
20
-8.885
11
140.17
21
-8.83738
0
LINE
8
BLACK
6
CONTINUOUS
10
141.693
20
-9.83738
11
141.693
21
-9.17071
0
LINE
8
BLACK
6
CONTINUOUS
10
141.693
20
-9.26595
11
141.741
21
-9.21833
0
LINE
8
BLACK
6
CONTINUOUS
10
141.741
20
-9.21833
11
141.836
21
-9.17071
0
LINE
8
BLACK
6
CONTINUOUS
10
141.836
20
-9.17071
11
141.979
21
-9.17071
0
LINE
8
BLACK
6
CONTINUOUS
10
141.979
20
-9.17071
11
142.074
21
-9.21833
0
LINE
8
BLACK
6
CONTINUOUS
10
142.074
20
-9.21833
11
142.122
21
-9.31357
0
LINE
8
BLACK
6
CONTINUOUS
10
142.122
20
-9.31357
11
142.122
21
-9.83738
0
LINE
8
BLACK
6
CONTINUOUS
10
142.122
20
-9.31357
11
142.17
21
-9.21833
0
LINE
8
BLACK
6
CONTINUOUS
10
142.17
20
-9.21833
11
142.265
21
-9.17071
0
LINE
8
BLACK
6
CONTINUOUS
10
142.265
20
-9.17071
11
142.408
21
-9.17071
0
LINE
8
BLACK
6
CONTINUOUS
10
142.408
20
-9.17071
11
142.503
21
-9.21833
0
LINE
8
BLACK
6
CONTINUOUS
10
142.503
20
-9.21833
11
142.551
21
-9.31357
0
LINE
8
BLACK
6
CONTINUOUS
10
142.551
20
-9.31357
11
142.551
21
-9.83738
0
LINE
8
BLACK
6
CONTINUOUS
10
143.027
20
-9.83738
11
143.027
21
-9.17071
0
LINE
8
BLACK
6
CONTINUOUS
10
143.027
20
-9.26595
11
143.074
21
-9.21833
0
LINE
8
BLACK
6
CONTINUOUS
10
143.074
20
-9.21833
11
143.17
21
-9.17071
0
LINE
8
BLACK
6
CONTINUOUS
10
143.17
20
-9.17071
11
143.312
21
-9.17071
0
LINE
8
BLACK
6
CONTINUOUS
10
143.312
20
-9.17071
11
143.408
21
-9.21833
0
LINE
8
BLACK
6
CONTINUOUS
10
143.408
20
-9.21833
11
143.455
21
-9.31357
0
LINE
8
BLACK
6
CONTINUOUS
10
143.455
20
-9.31357
11
143.455
21
-9.83738
0
LINE
8
BLACK
6
CONTINUOUS
10
143.455
20
-9.31357
11
143.503
21
-9.21833
0
LINE
8
BLACK
6
CONTINUOUS
10
143.503
20
-9.21833
11
143.598
21
-9.17071
0
LINE
8
BLACK
6
CONTINUOUS
10
143.598
20
-9.17071
11
143.741
21
-9.17071
0
LINE
8
BLACK
6
CONTINUOUS
10
143.741
20
-9.17071
11
143.836
21
-9.21833
0
LINE
8
BLACK
6
CONTINUOUS
10
143.836
20
-9.21833
11
143.884
21
-9.31357
0
LINE
8
BLACK
6
CONTINUOUS
10
143.884
20
-9.31357
11
143.884
21
-9.83738
0
LINE
8
BLACK
6
CONTINUOUS
10
51.0875
20
-10.685
11
227.537
21
-10.685
0
LINE
8
BLACK
6
CONTINUOUS
10
51.0875
20
-12.225
11
51.0875
21
-10.0986
0
LINE
8
BLACK
6
CONTINUOUS
10
227.537
20
-12.225
11
227.537
21
-10.0986
0
LINE
8
BLACK
6
CONTINUOUS
10
227.537
20
-10.685
11
226.411
21
-11.2714
0
LINE
8
BLACK
6
CONTINUOUS
10
227.537
20
-10.685
11
226.411
21
-10.0986
0
LINE
8
BLACK
6
CONTINUOUS
10
51.0875
20
-10.685
11
52.214
21
-11.2714
0
LINE
8
BLACK
6
CONTINUOUS
10
51.0875
20
-10.685
11
52.214
21
-10.0986
0
LINE
8
BLACK
6
CONTINUOUS
10
45.7533
20
-99.4557
11
45.7533
21
-100.122
0
LINE
8
BLACK
6
CONTINUOUS
10
45.5152
20
-99.0748
11
45.2771
21
-99.789
0
LINE
8
BLACK
6
CONTINUOUS
10
45.2771
20
-99.789
11
45.8961
21
-99.789
0
LINE
8
BLACK
6
CONTINUOUS
10
46.2771
20
-100.027
11
46.3247
21
-100.075
0
LINE
8
BLACK
6
CONTINUOUS
10
46.3247
20
-100.075
11
46.2771
21
-100.122
0
LINE
8
BLACK
6
CONTINUOUS
10
46.2771
20
-100.122
11
46.2295
21
-100.075
0
LINE
8
BLACK
6
CONTINUOUS
10
46.2295
20
-100.075
11
46.2771
21
-100.027
0
LINE
8
BLACK
6
CONTINUOUS
10
46.2771
20
-100.027
11
46.2771
21
-100.122
0
LINE
8
BLACK
6
CONTINUOUS
10
46.658
20
-99.1224
11
47.3247
21
-99.1224
0
LINE
8
BLACK
6
CONTINUOUS
10
47.3247
20
-99.1224
11
46.8961
21
-100.122
0
LINE
8
BLACK
6
CONTINUOUS
10
48.1342
20
-99.1224
11
47.9437
21
-99.1224
0
LINE
8
BLACK
6
CONTINUOUS
10
47.9437
20
-99.1224
11
47.8485
21
-99.17
0
LINE
8
BLACK
6
CONTINUOUS
10
47.8485
20
-99.17
11
47.8009
21
-99.2176
0
LINE
8
BLACK
6
CONTINUOUS
10
47.8009
20
-99.2176
11
47.7057
21
-99.3605
0
LINE
8
BLACK
6
CONTINUOUS
10
47.7057
20
-99.3605
11
47.658
21
-99.551
0
LINE
8
BLACK
6
CONTINUOUS
10
47.658
20
-99.551
11
47.658
21
-99.9319
0
LINE
8
BLACK
6
CONTINUOUS
10
47.658
20
-99.9319
11
47.7057
21
-100.027
0
LINE
8
BLACK
6
CONTINUOUS
10
47.7057
20
-100.027
11
47.7533
21
-100.075
0
LINE
8
BLACK
6
CONTINUOUS
10
47.7533
20
-100.075
11
47.8485
21
-100.122
0
LINE
8
BLACK
6
CONTINUOUS
10
47.8485
20
-100.122
11
48.039
21
-100.122
0
LINE
8
BLACK
6
CONTINUOUS
10
48.039
20
-100.122
11
48.1342
21
-100.075
0
LINE
8
BLACK
6
CONTINUOUS
10
48.1342
20
-100.075
11
48.1818
21
-100.027
0
LINE
8
BLACK
6
CONTINUOUS
10
48.1818
20
-100.027
11
48.2295
21
-99.9319
0
LINE
8
BLACK
6
CONTINUOUS
10
48.2295
20
-99.9319
11
48.2295
21
-99.6938
0
LINE
8
BLACK
6
CONTINUOUS
10
48.2295
20
-99.6938
11
48.1818
21
-99.5986
0
LINE
8
BLACK
6
CONTINUOUS
10
48.1818
20
-99.5986
11
48.1342
21
-99.551
0
LINE
8
BLACK
6
CONTINUOUS
10
48.1342
20
-99.551
11
48.039
21
-99.5033
0
LINE
8
BLACK
6
CONTINUOUS
10
48.039
20
-99.5033
11
47.8485
21
-99.5033
0
LINE
8
BLACK
6
CONTINUOUS
10
47.8485
20
-99.5033
11
47.7533
21
-99.551
0
LINE
8
BLACK
6
CONTINUOUS
10
47.7533
20
-99.551
11
47.7057
21
-99.5986
0
LINE
8
BLACK
6
CONTINUOUS
10
47.7057
20
-99.5986
11
47.658
21
-99.6938
0
LINE
8
BLACK
6
CONTINUOUS
10
48.5628
20
-99.1224
11
49.1818
21
-99.1224
0
LINE
8
BLACK
6
CONTINUOUS
10
49.1818
20
-99.1224
11
48.8485
21
-99.5033
0
LINE
8
BLACK
6
CONTINUOUS
10
48.8485
20
-99.5033
11
48.9914
21
-99.5033
0
LINE
8
BLACK
6
CONTINUOUS
10
48.9914
20
-99.5033
11
49.0866
21
-99.551
0
LINE
8
BLACK
6
CONTINUOUS
10
49.0866
20
-99.551
11
49.1342
21
-99.5986
0
LINE
8
BLACK
6
CONTINUOUS
10
49.1342
20
-99.5986
11
49.1818
21
-99.6938
0
LINE
8
BLACK
6
CONTINUOUS
10
49.1818
20
-99.6938
11
49.1818
21
-99.9319
0
LINE
8
BLACK
6
CONTINUOUS
10
49.1818
20
-99.9319
11
49.1342
21
-100.027
0
LINE
8
BLACK
6
CONTINUOUS
10
49.1342
20
-100.027
11
49.0866
21
-100.075
0
LINE
8
BLACK
6
CONTINUOUS
10
49.0866
20
-100.075
11
48.9914
21
-100.122
0
LINE
8
BLACK
6
CONTINUOUS
10
48.9914
20
-100.122
11
48.7057
21
-100.122
0
LINE
8
BLACK
6
CONTINUOUS
10
48.7057
20
-100.122
11
48.6104
21
-100.075
0
LINE
8
BLACK
6
CONTINUOUS
10
48.6104
20
-100.075
11
48.5628
21
-100.027
0
LINE
8
BLACK
6
CONTINUOUS
10
50.3723
20
-100.122
11
50.3723
21
-99.4557
0
LINE
8
BLACK
6
CONTINUOUS
10
50.3723
20
-99.551
11
50.4199
21
-99.5033
0
LINE
8
BLACK
6
CONTINUOUS
10
50.4199
20
-99.5033
11
50.5152
21
-99.4557
0
LINE
8
BLACK
6
CONTINUOUS
10
50.5152
20
-99.4557
11
50.658
21
-99.4557
0
LINE
8
BLACK
6
CONTINUOUS
10
50.658
20
-99.4557
11
50.7533
21
-99.5033
0
LINE
8
BLACK
6
CONTINUOUS
10
50.7533
20
-99.5033
11
50.8009
21
-99.5986
0
LINE
8
BLACK
6
CONTINUOUS
10
50.8009
20
-99.5986
11
50.8009
21
-100.122
0
LINE
8
BLACK
6
CONTINUOUS
10
50.8009
20
-99.5986
11
50.8485
21
-99.5033
0
LINE
8
BLACK
6
CONTINUOUS
10
50.8485
20
-99.5033
11
50.9437
21
-99.4557
0
LINE
8
BLACK
6
CONTINUOUS
10
50.9437
20
-99.4557
11
51.0866
21
-99.4557
0
LINE
8
BLACK
6
CONTINUOUS
10
51.0866
20
-99.4557
11
51.1818
21
-99.5033
0
LINE
8
BLACK
6
CONTINUOUS
10
51.1818
20
-99.5033
11
51.2295
21
-99.5986
0
LINE
8
BLACK
6
CONTINUOUS
10
51.2295
20
-99.5986
11
51.2295
21
-100.122
0
LINE
8
BLACK
6
CONTINUOUS
10
51.7057
20
-100.122
11
51.7057
21
-99.4557
0
LINE
8
BLACK
6
CONTINUOUS
10
51.7057
20
-99.551
11
51.7533
21
-99.5033
0
LINE
8
BLACK
6
CONTINUOUS
10
51.7533
20
-99.5033
11
51.8485
21
-99.4557
0
LINE
8
BLACK
6
CONTINUOUS
10
51.8485
20
-99.4557
11
51.9914
21
-99.4557
0
LINE
8
BLACK
6
CONTINUOUS
10
51.9914
20
-99.4557
11
52.0866
21
-99.5033
0
LINE
8
BLACK
6
CONTINUOUS
10
52.0866
20
-99.5033
11
52.1342
21
-99.5986
0
LINE
8
BLACK
6
CONTINUOUS
10
52.1342
20
-99.5986
11
52.1342
21
-100.122
0
LINE
8
BLACK
6
CONTINUOUS
10
52.1342
20
-99.5986
11
52.1818
21
-99.5033
0
LINE
8
BLACK
6
CONTINUOUS
10
52.1818
20
-99.5033
11
52.2771
21
-99.4557
0
LINE
8
BLACK
6
CONTINUOUS
10
52.2771
20
-99.4557
11
52.4199
21
-99.4557
0
LINE
8
BLACK
6
CONTINUOUS
10
52.4199
20
-99.4557
11
52.5152
21
-99.5033
0
LINE
8
BLACK
6
CONTINUOUS
10
52.5152
20
-99.5033
11
52.5628
21
-99.5986
0
LINE
8
BLACK
6
CONTINUOUS
10
52.5628
20
-99.5986
11
52.5628
21
-100.122
0
LINE
8
BLACK
6
CONTINUOUS
10
51.325
20
-98.37
11
46.5625
21
-98.37
0
LINE
8
BLACK
6
CONTINUOUS
10
51.325
20
-97.2
11
51.325
21
-98.9564
0
LINE
8
BLACK
6
CONTINUOUS
10
46.5625
20
-97.2
11
46.5625
21
-98.9564
0
LINE
8
BLACK
6
CONTINUOUS
10
46.5625
20
-98.37
11
47.689
21
-97.7836
0
LINE
8
BLACK
6
CONTINUOUS
10
46.5625
20
-98.37
11
47.689
21
-98.9564
0
LINE
8
BLACK
6
CONTINUOUS
10
51.325
20
-98.37
11
50.1985
21
-97.7836
0
LINE
8
BLACK
6
CONTINUOUS
10
51.325
20
-98.37
11
50.1985
21
-98.9564
0
LINE
8
BLACK
6
CONTINUOUS
10
52.5161
20
-118.642
11
52.7065
21
-118.642
0
LINE
8
BLACK
6
CONTINUOUS
10
52.7065
20
-118.642
11
52.8018
21
-118.595
0
LINE
8
BLACK
6
CONTINUOUS
10
52.8018
20
-118.595
11
52.8494
21
-118.547
0
LINE
8
BLACK
6
CONTINUOUS
10
52.8494
20
-118.547
11
52.9446
21
-118.404
0
LINE
8
BLACK
6
CONTINUOUS
10
52.9446
20
-118.404
11
52.9923
21
-118.214
0
LINE
8
BLACK
6
CONTINUOUS
10
52.9923
20
-118.214
11
52.9923
21
-117.833
0
LINE
8
BLACK
6
CONTINUOUS
10
52.9923
20
-117.833
11
52.9446
21
-117.738
0
LINE
8
BLACK
6
CONTINUOUS
10
52.9446
20
-117.738
11
52.897
21
-117.69
0
LINE
8
BLACK
6
CONTINUOUS
10
52.897
20
-117.69
11
52.8018
21
-117.642
0
LINE
8
BLACK
6
CONTINUOUS
10
52.8018
20
-117.642
11
52.6113
21
-117.642
0
LINE
8
BLACK
6
CONTINUOUS
10
52.6113
20
-117.642
11
52.5161
21
-117.69
0
LINE
8
BLACK
6
CONTINUOUS
10
52.5161
20
-117.69
11
52.4685
21
-117.738
0
LINE
8
BLACK
6
CONTINUOUS
10
52.4685
20
-117.738
11
52.4208
21
-117.833
0
LINE
8
BLACK
6
CONTINUOUS
10
52.4208
20
-117.833
11
52.4208
21
-118.071
0
LINE
8
BLACK
6
CONTINUOUS
10
52.4208
20
-118.071
11
52.4685
21
-118.166
0
LINE
8
BLACK
6
CONTINUOUS
10
52.4685
20
-118.166
11
52.5161
21
-118.214
0
LINE
8
BLACK
6
CONTINUOUS
10
52.5161
20
-118.214
11
52.6113
21
-118.261
0
LINE
8
BLACK
6
CONTINUOUS
10
52.6113
20
-118.261
11
52.8018
21
-118.261
0
LINE
8
BLACK
6
CONTINUOUS
10
52.8018
20
-118.261
11
52.897
21
-118.214
0
LINE
8
BLACK
6
CONTINUOUS
10
52.897
20
-118.214
11
52.9446
21
-118.166
0
LINE
8
BLACK
6
CONTINUOUS
10
52.9446
20
-118.166
11
52.9923
21
-118.071
0
LINE
8
BLACK
6
CONTINUOUS
10
53.4208
20
-118.547
11
53.4685
21
-118.595
0
LINE
8
BLACK
6
CONTINUOUS
10
53.4685
20
-118.595
11
53.4208
21
-118.642
0
LINE
8
BLACK
6
CONTINUOUS
10
53.4208
20
-118.642
11
53.3732
21
-118.595
0
LINE
8
BLACK
6
CONTINUOUS
10
53.3732
20
-118.595
11
53.4208
21
-118.547
0
LINE
8
BLACK
6
CONTINUOUS
10
53.4208
20
-118.547
11
53.4208
21
-118.642
0
LINE
8
BLACK
6
CONTINUOUS
10
54.3732
20
-117.642
11
53.897
21
-117.642
0
LINE
8
BLACK
6
CONTINUOUS
10
53.897
20
-117.642
11
53.8494
21
-118.119
0
LINE
8
BLACK
6
CONTINUOUS
10
53.8494
20
-118.119
11
53.897
21
-118.071
0
LINE
8
BLACK
6
CONTINUOUS
10
53.897
20
-118.071
11
53.9923
21
-118.023
0
LINE
8
BLACK
6
CONTINUOUS
10
53.9923
20
-118.023
11
54.2304
21
-118.023
0
LINE
8
BLACK
6
CONTINUOUS
10
54.2304
20
-118.023
11
54.3256
21
-118.071
0
LINE
8
BLACK
6
CONTINUOUS
10
54.3256
20
-118.071
11
54.3732
21
-118.119
0
LINE
8
BLACK
6
CONTINUOUS
10
54.3732
20
-118.119
11
54.4208
21
-118.214
0
LINE
8
BLACK
6
CONTINUOUS
10
54.4208
20
-118.214
11
54.4208
21
-118.452
0
LINE
8
BLACK
6
CONTINUOUS
10
54.4208
20
-118.452
11
54.3732
21
-118.547
0
LINE
8
BLACK
6
CONTINUOUS
10
54.3732
20
-118.547
11
54.3256
21
-118.595
0
LINE
8
BLACK
6
CONTINUOUS
10
54.3256
20
-118.595
11
54.2304
21
-118.642
0
LINE
8
BLACK
6
CONTINUOUS
10
54.2304
20
-118.642
11
53.9923
21
-118.642
0
LINE
8
BLACK
6
CONTINUOUS
10
53.9923
20
-118.642
11
53.897
21
-118.595
0
LINE
8
BLACK
6
CONTINUOUS
10
53.897
20
-118.595
11
53.8494
21
-118.547
0
LINE
8
BLACK
6
CONTINUOUS
10
54.8018
20
-117.738
11
54.8494
21
-117.69
0
LINE
8
BLACK
6
CONTINUOUS
10
54.8494
20
-117.69
11
54.9446
21
-117.642
0
LINE
8
BLACK
6
CONTINUOUS
10
54.9446
20
-117.642
11
55.1827
21
-117.642
0
LINE
8
BLACK
6
CONTINUOUS
10
55.1827
20
-117.642
11
55.278
21
-117.69
0
LINE
8
BLACK
6
CONTINUOUS
10
55.278
20
-117.69
11
55.3256
21
-117.738
0
LINE
8
BLACK
6
CONTINUOUS
10
55.3256
20
-117.738
11
55.3732
21
-117.833
0
LINE
8
BLACK
6
CONTINUOUS
10
55.3732
20
-117.833
11
55.3732
21
-117.928
0
LINE
8
BLACK
6
CONTINUOUS
10
55.3732
20
-117.928
11
55.3256
21
-118.071
0
LINE
8
BLACK
6
CONTINUOUS
10
55.3256
20
-118.071
11
54.7542
21
-118.642
0
LINE
8
BLACK
6
CONTINUOUS
10
54.7542
20
-118.642
11
55.3732
21
-118.642
0
LINE
8
BLACK
6
CONTINUOUS
10
56.278
20
-117.642
11
55.8018
21
-117.642
0
LINE
8
BLACK
6
CONTINUOUS
10
55.8018
20
-117.642
11
55.7542
21
-118.119
0
LINE
8
BLACK
6
CONTINUOUS
10
55.7542
20
-118.119
11
55.8018
21
-118.071
0
LINE
8
BLACK
6
CONTINUOUS
10
55.8018
20
-118.071
11
55.897
21
-118.023
0
LINE
8
BLACK
6
CONTINUOUS
10
55.897
20
-118.023
11
56.1351
21
-118.023
0
LINE
8
BLACK
6
CONTINUOUS
10
56.1351
20
-118.023
11
56.2304
21
-118.071
0
LINE
8
BLACK
6
CONTINUOUS
10
56.2304
20
-118.071
11
56.278
21
-118.119
0
LINE
8
BLACK
6
CONTINUOUS
10
56.278
20
-118.119
11
56.3256
21
-118.214
0
LINE
8
BLACK
6
CONTINUOUS
10
56.3256
20
-118.214
11
56.3256
21
-118.452
0
LINE
8
BLACK
6
CONTINUOUS
10
56.3256
20
-118.452
11
56.278
21
-118.547
0
LINE
8
BLACK
6
CONTINUOUS
10
56.278
20
-118.547
11
56.2304
21
-118.595
0
LINE
8
BLACK
6
CONTINUOUS
10
56.2304
20
-118.595
11
56.1351
21
-118.642
0
LINE
8
BLACK
6
CONTINUOUS
10
56.1351
20
-118.642
11
55.897
21
-118.642
0
LINE
8
BLACK
6
CONTINUOUS
10
55.897
20
-118.642
11
55.8018
21
-118.595
0
LINE
8
BLACK
6
CONTINUOUS
10
55.8018
20
-118.595
11
55.7542
21
-118.547
0
LINE
8
BLACK
6
CONTINUOUS
10
57.5161
20
-118.642
11
57.5161
21
-117.976
0
LINE
8
BLACK
6
CONTINUOUS
10
57.5161
20
-118.071
11
57.5637
21
-118.023
0
LINE
8
BLACK
6
CONTINUOUS
10
57.5637
20
-118.023
11
57.6589
21
-117.976
0
LINE
8
BLACK
6
CONTINUOUS
10
57.6589
20
-117.976
11
57.8018
21
-117.976
0
LINE
8
BLACK
6
CONTINUOUS
10
57.8018
20
-117.976
11
57.897
21
-118.023
0
LINE
8
BLACK
6
CONTINUOUS
10
57.897
20
-118.023
11
57.9446
21
-118.119
0
LINE
8
BLACK
6
CONTINUOUS
10
57.9446
20
-118.119
11
57.9446
21
-118.642
0
LINE
8
BLACK
6
CONTINUOUS
10
57.9446
20
-118.119
11
57.9923
21
-118.023
0
LINE
8
BLACK
6
CONTINUOUS
10
57.9923
20
-118.023
11
58.0875
21
-117.976
0
LINE
8
BLACK
6
CONTINUOUS
10
58.0875
20
-117.976
11
58.2304
21
-117.976
0
LINE
8
BLACK
6
CONTINUOUS
10
58.2304
20
-117.976
11
58.3256
21
-118.023
0
LINE
8
BLACK
6
CONTINUOUS
10
58.3256
20
-118.023
11
58.3732
21
-118.119
0
LINE
8
BLACK
6
CONTINUOUS
10
58.3732
20
-118.119
11
58.3732
21
-118.642
0
LINE
8
BLACK
6
CONTINUOUS
10
58.8494
20
-118.642
11
58.8494
21
-117.976
0
LINE
8
BLACK
6
CONTINUOUS
10
58.8494
20
-118.071
11
58.897
21
-118.023
0
LINE
8
BLACK
6
CONTINUOUS
10
58.897
20
-118.023
11
58.9923
21
-117.976
0
LINE
8
BLACK
6
CONTINUOUS
10
58.9923
20
-117.976
11
59.1351
21
-117.976
0
LINE
8
BLACK
6
CONTINUOUS
10
59.1351
20
-117.976
11
59.2304
21
-118.023
0
LINE
8
BLACK
6
CONTINUOUS
10
59.2304
20
-118.023
11
59.278
21
-118.119
0
LINE
8
BLACK
6
CONTINUOUS
10
59.278
20
-118.119
11
59.278
21
-118.642
0
LINE
8
BLACK
6
CONTINUOUS
10
59.278
20
-118.119
11
59.3256
21
-118.023
0
LINE
8
BLACK
6
CONTINUOUS
10
59.3256
20
-118.023
11
59.4208
21
-117.976
0
LINE
8
BLACK
6
CONTINUOUS
10
59.4208
20
-117.976
11
59.5637
21
-117.976
0
LINE
8
BLACK
6
CONTINUOUS
10
59.5637
20
-117.976
11
59.6589
21
-118.023
0
LINE
8
BLACK
6
CONTINUOUS
10
59.6589
20
-118.023
11
59.7065
21
-118.119
0
LINE
8
BLACK
6
CONTINUOUS
10
59.7065
20
-118.119
11
59.7065
21
-118.642
0
LINE
8
BLACK
6
CONTINUOUS
10
60.85
20
-116.89
11
51.325
21
-116.89
0
LINE
8
BLACK
6
CONTINUOUS
10
60.85
20
-116.25
11
60.85
21
-117.476
0
LINE
8
BLACK
6
CONTINUOUS
10
51.325
20
-116.25
11
51.325
21
-117.476
0
LINE
8
BLACK
6
CONTINUOUS
10
51.325
20
-116.89
11
52.4515
21
-116.304
0
LINE
8
BLACK
6
CONTINUOUS
10
51.325
20
-116.89
11
52.4515
21
-117.476
0
LINE
8
BLACK
6
CONTINUOUS
10
60.85
20
-116.89
11
59.7235
21
-116.304
0
LINE
8
BLACK
6
CONTINUOUS
10
60.85
20
-116.89
11
59.7235
21
-117.476
0
LINE
8
BLACK
6
CONTINUOUS
10
149.1
20
-59.725
11
149.1
21
-73.725
0
LINE
8
BLACK
6
CONTINUOUS
10
163.1
20
-59.725
11
163.1
21
-73.725
0
LINE
8
BLACK
6
CONTINUOUS
10
149.1
20
-59.725
11
163.1
21
-59.725
0
LINE
8
BLACK
6
CONTINUOUS
10
149.1
20
-73.725
11
163.1
21
-73.725
0
LINE
8
BLACK
6
CONTINUOUS
10
130.05
20
-59.725
11
130.05
21
-73.725
0
LINE
8
BLACK
6
CONTINUOUS
10
144.05
20
-59.725
11
144.05
21
-73.725
0
LINE
8
BLACK
6
CONTINUOUS
10
130.05
20
-59.725
11
144.05
21
-59.725
0
LINE
8
BLACK
6
CONTINUOUS
10
130.05
20
-73.725
11
144.05
21
-73.725
0
LINE
8
BLACK
6
CONTINUOUS
10
111
20
-59.725
11
111
21
-73.725
0
LINE
8
BLACK
6
CONTINUOUS
10
125
20
-59.725
11
125
21
-73.725
0
LINE
8
BLACK
6
CONTINUOUS
10
111
20
-59.725
11
125
21
-59.725
0
LINE
8
BLACK
6
CONTINUOUS
10
111
20
-73.725
11
125
21
-73.725
0
LINE
8
BLACK
6
CONTINUOUS
10
91.95
20
-59.725
11
91.95
21
-73.725
0
LINE
8
BLACK
6
CONTINUOUS
10
105.95
20
-59.725
11
105.95
21
-73.725
0
LINE
8
BLACK
6
CONTINUOUS
10
91.95
20
-59.725
11
105.95
21
-59.725
0
LINE
8
BLACK
6
CONTINUOUS
10
91.95
20
-73.725
11
105.95
21
-73.725
0
LINE
8
BLACK
6
CONTINUOUS
10
72.9
20
-59.725
11
72.9
21
-73.725
0
LINE
8
BLACK
6
CONTINUOUS
10
86.9
20
-59.725
11
86.9
21
-73.725
0
LINE
8
BLACK
6
CONTINUOUS
10
72.9
20
-59.725
11
86.9
21
-59.725
0
LINE
8
BLACK
6
CONTINUOUS
10
72.9
20
-73.725
11
86.9
21
-73.725
0
LINE
8
BLACK
6
CONTINUOUS
10
187.2
20
-40.675
11
187.2
21
-54.675
0
LINE
8
BLACK
6
CONTINUOUS
10
201.2
20
-40.675
11
201.2
21
-54.675
0
LINE
8
BLACK
6
CONTINUOUS
10
187.2
20
-40.675
11
201.2
21
-40.675
0
LINE
8
BLACK
6
CONTINUOUS
10
187.2
20
-54.675
11
201.2
21
-54.675
0
LINE
8
BLACK
6
CONTINUOUS
10
163.388
20
-40.675
11
163.388
21
-54.675
0
LINE
8
BLACK
6
CONTINUOUS
10
177.388
20
-40.675
11
177.388
21
-54.675
0
LINE
8
BLACK
6
CONTINUOUS
10
163.388
20
-40.675
11
177.388
21
-40.675
0
LINE
8
BLACK
6
CONTINUOUS
10
163.388
20
-54.675
11
177.388
21
-54.675
0
LINE
8
BLACK
6
CONTINUOUS
10
144.338
20
-40.675
11
144.338
21
-54.675
0
LINE
8
BLACK
6
CONTINUOUS
10
158.338
20
-40.675
11
158.338
21
-54.675
0
LINE
8
BLACK
6
CONTINUOUS
10
144.338
20
-40.675
11
158.338
21
-40.675
0
LINE
8
BLACK
6
CONTINUOUS
10
144.338
20
-54.675
11
158.338
21
-54.675
0
LINE
8
BLACK
6
CONTINUOUS
10
125.288
20
-40.675
11
125.288
21
-54.675
0
LINE
8
BLACK
6
CONTINUOUS
10
139.288
20
-40.675
11
139.288
21
-54.675
0
LINE
8
BLACK
6
CONTINUOUS
10
125.288
20
-40.675
11
139.288
21
-40.675
0
LINE
8
BLACK
6
CONTINUOUS
10
125.288
20
-54.675
11
139.288
21
-54.675
0
LINE
8
BLACK
6
CONTINUOUS
10
106.238
20
-40.675
11
106.238
21
-54.675
0
LINE
8
BLACK
6
CONTINUOUS
10
120.238
20
-40.675
11
120.238
21
-54.675
0
LINE
8
BLACK
6
CONTINUOUS
10
106.238
20
-40.675
11
120.238
21
-40.675
0
LINE
8
BLACK
6
CONTINUOUS
10
106.238
20
-54.675
11
120.238
21
-54.675
0
LINE
8
BLACK
6
CONTINUOUS
10
87.1875
20
-40.675
11
87.1875
21
-54.675
0
LINE
8
BLACK
6
CONTINUOUS
10
101.188
20
-40.675
11
101.188
21
-54.675
0
LINE
8
BLACK
6
CONTINUOUS
10
87.1875
20
-40.675
11
101.188
21
-40.675
0
LINE
8
BLACK
6
CONTINUOUS
10
87.1875
20
-54.675
11
101.188
21
-54.675
0
LINE
8
BLACK
6
CONTINUOUS
10
211.012
20
-21.625
11
211.012
21
-35.625
0
LINE
8
BLACK
6
CONTINUOUS
10
225.012
20
-21.625
11
225.012
21
-35.625
0
LINE
8
BLACK
6
CONTINUOUS
10
211.012
20
-21.625
11
225.012
21
-21.625
0
LINE
8
BLACK
6
CONTINUOUS
10
211.012
20
-35.625
11
225.012
21
-35.625
0
LINE
8
BLACK
6
CONTINUOUS
10
191.962
20
-21.625
11
191.962
21
-35.625
0
LINE
8
BLACK
6
CONTINUOUS
10
205.962
20
-21.625
11
205.962
21
-35.625
0
LINE
8
BLACK
6
CONTINUOUS
10
191.962
20
-21.625
11
205.962
21
-21.625
0
LINE
8
BLACK
6
CONTINUOUS
10
191.962
20
-35.625
11
205.962
21
-35.625
0
LINE
8
BLACK
6
CONTINUOUS
10
172.912
20
-21.625
11
172.912
21
-35.625
0
LINE
8
BLACK
6
CONTINUOUS
10
186.912
20
-21.625
11
186.912
21
-35.625
0
LINE
8
BLACK
6
CONTINUOUS
10
172.912
20
-21.625
11
186.912
21
-21.625
0
LINE
8
BLACK
6
CONTINUOUS
10
172.912
20
-35.625
11
186.912
21
-35.625
0
LINE
8
BLACK
6
CONTINUOUS
10
153.862
20
-21.625
11
153.862
21
-35.625
0
LINE
8
BLACK
6
CONTINUOUS
10
167.862
20
-21.625
11
167.862
21
-35.625
0
LINE
8
BLACK
6
CONTINUOUS
10
153.862
20
-21.625
11
167.862
21
-21.625
0
LINE
8
BLACK
6
CONTINUOUS
10
153.862
20
-35.625
11
167.862
21
-35.625
0
LINE
8
BLACK
6
CONTINUOUS
10
148.812
20
-21.625
11
148.812
21
-35.625
0
LINE
8
BLACK
6
CONTINUOUS
10
134.812
20
-35.625
11
148.812
21
-35.625
0
LINE
8
BLACK
6
CONTINUOUS
10
134.812
20
-21.625
11
148.812
21
-21.625
0
LINE
8
BLACK
6
CONTINUOUS
10
134.812
20
-21.625
11
134.812
21
-35.625
0
LINE
8
BLACK
6
CONTINUOUS
10
82.1375
20
-40.675
11
82.1375
21
-54.675
0
LINE
8
BLACK
6
CONTINUOUS
10
68.1375
20
-54.675
11
82.1375
21
-54.675
0
LINE
8
BLACK
6
CONTINUOUS
10
68.1375
20
-40.675
11
82.1375
21
-40.675
0
LINE
8
BLACK
6
CONTINUOUS
10
68.1375
20
-40.675
11
68.1375
21
-54.675
0
LINE
8
BLACK
6
CONTINUOUS
10
129.762
20
-21.625
11
129.762
21
-35.625
0
LINE
8
BLACK
6
CONTINUOUS
10
115.762
20
-35.625
11
129.762
21
-35.625
0
LINE
8
BLACK
6
CONTINUOUS
10
115.762
20
-21.625
11
129.762
21
-21.625
0
LINE
8
BLACK
6
CONTINUOUS
10
115.762
20
-21.625
11
115.762
21
-35.625
0
LINE
8
BLACK
6
CONTINUOUS
10
110.712
20
-21.625
11
110.712
21
-35.625
0
LINE
8
BLACK
6
CONTINUOUS
10
96.712
20
-35.625
11
110.712
21
-35.625
0
LINE
8
BLACK
6
CONTINUOUS
10
96.712
20
-21.625
11
110.712
21
-21.625
0
LINE
8
BLACK
6
CONTINUOUS
10
96.712
20
-21.625
11
96.712
21
-35.625
0
LINE
8
BLACK
6
CONTINUOUS
10
91.6625
20
-21.625
11
91.6625
21
-35.625
0
LINE
8
BLACK
6
CONTINUOUS
10
77.6625
20
-35.625
11
91.6625
21
-35.625
0
LINE
8
BLACK
6
CONTINUOUS
10
77.6625
20
-21.625
11
91.6625
21
-21.625
0
LINE
8
BLACK
6
CONTINUOUS
10
77.6625
20
-21.625
11
77.6625
21
-35.625
0
LINE
8
BLACK
6
CONTINUOUS
10
72.6125
20
-21.625
11
72.6125
21
-35.625
0
LINE
8
BLACK
6
CONTINUOUS
10
58.6125
20
-35.625
11
72.6125
21
-35.625
0
LINE
8
BLACK
6
CONTINUOUS
10
58.6125
20
-21.625
11
72.6125
21
-21.625
0
LINE
8
BLACK
6
CONTINUOUS
10
58.6125
20
-21.625
11
58.6125
21
-35.625
0
LINE
8
BLACK
6
CONTINUOUS
10
63.0875
20
-40.675
11
63.0875
21
-54.675
0
LINE
8
BLACK
6
CONTINUOUS
10
49.0875
20
-54.675
11
63.0875
21
-54.675
0
LINE
8
BLACK
6
CONTINUOUS
10
49.0875
20
-40.675
11
63.0875
21
-40.675
0
LINE
8
BLACK
6
CONTINUOUS
10
49.0875
20
-40.675
11
49.0875
21
-54.675
0
LINE
8
BLACK
6
CONTINUOUS
10
225.012
20
-97.825
11
225.012
21
-111.825
0
LINE
8
BLACK
6
CONTINUOUS
10
211.012
20
-111.825
11
225.012
21
-111.825
0
LINE
8
BLACK
6
CONTINUOUS
10
211.012
20
-97.825
11
225.012
21
-97.825
0
LINE
8
BLACK
6
CONTINUOUS
10
211.012
20
-97.825
11
211.012
21
-111.825
0
LINE
8
BLACK
6
CONTINUOUS
10
205.962
20
-97.825
11
205.962
21
-111.825
0
LINE
8
BLACK
6
CONTINUOUS
10
191.962
20
-111.825
11
205.962
21
-111.825
0
LINE
8
BLACK
6
CONTINUOUS
10
191.962
20
-97.825
11
205.962
21
-97.825
0
LINE
8
BLACK
6
CONTINUOUS
10
191.962
20
-97.825
11
191.962
21
-111.825
0
LINE
8
BLACK
6
CONTINUOUS
10
186.912
20
-97.825
11
186.912
21
-111.825
0
LINE
8
BLACK
6
CONTINUOUS
10
172.912
20
-111.825
11
186.912
21
-111.825
0
LINE
8
BLACK
6
CONTINUOUS
10
172.912
20
-97.825
11
186.912
21
-97.825
0
LINE
8
BLACK
6
CONTINUOUS
10
172.912
20
-97.825
11
172.912
21
-111.825
0
LINE
8
BLACK
6
CONTINUOUS
10
179.769
20
-78.775
11
179.769
21
-92.775
0
LINE
8
BLACK
6
CONTINUOUS
10
165.769
20
-92.775
11
179.769
21
-92.775
0
LINE
8
BLACK
6
CONTINUOUS
10
165.769
20
-78.775
11
179.769
21
-78.775
0
LINE
8
BLACK
6
CONTINUOUS
10
165.769
20
-78.775
11
165.769
21
-92.775
0
LINE
8
BLACK
6
CONTINUOUS
10
225.012
20
-78.775
11
225.012
21
-92.775
0
LINE
8
BLACK
6
CONTINUOUS
10
211.012
20
-92.775
11
225.012
21
-92.775
0
LINE
8
BLACK
6
CONTINUOUS
10
211.012
20
-78.775
11
225.012
21
-78.775
0
LINE
8
BLACK
6
CONTINUOUS
10
211.012
20
-78.775
11
211.012
21
-92.775
0
LINE
8
BLACK
6
CONTINUOUS
10
205.962
20
-78.775
11
205.962
21
-92.775
0
LINE
8
BLACK
6
CONTINUOUS
10
191.962
20
-92.775
11
205.962
21
-92.775
0
LINE
8
BLACK
6
CONTINUOUS
10
191.962
20
-78.775
11
205.962
21
-78.775
0
LINE
8
BLACK
6
CONTINUOUS
10
191.962
20
-78.775
11
191.962
21
-92.775
0
LINE
8
BLACK
6
CONTINUOUS
10
158.338
20
-97.825
11
158.338
21
-111.825
0
LINE
8
BLACK
6
CONTINUOUS
10
144.338
20
-111.825
11
158.338
21
-111.825
0
LINE
8
BLACK
6
CONTINUOUS
10
144.338
20
-97.825
11
158.338
21
-97.825
0
LINE
8
BLACK
6
CONTINUOUS
10
144.338
20
-97.825
11
144.338
21
-111.825
0
LINE
8
BLACK
6
CONTINUOUS
10
153.575
20
-78.775
11
153.575
21
-92.775
0
LINE
8
BLACK
6
CONTINUOUS
10
139.575
20
-92.775
11
153.575
21
-92.775
0
LINE
8
BLACK
6
CONTINUOUS
10
139.575
20
-78.775
11
153.575
21
-78.775
0
LINE
8
BLACK
6
CONTINUOUS
10
139.575
20
-78.775
11
139.575
21
-92.775
0
LINE
8
BLACK
6
CONTINUOUS
10
134.525
20
-97.825
11
134.525
21
-111.825
0
LINE
8
BLACK
6
CONTINUOUS
10
120.525
20
-111.825
11
134.525
21
-111.825
0
LINE
8
BLACK
6
CONTINUOUS
10
120.525
20
-97.825
11
134.525
21
-97.825
0
LINE
8
BLACK
6
CONTINUOUS
10
120.525
20
-97.825
11
120.525
21
-111.825
0
LINE
8
BLACK
6
CONTINUOUS
10
134.525
20
-78.775
11
134.525
21
-92.775
0
LINE
8
BLACK
6
CONTINUOUS
10
120.525
20
-92.775
11
134.525
21
-92.775
0
LINE
8
BLACK
6
CONTINUOUS
10
120.525
20
-78.775
11
134.525
21
-78.775
0
LINE
8
BLACK
6
CONTINUOUS
10
120.525
20
-78.775
11
120.525
21
-92.775
0
LINE
8
BLACK
6
CONTINUOUS
10
115.475
20
-78.775
11
115.475
21
-92.775
0
LINE
8
BLACK
6
CONTINUOUS
10
101.475
20
-92.775
11
115.475
21
-92.775
0
LINE
8
BLACK
6
CONTINUOUS
10
101.475
20
-78.775
11
115.475
21
-78.775
0
LINE
8
BLACK
6
CONTINUOUS
10
101.475
20
-78.775
11
101.475
21
-92.775
0
LINE
8
BLACK
6
CONTINUOUS
10
96.425
20
-78.775
11
96.425
21
-92.775
0
LINE
8
BLACK
6
CONTINUOUS
10
82.425
20
-92.775
11
96.425
21
-92.775
0
LINE
8
BLACK
6
CONTINUOUS
10
82.425
20
-78.775
11
96.425
21
-78.775
0
LINE
8
BLACK
6
CONTINUOUS
10
82.425
20
-78.775
11
82.425
21
-92.775
0
LINE
8
BLACK
6
CONTINUOUS
10
77.375
20
-78.775
11
77.375
21
-92.775
0
LINE
8
BLACK
6
CONTINUOUS
10
63.375
20
-92.775
11
77.375
21
-92.775
0
LINE
8
BLACK
6
CONTINUOUS
10
63.375
20
-78.775
11
77.375
21
-78.775
0
LINE
8
BLACK
6
CONTINUOUS
10
63.375
20
-78.775
11
63.375
21
-92.775
0
LINE
8
BLACK
6
CONTINUOUS
10
53.85
20
-73.725
11
67.85
21
-73.725
0
LINE
8
BLACK
6
CONTINUOUS
10
53.85
20
-59.725
11
67.85
21
-59.725
0
LINE
8
BLACK
6
CONTINUOUS
10
67.85
20
-73.725
11
67.85
21
-59.725
0
LINE
8
BLACK
6
CONTINUOUS
10
53.85
20
-59.725
11
53.85
21
-73.725
0
LINE
8
BLACK
6
CONTINUOUS
10
46.5625
20
-38.15
11
46.5625
21
-57.2
0
LINE
8
BLACK
6
CONTINUOUS
10
51.325
20
-38.15
11
46.5625
21
-38.15
0
LINE
8
BLACK
6
CONTINUOUS
10
51.325
20
-57.2
11
46.5625
21
-57.2
0
CIRCLE
8
BLACK
10
189.438
20
-95.25
40
1.1
0
CIRCLE
8
BLACK
10
189.438
20
-38.175
40
1.1
0
CIRCLE
8
BLACK
10
56.0875
20
-38.175
40
1.1
0
CIRCLE
8
BLACK
10
79.9
20
-92.25
40
1.1
0
LINE
8
BLACK
6
CONTINUOUS
10
51.325
20
-14.225
11
51.325
21
-38.15
0
LINE
8
BLACK
6
CONTINUOUS
10
51.325
20
-57.2
11
51.325
21
-95.3
0
LINE
8
BLACK
6
CONTINUOUS
10
51.325
20
-95.3
11
113.237
21
-95.3
0
LINE
8
BLACK
6
CONTINUOUS
10
113.237
20
-95.3
11
113.237
21
-119
0
LINE
8
BLACK
6
CONTINUOUS
10
227.537
20
-119
11
113.237
21
-119
0
LINE
8
BLACK
6
CONTINUOUS
10
227.537
20
-119
11
227.537
21
-14.775
0
LINE
8
BLACK
6
CONTINUOUS
10
51.325
20
-14.225
11
227.042
21
-14.225
0
ARC
8
BLACK
10
227.012
20
-14.75
40
0.525856
50
-3.27049
51
86.7295
0
LINE
8
BLACK
6
CONTINUOUS
10
194.056
20
-64.425
11
194.056
21
-59.725
0
LINE
8
BLACK
6
CONTINUOUS
10
194.056
20
-59.725
11
180.056
21
-59.725
0
LINE
8
BLACK
6
CONTINUOUS
10
180.056
20
-73.725
11
194.056
21
-73.725
0
LINE
8
BLACK
6
CONTINUOUS
10
194.056
20
-73.725
11
194.056
21
-69.025
0
LINE
8
BLACK
6
CONTINUOUS
10
180.056
20
-73.725
11
180.056
21
-69.025
0
LINE
8
BLACK
6
CONTINUOUS
10
180.056
20
-64.425
11
180.056
21
-59.725
  0
ENDSEC
  0
EOF
