  0
SECTION
  2
HEADER
  9
$ANGBASE
  50
0.0
  9
$ANGDIR
  70
1
  9
$MEASUREMENT
  70
1
  0
ENDSEC
  0
SECTION
  2
TABLES
  0
TABLE
  2
LTYPE
  70
4
  0
LTYPE
  5
40F
  2
CONTINUOUS
  70
0
  3
Solid line
  72
65
  73
0
  40
0.0
  0
LTYPE
  5
410
  2
DASHDOT
 70
0
  3
Dash Dot ____ _ ____ _
 72
65
 73
4
 40
2.0
 49
1.25
 49
-0.25
 49
0.25
 49
-0.25
  0
LTYPE
  5
411
  2
DASHED
 70
0
  3
Dashed __ __ __ __ __
 72
65
 73
2
 40
0.75
 49
0.5
 49
-0.25
  0
LTYPE
  5
43B
  2
DOTTED
 70
0
  3
Dotted .  .  .  .
 72
65
 73
2
 40
0.2
 49
0.0
 49
-0.2
  0
ENDTAB
  0
TABLE
  2
STYLE
  70
4
  0
STYLE
  2
KICAD
  70
0
  40
0
  41
1
  42
1
  50
0
  71
0
  3
isocp.shx
  0
STYLE
  2
KICADB
  70
0
  40
0
  41
1
  42
1
  50
0
  71
0
  3
isocp.shx
  0
STYLE
  2
KICADI
  70
0
  40
0
  41
1
  42
1
  50
15
  71
0
  3
isocp.shx
  0
STYLE
  2
KICADBI
  70
0
  40
0
  41
1
  42
1
  50
15
  71
0
  3
isocp.shx
  0
ENDTAB
  0
TABLE
  2
LAYER
  70
1
  0
LAYER
  2
BLACK
  70
0
  62
7
  6
CONTINUOUS
  0
ENDTAB
  0
ENDSEC
  0
SECTION
  2
ENTITIES
0
LINE
8
BLACK
6
CONTINUOUS
10
115.497
20
-145.258
11
115.545
21
-145.21
0
LINE
8
BLACK
6
CONTINUOUS
10
115.545
20
-145.21
11
115.64
21
-145.162
0
LINE
8
BLACK
6
CONTINUOUS
10
115.64
20
-145.162
11
115.878
21
-145.162
0
LINE
8
BLACK
6
CONTINUOUS
10
115.878
20
-145.162
11
115.973
21
-145.21
0
LINE
8
BLACK
6
CONTINUOUS
10
115.973
20
-145.21
11
116.021
21
-145.258
0
LINE
8
BLACK
6
CONTINUOUS
10
116.021
20
-145.258
11
116.069
21
-145.353
0
LINE
8
BLACK
6
CONTINUOUS
10
116.069
20
-145.353
11
116.069
21
-145.448
0
LINE
8
BLACK
6
CONTINUOUS
10
116.069
20
-145.448
11
116.021
21
-145.591
0
LINE
8
BLACK
6
CONTINUOUS
10
116.021
20
-145.591
11
115.45
21
-146.162
0
LINE
8
BLACK
6
CONTINUOUS
10
115.45
20
-146.162
11
116.069
21
-146.162
0
LINE
8
BLACK
6
CONTINUOUS
10
117.021
20
-146.162
11
116.45
21
-146.162
0
LINE
8
BLACK
6
CONTINUOUS
10
116.735
20
-146.162
11
116.735
21
-145.162
0
LINE
8
BLACK
6
CONTINUOUS
10
116.735
20
-145.162
11
116.64
21
-145.305
0
LINE
8
BLACK
6
CONTINUOUS
10
116.64
20
-145.305
11
116.545
21
-145.4
0
LINE
8
BLACK
6
CONTINUOUS
10
116.545
20
-145.4
11
116.45
21
-145.448
0
LINE
8
BLACK
6
CONTINUOUS
10
117.878
20
-145.496
11
117.878
21
-146.162
0
LINE
8
BLACK
6
CONTINUOUS
10
117.64
20
-145.115
11
117.402
21
-145.829
0
LINE
8
BLACK
6
CONTINUOUS
10
117.402
20
-145.829
11
118.021
21
-145.829
0
LINE
8
BLACK
6
CONTINUOUS
10
118.402
20
-146.067
11
118.45
21
-146.115
0
LINE
8
BLACK
6
CONTINUOUS
10
118.45
20
-146.115
11
118.402
21
-146.162
0
LINE
8
BLACK
6
CONTINUOUS
10
118.402
20
-146.162
11
118.354
21
-146.115
0
LINE
8
BLACK
6
CONTINUOUS
10
118.354
20
-146.115
11
118.402
21
-146.067
0
LINE
8
BLACK
6
CONTINUOUS
10
118.402
20
-146.067
11
118.402
21
-146.162
0
LINE
8
BLACK
6
CONTINUOUS
10
119.021
20
-145.591
11
118.926
21
-145.543
0
LINE
8
BLACK
6
CONTINUOUS
10
118.926
20
-145.543
11
118.878
21
-145.496
0
LINE
8
BLACK
6
CONTINUOUS
10
118.878
20
-145.496
11
118.831
21
-145.4
0
LINE
8
BLACK
6
CONTINUOUS
10
118.831
20
-145.4
11
118.831
21
-145.353
0
LINE
8
BLACK
6
CONTINUOUS
10
118.831
20
-145.353
11
118.878
21
-145.258
0
LINE
8
BLACK
6
CONTINUOUS
10
118.878
20
-145.258
11
118.926
21
-145.21
0
LINE
8
BLACK
6
CONTINUOUS
10
118.926
20
-145.21
11
119.021
21
-145.162
0
LINE
8
BLACK
6
CONTINUOUS
10
119.021
20
-145.162
11
119.211
21
-145.162
0
LINE
8
BLACK
6
CONTINUOUS
10
119.211
20
-145.162
11
119.307
21
-145.21
0
LINE
8
BLACK
6
CONTINUOUS
10
119.307
20
-145.21
11
119.354
21
-145.258
0
LINE
8
BLACK
6
CONTINUOUS
10
119.354
20
-145.258
11
119.402
21
-145.353
0
LINE
8
BLACK
6
CONTINUOUS
10
119.402
20
-145.353
11
119.402
21
-145.4
0
LINE
8
BLACK
6
CONTINUOUS
10
119.402
20
-145.4
11
119.354
21
-145.496
0
LINE
8
BLACK
6
CONTINUOUS
10
119.354
20
-145.496
11
119.307
21
-145.543
0
LINE
8
BLACK
6
CONTINUOUS
10
119.307
20
-145.543
11
119.211
21
-145.591
0
LINE
8
BLACK
6
CONTINUOUS
10
119.211
20
-145.591
11
119.021
21
-145.591
0
LINE
8
BLACK
6
CONTINUOUS
10
119.021
20
-145.591
11
118.926
21
-145.639
0
LINE
8
BLACK
6
CONTINUOUS
10
118.926
20
-145.639
11
118.878
21
-145.686
0
LINE
8
BLACK
6
CONTINUOUS
10
118.878
20
-145.686
11
118.831
21
-145.781
0
LINE
8
BLACK
6
CONTINUOUS
10
118.831
20
-145.781
11
118.831
21
-145.972
0
LINE
8
BLACK
6
CONTINUOUS
10
118.831
20
-145.972
11
118.878
21
-146.067
0
LINE
8
BLACK
6
CONTINUOUS
10
118.878
20
-146.067
11
118.926
21
-146.115
0
LINE
8
BLACK
6
CONTINUOUS
10
118.926
20
-146.115
11
119.021
21
-146.162
0
LINE
8
BLACK
6
CONTINUOUS
10
119.021
20
-146.162
11
119.211
21
-146.162
0
LINE
8
BLACK
6
CONTINUOUS
10
119.211
20
-146.162
11
119.307
21
-146.115
0
LINE
8
BLACK
6
CONTINUOUS
10
119.307
20
-146.115
11
119.354
21
-146.067
0
LINE
8
BLACK
6
CONTINUOUS
10
119.354
20
-146.067
11
119.402
21
-145.972
0
LINE
8
BLACK
6
CONTINUOUS
10
119.402
20
-145.972
11
119.402
21
-145.781
0
LINE
8
BLACK
6
CONTINUOUS
10
119.402
20
-145.781
11
119.354
21
-145.686
0
LINE
8
BLACK
6
CONTINUOUS
10
119.354
20
-145.686
11
119.307
21
-145.639
0
LINE
8
BLACK
6
CONTINUOUS
10
119.307
20
-145.639
11
119.211
21
-145.591
0
LINE
8
BLACK
6
CONTINUOUS
10
120.259
20
-145.496
11
120.259
21
-146.162
0
LINE
8
BLACK
6
CONTINUOUS
10
120.021
20
-145.115
11
119.783
21
-145.829
0
LINE
8
BLACK
6
CONTINUOUS
10
119.783
20
-145.829
11
120.402
21
-145.829
0
LINE
8
BLACK
6
CONTINUOUS
10
120.688
20
-145.162
11
121.307
21
-145.162
0
LINE
8
BLACK
6
CONTINUOUS
10
121.307
20
-145.162
11
120.973
21
-145.543
0
LINE
8
BLACK
6
CONTINUOUS
10
120.973
20
-145.543
11
121.116
21
-145.543
0
LINE
8
BLACK
6
CONTINUOUS
10
121.116
20
-145.543
11
121.211
21
-145.591
0
LINE
8
BLACK
6
CONTINUOUS
10
121.211
20
-145.591
11
121.259
21
-145.639
0
LINE
8
BLACK
6
CONTINUOUS
10
121.259
20
-145.639
11
121.307
21
-145.734
0
LINE
8
BLACK
6
CONTINUOUS
10
121.307
20
-145.734
11
121.307
21
-145.972
0
LINE
8
BLACK
6
CONTINUOUS
10
121.307
20
-145.972
11
121.259
21
-146.067
0
LINE
8
BLACK
6
CONTINUOUS
10
121.259
20
-146.067
11
121.211
21
-146.115
0
LINE
8
BLACK
6
CONTINUOUS
10
121.211
20
-146.115
11
121.116
21
-146.162
0
LINE
8
BLACK
6
CONTINUOUS
10
121.116
20
-146.162
11
120.831
21
-146.162
0
LINE
8
BLACK
6
CONTINUOUS
10
120.831
20
-146.162
11
120.735
21
-146.115
0
LINE
8
BLACK
6
CONTINUOUS
10
120.735
20
-146.115
11
120.688
21
-146.067
0
LINE
8
BLACK
6
CONTINUOUS
10
122.497
20
-146.162
11
122.497
21
-145.496
0
LINE
8
BLACK
6
CONTINUOUS
10
122.497
20
-145.591
11
122.545
21
-145.543
0
LINE
8
BLACK
6
CONTINUOUS
10
122.545
20
-145.543
11
122.64
21
-145.496
0
LINE
8
BLACK
6
CONTINUOUS
10
122.64
20
-145.496
11
122.783
21
-145.496
0
LINE
8
BLACK
6
CONTINUOUS
10
122.783
20
-145.496
11
122.878
21
-145.543
0
LINE
8
BLACK
6
CONTINUOUS
10
122.878
20
-145.543
11
122.926
21
-145.639
0
LINE
8
BLACK
6
CONTINUOUS
10
122.926
20
-145.639
11
122.926
21
-146.162
0
LINE
8
BLACK
6
CONTINUOUS
10
122.926
20
-145.639
11
122.973
21
-145.543
0
LINE
8
BLACK
6
CONTINUOUS
10
122.973
20
-145.543
11
123.069
21
-145.496
0
LINE
8
BLACK
6
CONTINUOUS
10
123.069
20
-145.496
11
123.211
21
-145.496
0
LINE
8
BLACK
6
CONTINUOUS
10
123.211
20
-145.496
11
123.307
21
-145.543
0
LINE
8
BLACK
6
CONTINUOUS
10
123.307
20
-145.543
11
123.354
21
-145.639
0
LINE
8
BLACK
6
CONTINUOUS
10
123.354
20
-145.639
11
123.354
21
-146.162
0
LINE
8
BLACK
6
CONTINUOUS
10
123.831
20
-146.162
11
123.831
21
-145.496
0
LINE
8
BLACK
6
CONTINUOUS
10
123.831
20
-145.591
11
123.878
21
-145.543
0
LINE
8
BLACK
6
CONTINUOUS
10
123.878
20
-145.543
11
123.973
21
-145.496
0
LINE
8
BLACK
6
CONTINUOUS
10
123.973
20
-145.496
11
124.116
21
-145.496
0
LINE
8
BLACK
6
CONTINUOUS
10
124.116
20
-145.496
11
124.211
21
-145.543
0
LINE
8
BLACK
6
CONTINUOUS
10
124.211
20
-145.543
11
124.259
21
-145.639
0
LINE
8
BLACK
6
CONTINUOUS
10
124.259
20
-145.639
11
124.259
21
-146.162
0
LINE
8
BLACK
6
CONTINUOUS
10
124.259
20
-145.639
11
124.307
21
-145.543
0
LINE
8
BLACK
6
CONTINUOUS
10
124.307
20
-145.543
11
124.402
21
-145.496
0
LINE
8
BLACK
6
CONTINUOUS
10
124.402
20
-145.496
11
124.545
21
-145.496
0
LINE
8
BLACK
6
CONTINUOUS
10
124.545
20
-145.496
11
124.64
21
-145.543
0
LINE
8
BLACK
6
CONTINUOUS
10
124.64
20
-145.543
11
124.688
21
-145.639
0
LINE
8
BLACK
6
CONTINUOUS
10
124.688
20
-145.639
11
124.688
21
-146.162
0
LINE
8
BLACK
6
CONTINUOUS
10
227.537
20
-144.41
11
12.695
21
-144.41
0
LINE
8
BLACK
6
CONTINUOUS
10
227.537
20
-143.147
11
227.537
21
-144.996
0
LINE
8
BLACK
6
CONTINUOUS
10
12.695
20
-143.147
11
12.695
21
-144.996
0
LINE
8
BLACK
6
CONTINUOUS
10
12.695
20
-144.41
11
13.8215
21
-143.824
0
LINE
8
BLACK
6
CONTINUOUS
10
12.695
20
-144.41
11
13.8215
21
-144.996
0
LINE
8
BLACK
6
CONTINUOUS
10
227.537
20
-144.41
11
226.411
21
-143.824
0
LINE
8
BLACK
6
CONTINUOUS
10
227.537
20
-144.41
11
226.411
21
-144.996
0
LINE
8
BLACK
6
CONTINUOUS
10
232.742
20
-84.4189
11
232.742
21
-84.9903
0
LINE
8
BLACK
6
CONTINUOUS
10
232.742
20
-84.7046
11
231.742
21
-84.7046
0
LINE
8
BLACK
6
CONTINUOUS
10
231.742
20
-84.7046
11
231.885
21
-84.7998
0
LINE
8
BLACK
6
CONTINUOUS
10
231.885
20
-84.7998
11
231.98
21
-84.8951
0
LINE
8
BLACK
6
CONTINUOUS
10
231.98
20
-84.8951
11
232.028
21
-84.9903
0
LINE
8
BLACK
6
CONTINUOUS
10
231.838
20
-84.0379
11
231.79
21
-83.9903
0
LINE
8
BLACK
6
CONTINUOUS
10
231.79
20
-83.9903
11
231.742
21
-83.8951
0
LINE
8
BLACK
6
CONTINUOUS
10
231.742
20
-83.8951
11
231.742
21
-83.657
0
LINE
8
BLACK
6
CONTINUOUS
10
231.742
20
-83.657
11
231.79
21
-83.5617
0
LINE
8
BLACK
6
CONTINUOUS
10
231.79
20
-83.5617
11
231.838
21
-83.5141
0
LINE
8
BLACK
6
CONTINUOUS
10
231.838
20
-83.5141
11
231.933
21
-83.4665
0
LINE
8
BLACK
6
CONTINUOUS
10
231.933
20
-83.4665
11
232.028
21
-83.4665
0
LINE
8
BLACK
6
CONTINUOUS
10
232.028
20
-83.4665
11
232.171
21
-83.5141
0
LINE
8
BLACK
6
CONTINUOUS
10
232.171
20
-83.5141
11
232.742
21
-84.0855
0
LINE
8
BLACK
6
CONTINUOUS
10
232.742
20
-84.0855
11
232.742
21
-83.4665
0
LINE
8
BLACK
6
CONTINUOUS
10
231.838
20
-83.0855
11
231.79
21
-83.0379
0
LINE
8
BLACK
6
CONTINUOUS
10
231.79
20
-83.0379
11
231.742
21
-82.9427
0
LINE
8
BLACK
6
CONTINUOUS
10
231.742
20
-82.9427
11
231.742
21
-82.7046
0
LINE
8
BLACK
6
CONTINUOUS
10
231.742
20
-82.7046
11
231.79
21
-82.6093
0
LINE
8
BLACK
6
CONTINUOUS
10
231.79
20
-82.6093
11
231.838
21
-82.5617
0
LINE
8
BLACK
6
CONTINUOUS
10
231.838
20
-82.5617
11
231.933
21
-82.5141
0
LINE
8
BLACK
6
CONTINUOUS
10
231.933
20
-82.5141
11
232.028
21
-82.5141
0
LINE
8
BLACK
6
CONTINUOUS
10
232.028
20
-82.5141
11
232.171
21
-82.5617
0
LINE
8
BLACK
6
CONTINUOUS
10
232.171
20
-82.5617
11
232.742
21
-83.1332
0
LINE
8
BLACK
6
CONTINUOUS
10
232.742
20
-83.1332
11
232.742
21
-82.5141
0
LINE
8
BLACK
6
CONTINUOUS
10
232.647
20
-82.0855
11
232.695
21
-82.0379
0
LINE
8
BLACK
6
CONTINUOUS
10
232.695
20
-82.0379
11
232.742
21
-82.0855
0
LINE
8
BLACK
6
CONTINUOUS
10
232.742
20
-82.0855
11
232.695
21
-82.1332
0
LINE
8
BLACK
6
CONTINUOUS
10
232.695
20
-82.1332
11
232.647
21
-82.0855
0
LINE
8
BLACK
6
CONTINUOUS
10
232.647
20
-82.0855
11
232.742
21
-82.0855
0
LINE
8
BLACK
6
CONTINUOUS
10
231.742
20
-81.1332
11
231.742
21
-81.6093
0
LINE
8
BLACK
6
CONTINUOUS
10
231.742
20
-81.6093
11
232.219
21
-81.657
0
LINE
8
BLACK
6
CONTINUOUS
10
232.219
20
-81.657
11
232.171
21
-81.6093
0
LINE
8
BLACK
6
CONTINUOUS
10
232.171
20
-81.6093
11
232.123
21
-81.5141
0
LINE
8
BLACK
6
CONTINUOUS
10
232.123
20
-81.5141
11
232.123
21
-81.276
0
LINE
8
BLACK
6
CONTINUOUS
10
232.123
20
-81.276
11
232.171
21
-81.1808
0
LINE
8
BLACK
6
CONTINUOUS
10
232.171
20
-81.1808
11
232.219
21
-81.1332
0
LINE
8
BLACK
6
CONTINUOUS
10
232.219
20
-81.1332
11
232.314
21
-81.0855
0
LINE
8
BLACK
6
CONTINUOUS
10
232.314
20
-81.0855
11
232.552
21
-81.0855
0
LINE
8
BLACK
6
CONTINUOUS
10
232.552
20
-81.0855
11
232.647
21
-81.1332
0
LINE
8
BLACK
6
CONTINUOUS
10
232.647
20
-81.1332
11
232.695
21
-81.1808
0
LINE
8
BLACK
6
CONTINUOUS
10
232.695
20
-81.1808
11
232.742
21
-81.276
0
LINE
8
BLACK
6
CONTINUOUS
10
232.742
20
-81.276
11
232.742
21
-81.5141
0
LINE
8
BLACK
6
CONTINUOUS
10
232.742
20
-81.5141
11
232.695
21
-81.6093
0
LINE
8
BLACK
6
CONTINUOUS
10
232.695
20
-81.6093
11
232.647
21
-81.657
0
LINE
8
BLACK
6
CONTINUOUS
10
232.076
20
-80.2284
11
232.742
21
-80.2284
0
LINE
8
BLACK
6
CONTINUOUS
10
231.695
20
-80.4665
11
232.409
21
-80.7046
0
LINE
8
BLACK
6
CONTINUOUS
10
232.409
20
-80.7046
11
232.409
21
-80.0855
0
LINE
8
BLACK
6
CONTINUOUS
10
231.742
20
-79.7998
11
231.742
21
-79.1808
0
LINE
8
BLACK
6
CONTINUOUS
10
231.742
20
-79.1808
11
232.123
21
-79.5141
0
LINE
8
BLACK
6
CONTINUOUS
10
232.123
20
-79.5141
11
232.123
21
-79.3713
0
LINE
8
BLACK
6
CONTINUOUS
10
232.123
20
-79.3713
11
232.171
21
-79.276
0
LINE
8
BLACK
6
CONTINUOUS
10
232.171
20
-79.276
11
232.219
21
-79.2284
0
LINE
8
BLACK
6
CONTINUOUS
10
232.219
20
-79.2284
11
232.314
21
-79.1808
0
LINE
8
BLACK
6
CONTINUOUS
10
232.314
20
-79.1808
11
232.552
21
-79.1808
0
LINE
8
BLACK
6
CONTINUOUS
10
232.552
20
-79.1808
11
232.647
21
-79.2284
0
LINE
8
BLACK
6
CONTINUOUS
10
232.647
20
-79.2284
11
232.695
21
-79.276
0
LINE
8
BLACK
6
CONTINUOUS
10
232.695
20
-79.276
11
232.742
21
-79.3713
0
LINE
8
BLACK
6
CONTINUOUS
10
232.742
20
-79.3713
11
232.742
21
-79.657
0
LINE
8
BLACK
6
CONTINUOUS
10
232.742
20
-79.657
11
232.695
21
-79.7522
0
LINE
8
BLACK
6
CONTINUOUS
10
232.695
20
-79.7522
11
232.647
21
-79.7998
0
LINE
8
BLACK
6
CONTINUOUS
10
232.742
20
-77.9903
11
232.076
21
-77.9903
0
LINE
8
BLACK
6
CONTINUOUS
10
232.171
20
-77.9903
11
232.123
21
-77.9427
0
LINE
8
BLACK
6
CONTINUOUS
10
232.123
20
-77.9427
11
232.076
21
-77.8474
0
LINE
8
BLACK
6
CONTINUOUS
10
232.076
20
-77.8474
11
232.076
21
-77.7046
0
LINE
8
BLACK
6
CONTINUOUS
10
232.076
20
-77.7046
11
232.123
21
-77.6093
0
LINE
8
BLACK
6
CONTINUOUS
10
232.123
20
-77.6093
11
232.219
21
-77.5617
0
LINE
8
BLACK
6
CONTINUOUS
10
232.219
20
-77.5617
11
232.742
21
-77.5617
0
LINE
8
BLACK
6
CONTINUOUS
10
232.219
20
-77.5617
11
232.123
21
-77.5141
0
LINE
8
BLACK
6
CONTINUOUS
10
232.123
20
-77.5141
11
232.076
21
-77.4189
0
LINE
8
BLACK
6
CONTINUOUS
10
232.076
20
-77.4189
11
232.076
21
-77.276
0
LINE
8
BLACK
6
CONTINUOUS
10
232.076
20
-77.276
11
232.123
21
-77.1808
0
LINE
8
BLACK
6
CONTINUOUS
10
232.123
20
-77.1808
11
232.219
21
-77.1332
0
LINE
8
BLACK
6
CONTINUOUS
10
232.219
20
-77.1332
11
232.742
21
-77.1332
0
LINE
8
BLACK
6
CONTINUOUS
10
232.742
20
-76.657
11
232.076
21
-76.657
0
LINE
8
BLACK
6
CONTINUOUS
10
232.171
20
-76.657
11
232.123
21
-76.6093
0
LINE
8
BLACK
6
CONTINUOUS
10
232.123
20
-76.6093
11
232.076
21
-76.5141
0
LINE
8
BLACK
6
CONTINUOUS
10
232.076
20
-76.5141
11
232.076
21
-76.3713
0
LINE
8
BLACK
6
CONTINUOUS
10
232.076
20
-76.3713
11
232.123
21
-76.276
0
LINE
8
BLACK
6
CONTINUOUS
10
232.123
20
-76.276
11
232.219
21
-76.2284
0
LINE
8
BLACK
6
CONTINUOUS
10
232.219
20
-76.2284
11
232.742
21
-76.2284
0
LINE
8
BLACK
6
CONTINUOUS
10
232.219
20
-76.2284
11
232.123
21
-76.1808
0
LINE
8
BLACK
6
CONTINUOUS
10
232.123
20
-76.1808
11
232.076
21
-76.0855
0
LINE
8
BLACK
6
CONTINUOUS
10
232.076
20
-76.0855
11
232.076
21
-75.9427
0
LINE
8
BLACK
6
CONTINUOUS
10
232.076
20
-75.9427
11
232.123
21
-75.8474
0
LINE
8
BLACK
6
CONTINUOUS
10
232.123
20
-75.8474
11
232.219
21
-75.7998
0
LINE
8
BLACK
6
CONTINUOUS
10
232.219
20
-75.7998
11
232.742
21
-75.7998
0
LINE
8
BLACK
6
CONTINUOUS
10
230.99
20
-141.642
11
230.99
21
-19.1
0
LINE
8
BLACK
6
CONTINUOUS
10
228.982
20
-141.642
11
231.576
21
-141.642
0
LINE
8
BLACK
6
CONTINUOUS
10
228.982
20
-19.1
11
231.576
21
-19.1
0
LINE
8
BLACK
6
CONTINUOUS
10
230.99
20
-19.1
11
231.576
21
-20.2265
0
LINE
8
BLACK
6
CONTINUOUS
10
230.99
20
-19.1
11
230.404
21
-20.2265
0
LINE
8
BLACK
6
CONTINUOUS
10
230.99
20
-141.642
11
231.576
21
-140.516
0
LINE
8
BLACK
6
CONTINUOUS
10
230.99
20
-141.642
11
230.404
21
-140.516
0
CIRCLE
8
BLACK
10
189.438
20
-100.125
40
1.1
0
CIRCLE
8
BLACK
10
79.9
20
-97.125
40
1.1
0
CIRCLE
8
BLACK
10
122.762
20
-62.1
40
1.1
0
CIRCLE
8
BLACK
10
189.438
20
-43.05
40
1.1
0
CIRCLE
8
BLACK
10
56.0875
20
-43.05
40
1.1
0
CIRCLE
8
BLACK
10
15.245
20
-53.705
40
1.1
0
CIRCLE
8
BLACK
10
15.245
20
-31.8
40
1.1
0
CIRCLE
8
BLACK
10
42.745
20
-94.85
40
1.1
0
CIRCLE
8
BLACK
10
42.745
20
-62.19
40
1.1
0
CIRCLE
8
BLACK
10
16.495
20
-94.85
40
1.1
0
CIRCLE
8
BLACK
10
16.495
20
-62.19
40
1.1
0
CIRCLE
8
BLACK
10
102.085
20
-139.078
40
1.1
0
CIRCLE
8
BLACK
10
75.835
20
-139.078
40
1.1
0
CIRCLE
8
BLACK
10
102.085
20
-106.418
40
1.1
0
CIRCLE
8
BLACK
10
75.835
20
-106.418
40
1.1
0
CIRCLE
8
BLACK
10
42.745
20
-139.078
40
1.1
0
CIRCLE
8
BLACK
10
16.495
20
-139.078
40
1.1
0
CIRCLE
8
BLACK
10
42.745
20
-106.418
40
1.1
0
CIRCLE
8
BLACK
10
16.495
20
-106.418
40
1.1
0
LINE
8
BLACK
6
CONTINUOUS
10
12.695
20
-65.125
11
12.695
21
-19.595
0
LINE
8
BLACK
6
CONTINUOUS
10
45.31
20
-141.642
11
196.667
21
-141.642
0
LINE
8
BLACK
6
CONTINUOUS
10
33.075
20
-19.1
11
13.25
21
-19.1
0
LINE
8
BLACK
6
CONTINUOUS
10
12.695
20
-141.075
11
12.695
21
-65.125
0
ARC
8
BLACK
10
227.012
20
-141.118
40
0.525856
50
-93.2705
51
-3.27049
0
LINE
8
BLACK
6
CONTINUOUS
10
227.537
20
-141.147
11
227.537
21
-124.37
0
LINE
8
BLACK
6
CONTINUOUS
10
226.982
20
-141.642
11
196.667
21
-141.642
0
ARC
8
BLACK
10
13.225
20
-141.113
40
0.531154
50
-183.778
51
-93.7782
0
LINE
8
BLACK
6
CONTINUOUS
10
227.537
20
-124.37
11
227.537
21
-19.65
0
LINE
8
BLACK
6
CONTINUOUS
10
33.075
20
-19.1
11
227.042
21
-19.1
0
LINE
8
BLACK
6
CONTINUOUS
10
45.31
20
-141.642
11
13.19
21
-141.642
0
ARC
8
BLACK
10
227.012
20
-19.625
40
0.525856
50
-3.27049
51
86.7295
0
ARC
8
BLACK
10
13.22
20
-19.625
40
0.525856
50
86.7295
51
176.73
  0
ENDSEC
  0
EOF
