  0
SECTION
  2
HEADER
  9
$ANGBASE
  50
0.0
  9
$ANGDIR
  70
1
  9
$MEASUREMENT
  70
1
  0
ENDSEC
  0
SECTION
  2
TABLES
  0
TABLE
  2
LTYPE
  70
4
  0
LTYPE
  5
40F
  2
CONTINUOUS
  70
0
  3
Solid line
  72
65
  73
0
  40
0.0
  0
LTYPE
  5
410
  2
DASHDOT
 70
0
  3
Dash Dot ____ _ ____ _
 72
65
 73
4
 40
2.0
 49
1.25
 49
-0.25
 49
0.25
 49
-0.25
  0
LTYPE
  5
411
  2
DASHED
 70
0
  3
Dashed __ __ __ __ __
 72
65
 73
2
 40
0.75
 49
0.5
 49
-0.25
  0
LTYPE
  5
43B
  2
DOTTED
 70
0
  3
Dotted .  .  .  .
 72
65
 73
2
 40
0.2
 49
0.0
 49
-0.2
  0
ENDTAB
  0
TABLE
  2
STYLE
  70
4
  0
STYLE
  2
KICAD
  70
0
  40
0
  41
1
  42
1
  50
0
  71
0
  3
isocp.shx
  0
STYLE
  2
KICADB
  70
0
  40
0
  41
1
  42
1
  50
0
  71
0
  3
isocp.shx
  0
STYLE
  2
KICADI
  70
0
  40
0
  41
1
  42
1
  50
15
  71
0
  3
isocp.shx
  0
STYLE
  2
KICADBI
  70
0
  40
0
  41
1
  42
1
  50
15
  71
0
  3
isocp.shx
  0
ENDTAB
  0
TABLE
  2
LAYER
  70
1
  0
LAYER
  2
BLACK
  70
0
  62
7
  6
CONTINUOUS
  0
ENDTAB
  0
ENDSEC
  0
SECTION
  2
ENTITIES
0
LINE
8
BLACK
6
CONTINUOUS
10
29.587
20
-74.2974
11
29.3965
21
-74.2974
0
LINE
8
BLACK
6
CONTINUOUS
10
29.3965
20
-74.2974
11
29.3013
21
-74.345
0
LINE
8
BLACK
6
CONTINUOUS
10
29.3013
20
-74.345
11
29.2536
21
-74.3926
0
LINE
8
BLACK
6
CONTINUOUS
10
29.2536
20
-74.3926
11
29.1584
21
-74.5355
0
LINE
8
BLACK
6
CONTINUOUS
10
29.1584
20
-74.5355
11
29.1108
21
-74.726
0
LINE
8
BLACK
6
CONTINUOUS
10
29.1108
20
-74.726
11
29.1108
21
-75.1069
0
LINE
8
BLACK
6
CONTINUOUS
10
29.1108
20
-75.1069
11
29.1584
21
-75.2021
0
LINE
8
BLACK
6
CONTINUOUS
10
29.1584
20
-75.2021
11
29.206
21
-75.2498
0
LINE
8
BLACK
6
CONTINUOUS
10
29.206
20
-75.2498
11
29.3013
21
-75.2974
0
LINE
8
BLACK
6
CONTINUOUS
10
29.3013
20
-75.2974
11
29.4917
21
-75.2974
0
LINE
8
BLACK
6
CONTINUOUS
10
29.4917
20
-75.2974
11
29.587
21
-75.2498
0
LINE
8
BLACK
6
CONTINUOUS
10
29.587
20
-75.2498
11
29.6346
21
-75.2021
0
LINE
8
BLACK
6
CONTINUOUS
10
29.6346
20
-75.2021
11
29.6822
21
-75.1069
0
LINE
8
BLACK
6
CONTINUOUS
10
29.6822
20
-75.1069
11
29.6822
21
-74.8688
0
LINE
8
BLACK
6
CONTINUOUS
10
29.6822
20
-74.8688
11
29.6346
21
-74.7736
0
LINE
8
BLACK
6
CONTINUOUS
10
29.6346
20
-74.7736
11
29.587
21
-74.726
0
LINE
8
BLACK
6
CONTINUOUS
10
29.587
20
-74.726
11
29.4917
21
-74.6783
0
LINE
8
BLACK
6
CONTINUOUS
10
29.4917
20
-74.6783
11
29.3013
21
-74.6783
0
LINE
8
BLACK
6
CONTINUOUS
10
29.3013
20
-74.6783
11
29.206
21
-74.726
0
LINE
8
BLACK
6
CONTINUOUS
10
29.206
20
-74.726
11
29.1584
21
-74.7736
0
LINE
8
BLACK
6
CONTINUOUS
10
29.1584
20
-74.7736
11
29.1108
21
-74.8688
0
LINE
8
BLACK
6
CONTINUOUS
10
30.1108
20
-75.2021
11
30.1584
21
-75.2498
0
LINE
8
BLACK
6
CONTINUOUS
10
30.1584
20
-75.2498
11
30.1108
21
-75.2974
0
LINE
8
BLACK
6
CONTINUOUS
10
30.1108
20
-75.2974
11
30.0632
21
-75.2498
0
LINE
8
BLACK
6
CONTINUOUS
10
30.0632
20
-75.2498
11
30.1108
21
-75.2021
0
LINE
8
BLACK
6
CONTINUOUS
10
30.1108
20
-75.2021
11
30.1108
21
-75.2974
0
LINE
8
BLACK
6
CONTINUOUS
10
30.4917
20
-74.2974
11
31.1584
21
-74.2974
0
LINE
8
BLACK
6
CONTINUOUS
10
31.1584
20
-74.2974
11
30.7298
21
-75.2974
0
LINE
8
BLACK
6
CONTINUOUS
10
32.0155
20
-74.2974
11
31.5394
21
-74.2974
0
LINE
8
BLACK
6
CONTINUOUS
10
31.5394
20
-74.2974
11
31.4917
21
-74.7736
0
LINE
8
BLACK
6
CONTINUOUS
10
31.4917
20
-74.7736
11
31.5394
21
-74.726
0
LINE
8
BLACK
6
CONTINUOUS
10
31.5394
20
-74.726
11
31.6346
21
-74.6783
0
LINE
8
BLACK
6
CONTINUOUS
10
31.6346
20
-74.6783
11
31.8727
21
-74.6783
0
LINE
8
BLACK
6
CONTINUOUS
10
31.8727
20
-74.6783
11
31.9679
21
-74.726
0
LINE
8
BLACK
6
CONTINUOUS
10
31.9679
20
-74.726
11
32.0155
21
-74.7736
0
LINE
8
BLACK
6
CONTINUOUS
10
32.0155
20
-74.7736
11
32.0632
21
-74.8688
0
LINE
8
BLACK
6
CONTINUOUS
10
32.0632
20
-74.8688
11
32.0632
21
-75.1069
0
LINE
8
BLACK
6
CONTINUOUS
10
32.0632
20
-75.1069
11
32.0155
21
-75.2021
0
LINE
8
BLACK
6
CONTINUOUS
10
32.0155
20
-75.2021
11
31.9679
21
-75.2498
0
LINE
8
BLACK
6
CONTINUOUS
10
31.9679
20
-75.2498
11
31.8727
21
-75.2974
0
LINE
8
BLACK
6
CONTINUOUS
10
31.8727
20
-75.2974
11
31.6346
21
-75.2974
0
LINE
8
BLACK
6
CONTINUOUS
10
31.6346
20
-75.2974
11
31.5394
21
-75.2498
0
LINE
8
BLACK
6
CONTINUOUS
10
31.5394
20
-75.2498
11
31.4917
21
-75.2021
0
LINE
8
BLACK
6
CONTINUOUS
10
32.6822
20
-74.2974
11
32.7775
21
-74.2974
0
LINE
8
BLACK
6
CONTINUOUS
10
32.7775
20
-74.2974
11
32.8727
21
-74.345
0
LINE
8
BLACK
6
CONTINUOUS
10
32.8727
20
-74.345
11
32.9203
21
-74.3926
0
LINE
8
BLACK
6
CONTINUOUS
10
32.9203
20
-74.3926
11
32.9679
21
-74.4879
0
LINE
8
BLACK
6
CONTINUOUS
10
32.9679
20
-74.4879
11
33.0155
21
-74.6783
0
LINE
8
BLACK
6
CONTINUOUS
10
33.0155
20
-74.6783
11
33.0155
21
-74.9164
0
LINE
8
BLACK
6
CONTINUOUS
10
33.0155
20
-74.9164
11
32.9679
21
-75.1069
0
LINE
8
BLACK
6
CONTINUOUS
10
32.9679
20
-75.1069
11
32.9203
21
-75.2021
0
LINE
8
BLACK
6
CONTINUOUS
10
32.9203
20
-75.2021
11
32.8727
21
-75.2498
0
LINE
8
BLACK
6
CONTINUOUS
10
32.8727
20
-75.2498
11
32.7775
21
-75.2974
0
LINE
8
BLACK
6
CONTINUOUS
10
32.7775
20
-75.2974
11
32.6822
21
-75.2974
0
LINE
8
BLACK
6
CONTINUOUS
10
32.6822
20
-75.2974
11
32.587
21
-75.2498
0
LINE
8
BLACK
6
CONTINUOUS
10
32.587
20
-75.2498
11
32.5394
21
-75.2021
0
LINE
8
BLACK
6
CONTINUOUS
10
32.5394
20
-75.2021
11
32.4917
21
-75.1069
0
LINE
8
BLACK
6
CONTINUOUS
10
32.4917
20
-75.1069
11
32.4441
21
-74.9164
0
LINE
8
BLACK
6
CONTINUOUS
10
32.4441
20
-74.9164
11
32.4441
21
-74.6783
0
LINE
8
BLACK
6
CONTINUOUS
10
32.4441
20
-74.6783
11
32.4917
21
-74.4879
0
LINE
8
BLACK
6
CONTINUOUS
10
32.4917
20
-74.4879
11
32.5394
21
-74.3926
0
LINE
8
BLACK
6
CONTINUOUS
10
32.5394
20
-74.3926
11
32.587
21
-74.345
0
LINE
8
BLACK
6
CONTINUOUS
10
32.587
20
-74.345
11
32.6822
21
-74.2974
0
LINE
8
BLACK
6
CONTINUOUS
10
34.206
20
-75.2974
11
34.206
21
-74.6307
0
LINE
8
BLACK
6
CONTINUOUS
10
34.206
20
-74.726
11
34.2536
21
-74.6783
0
LINE
8
BLACK
6
CONTINUOUS
10
34.2536
20
-74.6783
11
34.3489
21
-74.6307
0
LINE
8
BLACK
6
CONTINUOUS
10
34.3489
20
-74.6307
11
34.4917
21
-74.6307
0
LINE
8
BLACK
6
CONTINUOUS
10
34.4917
20
-74.6307
11
34.587
21
-74.6783
0
LINE
8
BLACK
6
CONTINUOUS
10
34.587
20
-74.6783
11
34.6346
21
-74.7736
0
LINE
8
BLACK
6
CONTINUOUS
10
34.6346
20
-74.7736
11
34.6346
21
-75.2974
0
LINE
8
BLACK
6
CONTINUOUS
10
34.6346
20
-74.7736
11
34.6822
21
-74.6783
0
LINE
8
BLACK
6
CONTINUOUS
10
34.6822
20
-74.6783
11
34.7775
21
-74.6307
0
LINE
8
BLACK
6
CONTINUOUS
10
34.7775
20
-74.6307
11
34.9203
21
-74.6307
0
LINE
8
BLACK
6
CONTINUOUS
10
34.9203
20
-74.6307
11
35.0155
21
-74.6783
0
LINE
8
BLACK
6
CONTINUOUS
10
35.0155
20
-74.6783
11
35.0632
21
-74.7736
0
LINE
8
BLACK
6
CONTINUOUS
10
35.0632
20
-74.7736
11
35.0632
21
-75.2974
0
LINE
8
BLACK
6
CONTINUOUS
10
35.5394
20
-75.2974
11
35.5394
21
-74.6307
0
LINE
8
BLACK
6
CONTINUOUS
10
35.5394
20
-74.726
11
35.587
21
-74.6783
0
LINE
8
BLACK
6
CONTINUOUS
10
35.587
20
-74.6783
11
35.6822
21
-74.6307
0
LINE
8
BLACK
6
CONTINUOUS
10
35.6822
20
-74.6307
11
35.8251
21
-74.6307
0
LINE
8
BLACK
6
CONTINUOUS
10
35.8251
20
-74.6307
11
35.9203
21
-74.6783
0
LINE
8
BLACK
6
CONTINUOUS
10
35.9203
20
-74.6783
11
35.9679
21
-74.7736
0
LINE
8
BLACK
6
CONTINUOUS
10
35.9679
20
-74.7736
11
35.9679
21
-75.2974
0
LINE
8
BLACK
6
CONTINUOUS
10
35.9679
20
-74.7736
11
36.0155
21
-74.6783
0
LINE
8
BLACK
6
CONTINUOUS
10
36.0155
20
-74.6783
11
36.1108
21
-74.6307
0
LINE
8
BLACK
6
CONTINUOUS
10
36.1108
20
-74.6307
11
36.2536
21
-74.6307
0
LINE
8
BLACK
6
CONTINUOUS
10
36.2536
20
-74.6307
11
36.3489
21
-74.6783
0
LINE
8
BLACK
6
CONTINUOUS
10
36.3489
20
-74.6783
11
36.3965
21
-74.7736
0
LINE
8
BLACK
6
CONTINUOUS
10
36.3965
20
-74.7736
11
36.3965
21
-75.2974
0
LINE
8
BLACK
6
CONTINUOUS
10
36.1525
20
-73.645
11
29.4024
21
-73.645
0
LINE
8
BLACK
6
CONTINUOUS
10
36.1525
20
-73.205
11
36.1525
21
-74.2314
0
LINE
8
BLACK
6
CONTINUOUS
10
29.4024
20
-73.205
11
29.4024
21
-74.2314
0
LINE
8
BLACK
6
CONTINUOUS
10
29.4024
20
-73.645
11
30.529
21
-73.0586
0
LINE
8
BLACK
6
CONTINUOUS
10
29.4024
20
-73.645
11
30.529
21
-74.2314
0
LINE
8
BLACK
6
CONTINUOUS
10
36.1525
20
-73.645
11
35.0259
21
-73.0586
0
LINE
8
BLACK
6
CONTINUOUS
10
36.1525
20
-73.645
11
35.0259
21
-74.2314
0
LINE
8
BLACK
6
CONTINUOUS
10
31.1274
20
-59.905
11
31.1274
21
-58.705
0
LINE
8
BLACK
6
CONTINUOUS
10
12.3509
20
-68.975
11
13.8759
21
-68.975
0
LINE
8
BLACK
6
CONTINUOUS
10
17.3046
20
-57.3074
11
16.7332
21
-57.3074
0
LINE
8
BLACK
6
CONTINUOUS
10
17.0189
20
-57.3074
11
17.0189
21
-56.3074
0
LINE
8
BLACK
6
CONTINUOUS
10
17.0189
20
-56.3074
11
16.9237
21
-56.4502
0
LINE
8
BLACK
6
CONTINUOUS
10
16.9237
20
-56.4502
11
16.8285
21
-56.5455
0
LINE
8
BLACK
6
CONTINUOUS
10
16.8285
20
-56.5455
11
16.7332
21
-56.5931
0
LINE
8
BLACK
6
CONTINUOUS
10
18.1618
20
-56.6407
11
18.1618
21
-57.3074
0
LINE
8
BLACK
6
CONTINUOUS
10
17.9237
20
-56.2598
11
17.6856
21
-56.974
0
LINE
8
BLACK
6
CONTINUOUS
10
17.6856
20
-56.974
11
18.3046
21
-56.974
0
LINE
8
BLACK
6
CONTINUOUS
10
18.6856
20
-57.2121
11
18.7332
21
-57.2598
0
LINE
8
BLACK
6
CONTINUOUS
10
18.7332
20
-57.2598
11
18.6856
21
-57.3074
0
LINE
8
BLACK
6
CONTINUOUS
10
18.6856
20
-57.3074
11
18.638
21
-57.2598
0
LINE
8
BLACK
6
CONTINUOUS
10
18.638
20
-57.2598
11
18.6856
21
-57.2121
0
LINE
8
BLACK
6
CONTINUOUS
10
18.6856
20
-57.2121
11
18.6856
21
-57.3074
0
LINE
8
BLACK
6
CONTINUOUS
10
19.3523
20
-56.3074
11
19.4475
21
-56.3074
0
LINE
8
BLACK
6
CONTINUOUS
10
19.4475
20
-56.3074
11
19.5427
21
-56.355
0
LINE
8
BLACK
6
CONTINUOUS
10
19.5427
20
-56.355
11
19.5904
21
-56.4026
0
LINE
8
BLACK
6
CONTINUOUS
10
19.5904
20
-56.4026
11
19.638
21
-56.4979
0
LINE
8
BLACK
6
CONTINUOUS
10
19.638
20
-56.4979
11
19.6856
21
-56.6883
0
LINE
8
BLACK
6
CONTINUOUS
10
19.6856
20
-56.6883
11
19.6856
21
-56.9264
0
LINE
8
BLACK
6
CONTINUOUS
10
19.6856
20
-56.9264
11
19.638
21
-57.1169
0
LINE
8
BLACK
6
CONTINUOUS
10
19.638
20
-57.1169
11
19.5904
21
-57.2121
0
LINE
8
BLACK
6
CONTINUOUS
10
19.5904
20
-57.2121
11
19.5427
21
-57.2598
0
LINE
8
BLACK
6
CONTINUOUS
10
19.5427
20
-57.2598
11
19.4475
21
-57.3074
0
LINE
8
BLACK
6
CONTINUOUS
10
19.4475
20
-57.3074
11
19.3523
21
-57.3074
0
LINE
8
BLACK
6
CONTINUOUS
10
19.3523
20
-57.3074
11
19.257
21
-57.2598
0
LINE
8
BLACK
6
CONTINUOUS
10
19.257
20
-57.2598
11
19.2094
21
-57.2121
0
LINE
8
BLACK
6
CONTINUOUS
10
19.2094
20
-57.2121
11
19.1618
21
-57.1169
0
LINE
8
BLACK
6
CONTINUOUS
10
19.1618
20
-57.1169
11
19.1142
21
-56.9264
0
LINE
8
BLACK
6
CONTINUOUS
10
19.1142
20
-56.9264
11
19.1142
21
-56.6883
0
LINE
8
BLACK
6
CONTINUOUS
10
19.1142
20
-56.6883
11
19.1618
21
-56.4979
0
LINE
8
BLACK
6
CONTINUOUS
10
19.1618
20
-56.4979
11
19.2094
21
-56.4026
0
LINE
8
BLACK
6
CONTINUOUS
10
19.2094
20
-56.4026
11
19.257
21
-56.355
0
LINE
8
BLACK
6
CONTINUOUS
10
19.257
20
-56.355
11
19.3523
21
-56.3074
0
LINE
8
BLACK
6
CONTINUOUS
10
20.3046
20
-56.3074
11
20.3999
21
-56.3074
0
LINE
8
BLACK
6
CONTINUOUS
10
20.3999
20
-56.3074
11
20.4951
21
-56.355
0
LINE
8
BLACK
6
CONTINUOUS
10
20.4951
20
-56.355
11
20.5427
21
-56.4026
0
LINE
8
BLACK
6
CONTINUOUS
10
20.5427
20
-56.4026
11
20.5904
21
-56.4979
0
LINE
8
BLACK
6
CONTINUOUS
10
20.5904
20
-56.4979
11
20.638
21
-56.6883
0
LINE
8
BLACK
6
CONTINUOUS
10
20.638
20
-56.6883
11
20.638
21
-56.9264
0
LINE
8
BLACK
6
CONTINUOUS
10
20.638
20
-56.9264
11
20.5904
21
-57.1169
0
LINE
8
BLACK
6
CONTINUOUS
10
20.5904
20
-57.1169
11
20.5427
21
-57.2121
0
LINE
8
BLACK
6
CONTINUOUS
10
20.5427
20
-57.2121
11
20.4951
21
-57.2598
0
LINE
8
BLACK
6
CONTINUOUS
10
20.4951
20
-57.2598
11
20.3999
21
-57.3074
0
LINE
8
BLACK
6
CONTINUOUS
10
20.3999
20
-57.3074
11
20.3046
21
-57.3074
0
LINE
8
BLACK
6
CONTINUOUS
10
20.3046
20
-57.3074
11
20.2094
21
-57.2598
0
LINE
8
BLACK
6
CONTINUOUS
10
20.2094
20
-57.2598
11
20.1618
21
-57.2121
0
LINE
8
BLACK
6
CONTINUOUS
10
20.1618
20
-57.2121
11
20.1142
21
-57.1169
0
LINE
8
BLACK
6
CONTINUOUS
10
20.1142
20
-57.1169
11
20.0666
21
-56.9264
0
LINE
8
BLACK
6
CONTINUOUS
10
20.0666
20
-56.9264
11
20.0666
21
-56.6883
0
LINE
8
BLACK
6
CONTINUOUS
10
20.0666
20
-56.6883
11
20.1142
21
-56.4979
0
LINE
8
BLACK
6
CONTINUOUS
10
20.1142
20
-56.4979
11
20.1618
21
-56.4026
0
LINE
8
BLACK
6
CONTINUOUS
10
20.1618
20
-56.4026
11
20.2094
21
-56.355
0
LINE
8
BLACK
6
CONTINUOUS
10
20.2094
20
-56.355
11
20.3046
21
-56.3074
0
LINE
8
BLACK
6
CONTINUOUS
10
21.257
20
-56.3074
11
21.3523
21
-56.3074
0
LINE
8
BLACK
6
CONTINUOUS
10
21.3523
20
-56.3074
11
21.4475
21
-56.355
0
LINE
8
BLACK
6
CONTINUOUS
10
21.4475
20
-56.355
11
21.4951
21
-56.4026
0
LINE
8
BLACK
6
CONTINUOUS
10
21.4951
20
-56.4026
11
21.5427
21
-56.4979
0
LINE
8
BLACK
6
CONTINUOUS
10
21.5427
20
-56.4979
11
21.5904
21
-56.6883
0
LINE
8
BLACK
6
CONTINUOUS
10
21.5904
20
-56.6883
11
21.5904
21
-56.9264
0
LINE
8
BLACK
6
CONTINUOUS
10
21.5904
20
-56.9264
11
21.5427
21
-57.1169
0
LINE
8
BLACK
6
CONTINUOUS
10
21.5427
20
-57.1169
11
21.4951
21
-57.2121
0
LINE
8
BLACK
6
CONTINUOUS
10
21.4951
20
-57.2121
11
21.4475
21
-57.2598
0
LINE
8
BLACK
6
CONTINUOUS
10
21.4475
20
-57.2598
11
21.3523
21
-57.3074
0
LINE
8
BLACK
6
CONTINUOUS
10
21.3523
20
-57.3074
11
21.257
21
-57.3074
0
LINE
8
BLACK
6
CONTINUOUS
10
21.257
20
-57.3074
11
21.1618
21
-57.2598
0
LINE
8
BLACK
6
CONTINUOUS
10
21.1618
20
-57.2598
11
21.1142
21
-57.2121
0
LINE
8
BLACK
6
CONTINUOUS
10
21.1142
20
-57.2121
11
21.0666
21
-57.1169
0
LINE
8
BLACK
6
CONTINUOUS
10
21.0666
20
-57.1169
11
21.0189
21
-56.9264
0
LINE
8
BLACK
6
CONTINUOUS
10
21.0189
20
-56.9264
11
21.0189
21
-56.6883
0
LINE
8
BLACK
6
CONTINUOUS
10
21.0189
20
-56.6883
11
21.0666
21
-56.4979
0
LINE
8
BLACK
6
CONTINUOUS
10
21.0666
20
-56.4979
11
21.1142
21
-56.4026
0
LINE
8
BLACK
6
CONTINUOUS
10
21.1142
20
-56.4026
11
21.1618
21
-56.355
0
LINE
8
BLACK
6
CONTINUOUS
10
21.1618
20
-56.355
11
21.257
21
-56.3074
0
LINE
8
BLACK
6
CONTINUOUS
10
22.7808
20
-57.3074
11
22.7808
21
-56.6407
0
LINE
8
BLACK
6
CONTINUOUS
10
22.7808
20
-56.736
11
22.8285
21
-56.6883
0
LINE
8
BLACK
6
CONTINUOUS
10
22.8285
20
-56.6883
11
22.9237
21
-56.6407
0
LINE
8
BLACK
6
CONTINUOUS
10
22.9237
20
-56.6407
11
23.0666
21
-56.6407
0
LINE
8
BLACK
6
CONTINUOUS
10
23.0666
20
-56.6407
11
23.1618
21
-56.6883
0
LINE
8
BLACK
6
CONTINUOUS
10
23.1618
20
-56.6883
11
23.2094
21
-56.7836
0
LINE
8
BLACK
6
CONTINUOUS
10
23.2094
20
-56.7836
11
23.2094
21
-57.3074
0
LINE
8
BLACK
6
CONTINUOUS
10
23.2094
20
-56.7836
11
23.257
21
-56.6883
0
LINE
8
BLACK
6
CONTINUOUS
10
23.257
20
-56.6883
11
23.3523
21
-56.6407
0
LINE
8
BLACK
6
CONTINUOUS
10
23.3523
20
-56.6407
11
23.4951
21
-56.6407
0
LINE
8
BLACK
6
CONTINUOUS
10
23.4951
20
-56.6407
11
23.5904
21
-56.6883
0
LINE
8
BLACK
6
CONTINUOUS
10
23.5904
20
-56.6883
11
23.638
21
-56.7836
0
LINE
8
BLACK
6
CONTINUOUS
10
23.638
20
-56.7836
11
23.638
21
-57.3074
0
LINE
8
BLACK
6
CONTINUOUS
10
24.1142
20
-57.3074
11
24.1142
21
-56.6407
0
LINE
8
BLACK
6
CONTINUOUS
10
24.1142
20
-56.736
11
24.1618
21
-56.6883
0
LINE
8
BLACK
6
CONTINUOUS
10
24.1618
20
-56.6883
11
24.257
21
-56.6407
0
LINE
8
BLACK
6
CONTINUOUS
10
24.257
20
-56.6407
11
24.3999
21
-56.6407
0
LINE
8
BLACK
6
CONTINUOUS
10
24.3999
20
-56.6407
11
24.4951
21
-56.6883
0
LINE
8
BLACK
6
CONTINUOUS
10
24.4951
20
-56.6883
11
24.5427
21
-56.7836
0
LINE
8
BLACK
6
CONTINUOUS
10
24.5427
20
-56.7836
11
24.5427
21
-57.3074
0
LINE
8
BLACK
6
CONTINUOUS
10
24.5427
20
-56.7836
11
24.5904
21
-56.6883
0
LINE
8
BLACK
6
CONTINUOUS
10
24.5904
20
-56.6883
11
24.6856
21
-56.6407
0
LINE
8
BLACK
6
CONTINUOUS
10
24.6856
20
-56.6407
11
24.8285
21
-56.6407
0
LINE
8
BLACK
6
CONTINUOUS
10
24.8285
20
-56.6407
11
24.9237
21
-56.6883
0
LINE
8
BLACK
6
CONTINUOUS
10
24.9237
20
-56.6883
11
24.9713
21
-56.7836
0
LINE
8
BLACK
6
CONTINUOUS
10
24.9713
20
-56.7836
11
24.9713
21
-57.3074
0
LINE
8
BLACK
6
CONTINUOUS
10
13.8759
20
-58.055
11
27.8762
21
-58.055
0
LINE
8
BLACK
6
CONTINUOUS
10
13.8759
20
-58.675
11
13.8759
21
-57.4686
0
LINE
8
BLACK
6
CONTINUOUS
10
27.8762
20
-58.675
11
27.8762
21
-57.4686
0
LINE
8
BLACK
6
CONTINUOUS
10
27.8762
20
-58.055
11
26.7497
21
-58.6414
0
LINE
8
BLACK
6
CONTINUOUS
10
27.8762
20
-58.055
11
26.7497
21
-57.4686
0
LINE
8
BLACK
6
CONTINUOUS
10
13.8759
20
-58.055
11
15.0025
21
-58.6414
0
LINE
8
BLACK
6
CONTINUOUS
10
13.8759
20
-58.055
11
15.0025
21
-57.4686
0
LINE
8
BLACK
6
CONTINUOUS
10
8.39184
20
-56.1174
11
7.82041
21
-56.1174
0
LINE
8
BLACK
6
CONTINUOUS
10
8.10612
20
-56.1174
11
8.10612
21
-55.1174
0
LINE
8
BLACK
6
CONTINUOUS
10
8.10612
20
-55.1174
11
8.01088
21
-55.2602
0
LINE
8
BLACK
6
CONTINUOUS
10
8.01088
20
-55.2602
11
7.91565
21
-55.3555
0
LINE
8
BLACK
6
CONTINUOUS
10
7.91565
20
-55.3555
11
7.82041
21
-55.4031
0
LINE
8
BLACK
6
CONTINUOUS
10
8.82041
20
-56.0221
11
8.86803
21
-56.0698
0
LINE
8
BLACK
6
CONTINUOUS
10
8.86803
20
-56.0698
11
8.82041
21
-56.1174
0
LINE
8
BLACK
6
CONTINUOUS
10
8.82041
20
-56.1174
11
8.77279
21
-56.0698
0
LINE
8
BLACK
6
CONTINUOUS
10
8.77279
20
-56.0698
11
8.82041
21
-56.0221
0
LINE
8
BLACK
6
CONTINUOUS
10
8.82041
20
-56.0221
11
8.82041
21
-56.1174
0
LINE
8
BLACK
6
CONTINUOUS
10
9.20136
20
-55.1174
11
9.86803
21
-55.1174
0
LINE
8
BLACK
6
CONTINUOUS
10
9.86803
20
-55.1174
11
9.43945
21
-56.1174
0
LINE
8
BLACK
6
CONTINUOUS
10
10.2014
20
-55.2126
11
10.249
21
-55.165
0
LINE
8
BLACK
6
CONTINUOUS
10
10.249
20
-55.165
11
10.3442
21
-55.1174
0
LINE
8
BLACK
6
CONTINUOUS
10
10.3442
20
-55.1174
11
10.5823
21
-55.1174
0
LINE
8
BLACK
6
CONTINUOUS
10
10.5823
20
-55.1174
11
10.6776
21
-55.165
0
LINE
8
BLACK
6
CONTINUOUS
10
10.6776
20
-55.165
11
10.7252
21
-55.2126
0
LINE
8
BLACK
6
CONTINUOUS
10
10.7252
20
-55.2126
11
10.7728
21
-55.3079
0
LINE
8
BLACK
6
CONTINUOUS
10
10.7728
20
-55.3079
11
10.7728
21
-55.4031
0
LINE
8
BLACK
6
CONTINUOUS
10
10.7728
20
-55.4031
11
10.7252
21
-55.546
0
LINE
8
BLACK
6
CONTINUOUS
10
10.7252
20
-55.546
11
10.1537
21
-56.1174
0
LINE
8
BLACK
6
CONTINUOUS
10
10.1537
20
-56.1174
11
10.7728
21
-56.1174
0
LINE
8
BLACK
6
CONTINUOUS
10
11.6776
20
-55.1174
11
11.2014
21
-55.1174
0
LINE
8
BLACK
6
CONTINUOUS
10
11.2014
20
-55.1174
11
11.1537
21
-55.5936
0
LINE
8
BLACK
6
CONTINUOUS
10
11.1537
20
-55.5936
11
11.2014
21
-55.546
0
LINE
8
BLACK
6
CONTINUOUS
10
11.2014
20
-55.546
11
11.2966
21
-55.4983
0
LINE
8
BLACK
6
CONTINUOUS
10
11.2966
20
-55.4983
11
11.5347
21
-55.4983
0
LINE
8
BLACK
6
CONTINUOUS
10
11.5347
20
-55.4983
11
11.6299
21
-55.546
0
LINE
8
BLACK
6
CONTINUOUS
10
11.6299
20
-55.546
11
11.6776
21
-55.5936
0
LINE
8
BLACK
6
CONTINUOUS
10
11.6776
20
-55.5936
11
11.7252
21
-55.6888
0
LINE
8
BLACK
6
CONTINUOUS
10
11.7252
20
-55.6888
11
11.7252
21
-55.9269
0
LINE
8
BLACK
6
CONTINUOUS
10
11.7252
20
-55.9269
11
11.6776
21
-56.0221
0
LINE
8
BLACK
6
CONTINUOUS
10
11.6776
20
-56.0221
11
11.6299
21
-56.0698
0
LINE
8
BLACK
6
CONTINUOUS
10
11.6299
20
-56.0698
11
11.5347
21
-56.1174
0
LINE
8
BLACK
6
CONTINUOUS
10
11.5347
20
-56.1174
11
11.2966
21
-56.1174
0
LINE
8
BLACK
6
CONTINUOUS
10
11.2966
20
-56.1174
11
11.2014
21
-56.0698
0
LINE
8
BLACK
6
CONTINUOUS
10
11.2014
20
-56.0698
11
11.1537
21
-56.0221
0
LINE
8
BLACK
6
CONTINUOUS
10
12.9156
20
-56.1174
11
12.9156
21
-55.4507
0
LINE
8
BLACK
6
CONTINUOUS
10
12.9156
20
-55.546
11
12.9633
21
-55.4983
0
LINE
8
BLACK
6
CONTINUOUS
10
12.9633
20
-55.4983
11
13.0585
21
-55.4507
0
LINE
8
BLACK
6
CONTINUOUS
10
13.0585
20
-55.4507
11
13.2014
21
-55.4507
0
LINE
8
BLACK
6
CONTINUOUS
10
13.2014
20
-55.4507
11
13.2966
21
-55.4983
0
LINE
8
BLACK
6
CONTINUOUS
10
13.2966
20
-55.4983
11
13.3442
21
-55.5936
0
LINE
8
BLACK
6
CONTINUOUS
10
13.3442
20
-55.5936
11
13.3442
21
-56.1174
0
LINE
8
BLACK
6
CONTINUOUS
10
13.3442
20
-55.5936
11
13.3918
21
-55.4983
0
LINE
8
BLACK
6
CONTINUOUS
10
13.3918
20
-55.4983
11
13.4871
21
-55.4507
0
LINE
8
BLACK
6
CONTINUOUS
10
13.4871
20
-55.4507
11
13.6299
21
-55.4507
0
LINE
8
BLACK
6
CONTINUOUS
10
13.6299
20
-55.4507
11
13.7252
21
-55.4983
0
LINE
8
BLACK
6
CONTINUOUS
10
13.7252
20
-55.4983
11
13.7728
21
-55.5936
0
LINE
8
BLACK
6
CONTINUOUS
10
13.7728
20
-55.5936
11
13.7728
21
-56.1174
0
LINE
8
BLACK
6
CONTINUOUS
10
14.249
20
-56.1174
11
14.249
21
-55.4507
0
LINE
8
BLACK
6
CONTINUOUS
10
14.249
20
-55.546
11
14.2966
21
-55.4983
0
LINE
8
BLACK
6
CONTINUOUS
10
14.2966
20
-55.4983
11
14.3918
21
-55.4507
0
LINE
8
BLACK
6
CONTINUOUS
10
14.3918
20
-55.4507
11
14.5347
21
-55.4507
0
LINE
8
BLACK
6
CONTINUOUS
10
14.5347
20
-55.4507
11
14.6299
21
-55.4983
0
LINE
8
BLACK
6
CONTINUOUS
10
14.6299
20
-55.4983
11
14.6776
21
-55.5936
0
LINE
8
BLACK
6
CONTINUOUS
10
14.6776
20
-55.5936
11
14.6776
21
-56.1174
0
LINE
8
BLACK
6
CONTINUOUS
10
14.6776
20
-55.5936
11
14.7252
21
-55.4983
0
LINE
8
BLACK
6
CONTINUOUS
10
14.7252
20
-55.4983
11
14.8204
21
-55.4507
0
LINE
8
BLACK
6
CONTINUOUS
10
14.8204
20
-55.4507
11
14.9633
21
-55.4507
0
LINE
8
BLACK
6
CONTINUOUS
10
14.9633
20
-55.4507
11
15.0585
21
-55.4983
0
LINE
8
BLACK
6
CONTINUOUS
10
15.0585
20
-55.4983
11
15.1061
21
-55.5936
0
LINE
8
BLACK
6
CONTINUOUS
10
15.1061
20
-55.5936
11
15.1061
21
-56.1174
0
LINE
8
BLACK
6
CONTINUOUS
10
10.6247
20
-56.865
11
12.3494
21
-56.865
0
LINE
8
BLACK
6
CONTINUOUS
10
10.6247
20
-57.405
11
10.6247
21
-56.2786
0
LINE
8
BLACK
6
CONTINUOUS
10
12.3494
20
-57.405
11
12.3494
21
-56.2786
0
LINE
8
BLACK
6
CONTINUOUS
10
12.3494
20
-56.865
11
11.2229
21
-57.4514
0
LINE
8
BLACK
6
CONTINUOUS
10
12.3494
20
-56.865
11
11.2229
21
-56.2786
0
LINE
8
BLACK
6
CONTINUOUS
10
10.6247
20
-56.865
11
11.7512
21
-57.4514
0
LINE
8
BLACK
6
CONTINUOUS
10
10.6247
20
-56.865
11
11.7512
21
-56.2786
0
LINE
8
BLACK
6
CONTINUOUS
10
12.3509
20
-59.905
11
12.3509
21
-64.375
0
LINE
8
BLACK
6
CONTINUOUS
10
36.9774
20
-66.19
11
36.9774
21
-68.975
0
LINE
8
BLACK
6
CONTINUOUS
10
40.7143
20
-74.3043
11
40.7143
21
-73.6852
0
LINE
8
BLACK
6
CONTINUOUS
10
40.7143
20
-73.6852
11
41.0953
21
-74.0186
0
LINE
8
BLACK
6
CONTINUOUS
10
41.0953
20
-74.0186
11
41.0953
21
-73.8757
0
LINE
8
BLACK
6
CONTINUOUS
10
41.0953
20
-73.8757
11
41.1429
21
-73.7805
0
LINE
8
BLACK
6
CONTINUOUS
10
41.1429
20
-73.7805
11
41.1905
21
-73.7329
0
LINE
8
BLACK
6
CONTINUOUS
10
41.1905
20
-73.7329
11
41.2858
21
-73.6852
0
LINE
8
BLACK
6
CONTINUOUS
10
41.2858
20
-73.6852
11
41.5239
21
-73.6852
0
LINE
8
BLACK
6
CONTINUOUS
10
41.5239
20
-73.6852
11
41.6191
21
-73.7329
0
LINE
8
BLACK
6
CONTINUOUS
10
41.6191
20
-73.7329
11
41.6667
21
-73.7805
0
LINE
8
BLACK
6
CONTINUOUS
10
41.6667
20
-73.7805
11
41.7143
21
-73.8757
0
LINE
8
BLACK
6
CONTINUOUS
10
41.7143
20
-73.8757
11
41.7143
21
-74.1614
0
LINE
8
BLACK
6
CONTINUOUS
10
41.7143
20
-74.1614
11
41.6667
21
-74.2567
0
LINE
8
BLACK
6
CONTINUOUS
10
41.6667
20
-74.2567
11
41.6191
21
-74.3043
0
LINE
8
BLACK
6
CONTINUOUS
10
41.6191
20
-73.2567
11
41.6667
21
-73.209
0
LINE
8
BLACK
6
CONTINUOUS
10
41.6667
20
-73.209
11
41.7143
21
-73.2567
0
LINE
8
BLACK
6
CONTINUOUS
10
41.7143
20
-73.2567
11
41.6667
21
-73.3043
0
LINE
8
BLACK
6
CONTINUOUS
10
41.6667
20
-73.3043
11
41.6191
21
-73.2567
0
LINE
8
BLACK
6
CONTINUOUS
10
41.6191
20
-73.2567
11
41.7143
21
-73.2567
0
LINE
8
BLACK
6
CONTINUOUS
10
40.8096
20
-72.8281
11
40.7619
21
-72.7805
0
LINE
8
BLACK
6
CONTINUOUS
10
40.7619
20
-72.7805
11
40.7143
21
-72.6852
0
LINE
8
BLACK
6
CONTINUOUS
10
40.7143
20
-72.6852
11
40.7143
21
-72.4471
0
LINE
8
BLACK
6
CONTINUOUS
10
40.7143
20
-72.4471
11
40.7619
21
-72.3519
0
LINE
8
BLACK
6
CONTINUOUS
10
40.7619
20
-72.3519
11
40.8096
21
-72.3043
0
LINE
8
BLACK
6
CONTINUOUS
10
40.8096
20
-72.3043
11
40.9048
21
-72.2567
0
LINE
8
BLACK
6
CONTINUOUS
10
40.9048
20
-72.2567
11
41
21
-72.2567
0
LINE
8
BLACK
6
CONTINUOUS
10
41
20
-72.2567
11
41.1429
21
-72.3043
0
LINE
8
BLACK
6
CONTINUOUS
10
41.1429
20
-72.3043
11
41.7143
21
-72.8757
0
LINE
8
BLACK
6
CONTINUOUS
10
41.7143
20
-72.8757
11
41.7143
21
-72.2567
0
LINE
8
BLACK
6
CONTINUOUS
10
40.7143
20
-71.9233
11
40.7143
21
-71.3043
0
LINE
8
BLACK
6
CONTINUOUS
10
40.7143
20
-71.3043
11
41.0953
21
-71.6376
0
LINE
8
BLACK
6
CONTINUOUS
10
41.0953
20
-71.6376
11
41.0953
21
-71.4948
0
LINE
8
BLACK
6
CONTINUOUS
10
41.0953
20
-71.4948
11
41.1429
21
-71.3995
0
LINE
8
BLACK
6
CONTINUOUS
10
41.1429
20
-71.3995
11
41.1905
21
-71.3519
0
LINE
8
BLACK
6
CONTINUOUS
10
41.1905
20
-71.3519
11
41.2858
21
-71.3043
0
LINE
8
BLACK
6
CONTINUOUS
10
41.2858
20
-71.3043
11
41.5239
21
-71.3043
0
LINE
8
BLACK
6
CONTINUOUS
10
41.5239
20
-71.3043
11
41.6191
21
-71.3519
0
LINE
8
BLACK
6
CONTINUOUS
10
41.6191
20
-71.3519
11
41.6667
21
-71.3995
0
LINE
8
BLACK
6
CONTINUOUS
10
41.6667
20
-71.3995
11
41.7143
21
-71.4948
0
LINE
8
BLACK
6
CONTINUOUS
10
41.7143
20
-71.4948
11
41.7143
21
-71.7805
0
LINE
8
BLACK
6
CONTINUOUS
10
41.7143
20
-71.7805
11
41.6667
21
-71.8757
0
LINE
8
BLACK
6
CONTINUOUS
10
41.6667
20
-71.8757
11
41.6191
21
-71.9233
0
LINE
8
BLACK
6
CONTINUOUS
10
40.7143
20
-70.6852
11
40.7143
21
-70.59
0
LINE
8
BLACK
6
CONTINUOUS
10
40.7143
20
-70.59
11
40.7619
21
-70.4948
0
LINE
8
BLACK
6
CONTINUOUS
10
40.7619
20
-70.4948
11
40.8096
21
-70.4471
0
LINE
8
BLACK
6
CONTINUOUS
10
40.8096
20
-70.4471
11
40.9048
21
-70.3995
0
LINE
8
BLACK
6
CONTINUOUS
10
40.9048
20
-70.3995
11
41.0953
21
-70.3519
0
LINE
8
BLACK
6
CONTINUOUS
10
41.0953
20
-70.3519
11
41.3334
21
-70.3519
0
LINE
8
BLACK
6
CONTINUOUS
10
41.3334
20
-70.3519
11
41.5239
21
-70.3995
0
LINE
8
BLACK
6
CONTINUOUS
10
41.5239
20
-70.3995
11
41.6191
21
-70.4471
0
LINE
8
BLACK
6
CONTINUOUS
10
41.6191
20
-70.4471
11
41.6667
21
-70.4948
0
LINE
8
BLACK
6
CONTINUOUS
10
41.6667
20
-70.4948
11
41.7143
21
-70.59
0
LINE
8
BLACK
6
CONTINUOUS
10
41.7143
20
-70.59
11
41.7143
21
-70.6852
0
LINE
8
BLACK
6
CONTINUOUS
10
41.7143
20
-70.6852
11
41.6667
21
-70.7805
0
LINE
8
BLACK
6
CONTINUOUS
10
41.6667
20
-70.7805
11
41.6191
21
-70.8281
0
LINE
8
BLACK
6
CONTINUOUS
10
41.6191
20
-70.8281
11
41.5239
21
-70.8757
0
LINE
8
BLACK
6
CONTINUOUS
10
41.5239
20
-70.8757
11
41.3334
21
-70.9233
0
LINE
8
BLACK
6
CONTINUOUS
10
41.3334
20
-70.9233
11
41.0953
21
-70.9233
0
LINE
8
BLACK
6
CONTINUOUS
10
41.0953
20
-70.9233
11
40.9048
21
-70.8757
0
LINE
8
BLACK
6
CONTINUOUS
10
40.9048
20
-70.8757
11
40.8096
21
-70.8281
0
LINE
8
BLACK
6
CONTINUOUS
10
40.8096
20
-70.8281
11
40.7619
21
-70.7805
0
LINE
8
BLACK
6
CONTINUOUS
10
40.7619
20
-70.7805
11
40.7143
21
-70.6852
0
LINE
8
BLACK
6
CONTINUOUS
10
41.7143
20
-69.1614
11
41.0477
21
-69.1614
0
LINE
8
BLACK
6
CONTINUOUS
10
41.1429
20
-69.1614
11
41.0953
21
-69.1138
0
LINE
8
BLACK
6
CONTINUOUS
10
41.0953
20
-69.1138
11
41.0477
21
-69.0186
0
LINE
8
BLACK
6
CONTINUOUS
10
41.0477
20
-69.0186
11
41.0477
21
-68.8757
0
LINE
8
BLACK
6
CONTINUOUS
10
41.0477
20
-68.8757
11
41.0953
21
-68.7805
0
LINE
8
BLACK
6
CONTINUOUS
10
41.0953
20
-68.7805
11
41.1905
21
-68.7329
0
LINE
8
BLACK
6
CONTINUOUS
10
41.1905
20
-68.7329
11
41.7143
21
-68.7329
0
LINE
8
BLACK
6
CONTINUOUS
10
41.1905
20
-68.7329
11
41.0953
21
-68.6852
0
LINE
8
BLACK
6
CONTINUOUS
10
41.0953
20
-68.6852
11
41.0477
21
-68.59
0
LINE
8
BLACK
6
CONTINUOUS
10
41.0477
20
-68.59
11
41.0477
21
-68.4471
0
LINE
8
BLACK
6
CONTINUOUS
10
41.0477
20
-68.4471
11
41.0953
21
-68.3519
0
LINE
8
BLACK
6
CONTINUOUS
10
41.0953
20
-68.3519
11
41.1905
21
-68.3043
0
LINE
8
BLACK
6
CONTINUOUS
10
41.1905
20
-68.3043
11
41.7143
21
-68.3043
0
LINE
8
BLACK
6
CONTINUOUS
10
41.7143
20
-67.8281
11
41.0477
21
-67.8281
0
LINE
8
BLACK
6
CONTINUOUS
10
41.1429
20
-67.8281
11
41.0953
21
-67.7805
0
LINE
8
BLACK
6
CONTINUOUS
10
41.0953
20
-67.7805
11
41.0477
21
-67.6852
0
LINE
8
BLACK
6
CONTINUOUS
10
41.0477
20
-67.6852
11
41.0477
21
-67.5424
0
LINE
8
BLACK
6
CONTINUOUS
10
41.0477
20
-67.5424
11
41.0953
21
-67.4471
0
LINE
8
BLACK
6
CONTINUOUS
10
41.0953
20
-67.4471
11
41.1905
21
-67.3995
0
LINE
8
BLACK
6
CONTINUOUS
10
41.1905
20
-67.3995
11
41.7143
21
-67.3995
0
LINE
8
BLACK
6
CONTINUOUS
10
41.1905
20
-67.3995
11
41.0953
21
-67.3519
0
LINE
8
BLACK
6
CONTINUOUS
10
41.0953
20
-67.3519
11
41.0477
21
-67.2567
0
LINE
8
BLACK
6
CONTINUOUS
10
41.0477
20
-67.2567
11
41.0477
21
-67.1138
0
LINE
8
BLACK
6
CONTINUOUS
10
41.0477
20
-67.1138
11
41.0953
21
-67.0186
0
LINE
8
BLACK
6
CONTINUOUS
10
41.0953
20
-67.0186
11
41.1905
21
-66.971
0
LINE
8
BLACK
6
CONTINUOUS
10
41.1905
20
-66.971
11
41.7143
21
-66.971
0
LINE
8
BLACK
6
CONTINUOUS
10
40.0619
20
-72.205
11
40.0619
21
-68.975
0
LINE
8
BLACK
6
CONTINUOUS
10
38.1525
20
-72.205
11
40.6484
21
-72.205
0
LINE
8
BLACK
6
CONTINUOUS
10
38.1525
20
-68.975
11
40.6484
21
-68.975
0
LINE
8
BLACK
6
CONTINUOUS
10
40.0619
20
-68.975
11
40.6484
21
-70.1015
0
LINE
8
BLACK
6
CONTINUOUS
10
40.0619
20
-68.975
11
39.4755
21
-70.1015
0
LINE
8
BLACK
6
CONTINUOUS
10
40.0619
20
-72.205
11
40.6484
21
-71.0785
0
LINE
8
BLACK
6
CONTINUOUS
10
40.0619
20
-72.205
11
39.4755
21
-71.0785
0
LINE
8
BLACK
6
CONTINUOUS
10
10.6247
20
-59.905
11
10.6247
21
-58.705
0
LINE
8
BLACK
6
CONTINUOUS
10
12.3509
20
-64.375
11
13.8759
21
-64.375
0
LINE
8
BLACK
6
CONTINUOUS
10
29.0632
20
-55.7974
11
29.6822
21
-55.7974
0
LINE
8
BLACK
6
CONTINUOUS
10
29.6822
20
-55.7974
11
29.3489
21
-56.1783
0
LINE
8
BLACK
6
CONTINUOUS
10
29.3489
20
-56.1783
11
29.4917
21
-56.1783
0
LINE
8
BLACK
6
CONTINUOUS
10
29.4917
20
-56.1783
11
29.587
21
-56.226
0
LINE
8
BLACK
6
CONTINUOUS
10
29.587
20
-56.226
11
29.6346
21
-56.2736
0
LINE
8
BLACK
6
CONTINUOUS
10
29.6346
20
-56.2736
11
29.6822
21
-56.3688
0
LINE
8
BLACK
6
CONTINUOUS
10
29.6822
20
-56.3688
11
29.6822
21
-56.6069
0
LINE
8
BLACK
6
CONTINUOUS
10
29.6822
20
-56.6069
11
29.6346
21
-56.7021
0
LINE
8
BLACK
6
CONTINUOUS
10
29.6346
20
-56.7021
11
29.587
21
-56.7498
0
LINE
8
BLACK
6
CONTINUOUS
10
29.587
20
-56.7498
11
29.4917
21
-56.7974
0
LINE
8
BLACK
6
CONTINUOUS
10
29.4917
20
-56.7974
11
29.206
21
-56.7974
0
LINE
8
BLACK
6
CONTINUOUS
10
29.206
20
-56.7974
11
29.1108
21
-56.7498
0
LINE
8
BLACK
6
CONTINUOUS
10
29.1108
20
-56.7498
11
29.0632
21
-56.7021
0
LINE
8
BLACK
6
CONTINUOUS
10
30.1108
20
-56.7021
11
30.1584
21
-56.7498
0
LINE
8
BLACK
6
CONTINUOUS
10
30.1584
20
-56.7498
11
30.1108
21
-56.7974
0
LINE
8
BLACK
6
CONTINUOUS
10
30.1108
20
-56.7974
11
30.0632
21
-56.7498
0
LINE
8
BLACK
6
CONTINUOUS
10
30.0632
20
-56.7498
11
30.1108
21
-56.7021
0
LINE
8
BLACK
6
CONTINUOUS
10
30.1108
20
-56.7021
11
30.1108
21
-56.7974
0
LINE
8
BLACK
6
CONTINUOUS
10
30.4917
20
-55.7974
11
31.1108
21
-55.7974
0
LINE
8
BLACK
6
CONTINUOUS
10
31.1108
20
-55.7974
11
30.7774
21
-56.1783
0
LINE
8
BLACK
6
CONTINUOUS
10
30.7774
20
-56.1783
11
30.9203
21
-56.1783
0
LINE
8
BLACK
6
CONTINUOUS
10
30.9203
20
-56.1783
11
31.0155
21
-56.226
0
LINE
8
BLACK
6
CONTINUOUS
10
31.0155
20
-56.226
11
31.0632
21
-56.2736
0
LINE
8
BLACK
6
CONTINUOUS
10
31.0632
20
-56.2736
11
31.1108
21
-56.3688
0
LINE
8
BLACK
6
CONTINUOUS
10
31.1108
20
-56.3688
11
31.1108
21
-56.6069
0
LINE
8
BLACK
6
CONTINUOUS
10
31.1108
20
-56.6069
11
31.0632
21
-56.7021
0
LINE
8
BLACK
6
CONTINUOUS
10
31.0632
20
-56.7021
11
31.0155
21
-56.7498
0
LINE
8
BLACK
6
CONTINUOUS
10
31.0155
20
-56.7498
11
30.9203
21
-56.7974
0
LINE
8
BLACK
6
CONTINUOUS
10
30.9203
20
-56.7974
11
30.6346
21
-56.7974
0
LINE
8
BLACK
6
CONTINUOUS
10
30.6346
20
-56.7974
11
30.5394
21
-56.7498
0
LINE
8
BLACK
6
CONTINUOUS
10
30.5394
20
-56.7498
11
30.4917
21
-56.7021
0
LINE
8
BLACK
6
CONTINUOUS
10
31.7298
20
-55.7974
11
31.8251
21
-55.7974
0
LINE
8
BLACK
6
CONTINUOUS
10
31.8251
20
-55.7974
11
31.9203
21
-55.845
0
LINE
8
BLACK
6
CONTINUOUS
10
31.9203
20
-55.845
11
31.9679
21
-55.8926
0
LINE
8
BLACK
6
CONTINUOUS
10
31.9679
20
-55.8926
11
32.0155
21
-55.9879
0
LINE
8
BLACK
6
CONTINUOUS
10
32.0155
20
-55.9879
11
32.0632
21
-56.1783
0
LINE
8
BLACK
6
CONTINUOUS
10
32.0632
20
-56.1783
11
32.0632
21
-56.4164
0
LINE
8
BLACK
6
CONTINUOUS
10
32.0632
20
-56.4164
11
32.0155
21
-56.6069
0
LINE
8
BLACK
6
CONTINUOUS
10
32.0155
20
-56.6069
11
31.9679
21
-56.7021
0
LINE
8
BLACK
6
CONTINUOUS
10
31.9679
20
-56.7021
11
31.9203
21
-56.7498
0
LINE
8
BLACK
6
CONTINUOUS
10
31.9203
20
-56.7498
11
31.8251
21
-56.7974
0
LINE
8
BLACK
6
CONTINUOUS
10
31.8251
20
-56.7974
11
31.7298
21
-56.7974
0
LINE
8
BLACK
6
CONTINUOUS
10
31.7298
20
-56.7974
11
31.6346
21
-56.7498
0
LINE
8
BLACK
6
CONTINUOUS
10
31.6346
20
-56.7498
11
31.587
21
-56.7021
0
LINE
8
BLACK
6
CONTINUOUS
10
31.587
20
-56.7021
11
31.5394
21
-56.6069
0
LINE
8
BLACK
6
CONTINUOUS
10
31.5394
20
-56.6069
11
31.4917
21
-56.4164
0
LINE
8
BLACK
6
CONTINUOUS
10
31.4917
20
-56.4164
11
31.4917
21
-56.1783
0
LINE
8
BLACK
6
CONTINUOUS
10
31.4917
20
-56.1783
11
31.5394
21
-55.9879
0
LINE
8
BLACK
6
CONTINUOUS
10
31.5394
20
-55.9879
11
31.587
21
-55.8926
0
LINE
8
BLACK
6
CONTINUOUS
10
31.587
20
-55.8926
11
31.6346
21
-55.845
0
LINE
8
BLACK
6
CONTINUOUS
10
31.6346
20
-55.845
11
31.7298
21
-55.7974
0
LINE
8
BLACK
6
CONTINUOUS
10
32.6822
20
-55.7974
11
32.7775
21
-55.7974
0
LINE
8
BLACK
6
CONTINUOUS
10
32.7775
20
-55.7974
11
32.8727
21
-55.845
0
LINE
8
BLACK
6
CONTINUOUS
10
32.8727
20
-55.845
11
32.9203
21
-55.8926
0
LINE
8
BLACK
6
CONTINUOUS
10
32.9203
20
-55.8926
11
32.9679
21
-55.9879
0
LINE
8
BLACK
6
CONTINUOUS
10
32.9679
20
-55.9879
11
33.0155
21
-56.1783
0
LINE
8
BLACK
6
CONTINUOUS
10
33.0155
20
-56.1783
11
33.0155
21
-56.4164
0
LINE
8
BLACK
6
CONTINUOUS
10
33.0155
20
-56.4164
11
32.9679
21
-56.6069
0
LINE
8
BLACK
6
CONTINUOUS
10
32.9679
20
-56.6069
11
32.9203
21
-56.7021
0
LINE
8
BLACK
6
CONTINUOUS
10
32.9203
20
-56.7021
11
32.8727
21
-56.7498
0
LINE
8
BLACK
6
CONTINUOUS
10
32.8727
20
-56.7498
11
32.7775
21
-56.7974
0
LINE
8
BLACK
6
CONTINUOUS
10
32.7775
20
-56.7974
11
32.6822
21
-56.7974
0
LINE
8
BLACK
6
CONTINUOUS
10
32.6822
20
-56.7974
11
32.587
21
-56.7498
0
LINE
8
BLACK
6
CONTINUOUS
10
32.587
20
-56.7498
11
32.5394
21
-56.7021
0
LINE
8
BLACK
6
CONTINUOUS
10
32.5394
20
-56.7021
11
32.4917
21
-56.6069
0
LINE
8
BLACK
6
CONTINUOUS
10
32.4917
20
-56.6069
11
32.4441
21
-56.4164
0
LINE
8
BLACK
6
CONTINUOUS
10
32.4441
20
-56.4164
11
32.4441
21
-56.1783
0
LINE
8
BLACK
6
CONTINUOUS
10
32.4441
20
-56.1783
11
32.4917
21
-55.9879
0
LINE
8
BLACK
6
CONTINUOUS
10
32.4917
20
-55.9879
11
32.5394
21
-55.8926
0
LINE
8
BLACK
6
CONTINUOUS
10
32.5394
20
-55.8926
11
32.587
21
-55.845
0
LINE
8
BLACK
6
CONTINUOUS
10
32.587
20
-55.845
11
32.6822
21
-55.7974
0
LINE
8
BLACK
6
CONTINUOUS
10
34.206
20
-56.7974
11
34.206
21
-56.1307
0
LINE
8
BLACK
6
CONTINUOUS
10
34.206
20
-56.226
11
34.2536
21
-56.1783
0
LINE
8
BLACK
6
CONTINUOUS
10
34.2536
20
-56.1783
11
34.3489
21
-56.1307
0
LINE
8
BLACK
6
CONTINUOUS
10
34.3489
20
-56.1307
11
34.4917
21
-56.1307
0
LINE
8
BLACK
6
CONTINUOUS
10
34.4917
20
-56.1307
11
34.587
21
-56.1783
0
LINE
8
BLACK
6
CONTINUOUS
10
34.587
20
-56.1783
11
34.6346
21
-56.2736
0
LINE
8
BLACK
6
CONTINUOUS
10
34.6346
20
-56.2736
11
34.6346
21
-56.7974
0
LINE
8
BLACK
6
CONTINUOUS
10
34.6346
20
-56.2736
11
34.6822
21
-56.1783
0
LINE
8
BLACK
6
CONTINUOUS
10
34.6822
20
-56.1783
11
34.7775
21
-56.1307
0
LINE
8
BLACK
6
CONTINUOUS
10
34.7775
20
-56.1307
11
34.9203
21
-56.1307
0
LINE
8
BLACK
6
CONTINUOUS
10
34.9203
20
-56.1307
11
35.0155
21
-56.1783
0
LINE
8
BLACK
6
CONTINUOUS
10
35.0155
20
-56.1783
11
35.0632
21
-56.2736
0
LINE
8
BLACK
6
CONTINUOUS
10
35.0632
20
-56.2736
11
35.0632
21
-56.7974
0
LINE
8
BLACK
6
CONTINUOUS
10
35.5394
20
-56.7974
11
35.5394
21
-56.1307
0
LINE
8
BLACK
6
CONTINUOUS
10
35.5394
20
-56.226
11
35.587
21
-56.1783
0
LINE
8
BLACK
6
CONTINUOUS
10
35.587
20
-56.1783
11
35.6822
21
-56.1307
0
LINE
8
BLACK
6
CONTINUOUS
10
35.6822
20
-56.1307
11
35.8251
21
-56.1307
0
LINE
8
BLACK
6
CONTINUOUS
10
35.8251
20
-56.1307
11
35.9203
21
-56.1783
0
LINE
8
BLACK
6
CONTINUOUS
10
35.9203
20
-56.1783
11
35.9679
21
-56.2736
0
LINE
8
BLACK
6
CONTINUOUS
10
35.9679
20
-56.2736
11
35.9679
21
-56.7974
0
LINE
8
BLACK
6
CONTINUOUS
10
35.9679
20
-56.2736
11
36.0155
21
-56.1783
0
LINE
8
BLACK
6
CONTINUOUS
10
36.0155
20
-56.1783
11
36.1108
21
-56.1307
0
LINE
8
BLACK
6
CONTINUOUS
10
36.1108
20
-56.1307
11
36.2536
21
-56.1307
0
LINE
8
BLACK
6
CONTINUOUS
10
36.2536
20
-56.1307
11
36.3489
21
-56.1783
0
LINE
8
BLACK
6
CONTINUOUS
10
36.3489
20
-56.1783
11
36.3965
21
-56.2736
0
LINE
8
BLACK
6
CONTINUOUS
10
36.3965
20
-56.2736
11
36.3965
21
-56.7974
0
LINE
8
BLACK
6
CONTINUOUS
10
31.1274
20
-57.545
11
34.4275
21
-57.545
0
LINE
8
BLACK
6
CONTINUOUS
10
31.1274
20
-57.705
11
31.1274
21
-56.9586
0
LINE
8
BLACK
6
CONTINUOUS
10
34.4275
20
-57.705
11
34.4275
21
-56.9586
0
LINE
8
BLACK
6
CONTINUOUS
10
34.4275
20
-57.545
11
33.3009
21
-58.1314
0
LINE
8
BLACK
6
CONTINUOUS
10
34.4275
20
-57.545
11
33.3009
21
-56.9586
0
LINE
8
BLACK
6
CONTINUOUS
10
31.1274
20
-57.545
11
32.254
21
-58.1314
0
LINE
8
BLACK
6
CONTINUOUS
10
31.1274
20
-57.545
11
32.254
21
-56.9586
0
LINE
8
BLACK
6
CONTINUOUS
10
40.0243
20
-66.238
11
40.0243
21
-66.4285
0
LINE
8
BLACK
6
CONTINUOUS
10
40.0243
20
-66.4285
11
40.072
21
-66.5237
0
LINE
8
BLACK
6
CONTINUOUS
10
40.072
20
-66.5237
11
40.1196
21
-66.5713
0
LINE
8
BLACK
6
CONTINUOUS
10
40.1196
20
-66.5713
11
40.2624
21
-66.6665
0
LINE
8
BLACK
6
CONTINUOUS
10
40.2624
20
-66.6665
11
40.4529
21
-66.7142
0
LINE
8
BLACK
6
CONTINUOUS
10
40.4529
20
-66.7142
11
40.8339
21
-66.7142
0
LINE
8
BLACK
6
CONTINUOUS
10
40.8339
20
-66.7142
11
40.9291
21
-66.6665
0
LINE
8
BLACK
6
CONTINUOUS
10
40.9291
20
-66.6665
11
40.9767
21
-66.6189
0
LINE
8
BLACK
6
CONTINUOUS
10
40.9767
20
-66.6189
11
41.0243
21
-66.5237
0
LINE
8
BLACK
6
CONTINUOUS
10
41.0243
20
-66.5237
11
41.0243
21
-66.3332
0
LINE
8
BLACK
6
CONTINUOUS
10
41.0243
20
-66.3332
11
40.9767
21
-66.238
0
LINE
8
BLACK
6
CONTINUOUS
10
40.9767
20
-66.238
11
40.9291
21
-66.1904
0
LINE
8
BLACK
6
CONTINUOUS
10
40.9291
20
-66.1904
11
40.8339
21
-66.1427
0
LINE
8
BLACK
6
CONTINUOUS
10
40.8339
20
-66.1427
11
40.5958
21
-66.1427
0
LINE
8
BLACK
6
CONTINUOUS
10
40.5958
20
-66.1427
11
40.5005
21
-66.1904
0
LINE
8
BLACK
6
CONTINUOUS
10
40.5005
20
-66.1904
11
40.4529
21
-66.238
0
LINE
8
BLACK
6
CONTINUOUS
10
40.4529
20
-66.238
11
40.4053
21
-66.3332
0
LINE
8
BLACK
6
CONTINUOUS
10
40.4053
20
-66.3332
11
40.4053
21
-66.5237
0
LINE
8
BLACK
6
CONTINUOUS
10
40.4053
20
-66.5237
11
40.4529
21
-66.6189
0
LINE
8
BLACK
6
CONTINUOUS
10
40.4529
20
-66.6189
11
40.5005
21
-66.6665
0
LINE
8
BLACK
6
CONTINUOUS
10
40.5005
20
-66.6665
11
40.5958
21
-66.7142
0
LINE
8
BLACK
6
CONTINUOUS
10
40.9291
20
-65.7142
11
40.9767
21
-65.6665
0
LINE
8
BLACK
6
CONTINUOUS
10
40.9767
20
-65.6665
11
41.0243
21
-65.7142
0
LINE
8
BLACK
6
CONTINUOUS
10
41.0243
20
-65.7142
11
40.9767
21
-65.7618
0
LINE
8
BLACK
6
CONTINUOUS
10
40.9767
20
-65.7618
11
40.9291
21
-65.7142
0
LINE
8
BLACK
6
CONTINUOUS
10
40.9291
20
-65.7142
11
41.0243
21
-65.7142
0
LINE
8
BLACK
6
CONTINUOUS
10
40.1196
20
-65.2856
11
40.072
21
-65.238
0
LINE
8
BLACK
6
CONTINUOUS
10
40.072
20
-65.238
11
40.0243
21
-65.1427
0
LINE
8
BLACK
6
CONTINUOUS
10
40.0243
20
-65.1427
11
40.0243
21
-64.9046
0
LINE
8
BLACK
6
CONTINUOUS
10
40.0243
20
-64.9046
11
40.072
21
-64.8094
0
LINE
8
BLACK
6
CONTINUOUS
10
40.072
20
-64.8094
11
40.1196
21
-64.7618
0
LINE
8
BLACK
6
CONTINUOUS
10
40.1196
20
-64.7618
11
40.2148
21
-64.7142
0
LINE
8
BLACK
6
CONTINUOUS
10
40.2148
20
-64.7142
11
40.31
21
-64.7142
0
LINE
8
BLACK
6
CONTINUOUS
10
40.31
20
-64.7142
11
40.4529
21
-64.7618
0
LINE
8
BLACK
6
CONTINUOUS
10
40.4529
20
-64.7618
11
41.0243
21
-65.3332
0
LINE
8
BLACK
6
CONTINUOUS
10
41.0243
20
-65.3332
11
41.0243
21
-64.7142
0
LINE
8
BLACK
6
CONTINUOUS
10
40.4529
20
-64.1427
11
40.4053
21
-64.238
0
LINE
8
BLACK
6
CONTINUOUS
10
40.4053
20
-64.238
11
40.3577
21
-64.2856
0
LINE
8
BLACK
6
CONTINUOUS
10
40.3577
20
-64.2856
11
40.2624
21
-64.3332
0
LINE
8
BLACK
6
CONTINUOUS
10
40.2624
20
-64.3332
11
40.2148
21
-64.3332
0
LINE
8
BLACK
6
CONTINUOUS
10
40.2148
20
-64.3332
11
40.1196
21
-64.2856
0
LINE
8
BLACK
6
CONTINUOUS
10
40.1196
20
-64.2856
11
40.072
21
-64.238
0
LINE
8
BLACK
6
CONTINUOUS
10
40.072
20
-64.238
11
40.0243
21
-64.1427
0
LINE
8
BLACK
6
CONTINUOUS
10
40.0243
20
-64.1427
11
40.0243
21
-63.9523
0
LINE
8
BLACK
6
CONTINUOUS
10
40.0243
20
-63.9523
11
40.072
21
-63.857
0
LINE
8
BLACK
6
CONTINUOUS
10
40.072
20
-63.857
11
40.1196
21
-63.8094
0
LINE
8
BLACK
6
CONTINUOUS
10
40.1196
20
-63.8094
11
40.2148
21
-63.7618
0
LINE
8
BLACK
6
CONTINUOUS
10
40.2148
20
-63.7618
11
40.2624
21
-63.7618
0
LINE
8
BLACK
6
CONTINUOUS
10
40.2624
20
-63.7618
11
40.3577
21
-63.8094
0
LINE
8
BLACK
6
CONTINUOUS
10
40.3577
20
-63.8094
11
40.4053
21
-63.857
0
LINE
8
BLACK
6
CONTINUOUS
10
40.4053
20
-63.857
11
40.4529
21
-63.9523
0
LINE
8
BLACK
6
CONTINUOUS
10
40.4529
20
-63.9523
11
40.4529
21
-64.1427
0
LINE
8
BLACK
6
CONTINUOUS
10
40.4529
20
-64.1427
11
40.5005
21
-64.238
0
LINE
8
BLACK
6
CONTINUOUS
10
40.5005
20
-64.238
11
40.5481
21
-64.2856
0
LINE
8
BLACK
6
CONTINUOUS
10
40.5481
20
-64.2856
11
40.6434
21
-64.3332
0
LINE
8
BLACK
6
CONTINUOUS
10
40.6434
20
-64.3332
11
40.8339
21
-64.3332
0
LINE
8
BLACK
6
CONTINUOUS
10
40.8339
20
-64.3332
11
40.9291
21
-64.2856
0
LINE
8
BLACK
6
CONTINUOUS
10
40.9291
20
-64.2856
11
40.9767
21
-64.238
0
LINE
8
BLACK
6
CONTINUOUS
10
40.9767
20
-64.238
11
41.0243
21
-64.1427
0
LINE
8
BLACK
6
CONTINUOUS
10
41.0243
20
-64.1427
11
41.0243
21
-63.9523
0
LINE
8
BLACK
6
CONTINUOUS
10
41.0243
20
-63.9523
11
40.9767
21
-63.857
0
LINE
8
BLACK
6
CONTINUOUS
10
40.9767
20
-63.857
11
40.9291
21
-63.8094
0
LINE
8
BLACK
6
CONTINUOUS
10
40.9291
20
-63.8094
11
40.8339
21
-63.7618
0
LINE
8
BLACK
6
CONTINUOUS
10
40.8339
20
-63.7618
11
40.6434
21
-63.7618
0
LINE
8
BLACK
6
CONTINUOUS
10
40.6434
20
-63.7618
11
40.5481
21
-63.8094
0
LINE
8
BLACK
6
CONTINUOUS
10
40.5481
20
-63.8094
11
40.5005
21
-63.857
0
LINE
8
BLACK
6
CONTINUOUS
10
40.5005
20
-63.857
11
40.4529
21
-63.9523
0
LINE
8
BLACK
6
CONTINUOUS
10
40.0243
20
-62.857
11
40.0243
21
-63.3332
0
LINE
8
BLACK
6
CONTINUOUS
10
40.0243
20
-63.3332
11
40.5005
21
-63.3808
0
LINE
8
BLACK
6
CONTINUOUS
10
40.5005
20
-63.3808
11
40.4529
21
-63.3332
0
LINE
8
BLACK
6
CONTINUOUS
10
40.4529
20
-63.3332
11
40.4053
21
-63.238
0
LINE
8
BLACK
6
CONTINUOUS
10
40.4053
20
-63.238
11
40.4053
21
-62.9999
0
LINE
8
BLACK
6
CONTINUOUS
10
40.4053
20
-62.9999
11
40.4529
21
-62.9046
0
LINE
8
BLACK
6
CONTINUOUS
10
40.4529
20
-62.9046
11
40.5005
21
-62.857
0
LINE
8
BLACK
6
CONTINUOUS
10
40.5005
20
-62.857
11
40.5958
21
-62.8094
0
LINE
8
BLACK
6
CONTINUOUS
10
40.5958
20
-62.8094
11
40.8339
21
-62.8094
0
LINE
8
BLACK
6
CONTINUOUS
10
40.8339
20
-62.8094
11
40.9291
21
-62.857
0
LINE
8
BLACK
6
CONTINUOUS
10
40.9291
20
-62.857
11
40.9767
21
-62.9046
0
LINE
8
BLACK
6
CONTINUOUS
10
40.9767
20
-62.9046
11
41.0243
21
-62.9999
0
LINE
8
BLACK
6
CONTINUOUS
10
41.0243
20
-62.9999
11
41.0243
21
-63.238
0
LINE
8
BLACK
6
CONTINUOUS
10
41.0243
20
-63.238
11
40.9767
21
-63.3332
0
LINE
8
BLACK
6
CONTINUOUS
10
40.9767
20
-63.3332
11
40.9291
21
-63.3808
0
LINE
8
BLACK
6
CONTINUOUS
10
41.0243
20
-61.6189
11
40.3577
21
-61.6189
0
LINE
8
BLACK
6
CONTINUOUS
10
40.4529
20
-61.6189
11
40.4053
21
-61.5713
0
LINE
8
BLACK
6
CONTINUOUS
10
40.4053
20
-61.5713
11
40.3577
21
-61.4761
0
LINE
8
BLACK
6
CONTINUOUS
10
40.3577
20
-61.4761
11
40.3577
21
-61.3332
0
LINE
8
BLACK
6
CONTINUOUS
10
40.3577
20
-61.3332
11
40.4053
21
-61.238
0
LINE
8
BLACK
6
CONTINUOUS
10
40.4053
20
-61.238
11
40.5005
21
-61.1904
0
LINE
8
BLACK
6
CONTINUOUS
10
40.5005
20
-61.1904
11
41.0243
21
-61.1904
0
LINE
8
BLACK
6
CONTINUOUS
10
40.5005
20
-61.1904
11
40.4053
21
-61.1427
0
LINE
8
BLACK
6
CONTINUOUS
10
40.4053
20
-61.1427
11
40.3577
21
-61.0475
0
LINE
8
BLACK
6
CONTINUOUS
10
40.3577
20
-61.0475
11
40.3577
21
-60.9046
0
LINE
8
BLACK
6
CONTINUOUS
10
40.3577
20
-60.9046
11
40.4053
21
-60.8094
0
LINE
8
BLACK
6
CONTINUOUS
10
40.4053
20
-60.8094
11
40.5005
21
-60.7618
0
LINE
8
BLACK
6
CONTINUOUS
10
40.5005
20
-60.7618
11
41.0243
21
-60.7618
0
LINE
8
BLACK
6
CONTINUOUS
10
41.0243
20
-60.2856
11
40.3577
21
-60.2856
0
LINE
8
BLACK
6
CONTINUOUS
10
40.4529
20
-60.2856
11
40.4053
21
-60.238
0
LINE
8
BLACK
6
CONTINUOUS
10
40.4053
20
-60.238
11
40.3577
21
-60.1427
0
LINE
8
BLACK
6
CONTINUOUS
10
40.3577
20
-60.1427
11
40.3577
21
-59.9999
0
LINE
8
BLACK
6
CONTINUOUS
10
40.3577
20
-59.9999
11
40.4053
21
-59.9046
0
LINE
8
BLACK
6
CONTINUOUS
10
40.4053
20
-59.9046
11
40.5005
21
-59.857
0
LINE
8
BLACK
6
CONTINUOUS
10
40.5005
20
-59.857
11
41.0243
21
-59.857
0
LINE
8
BLACK
6
CONTINUOUS
10
40.5005
20
-59.857
11
40.4053
21
-59.8094
0
LINE
8
BLACK
6
CONTINUOUS
10
40.4053
20
-59.8094
11
40.3577
21
-59.7142
0
LINE
8
BLACK
6
CONTINUOUS
10
40.3577
20
-59.7142
11
40.3577
21
-59.5713
0
LINE
8
BLACK
6
CONTINUOUS
10
40.3577
20
-59.5713
11
40.4053
21
-59.4761
0
LINE
8
BLACK
6
CONTINUOUS
10
40.4053
20
-59.4761
11
40.5005
21
-59.4285
0
LINE
8
BLACK
6
CONTINUOUS
10
40.5005
20
-59.4285
11
41.0243
21
-59.4285
0
LINE
8
BLACK
6
CONTINUOUS
10
39.3719
20
-66.19
11
39.3719
21
-59.905
0
LINE
8
BLACK
6
CONTINUOUS
10
38.1525
20
-66.19
11
39.9584
21
-66.19
0
LINE
8
BLACK
6
CONTINUOUS
10
38.1525
20
-59.905
11
39.9584
21
-59.905
0
LINE
8
BLACK
6
CONTINUOUS
10
39.3719
20
-59.905
11
39.9584
21
-61.0315
0
LINE
8
BLACK
6
CONTINUOUS
10
39.3719
20
-59.905
11
38.7855
21
-61.0315
0
LINE
8
BLACK
6
CONTINUOUS
10
39.3719
20
-66.19
11
39.9584
21
-65.0635
0
LINE
8
BLACK
6
CONTINUOUS
10
39.3719
20
-66.19
11
38.7855
21
-65.0635
0
LINE
8
BLACK
6
CONTINUOUS
10
3.36696
20
-57.3174
11
2.79553
21
-57.3174
0
LINE
8
BLACK
6
CONTINUOUS
10
3.08125
20
-57.3174
11
3.08125
21
-56.3174
0
LINE
8
BLACK
6
CONTINUOUS
10
3.08125
20
-56.3174
11
2.98601
21
-56.4602
0
LINE
8
BLACK
6
CONTINUOUS
10
2.98601
20
-56.4602
11
2.89077
21
-56.5555
0
LINE
8
BLACK
6
CONTINUOUS
10
2.89077
20
-56.5555
11
2.79553
21
-56.6031
0
LINE
8
BLACK
6
CONTINUOUS
10
3.79553
20
-57.2221
11
3.84315
21
-57.2698
0
LINE
8
BLACK
6
CONTINUOUS
10
3.84315
20
-57.2698
11
3.79553
21
-57.3174
0
LINE
8
BLACK
6
CONTINUOUS
10
3.79553
20
-57.3174
11
3.74791
21
-57.2698
0
LINE
8
BLACK
6
CONTINUOUS
10
3.74791
20
-57.2698
11
3.79553
21
-57.2221
0
LINE
8
BLACK
6
CONTINUOUS
10
3.79553
20
-57.2221
11
3.79553
21
-57.3174
0
LINE
8
BLACK
6
CONTINUOUS
10
4.17648
20
-56.3174
11
4.84315
21
-56.3174
0
LINE
8
BLACK
6
CONTINUOUS
10
4.84315
20
-56.3174
11
4.41458
21
-57.3174
0
LINE
8
BLACK
6
CONTINUOUS
10
5.17648
20
-56.4126
11
5.2241
21
-56.365
0
LINE
8
BLACK
6
CONTINUOUS
10
5.2241
20
-56.365
11
5.31934
21
-56.3174
0
LINE
8
BLACK
6
CONTINUOUS
10
5.31934
20
-56.3174
11
5.55744
21
-56.3174
0
LINE
8
BLACK
6
CONTINUOUS
10
5.55744
20
-56.3174
11
5.65268
21
-56.365
0
LINE
8
BLACK
6
CONTINUOUS
10
5.65268
20
-56.365
11
5.70029
21
-56.4126
0
LINE
8
BLACK
6
CONTINUOUS
10
5.70029
20
-56.4126
11
5.74791
21
-56.5079
0
LINE
8
BLACK
6
CONTINUOUS
10
5.74791
20
-56.5079
11
5.74791
21
-56.6031
0
LINE
8
BLACK
6
CONTINUOUS
10
5.74791
20
-56.6031
11
5.70029
21
-56.746
0
LINE
8
BLACK
6
CONTINUOUS
10
5.70029
20
-56.746
11
5.12887
21
-57.3174
0
LINE
8
BLACK
6
CONTINUOUS
10
5.12887
20
-57.3174
11
5.74791
21
-57.3174
0
LINE
8
BLACK
6
CONTINUOUS
10
6.65268
20
-56.3174
11
6.17648
21
-56.3174
0
LINE
8
BLACK
6
CONTINUOUS
10
6.17648
20
-56.3174
11
6.12887
21
-56.7936
0
LINE
8
BLACK
6
CONTINUOUS
10
6.12887
20
-56.7936
11
6.17648
21
-56.746
0
LINE
8
BLACK
6
CONTINUOUS
10
6.17648
20
-56.746
11
6.27172
21
-56.6983
0
LINE
8
BLACK
6
CONTINUOUS
10
6.27172
20
-56.6983
11
6.50982
21
-56.6983
0
LINE
8
BLACK
6
CONTINUOUS
10
6.50982
20
-56.6983
11
6.60506
21
-56.746
0
LINE
8
BLACK
6
CONTINUOUS
10
6.60506
20
-56.746
11
6.65268
21
-56.7936
0
LINE
8
BLACK
6
CONTINUOUS
10
6.65268
20
-56.7936
11
6.70029
21
-56.8888
0
LINE
8
BLACK
6
CONTINUOUS
10
6.70029
20
-56.8888
11
6.70029
21
-57.1269
0
LINE
8
BLACK
6
CONTINUOUS
10
6.70029
20
-57.1269
11
6.65268
21
-57.2221
0
LINE
8
BLACK
6
CONTINUOUS
10
6.65268
20
-57.2221
11
6.60506
21
-57.2698
0
LINE
8
BLACK
6
CONTINUOUS
10
6.60506
20
-57.2698
11
6.50982
21
-57.3174
0
LINE
8
BLACK
6
CONTINUOUS
10
6.50982
20
-57.3174
11
6.27172
21
-57.3174
0
LINE
8
BLACK
6
CONTINUOUS
10
6.27172
20
-57.3174
11
6.17648
21
-57.2698
0
LINE
8
BLACK
6
CONTINUOUS
10
6.17648
20
-57.2698
11
6.12887
21
-57.2221
0
LINE
8
BLACK
6
CONTINUOUS
10
7.89077
20
-57.3174
11
7.89077
21
-56.6507
0
LINE
8
BLACK
6
CONTINUOUS
10
7.89077
20
-56.746
11
7.93839
21
-56.6983
0
LINE
8
BLACK
6
CONTINUOUS
10
7.93839
20
-56.6983
11
8.03363
21
-56.6507
0
LINE
8
BLACK
6
CONTINUOUS
10
8.03363
20
-56.6507
11
8.17648
21
-56.6507
0
LINE
8
BLACK
6
CONTINUOUS
10
8.17648
20
-56.6507
11
8.27172
21
-56.6983
0
LINE
8
BLACK
6
CONTINUOUS
10
8.27172
20
-56.6983
11
8.31934
21
-56.7936
0
LINE
8
BLACK
6
CONTINUOUS
10
8.31934
20
-56.7936
11
8.31934
21
-57.3174
0
LINE
8
BLACK
6
CONTINUOUS
10
8.31934
20
-56.7936
11
8.36696
21
-56.6983
0
LINE
8
BLACK
6
CONTINUOUS
10
8.36696
20
-56.6983
11
8.4622
21
-56.6507
0
LINE
8
BLACK
6
CONTINUOUS
10
8.4622
20
-56.6507
11
8.60506
21
-56.6507
0
LINE
8
BLACK
6
CONTINUOUS
10
8.60506
20
-56.6507
11
8.70029
21
-56.6983
0
LINE
8
BLACK
6
CONTINUOUS
10
8.70029
20
-56.6983
11
8.74791
21
-56.7936
0
LINE
8
BLACK
6
CONTINUOUS
10
8.74791
20
-56.7936
11
8.74791
21
-57.3174
0
LINE
8
BLACK
6
CONTINUOUS
10
9.2241
20
-57.3174
11
9.2241
21
-56.6507
0
LINE
8
BLACK
6
CONTINUOUS
10
9.2241
20
-56.746
11
9.27172
21
-56.6983
0
LINE
8
BLACK
6
CONTINUOUS
10
9.27172
20
-56.6983
11
9.36696
21
-56.6507
0
LINE
8
BLACK
6
CONTINUOUS
10
9.36696
20
-56.6507
11
9.50982
21
-56.6507
0
LINE
8
BLACK
6
CONTINUOUS
10
9.50982
20
-56.6507
11
9.60506
21
-56.6983
0
LINE
8
BLACK
6
CONTINUOUS
10
9.60506
20
-56.6983
11
9.65268
21
-56.7936
0
LINE
8
BLACK
6
CONTINUOUS
10
9.65268
20
-56.7936
11
9.65268
21
-57.3174
0
LINE
8
BLACK
6
CONTINUOUS
10
9.65268
20
-56.7936
11
9.70029
21
-56.6983
0
LINE
8
BLACK
6
CONTINUOUS
10
9.70029
20
-56.6983
11
9.79553
21
-56.6507
0
LINE
8
BLACK
6
CONTINUOUS
10
9.79553
20
-56.6507
11
9.93839
21
-56.6507
0
LINE
8
BLACK
6
CONTINUOUS
10
9.93839
20
-56.6507
11
10.0336
21
-56.6983
0
LINE
8
BLACK
6
CONTINUOUS
10
10.0336
20
-56.6983
11
10.0812
21
-56.7936
0
LINE
8
BLACK
6
CONTINUOUS
10
10.0812
20
-56.7936
11
10.0812
21
-57.3174
0
LINE
8
BLACK
6
CONTINUOUS
10
5.5997
20
-58.065
11
7.3247
21
-58.065
0
LINE
8
BLACK
6
CONTINUOUS
10
5.5997
20
-58.405
11
5.5997
21
-57.4786
0
LINE
8
BLACK
6
CONTINUOUS
10
7.3247
20
-58.405
11
7.3247
21
-57.4786
0
LINE
8
BLACK
6
CONTINUOUS
10
7.3247
20
-58.065
11
6.1982
21
-58.6514
0
LINE
8
BLACK
6
CONTINUOUS
10
7.3247
20
-58.065
11
6.1982
21
-57.4786
0
LINE
8
BLACK
6
CONTINUOUS
10
5.5997
20
-58.065
11
6.7262
21
-58.6514
0
LINE
8
BLACK
6
CONTINUOUS
10
5.5997
20
-58.065
11
6.7262
21
-57.4786
0
LINE
8
BLACK
6
CONTINUOUS
10
5.5997
20
-68.975
11
4.7747
21
-68.975
0
LINE
8
BLACK
6
CONTINUOUS
10
2.81433
20
-69.6264
11
2.81433
21
-70.1979
0
LINE
8
BLACK
6
CONTINUOUS
10
2.81433
20
-69.9121
11
1.81433
21
-69.9121
0
LINE
8
BLACK
6
CONTINUOUS
10
1.81433
20
-69.9121
11
1.95719
21
-70.0074
0
LINE
8
BLACK
6
CONTINUOUS
10
1.95719
20
-70.0074
11
2.05243
21
-70.1026
0
LINE
8
BLACK
6
CONTINUOUS
10
2.05243
20
-70.1026
11
2.10004
21
-70.1979
0
LINE
8
BLACK
6
CONTINUOUS
10
1.90957
20
-69.2455
11
1.86195
21
-69.1979
0
LINE
8
BLACK
6
CONTINUOUS
10
1.86195
20
-69.1979
11
1.81433
21
-69.1026
0
LINE
8
BLACK
6
CONTINUOUS
10
1.81433
20
-69.1026
11
1.81433
21
-68.8645
0
LINE
8
BLACK
6
CONTINUOUS
10
1.81433
20
-68.8645
11
1.86195
21
-68.7693
0
LINE
8
BLACK
6
CONTINUOUS
10
1.86195
20
-68.7693
11
1.90957
21
-68.7217
0
LINE
8
BLACK
6
CONTINUOUS
10
1.90957
20
-68.7217
11
2.00481
21
-68.674
0
LINE
8
BLACK
6
CONTINUOUS
10
2.00481
20
-68.674
11
2.10004
21
-68.674
0
LINE
8
BLACK
6
CONTINUOUS
10
2.10004
20
-68.674
11
2.2429
21
-68.7217
0
LINE
8
BLACK
6
CONTINUOUS
10
2.2429
20
-68.7217
11
2.81433
21
-69.2931
0
LINE
8
BLACK
6
CONTINUOUS
10
2.81433
20
-69.2931
11
2.81433
21
-68.674
0
LINE
8
BLACK
6
CONTINUOUS
10
2.71909
20
-68.2455
11
2.76671
21
-68.1979
0
LINE
8
BLACK
6
CONTINUOUS
10
2.76671
20
-68.1979
11
2.81433
21
-68.2455
0
LINE
8
BLACK
6
CONTINUOUS
10
2.81433
20
-68.2455
11
2.76671
21
-68.2931
0
LINE
8
BLACK
6
CONTINUOUS
10
2.76671
20
-68.2931
11
2.71909
21
-68.2455
0
LINE
8
BLACK
6
CONTINUOUS
10
2.71909
20
-68.2455
11
2.81433
21
-68.2455
0
LINE
8
BLACK
6
CONTINUOUS
10
1.81433
20
-67.8645
11
1.81433
21
-67.2455
0
LINE
8
BLACK
6
CONTINUOUS
10
1.81433
20
-67.2455
11
2.19528
21
-67.5788
0
LINE
8
BLACK
6
CONTINUOUS
10
2.19528
20
-67.5788
11
2.19528
21
-67.436
0
LINE
8
BLACK
6
CONTINUOUS
10
2.19528
20
-67.436
11
2.2429
21
-67.3407
0
LINE
8
BLACK
6
CONTINUOUS
10
2.2429
20
-67.3407
11
2.29052
21
-67.2931
0
LINE
8
BLACK
6
CONTINUOUS
10
2.29052
20
-67.2931
11
2.38576
21
-67.2455
0
LINE
8
BLACK
6
CONTINUOUS
10
2.38576
20
-67.2455
11
2.62385
21
-67.2455
0
LINE
8
BLACK
6
CONTINUOUS
10
2.62385
20
-67.2455
11
2.71909
21
-67.2931
0
LINE
8
BLACK
6
CONTINUOUS
10
2.71909
20
-67.2931
11
2.76671
21
-67.3407
0
LINE
8
BLACK
6
CONTINUOUS
10
2.76671
20
-67.3407
11
2.81433
21
-67.436
0
LINE
8
BLACK
6
CONTINUOUS
10
2.81433
20
-67.436
11
2.81433
21
-67.7217
0
LINE
8
BLACK
6
CONTINUOUS
10
2.81433
20
-67.7217
11
2.76671
21
-67.8169
0
LINE
8
BLACK
6
CONTINUOUS
10
2.76671
20
-67.8169
11
2.71909
21
-67.8645
0
LINE
8
BLACK
6
CONTINUOUS
10
1.81433
20
-66.6264
11
1.81433
21
-66.5312
0
LINE
8
BLACK
6
CONTINUOUS
10
1.81433
20
-66.5312
11
1.86195
21
-66.436
0
LINE
8
BLACK
6
CONTINUOUS
10
1.86195
20
-66.436
11
1.90957
21
-66.3883
0
LINE
8
BLACK
6
CONTINUOUS
10
1.90957
20
-66.3883
11
2.00481
21
-66.3407
0
LINE
8
BLACK
6
CONTINUOUS
10
2.00481
20
-66.3407
11
2.19528
21
-66.2931
0
LINE
8
BLACK
6
CONTINUOUS
10
2.19528
20
-66.2931
11
2.43338
21
-66.2931
0
LINE
8
BLACK
6
CONTINUOUS
10
2.43338
20
-66.2931
11
2.62385
21
-66.3407
0
LINE
8
BLACK
6
CONTINUOUS
10
2.62385
20
-66.3407
11
2.71909
21
-66.3883
0
LINE
8
BLACK
6
CONTINUOUS
10
2.71909
20
-66.3883
11
2.76671
21
-66.436
0
LINE
8
BLACK
6
CONTINUOUS
10
2.76671
20
-66.436
11
2.81433
21
-66.5312
0
LINE
8
BLACK
6
CONTINUOUS
10
2.81433
20
-66.5312
11
2.81433
21
-66.6264
0
LINE
8
BLACK
6
CONTINUOUS
10
2.81433
20
-66.6264
11
2.76671
21
-66.7217
0
LINE
8
BLACK
6
CONTINUOUS
10
2.76671
20
-66.7217
11
2.71909
21
-66.7693
0
LINE
8
BLACK
6
CONTINUOUS
10
2.71909
20
-66.7693
11
2.62385
21
-66.8169
0
LINE
8
BLACK
6
CONTINUOUS
10
2.62385
20
-66.8169
11
2.43338
21
-66.8645
0
LINE
8
BLACK
6
CONTINUOUS
10
2.43338
20
-66.8645
11
2.19528
21
-66.8645
0
LINE
8
BLACK
6
CONTINUOUS
10
2.19528
20
-66.8645
11
2.00481
21
-66.8169
0
LINE
8
BLACK
6
CONTINUOUS
10
2.00481
20
-66.8169
11
1.90957
21
-66.7693
0
LINE
8
BLACK
6
CONTINUOUS
10
1.90957
20
-66.7693
11
1.86195
21
-66.7217
0
LINE
8
BLACK
6
CONTINUOUS
10
1.86195
20
-66.7217
11
1.81433
21
-66.6264
0
LINE
8
BLACK
6
CONTINUOUS
10
1.81433
20
-65.674
11
1.81433
21
-65.5788
0
LINE
8
BLACK
6
CONTINUOUS
10
1.81433
20
-65.5788
11
1.86195
21
-65.4836
0
LINE
8
BLACK
6
CONTINUOUS
10
1.86195
20
-65.4836
11
1.90957
21
-65.436
0
LINE
8
BLACK
6
CONTINUOUS
10
1.90957
20
-65.436
11
2.00481
21
-65.3883
0
LINE
8
BLACK
6
CONTINUOUS
10
2.00481
20
-65.3883
11
2.19528
21
-65.3407
0
LINE
8
BLACK
6
CONTINUOUS
10
2.19528
20
-65.3407
11
2.43338
21
-65.3407
0
LINE
8
BLACK
6
CONTINUOUS
10
2.43338
20
-65.3407
11
2.62385
21
-65.3883
0
LINE
8
BLACK
6
CONTINUOUS
10
2.62385
20
-65.3883
11
2.71909
21
-65.436
0
LINE
8
BLACK
6
CONTINUOUS
10
2.71909
20
-65.436
11
2.76671
21
-65.4836
0
LINE
8
BLACK
6
CONTINUOUS
10
2.76671
20
-65.4836
11
2.81433
21
-65.5788
0
LINE
8
BLACK
6
CONTINUOUS
10
2.81433
20
-65.5788
11
2.81433
21
-65.674
0
LINE
8
BLACK
6
CONTINUOUS
10
2.81433
20
-65.674
11
2.76671
21
-65.7693
0
LINE
8
BLACK
6
CONTINUOUS
10
2.76671
20
-65.7693
11
2.71909
21
-65.8169
0
LINE
8
BLACK
6
CONTINUOUS
10
2.71909
20
-65.8169
11
2.62385
21
-65.8645
0
LINE
8
BLACK
6
CONTINUOUS
10
2.62385
20
-65.8645
11
2.43338
21
-65.9121
0
LINE
8
BLACK
6
CONTINUOUS
10
2.43338
20
-65.9121
11
2.19528
21
-65.9121
0
LINE
8
BLACK
6
CONTINUOUS
10
2.19528
20
-65.9121
11
2.00481
21
-65.8645
0
LINE
8
BLACK
6
CONTINUOUS
10
2.00481
20
-65.8645
11
1.90957
21
-65.8169
0
LINE
8
BLACK
6
CONTINUOUS
10
1.90957
20
-65.8169
11
1.86195
21
-65.7693
0
LINE
8
BLACK
6
CONTINUOUS
10
1.86195
20
-65.7693
11
1.81433
21
-65.674
0
LINE
8
BLACK
6
CONTINUOUS
10
2.81433
20
-64.1502
11
2.14766
21
-64.1502
0
LINE
8
BLACK
6
CONTINUOUS
10
2.2429
20
-64.1502
11
2.19528
21
-64.1026
0
LINE
8
BLACK
6
CONTINUOUS
10
2.19528
20
-64.1026
11
2.14766
21
-64.0074
0
LINE
8
BLACK
6
CONTINUOUS
10
2.14766
20
-64.0074
11
2.14766
21
-63.8645
0
LINE
8
BLACK
6
CONTINUOUS
10
2.14766
20
-63.8645
11
2.19528
21
-63.7693
0
LINE
8
BLACK
6
CONTINUOUS
10
2.19528
20
-63.7693
11
2.29052
21
-63.7217
0
LINE
8
BLACK
6
CONTINUOUS
10
2.29052
20
-63.7217
11
2.81433
21
-63.7217
0
LINE
8
BLACK
6
CONTINUOUS
10
2.29052
20
-63.7217
11
2.19528
21
-63.674
0
LINE
8
BLACK
6
CONTINUOUS
10
2.19528
20
-63.674
11
2.14766
21
-63.5788
0
LINE
8
BLACK
6
CONTINUOUS
10
2.14766
20
-63.5788
11
2.14766
21
-63.436
0
LINE
8
BLACK
6
CONTINUOUS
10
2.14766
20
-63.436
11
2.19528
21
-63.3407
0
LINE
8
BLACK
6
CONTINUOUS
10
2.19528
20
-63.3407
11
2.29052
21
-63.2931
0
LINE
8
BLACK
6
CONTINUOUS
10
2.29052
20
-63.2931
11
2.81433
21
-63.2931
0
LINE
8
BLACK
6
CONTINUOUS
10
2.81433
20
-62.8169
11
2.14766
21
-62.8169
0
LINE
8
BLACK
6
CONTINUOUS
10
2.2429
20
-62.8169
11
2.19528
21
-62.7693
0
LINE
8
BLACK
6
CONTINUOUS
10
2.19528
20
-62.7693
11
2.14766
21
-62.674
0
LINE
8
BLACK
6
CONTINUOUS
10
2.14766
20
-62.674
11
2.14766
21
-62.5312
0
LINE
8
BLACK
6
CONTINUOUS
10
2.14766
20
-62.5312
11
2.19528
21
-62.436
0
LINE
8
BLACK
6
CONTINUOUS
10
2.19528
20
-62.436
11
2.29052
21
-62.3883
0
LINE
8
BLACK
6
CONTINUOUS
10
2.29052
20
-62.3883
11
2.81433
21
-62.3883
0
LINE
8
BLACK
6
CONTINUOUS
10
2.29052
20
-62.3883
11
2.19528
21
-62.3407
0
LINE
8
BLACK
6
CONTINUOUS
10
2.19528
20
-62.3407
11
2.14766
21
-62.2455
0
LINE
8
BLACK
6
CONTINUOUS
10
2.14766
20
-62.2455
11
2.14766
21
-62.1026
0
LINE
8
BLACK
6
CONTINUOUS
10
2.14766
20
-62.1026
11
2.19528
21
-62.0074
0
LINE
8
BLACK
6
CONTINUOUS
10
2.19528
20
-62.0074
11
2.29052
21
-61.9598
0
LINE
8
BLACK
6
CONTINUOUS
10
2.29052
20
-61.9598
11
2.81433
21
-61.9598
0
LINE
8
BLACK
6
CONTINUOUS
10
3.56195
20
-59.905
11
3.56195
21
-72.205
0
LINE
8
BLACK
6
CONTINUOUS
10
4.5997
20
-59.905
11
2.97553
21
-59.905
0
LINE
8
BLACK
6
CONTINUOUS
10
4.5997
20
-72.205
11
2.97553
21
-72.205
0
LINE
8
BLACK
6
CONTINUOUS
10
3.56195
20
-72.205
11
2.97553
21
-71.0785
0
LINE
8
BLACK
6
CONTINUOUS
10
3.56195
20
-72.205
11
4.14837
21
-71.0785
0
LINE
8
BLACK
6
CONTINUOUS
10
3.56195
20
-59.905
11
2.97553
21
-61.0315
0
LINE
8
BLACK
6
CONTINUOUS
10
3.56195
20
-59.905
11
4.14837
21
-61.0315
0
LINE
8
BLACK
6
CONTINUOUS
10
5.78422
20
-73.4574
11
5.59375
21
-73.4574
0
LINE
8
BLACK
6
CONTINUOUS
10
5.59375
20
-73.4574
11
5.49851
21
-73.505
0
LINE
8
BLACK
6
CONTINUOUS
10
5.49851
20
-73.505
11
5.45089
21
-73.5526
0
LINE
8
BLACK
6
CONTINUOUS
10
5.45089
20
-73.5526
11
5.35565
21
-73.6955
0
LINE
8
BLACK
6
CONTINUOUS
10
5.35565
20
-73.6955
11
5.30803
21
-73.886
0
LINE
8
BLACK
6
CONTINUOUS
10
5.30803
20
-73.886
11
5.30803
21
-74.2669
0
LINE
8
BLACK
6
CONTINUOUS
10
5.30803
20
-74.2669
11
5.35565
21
-74.3621
0
LINE
8
BLACK
6
CONTINUOUS
10
5.35565
20
-74.3621
11
5.40327
21
-74.4098
0
LINE
8
BLACK
6
CONTINUOUS
10
5.40327
20
-74.4098
11
5.49851
21
-74.4574
0
LINE
8
BLACK
6
CONTINUOUS
10
5.49851
20
-74.4574
11
5.68898
21
-74.4574
0
LINE
8
BLACK
6
CONTINUOUS
10
5.68898
20
-74.4574
11
5.78422
21
-74.4098
0
LINE
8
BLACK
6
CONTINUOUS
10
5.78422
20
-74.4098
11
5.83184
21
-74.3621
0
LINE
8
BLACK
6
CONTINUOUS
10
5.83184
20
-74.3621
11
5.87946
21
-74.2669
0
LINE
8
BLACK
6
CONTINUOUS
10
5.87946
20
-74.2669
11
5.87946
21
-74.0288
0
LINE
8
BLACK
6
CONTINUOUS
10
5.87946
20
-74.0288
11
5.83184
21
-73.9336
0
LINE
8
BLACK
6
CONTINUOUS
10
5.83184
20
-73.9336
11
5.78422
21
-73.886
0
LINE
8
BLACK
6
CONTINUOUS
10
5.78422
20
-73.886
11
5.68898
21
-73.8383
0
LINE
8
BLACK
6
CONTINUOUS
10
5.68898
20
-73.8383
11
5.49851
21
-73.8383
0
LINE
8
BLACK
6
CONTINUOUS
10
5.49851
20
-73.8383
11
5.40327
21
-73.886
0
LINE
8
BLACK
6
CONTINUOUS
10
5.40327
20
-73.886
11
5.35565
21
-73.9336
0
LINE
8
BLACK
6
CONTINUOUS
10
5.35565
20
-73.9336
11
5.30803
21
-74.0288
0
LINE
8
BLACK
6
CONTINUOUS
10
6.30803
20
-74.3621
11
6.35565
21
-74.4098
0
LINE
8
BLACK
6
CONTINUOUS
10
6.35565
20
-74.4098
11
6.30803
21
-74.4574
0
LINE
8
BLACK
6
CONTINUOUS
10
6.30803
20
-74.4574
11
6.26041
21
-74.4098
0
LINE
8
BLACK
6
CONTINUOUS
10
6.26041
20
-74.4098
11
6.30803
21
-74.3621
0
LINE
8
BLACK
6
CONTINUOUS
10
6.30803
20
-74.3621
11
6.30803
21
-74.4574
0
LINE
8
BLACK
6
CONTINUOUS
10
6.68898
20
-73.4574
11
7.35565
21
-73.4574
0
LINE
8
BLACK
6
CONTINUOUS
10
7.35565
20
-73.4574
11
6.92708
21
-74.4574
0
LINE
8
BLACK
6
CONTINUOUS
10
8.21279
20
-73.4574
11
7.7366
21
-73.4574
0
LINE
8
BLACK
6
CONTINUOUS
10
7.7366
20
-73.4574
11
7.68898
21
-73.9336
0
LINE
8
BLACK
6
CONTINUOUS
10
7.68898
20
-73.9336
11
7.7366
21
-73.886
0
LINE
8
BLACK
6
CONTINUOUS
10
7.7366
20
-73.886
11
7.83184
21
-73.8383
0
LINE
8
BLACK
6
CONTINUOUS
10
7.83184
20
-73.8383
11
8.06994
21
-73.8383
0
LINE
8
BLACK
6
CONTINUOUS
10
8.06994
20
-73.8383
11
8.16518
21
-73.886
0
LINE
8
BLACK
6
CONTINUOUS
10
8.16518
20
-73.886
11
8.21279
21
-73.9336
0
LINE
8
BLACK
6
CONTINUOUS
10
8.21279
20
-73.9336
11
8.26041
21
-74.0288
0
LINE
8
BLACK
6
CONTINUOUS
10
8.26041
20
-74.0288
11
8.26041
21
-74.2669
0
LINE
8
BLACK
6
CONTINUOUS
10
8.26041
20
-74.2669
11
8.21279
21
-74.3621
0
LINE
8
BLACK
6
CONTINUOUS
10
8.21279
20
-74.3621
11
8.16518
21
-74.4098
0
LINE
8
BLACK
6
CONTINUOUS
10
8.16518
20
-74.4098
11
8.06994
21
-74.4574
0
LINE
8
BLACK
6
CONTINUOUS
10
8.06994
20
-74.4574
11
7.83184
21
-74.4574
0
LINE
8
BLACK
6
CONTINUOUS
10
7.83184
20
-74.4574
11
7.7366
21
-74.4098
0
LINE
8
BLACK
6
CONTINUOUS
10
7.7366
20
-74.4098
11
7.68898
21
-74.3621
0
LINE
8
BLACK
6
CONTINUOUS
10
8.87946
20
-73.4574
11
8.9747
21
-73.4574
0
LINE
8
BLACK
6
CONTINUOUS
10
8.9747
20
-73.4574
11
9.06994
21
-73.505
0
LINE
8
BLACK
6
CONTINUOUS
10
9.06994
20
-73.505
11
9.11756
21
-73.5526
0
LINE
8
BLACK
6
CONTINUOUS
10
9.11756
20
-73.5526
11
9.16518
21
-73.6479
0
LINE
8
BLACK
6
CONTINUOUS
10
9.16518
20
-73.6479
11
9.21279
21
-73.8383
0
LINE
8
BLACK
6
CONTINUOUS
10
9.21279
20
-73.8383
11
9.21279
21
-74.0764
0
LINE
8
BLACK
6
CONTINUOUS
10
9.21279
20
-74.0764
11
9.16518
21
-74.2669
0
LINE
8
BLACK
6
CONTINUOUS
10
9.16518
20
-74.2669
11
9.11756
21
-74.3621
0
LINE
8
BLACK
6
CONTINUOUS
10
9.11756
20
-74.3621
11
9.06994
21
-74.4098
0
LINE
8
BLACK
6
CONTINUOUS
10
9.06994
20
-74.4098
11
8.9747
21
-74.4574
0
LINE
8
BLACK
6
CONTINUOUS
10
8.9747
20
-74.4574
11
8.87946
21
-74.4574
0
LINE
8
BLACK
6
CONTINUOUS
10
8.87946
20
-74.4574
11
8.78422
21
-74.4098
0
LINE
8
BLACK
6
CONTINUOUS
10
8.78422
20
-74.4098
11
8.7366
21
-74.3621
0
LINE
8
BLACK
6
CONTINUOUS
10
8.7366
20
-74.3621
11
8.68898
21
-74.2669
0
LINE
8
BLACK
6
CONTINUOUS
10
8.68898
20
-74.2669
11
8.64137
21
-74.0764
0
LINE
8
BLACK
6
CONTINUOUS
10
8.64137
20
-74.0764
11
8.64137
21
-73.8383
0
LINE
8
BLACK
6
CONTINUOUS
10
8.64137
20
-73.8383
11
8.68898
21
-73.6479
0
LINE
8
BLACK
6
CONTINUOUS
10
8.68898
20
-73.6479
11
8.7366
21
-73.5526
0
LINE
8
BLACK
6
CONTINUOUS
10
8.7366
20
-73.5526
11
8.78422
21
-73.505
0
LINE
8
BLACK
6
CONTINUOUS
10
8.78422
20
-73.505
11
8.87946
21
-73.4574
0
LINE
8
BLACK
6
CONTINUOUS
10
10.4033
20
-74.4574
11
10.4033
21
-73.7907
0
LINE
8
BLACK
6
CONTINUOUS
10
10.4033
20
-73.886
11
10.4509
21
-73.8383
0
LINE
8
BLACK
6
CONTINUOUS
10
10.4509
20
-73.8383
11
10.5461
21
-73.7907
0
LINE
8
BLACK
6
CONTINUOUS
10
10.5461
20
-73.7907
11
10.689
21
-73.7907
0
LINE
8
BLACK
6
CONTINUOUS
10
10.689
20
-73.7907
11
10.7842
21
-73.8383
0
LINE
8
BLACK
6
CONTINUOUS
10
10.7842
20
-73.8383
11
10.8318
21
-73.9336
0
LINE
8
BLACK
6
CONTINUOUS
10
10.8318
20
-73.9336
11
10.8318
21
-74.4574
0
LINE
8
BLACK
6
CONTINUOUS
10
10.8318
20
-73.9336
11
10.8795
21
-73.8383
0
LINE
8
BLACK
6
CONTINUOUS
10
10.8795
20
-73.8383
11
10.9747
21
-73.7907
0
LINE
8
BLACK
6
CONTINUOUS
10
10.9747
20
-73.7907
11
11.1176
21
-73.7907
0
LINE
8
BLACK
6
CONTINUOUS
10
11.1176
20
-73.7907
11
11.2128
21
-73.8383
0
LINE
8
BLACK
6
CONTINUOUS
10
11.2128
20
-73.8383
11
11.2604
21
-73.9336
0
LINE
8
BLACK
6
CONTINUOUS
10
11.2604
20
-73.9336
11
11.2604
21
-74.4574
0
LINE
8
BLACK
6
CONTINUOUS
10
11.7366
20
-74.4574
11
11.7366
21
-73.7907
0
LINE
8
BLACK
6
CONTINUOUS
10
11.7366
20
-73.886
11
11.7842
21
-73.8383
0
LINE
8
BLACK
6
CONTINUOUS
10
11.7842
20
-73.8383
11
11.8795
21
-73.7907
0
LINE
8
BLACK
6
CONTINUOUS
10
11.8795
20
-73.7907
11
12.0223
21
-73.7907
0
LINE
8
BLACK
6
CONTINUOUS
10
12.0223
20
-73.7907
11
12.1176
21
-73.8383
0
LINE
8
BLACK
6
CONTINUOUS
10
12.1176
20
-73.8383
11
12.1652
21
-73.9336
0
LINE
8
BLACK
6
CONTINUOUS
10
12.1652
20
-73.9336
11
12.1652
21
-74.4574
0
LINE
8
BLACK
6
CONTINUOUS
10
12.1652
20
-73.9336
11
12.2128
21
-73.8383
0
LINE
8
BLACK
6
CONTINUOUS
10
12.2128
20
-73.8383
11
12.308
21
-73.7907
0
LINE
8
BLACK
6
CONTINUOUS
10
12.308
20
-73.7907
11
12.4509
21
-73.7907
0
LINE
8
BLACK
6
CONTINUOUS
10
12.4509
20
-73.7907
11
12.5461
21
-73.8383
0
LINE
8
BLACK
6
CONTINUOUS
10
12.5461
20
-73.8383
11
12.5937
21
-73.9336
0
LINE
8
BLACK
6
CONTINUOUS
10
12.5937
20
-73.9336
11
12.5937
21
-74.4574
0
LINE
8
BLACK
6
CONTINUOUS
10
12.3497
20
-75.205
11
5.5997
21
-75.205
0
LINE
8
BLACK
6
CONTINUOUS
10
12.3497
20
-75.205
11
12.3497
21
-74.6186
0
LINE
8
BLACK
6
CONTINUOUS
10
5.5997
20
-75.205
11
5.5997
21
-74.6186
0
LINE
8
BLACK
6
CONTINUOUS
10
5.5997
20
-75.205
11
6.7262
21
-74.6186
0
LINE
8
BLACK
6
CONTINUOUS
10
5.5997
20
-75.205
11
6.7262
21
-75.7914
0
LINE
8
BLACK
6
CONTINUOUS
10
12.3497
20
-75.205
11
11.2232
21
-74.6186
0
LINE
8
BLACK
6
CONTINUOUS
10
12.3497
20
-75.205
11
11.2232
21
-75.7914
0
LINE
8
BLACK
6
CONTINUOUS
10
10.6244
20
-59.905
11
12.3494
21
-59.905
0
LINE
8
BLACK
6
CONTINUOUS
10
36.1525
20
-72.205
11
29.4024
21
-72.205
0
LINE
8
BLACK
6
CONTINUOUS
10
29.4012
20
-68.975
11
27.8762
21
-68.975
0
LINE
8
BLACK
6
CONTINUOUS
10
7.3247
20
-59.905
11
7.3247
21
-58.705
0
LINE
8
BLACK
6
CONTINUOUS
10
5.5997
20
-72.205
11
5.5997
21
-68.975
0
LINE
8
BLACK
6
CONTINUOUS
10
5.5997
20
-66.19
11
4.7747
21
-66.19
0
LINE
8
BLACK
6
CONTINUOUS
10
36.1525
20
-66.19
11
36.1525
21
-59.905
0
LINE
8
BLACK
6
CONTINUOUS
10
7.3247
20
-58.705
11
10.6247
21
-58.705
0
LINE
8
BLACK
6
CONTINUOUS
10
36.1525
20
-72.205
11
36.1525
21
-68.975
0
LINE
8
BLACK
6
CONTINUOUS
10
4.7747
20
-66.19
11
4.7747
21
-68.975
0
LINE
8
BLACK
6
CONTINUOUS
10
12.3509
20
-68.975
11
12.3509
21
-72.205
0
LINE
8
BLACK
6
CONTINUOUS
10
36.1525
20
-68.975
11
36.9774
21
-68.975
0
LINE
8
BLACK
6
CONTINUOUS
10
36.1525
20
-66.19
11
36.9774
21
-66.19
0
LINE
8
BLACK
6
CONTINUOUS
10
5.5997
20
-66.19
11
5.5997
21
-59.905
0
LINE
8
BLACK
6
CONTINUOUS
10
5.5997
20
-59.905
11
7.3247
21
-59.905
0
LINE
8
BLACK
6
CONTINUOUS
10
5.5997
20
-72.205
11
12.3497
21
-72.205
0
LINE
8
BLACK
6
CONTINUOUS
10
34.4275
20
-59.905
11
34.4275
21
-58.705
0
LINE
8
BLACK
6
CONTINUOUS
10
31.1274
20
-59.905
11
29.4024
21
-59.905
0
LINE
8
BLACK
6
CONTINUOUS
10
34.4275
20
-58.705
11
31.1274
21
-58.705
0
LINE
8
BLACK
6
CONTINUOUS
10
36.1525
20
-59.905
11
34.4275
21
-59.905
0
LINE
8
BLACK
6
CONTINUOUS
10
29.4012
20
-64.375
11
27.8762
21
-64.375
0
LINE
8
BLACK
6
CONTINUOUS
10
29.4012
20
-68.975
11
29.4012
21
-72.205
0
LINE
8
BLACK
6
CONTINUOUS
10
29.4012
20
-59.905
11
29.4012
21
-64.375
0
LINE
8
BLACK
6
CONTINUOUS
10
65.2389
20
-111.736
11
65.2389
21
-112.402
0
LINE
8
BLACK
6
CONTINUOUS
10
65.0008
20
-111.355
11
64.7627
21
-112.069
0
LINE
8
BLACK
6
CONTINUOUS
10
64.7627
20
-112.069
11
65.3818
21
-112.069
0
LINE
8
BLACK
6
CONTINUOUS
10
65.7627
20
-112.307
11
65.8103
21
-112.355
0
LINE
8
BLACK
6
CONTINUOUS
10
65.8103
20
-112.355
11
65.7627
21
-112.402
0
LINE
8
BLACK
6
CONTINUOUS
10
65.7627
20
-112.402
11
65.7151
21
-112.355
0
LINE
8
BLACK
6
CONTINUOUS
10
65.7151
20
-112.355
11
65.7627
21
-112.307
0
LINE
8
BLACK
6
CONTINUOUS
10
65.7627
20
-112.307
11
65.7627
21
-112.402
0
LINE
8
BLACK
6
CONTINUOUS
10
66.2865
20
-112.402
11
66.477
21
-112.402
0
LINE
8
BLACK
6
CONTINUOUS
10
66.477
20
-112.402
11
66.5722
21
-112.355
0
LINE
8
BLACK
6
CONTINUOUS
10
66.5722
20
-112.355
11
66.6199
21
-112.307
0
LINE
8
BLACK
6
CONTINUOUS
10
66.6199
20
-112.307
11
66.7151
21
-112.164
0
LINE
8
BLACK
6
CONTINUOUS
10
66.7151
20
-112.164
11
66.7627
21
-111.974
0
LINE
8
BLACK
6
CONTINUOUS
10
66.7627
20
-111.974
11
66.7627
21
-111.593
0
LINE
8
BLACK
6
CONTINUOUS
10
66.7627
20
-111.593
11
66.7151
21
-111.498
0
LINE
8
BLACK
6
CONTINUOUS
10
66.7151
20
-111.498
11
66.6675
21
-111.45
0
LINE
8
BLACK
6
CONTINUOUS
10
66.6675
20
-111.45
11
66.5722
21
-111.402
0
LINE
8
BLACK
6
CONTINUOUS
10
66.5722
20
-111.402
11
66.3818
21
-111.402
0
LINE
8
BLACK
6
CONTINUOUS
10
66.3818
20
-111.402
11
66.2865
21
-111.45
0
LINE
8
BLACK
6
CONTINUOUS
10
66.2865
20
-111.45
11
66.2389
21
-111.498
0
LINE
8
BLACK
6
CONTINUOUS
10
66.2389
20
-111.498
11
66.1913
21
-111.593
0
LINE
8
BLACK
6
CONTINUOUS
10
66.1913
20
-111.593
11
66.1913
21
-111.831
0
LINE
8
BLACK
6
CONTINUOUS
10
66.1913
20
-111.831
11
66.2389
21
-111.926
0
LINE
8
BLACK
6
CONTINUOUS
10
66.2389
20
-111.926
11
66.2865
21
-111.974
0
LINE
8
BLACK
6
CONTINUOUS
10
66.2865
20
-111.974
11
66.3818
21
-112.021
0
LINE
8
BLACK
6
CONTINUOUS
10
66.3818
20
-112.021
11
66.5722
21
-112.021
0
LINE
8
BLACK
6
CONTINUOUS
10
66.5722
20
-112.021
11
66.6675
21
-111.974
0
LINE
8
BLACK
6
CONTINUOUS
10
66.6675
20
-111.974
11
66.7151
21
-111.926
0
LINE
8
BLACK
6
CONTINUOUS
10
66.7151
20
-111.926
11
66.7627
21
-111.831
0
LINE
8
BLACK
6
CONTINUOUS
10
67.3818
20
-111.402
11
67.477
21
-111.402
0
LINE
8
BLACK
6
CONTINUOUS
10
67.477
20
-111.402
11
67.5722
21
-111.45
0
LINE
8
BLACK
6
CONTINUOUS
10
67.5722
20
-111.45
11
67.6199
21
-111.498
0
LINE
8
BLACK
6
CONTINUOUS
10
67.6199
20
-111.498
11
67.6675
21
-111.593
0
LINE
8
BLACK
6
CONTINUOUS
10
67.6675
20
-111.593
11
67.7151
21
-111.783
0
LINE
8
BLACK
6
CONTINUOUS
10
67.7151
20
-111.783
11
67.7151
21
-112.021
0
LINE
8
BLACK
6
CONTINUOUS
10
67.7151
20
-112.021
11
67.6675
21
-112.212
0
LINE
8
BLACK
6
CONTINUOUS
10
67.6675
20
-112.212
11
67.6199
21
-112.307
0
LINE
8
BLACK
6
CONTINUOUS
10
67.6199
20
-112.307
11
67.5722
21
-112.355
0
LINE
8
BLACK
6
CONTINUOUS
10
67.5722
20
-112.355
11
67.477
21
-112.402
0
LINE
8
BLACK
6
CONTINUOUS
10
67.477
20
-112.402
11
67.3818
21
-112.402
0
LINE
8
BLACK
6
CONTINUOUS
10
67.3818
20
-112.402
11
67.2865
21
-112.355
0
LINE
8
BLACK
6
CONTINUOUS
10
67.2865
20
-112.355
11
67.2389
21
-112.307
0
LINE
8
BLACK
6
CONTINUOUS
10
67.2389
20
-112.307
11
67.1913
21
-112.212
0
LINE
8
BLACK
6
CONTINUOUS
10
67.1913
20
-112.212
11
67.1437
21
-112.021
0
LINE
8
BLACK
6
CONTINUOUS
10
67.1437
20
-112.021
11
67.1437
21
-111.783
0
LINE
8
BLACK
6
CONTINUOUS
10
67.1437
20
-111.783
11
67.1913
21
-111.593
0
LINE
8
BLACK
6
CONTINUOUS
10
67.1913
20
-111.593
11
67.2389
21
-111.498
0
LINE
8
BLACK
6
CONTINUOUS
10
67.2389
20
-111.498
11
67.2865
21
-111.45
0
LINE
8
BLACK
6
CONTINUOUS
10
67.2865
20
-111.45
11
67.3818
21
-111.402
0
LINE
8
BLACK
6
CONTINUOUS
10
68.5722
20
-111.402
11
68.3818
21
-111.402
0
LINE
8
BLACK
6
CONTINUOUS
10
68.3818
20
-111.402
11
68.2865
21
-111.45
0
LINE
8
BLACK
6
CONTINUOUS
10
68.2865
20
-111.45
11
68.2389
21
-111.498
0
LINE
8
BLACK
6
CONTINUOUS
10
68.2389
20
-111.498
11
68.1437
21
-111.64
0
LINE
8
BLACK
6
CONTINUOUS
10
68.1437
20
-111.64
11
68.096
21
-111.831
0
LINE
8
BLACK
6
CONTINUOUS
10
68.096
20
-111.831
11
68.096
21
-112.212
0
LINE
8
BLACK
6
CONTINUOUS
10
68.096
20
-112.212
11
68.1437
21
-112.307
0
LINE
8
BLACK
6
CONTINUOUS
10
68.1437
20
-112.307
11
68.1913
21
-112.355
0
LINE
8
BLACK
6
CONTINUOUS
10
68.1913
20
-112.355
11
68.2865
21
-112.402
0
LINE
8
BLACK
6
CONTINUOUS
10
68.2865
20
-112.402
11
68.477
21
-112.402
0
LINE
8
BLACK
6
CONTINUOUS
10
68.477
20
-112.402
11
68.5722
21
-112.355
0
LINE
8
BLACK
6
CONTINUOUS
10
68.5722
20
-112.355
11
68.6199
21
-112.307
0
LINE
8
BLACK
6
CONTINUOUS
10
68.6199
20
-112.307
11
68.6675
21
-112.212
0
LINE
8
BLACK
6
CONTINUOUS
10
68.6675
20
-112.212
11
68.6675
21
-111.974
0
LINE
8
BLACK
6
CONTINUOUS
10
68.6675
20
-111.974
11
68.6199
21
-111.879
0
LINE
8
BLACK
6
CONTINUOUS
10
68.6199
20
-111.879
11
68.5722
21
-111.831
0
LINE
8
BLACK
6
CONTINUOUS
10
68.5722
20
-111.831
11
68.477
21
-111.783
0
LINE
8
BLACK
6
CONTINUOUS
10
68.477
20
-111.783
11
68.2865
21
-111.783
0
LINE
8
BLACK
6
CONTINUOUS
10
68.2865
20
-111.783
11
68.1913
21
-111.831
0
LINE
8
BLACK
6
CONTINUOUS
10
68.1913
20
-111.831
11
68.1437
21
-111.879
0
LINE
8
BLACK
6
CONTINUOUS
10
68.1437
20
-111.879
11
68.096
21
-111.974
0
LINE
8
BLACK
6
CONTINUOUS
10
69.8579
20
-112.402
11
69.8579
21
-111.736
0
LINE
8
BLACK
6
CONTINUOUS
10
69.8579
20
-111.831
11
69.9056
21
-111.783
0
LINE
8
BLACK
6
CONTINUOUS
10
69.9056
20
-111.783
11
70.0008
21
-111.736
0
LINE
8
BLACK
6
CONTINUOUS
10
70.0008
20
-111.736
11
70.1437
21
-111.736
0
LINE
8
BLACK
6
CONTINUOUS
10
70.1437
20
-111.736
11
70.2389
21
-111.783
0
LINE
8
BLACK
6
CONTINUOUS
10
70.2389
20
-111.783
11
70.2865
21
-111.879
0
LINE
8
BLACK
6
CONTINUOUS
10
70.2865
20
-111.879
11
70.2865
21
-112.402
0
LINE
8
BLACK
6
CONTINUOUS
10
70.2865
20
-111.879
11
70.3341
21
-111.783
0
LINE
8
BLACK
6
CONTINUOUS
10
70.3341
20
-111.783
11
70.4294
21
-111.736
0
LINE
8
BLACK
6
CONTINUOUS
10
70.4294
20
-111.736
11
70.5722
21
-111.736
0
LINE
8
BLACK
6
CONTINUOUS
10
70.5722
20
-111.736
11
70.6675
21
-111.783
0
LINE
8
BLACK
6
CONTINUOUS
10
70.6675
20
-111.783
11
70.7151
21
-111.879
0
LINE
8
BLACK
6
CONTINUOUS
10
70.7151
20
-111.879
11
70.7151
21
-112.402
0
LINE
8
BLACK
6
CONTINUOUS
10
71.1913
20
-112.402
11
71.1913
21
-111.736
0
LINE
8
BLACK
6
CONTINUOUS
10
71.1913
20
-111.831
11
71.2389
21
-111.783
0
LINE
8
BLACK
6
CONTINUOUS
10
71.2389
20
-111.783
11
71.3341
21
-111.736
0
LINE
8
BLACK
6
CONTINUOUS
10
71.3341
20
-111.736
11
71.477
21
-111.736
0
LINE
8
BLACK
6
CONTINUOUS
10
71.477
20
-111.736
11
71.5722
21
-111.783
0
LINE
8
BLACK
6
CONTINUOUS
10
71.5722
20
-111.783
11
71.6199
21
-111.879
0
LINE
8
BLACK
6
CONTINUOUS
10
71.6199
20
-111.879
11
71.6199
21
-112.402
0
LINE
8
BLACK
6
CONTINUOUS
10
71.6199
20
-111.879
11
71.6675
21
-111.783
0
LINE
8
BLACK
6
CONTINUOUS
10
71.6675
20
-111.783
11
71.7627
21
-111.736
0
LINE
8
BLACK
6
CONTINUOUS
10
71.7627
20
-111.736
11
71.9056
21
-111.736
0
LINE
8
BLACK
6
CONTINUOUS
10
71.9056
20
-111.736
11
72.0008
21
-111.783
0
LINE
8
BLACK
6
CONTINUOUS
10
72.0008
20
-111.783
11
72.0484
21
-111.879
0
LINE
8
BLACK
6
CONTINUOUS
10
72.0484
20
-111.879
11
72.0484
21
-112.402
0
LINE
8
BLACK
6
CONTINUOUS
10
70.8825
20
-110.65
11
65.9762
21
-110.65
0
LINE
8
BLACK
6
CONTINUOUS
10
70.8825
20
-108.726
11
70.8825
21
-111.236
0
LINE
8
BLACK
6
CONTINUOUS
10
65.9762
20
-108.726
11
65.9762
21
-111.236
0
LINE
8
BLACK
6
CONTINUOUS
10
65.9762
20
-110.65
11
67.1028
21
-110.064
0
LINE
8
BLACK
6
CONTINUOUS
10
65.9762
20
-110.65
11
67.1028
21
-111.236
0
LINE
8
BLACK
6
CONTINUOUS
10
70.8825
20
-110.65
11
69.756
21
-110.064
0
LINE
8
BLACK
6
CONTINUOUS
10
70.8825
20
-110.65
11
69.756
21
-111.236
0
LINE
8
BLACK
6
CONTINUOUS
10
100.553
20
-107.342
11
100.363
21
-107.342
0
LINE
8
BLACK
6
CONTINUOUS
10
100.363
20
-107.342
11
100.268
21
-107.39
0
LINE
8
BLACK
6
CONTINUOUS
10
100.268
20
-107.39
11
100.22
21
-107.438
0
LINE
8
BLACK
6
CONTINUOUS
10
100.22
20
-107.438
11
100.125
21
-107.58
0
LINE
8
BLACK
6
CONTINUOUS
10
100.125
20
-107.58
11
100.077
21
-107.771
0
LINE
8
BLACK
6
CONTINUOUS
10
100.077
20
-107.771
11
100.077
21
-108.152
0
LINE
8
BLACK
6
CONTINUOUS
10
100.077
20
-108.152
11
100.125
21
-108.247
0
LINE
8
BLACK
6
CONTINUOUS
10
100.125
20
-108.247
11
100.172
21
-108.295
0
LINE
8
BLACK
6
CONTINUOUS
10
100.172
20
-108.295
11
100.268
21
-108.342
0
LINE
8
BLACK
6
CONTINUOUS
10
100.268
20
-108.342
11
100.458
21
-108.342
0
LINE
8
BLACK
6
CONTINUOUS
10
100.458
20
-108.342
11
100.553
21
-108.295
0
LINE
8
BLACK
6
CONTINUOUS
10
100.553
20
-108.295
11
100.601
21
-108.247
0
LINE
8
BLACK
6
CONTINUOUS
10
100.601
20
-108.247
11
100.649
21
-108.152
0
LINE
8
BLACK
6
CONTINUOUS
10
100.649
20
-108.152
11
100.649
21
-107.914
0
LINE
8
BLACK
6
CONTINUOUS
10
100.649
20
-107.914
11
100.601
21
-107.819
0
LINE
8
BLACK
6
CONTINUOUS
10
100.601
20
-107.819
11
100.553
21
-107.771
0
LINE
8
BLACK
6
CONTINUOUS
10
100.553
20
-107.771
11
100.458
21
-107.723
0
LINE
8
BLACK
6
CONTINUOUS
10
100.458
20
-107.723
11
100.268
21
-107.723
0
LINE
8
BLACK
6
CONTINUOUS
10
100.268
20
-107.723
11
100.172
21
-107.771
0
LINE
8
BLACK
6
CONTINUOUS
10
100.172
20
-107.771
11
100.125
21
-107.819
0
LINE
8
BLACK
6
CONTINUOUS
10
100.125
20
-107.819
11
100.077
21
-107.914
0
LINE
8
BLACK
6
CONTINUOUS
10
101.506
20
-107.342
11
101.315
21
-107.342
0
LINE
8
BLACK
6
CONTINUOUS
10
101.315
20
-107.342
11
101.22
21
-107.39
0
LINE
8
BLACK
6
CONTINUOUS
10
101.22
20
-107.39
11
101.172
21
-107.438
0
LINE
8
BLACK
6
CONTINUOUS
10
101.172
20
-107.438
11
101.077
21
-107.58
0
LINE
8
BLACK
6
CONTINUOUS
10
101.077
20
-107.58
11
101.03
21
-107.771
0
LINE
8
BLACK
6
CONTINUOUS
10
101.03
20
-107.771
11
101.03
21
-108.152
0
LINE
8
BLACK
6
CONTINUOUS
10
101.03
20
-108.152
11
101.077
21
-108.247
0
LINE
8
BLACK
6
CONTINUOUS
10
101.077
20
-108.247
11
101.125
21
-108.295
0
LINE
8
BLACK
6
CONTINUOUS
10
101.125
20
-108.295
11
101.22
21
-108.342
0
LINE
8
BLACK
6
CONTINUOUS
10
101.22
20
-108.342
11
101.41
21
-108.342
0
LINE
8
BLACK
6
CONTINUOUS
10
101.41
20
-108.342
11
101.506
21
-108.295
0
LINE
8
BLACK
6
CONTINUOUS
10
101.506
20
-108.295
11
101.553
21
-108.247
0
LINE
8
BLACK
6
CONTINUOUS
10
101.553
20
-108.247
11
101.601
21
-108.152
0
LINE
8
BLACK
6
CONTINUOUS
10
101.601
20
-108.152
11
101.601
21
-107.914
0
LINE
8
BLACK
6
CONTINUOUS
10
101.601
20
-107.914
11
101.553
21
-107.819
0
LINE
8
BLACK
6
CONTINUOUS
10
101.553
20
-107.819
11
101.506
21
-107.771
0
LINE
8
BLACK
6
CONTINUOUS
10
101.506
20
-107.771
11
101.41
21
-107.723
0
LINE
8
BLACK
6
CONTINUOUS
10
101.41
20
-107.723
11
101.22
21
-107.723
0
LINE
8
BLACK
6
CONTINUOUS
10
101.22
20
-107.723
11
101.125
21
-107.771
0
LINE
8
BLACK
6
CONTINUOUS
10
101.125
20
-107.771
11
101.077
21
-107.819
0
LINE
8
BLACK
6
CONTINUOUS
10
101.077
20
-107.819
11
101.03
21
-107.914
0
LINE
8
BLACK
6
CONTINUOUS
10
102.03
20
-108.247
11
102.077
21
-108.295
0
LINE
8
BLACK
6
CONTINUOUS
10
102.077
20
-108.295
11
102.03
21
-108.342
0
LINE
8
BLACK
6
CONTINUOUS
10
102.03
20
-108.342
11
101.982
21
-108.295
0
LINE
8
BLACK
6
CONTINUOUS
10
101.982
20
-108.295
11
102.03
21
-108.247
0
LINE
8
BLACK
6
CONTINUOUS
10
102.03
20
-108.247
11
102.03
21
-108.342
0
LINE
8
BLACK
6
CONTINUOUS
10
102.934
20
-107.342
11
102.744
21
-107.342
0
LINE
8
BLACK
6
CONTINUOUS
10
102.744
20
-107.342
11
102.649
21
-107.39
0
LINE
8
BLACK
6
CONTINUOUS
10
102.649
20
-107.39
11
102.601
21
-107.438
0
LINE
8
BLACK
6
CONTINUOUS
10
102.601
20
-107.438
11
102.506
21
-107.58
0
LINE
8
BLACK
6
CONTINUOUS
10
102.506
20
-107.58
11
102.458
21
-107.771
0
LINE
8
BLACK
6
CONTINUOUS
10
102.458
20
-107.771
11
102.458
21
-108.152
0
LINE
8
BLACK
6
CONTINUOUS
10
102.458
20
-108.152
11
102.506
21
-108.247
0
LINE
8
BLACK
6
CONTINUOUS
10
102.506
20
-108.247
11
102.553
21
-108.295
0
LINE
8
BLACK
6
CONTINUOUS
10
102.553
20
-108.295
11
102.649
21
-108.342
0
LINE
8
BLACK
6
CONTINUOUS
10
102.649
20
-108.342
11
102.839
21
-108.342
0
LINE
8
BLACK
6
CONTINUOUS
10
102.839
20
-108.342
11
102.934
21
-108.295
0
LINE
8
BLACK
6
CONTINUOUS
10
102.934
20
-108.295
11
102.982
21
-108.247
0
LINE
8
BLACK
6
CONTINUOUS
10
102.982
20
-108.247
11
103.03
21
-108.152
0
LINE
8
BLACK
6
CONTINUOUS
10
103.03
20
-108.152
11
103.03
21
-107.914
0
LINE
8
BLACK
6
CONTINUOUS
10
103.03
20
-107.914
11
102.982
21
-107.819
0
LINE
8
BLACK
6
CONTINUOUS
10
102.982
20
-107.819
11
102.934
21
-107.771
0
LINE
8
BLACK
6
CONTINUOUS
10
102.934
20
-107.771
11
102.839
21
-107.723
0
LINE
8
BLACK
6
CONTINUOUS
10
102.839
20
-107.723
11
102.649
21
-107.723
0
LINE
8
BLACK
6
CONTINUOUS
10
102.649
20
-107.723
11
102.553
21
-107.771
0
LINE
8
BLACK
6
CONTINUOUS
10
102.553
20
-107.771
11
102.506
21
-107.819
0
LINE
8
BLACK
6
CONTINUOUS
10
102.506
20
-107.819
11
102.458
21
-107.914
0
LINE
8
BLACK
6
CONTINUOUS
10
103.363
20
-107.342
11
104.03
21
-107.342
0
LINE
8
BLACK
6
CONTINUOUS
10
104.03
20
-107.342
11
103.601
21
-108.342
0
LINE
8
BLACK
6
CONTINUOUS
10
104.887
20
-107.342
11
104.41
21
-107.342
0
LINE
8
BLACK
6
CONTINUOUS
10
104.41
20
-107.342
11
104.363
21
-107.819
0
LINE
8
BLACK
6
CONTINUOUS
10
104.363
20
-107.819
11
104.41
21
-107.771
0
LINE
8
BLACK
6
CONTINUOUS
10
104.41
20
-107.771
11
104.506
21
-107.723
0
LINE
8
BLACK
6
CONTINUOUS
10
104.506
20
-107.723
11
104.744
21
-107.723
0
LINE
8
BLACK
6
CONTINUOUS
10
104.744
20
-107.723
11
104.839
21
-107.771
0
LINE
8
BLACK
6
CONTINUOUS
10
104.839
20
-107.771
11
104.887
21
-107.819
0
LINE
8
BLACK
6
CONTINUOUS
10
104.887
20
-107.819
11
104.934
21
-107.914
0
LINE
8
BLACK
6
CONTINUOUS
10
104.934
20
-107.914
11
104.934
21
-108.152
0
LINE
8
BLACK
6
CONTINUOUS
10
104.934
20
-108.152
11
104.887
21
-108.247
0
LINE
8
BLACK
6
CONTINUOUS
10
104.887
20
-108.247
11
104.839
21
-108.295
0
LINE
8
BLACK
6
CONTINUOUS
10
104.839
20
-108.295
11
104.744
21
-108.342
0
LINE
8
BLACK
6
CONTINUOUS
10
104.744
20
-108.342
11
104.506
21
-108.342
0
LINE
8
BLACK
6
CONTINUOUS
10
104.506
20
-108.342
11
104.41
21
-108.295
0
LINE
8
BLACK
6
CONTINUOUS
10
104.41
20
-108.295
11
104.363
21
-108.247
0
LINE
8
BLACK
6
CONTINUOUS
10
106.125
20
-108.342
11
106.125
21
-107.676
0
LINE
8
BLACK
6
CONTINUOUS
10
106.125
20
-107.771
11
106.172
21
-107.723
0
LINE
8
BLACK
6
CONTINUOUS
10
106.172
20
-107.723
11
106.268
21
-107.676
0
LINE
8
BLACK
6
CONTINUOUS
10
106.268
20
-107.676
11
106.41
21
-107.676
0
LINE
8
BLACK
6
CONTINUOUS
10
106.41
20
-107.676
11
106.506
21
-107.723
0
LINE
8
BLACK
6
CONTINUOUS
10
106.506
20
-107.723
11
106.553
21
-107.819
0
LINE
8
BLACK
6
CONTINUOUS
10
106.553
20
-107.819
11
106.553
21
-108.342
0
LINE
8
BLACK
6
CONTINUOUS
10
106.553
20
-107.819
11
106.601
21
-107.723
0
LINE
8
BLACK
6
CONTINUOUS
10
106.601
20
-107.723
11
106.696
21
-107.676
0
LINE
8
BLACK
6
CONTINUOUS
10
106.696
20
-107.676
11
106.839
21
-107.676
0
LINE
8
BLACK
6
CONTINUOUS
10
106.839
20
-107.676
11
106.934
21
-107.723
0
LINE
8
BLACK
6
CONTINUOUS
10
106.934
20
-107.723
11
106.982
21
-107.819
0
LINE
8
BLACK
6
CONTINUOUS
10
106.982
20
-107.819
11
106.982
21
-108.342
0
LINE
8
BLACK
6
CONTINUOUS
10
107.458
20
-108.342
11
107.458
21
-107.676
0
LINE
8
BLACK
6
CONTINUOUS
10
107.458
20
-107.771
11
107.506
21
-107.723
0
LINE
8
BLACK
6
CONTINUOUS
10
107.506
20
-107.723
11
107.601
21
-107.676
0
LINE
8
BLACK
6
CONTINUOUS
10
107.601
20
-107.676
11
107.744
21
-107.676
0
LINE
8
BLACK
6
CONTINUOUS
10
107.744
20
-107.676
11
107.839
21
-107.723
0
LINE
8
BLACK
6
CONTINUOUS
10
107.839
20
-107.723
11
107.887
21
-107.819
0
LINE
8
BLACK
6
CONTINUOUS
10
107.887
20
-107.819
11
107.887
21
-108.342
0
LINE
8
BLACK
6
CONTINUOUS
10
107.887
20
-107.819
11
107.934
21
-107.723
0
LINE
8
BLACK
6
CONTINUOUS
10
107.934
20
-107.723
11
108.03
21
-107.676
0
LINE
8
BLACK
6
CONTINUOUS
10
108.03
20
-107.676
11
108.172
21
-107.676
0
LINE
8
BLACK
6
CONTINUOUS
10
108.172
20
-107.676
11
108.268
21
-107.723
0
LINE
8
BLACK
6
CONTINUOUS
10
108.268
20
-107.723
11
108.315
21
-107.819
0
LINE
8
BLACK
6
CONTINUOUS
10
108.315
20
-107.819
11
108.315
21
-108.342
0
LINE
8
BLACK
6
CONTINUOUS
10
70.8825
20
-106.59
11
137.558
21
-106.59
0
LINE
8
BLACK
6
CONTINUOUS
10
70.8825
20
-106.2
11
70.8825
21
-107.176
0
LINE
8
BLACK
6
CONTINUOUS
10
137.558
20
-106.2
11
137.558
21
-107.176
0
LINE
8
BLACK
6
CONTINUOUS
10
137.558
20
-106.59
11
136.431
21
-107.176
0
LINE
8
BLACK
6
CONTINUOUS
10
137.558
20
-106.59
11
136.431
21
-106.004
0
LINE
8
BLACK
6
CONTINUOUS
10
70.8825
20
-106.59
11
72.009
21
-107.176
0
LINE
8
BLACK
6
CONTINUOUS
10
70.8825
20
-106.59
11
72.009
21
-106.004
0
LINE
8
BLACK
6
CONTINUOUS
10
-2.69762
20
-51.5601
11
-2.69762
21
-52.1315
0
LINE
8
BLACK
6
CONTINUOUS
10
-2.69762
20
-51.8458
11
-3.69762
21
-51.8458
0
LINE
8
BLACK
6
CONTINUOUS
10
-3.69762
20
-51.8458
11
-3.55476
21
-51.9411
0
LINE
8
BLACK
6
CONTINUOUS
10
-3.55476
20
-51.9411
11
-3.45952
21
-52.0363
0
LINE
8
BLACK
6
CONTINUOUS
10
-3.45952
20
-52.0363
11
-3.4119
21
-52.1315
0
LINE
8
BLACK
6
CONTINUOUS
10
-3.69762
20
-50.9411
11
-3.69762
21
-50.8458
0
LINE
8
BLACK
6
CONTINUOUS
10
-3.69762
20
-50.8458
11
-3.65
21
-50.7506
0
LINE
8
BLACK
6
CONTINUOUS
10
-3.65
20
-50.7506
11
-3.60238
21
-50.703
0
LINE
8
BLACK
6
CONTINUOUS
10
-3.60238
20
-50.703
11
-3.50714
21
-50.6554
0
LINE
8
BLACK
6
CONTINUOUS
10
-3.50714
20
-50.6554
11
-3.31667
21
-50.6077
0
LINE
8
BLACK
6
CONTINUOUS
10
-3.31667
20
-50.6077
11
-3.07857
21
-50.6077
0
LINE
8
BLACK
6
CONTINUOUS
10
-3.07857
20
-50.6077
11
-2.88809
21
-50.6554
0
LINE
8
BLACK
6
CONTINUOUS
10
-2.88809
20
-50.6554
11
-2.79286
21
-50.703
0
LINE
8
BLACK
6
CONTINUOUS
10
-2.79286
20
-50.703
11
-2.74524
21
-50.7506
0
LINE
8
BLACK
6
CONTINUOUS
10
-2.74524
20
-50.7506
11
-2.69762
21
-50.8458
0
LINE
8
BLACK
6
CONTINUOUS
10
-2.69762
20
-50.8458
11
-2.69762
21
-50.9411
0
LINE
8
BLACK
6
CONTINUOUS
10
-2.69762
20
-50.9411
11
-2.74524
21
-51.0363
0
LINE
8
BLACK
6
CONTINUOUS
10
-2.74524
20
-51.0363
11
-2.79286
21
-51.0839
0
LINE
8
BLACK
6
CONTINUOUS
10
-2.79286
20
-51.0839
11
-2.88809
21
-51.1315
0
LINE
8
BLACK
6
CONTINUOUS
10
-2.88809
20
-51.1315
11
-3.07857
21
-51.1792
0
LINE
8
BLACK
6
CONTINUOUS
10
-3.07857
20
-51.1792
11
-3.31667
21
-51.1792
0
LINE
8
BLACK
6
CONTINUOUS
10
-3.31667
20
-51.1792
11
-3.50714
21
-51.1315
0
LINE
8
BLACK
6
CONTINUOUS
10
-3.50714
20
-51.1315
11
-3.60238
21
-51.0839
0
LINE
8
BLACK
6
CONTINUOUS
10
-3.60238
20
-51.0839
11
-3.65
21
-51.0363
0
LINE
8
BLACK
6
CONTINUOUS
10
-3.65
20
-51.0363
11
-3.69762
21
-50.9411
0
LINE
8
BLACK
6
CONTINUOUS
10
-3.36428
20
-49.7506
11
-2.69762
21
-49.7506
0
LINE
8
BLACK
6
CONTINUOUS
10
-3.74524
20
-49.9887
11
-3.03095
21
-50.2268
0
LINE
8
BLACK
6
CONTINUOUS
10
-3.03095
20
-50.2268
11
-3.03095
21
-49.6077
0
LINE
8
BLACK
6
CONTINUOUS
10
-2.79286
20
-49.2268
11
-2.74524
21
-49.1792
0
LINE
8
BLACK
6
CONTINUOUS
10
-2.74524
20
-49.1792
11
-2.69762
21
-49.2268
0
LINE
8
BLACK
6
CONTINUOUS
10
-2.69762
20
-49.2268
11
-2.74524
21
-49.2744
0
LINE
8
BLACK
6
CONTINUOUS
10
-2.74524
20
-49.2744
11
-2.79286
21
-49.2268
0
LINE
8
BLACK
6
CONTINUOUS
10
-2.79286
20
-49.2268
11
-2.69762
21
-49.2268
0
LINE
8
BLACK
6
CONTINUOUS
10
-3.69762
20
-48.8458
11
-3.69762
21
-48.1792
0
LINE
8
BLACK
6
CONTINUOUS
10
-3.69762
20
-48.1792
11
-2.69762
21
-48.6077
0
LINE
8
BLACK
6
CONTINUOUS
10
-3.69762
20
-47.8935
11
-3.69762
21
-47.2268
0
LINE
8
BLACK
6
CONTINUOUS
10
-3.69762
20
-47.2268
11
-2.69762
21
-47.6554
0
LINE
8
BLACK
6
CONTINUOUS
10
-3.69762
20
-46.3696
11
-3.69762
21
-46.8458
0
LINE
8
BLACK
6
CONTINUOUS
10
-3.69762
20
-46.8458
11
-3.22143
21
-46.8935
0
LINE
8
BLACK
6
CONTINUOUS
10
-3.22143
20
-46.8935
11
-3.26905
21
-46.8458
0
LINE
8
BLACK
6
CONTINUOUS
10
-3.26905
20
-46.8458
11
-3.31667
21
-46.7506
0
LINE
8
BLACK
6
CONTINUOUS
10
-3.31667
20
-46.7506
11
-3.31667
21
-46.5125
0
LINE
8
BLACK
6
CONTINUOUS
10
-3.31667
20
-46.5125
11
-3.26905
21
-46.4173
0
LINE
8
BLACK
6
CONTINUOUS
10
-3.26905
20
-46.4173
11
-3.22143
21
-46.3696
0
LINE
8
BLACK
6
CONTINUOUS
10
-3.22143
20
-46.3696
11
-3.12619
21
-46.322
0
LINE
8
BLACK
6
CONTINUOUS
10
-3.12619
20
-46.322
11
-2.88809
21
-46.322
0
LINE
8
BLACK
6
CONTINUOUS
10
-2.88809
20
-46.322
11
-2.79286
21
-46.3696
0
LINE
8
BLACK
6
CONTINUOUS
10
-2.79286
20
-46.3696
11
-2.74524
21
-46.4173
0
LINE
8
BLACK
6
CONTINUOUS
10
-2.74524
20
-46.4173
11
-2.69762
21
-46.5125
0
LINE
8
BLACK
6
CONTINUOUS
10
-2.69762
20
-46.5125
11
-2.69762
21
-46.7506
0
LINE
8
BLACK
6
CONTINUOUS
10
-2.69762
20
-46.7506
11
-2.74524
21
-46.8458
0
LINE
8
BLACK
6
CONTINUOUS
10
-2.74524
20
-46.8458
11
-2.79286
21
-46.8935
0
LINE
8
BLACK
6
CONTINUOUS
10
-2.69762
20
-45.1315
11
-3.36428
21
-45.1315
0
LINE
8
BLACK
6
CONTINUOUS
10
-3.26905
20
-45.1315
11
-3.31667
21
-45.0839
0
LINE
8
BLACK
6
CONTINUOUS
10
-3.31667
20
-45.0839
11
-3.36428
21
-44.9887
0
LINE
8
BLACK
6
CONTINUOUS
10
-3.36428
20
-44.9887
11
-3.36428
21
-44.8458
0
LINE
8
BLACK
6
CONTINUOUS
10
-3.36428
20
-44.8458
11
-3.31667
21
-44.7506
0
LINE
8
BLACK
6
CONTINUOUS
10
-3.31667
20
-44.7506
11
-3.22143
21
-44.703
0
LINE
8
BLACK
6
CONTINUOUS
10
-3.22143
20
-44.703
11
-2.69762
21
-44.703
0
LINE
8
BLACK
6
CONTINUOUS
10
-3.22143
20
-44.703
11
-3.31667
21
-44.6554
0
LINE
8
BLACK
6
CONTINUOUS
10
-3.31667
20
-44.6554
11
-3.36428
21
-44.5601
0
LINE
8
BLACK
6
CONTINUOUS
10
-3.36428
20
-44.5601
11
-3.36428
21
-44.4173
0
LINE
8
BLACK
6
CONTINUOUS
10
-3.36428
20
-44.4173
11
-3.31667
21
-44.322
0
LINE
8
BLACK
6
CONTINUOUS
10
-3.31667
20
-44.322
11
-3.22143
21
-44.2744
0
LINE
8
BLACK
6
CONTINUOUS
10
-3.22143
20
-44.2744
11
-2.69762
21
-44.2744
0
LINE
8
BLACK
6
CONTINUOUS
10
-2.69762
20
-43.7982
11
-3.36428
21
-43.7982
0
LINE
8
BLACK
6
CONTINUOUS
10
-3.26905
20
-43.7982
11
-3.31667
21
-43.7506
0
LINE
8
BLACK
6
CONTINUOUS
10
-3.31667
20
-43.7506
11
-3.36428
21
-43.6554
0
LINE
8
BLACK
6
CONTINUOUS
10
-3.36428
20
-43.6554
11
-3.36428
21
-43.5125
0
LINE
8
BLACK
6
CONTINUOUS
10
-3.36428
20
-43.5125
11
-3.31667
21
-43.4173
0
LINE
8
BLACK
6
CONTINUOUS
10
-3.31667
20
-43.4173
11
-3.22143
21
-43.3696
0
LINE
8
BLACK
6
CONTINUOUS
10
-3.22143
20
-43.3696
11
-2.69762
21
-43.3696
0
LINE
8
BLACK
6
CONTINUOUS
10
-3.22143
20
-43.3696
11
-3.31667
21
-43.322
0
LINE
8
BLACK
6
CONTINUOUS
10
-3.31667
20
-43.322
11
-3.36428
21
-43.2268
0
LINE
8
BLACK
6
CONTINUOUS
10
-3.36428
20
-43.2268
11
-3.36428
21
-43.0839
0
LINE
8
BLACK
6
CONTINUOUS
10
-3.36428
20
-43.0839
11
-3.31667
21
-42.9887
0
LINE
8
BLACK
6
CONTINUOUS
10
-3.31667
20
-42.9887
11
-3.22143
21
-42.9411
0
LINE
8
BLACK
6
CONTINUOUS
10
-3.22143
20
-42.9411
11
-2.69762
21
-42.9411
0
LINE
8
BLACK
6
CONTINUOUS
10
-1.85
20
-99.9
11
-1.85
21
4.875
0
LINE
8
BLACK
6
CONTINUOUS
10
-1.555
20
-99.9
11
-2.43642
21
-99.9
0
LINE
8
BLACK
6
CONTINUOUS
10
-1.555
20
4.875
11
-2.43642
21
4.875
0
LINE
8
BLACK
6
CONTINUOUS
10
-1.85
20
4.875
11
-1.26358
21
3.7485
0
LINE
8
BLACK
6
CONTINUOUS
10
-1.85
20
4.875
11
-2.43642
21
3.7485
0
LINE
8
BLACK
6
CONTINUOUS
10
-1.85
20
-99.9
11
-1.26358
21
-98.7735
0
LINE
8
BLACK
6
CONTINUOUS
10
-1.85
20
-99.9
11
-2.43642
21
-98.7735
0
LINE
8
BLACK
6
CONTINUOUS
10
29.044
20
-101.772
11
28.8535
21
-101.772
0
LINE
8
BLACK
6
CONTINUOUS
10
28.8535
20
-101.772
11
28.7582
21
-101.82
0
LINE
8
BLACK
6
CONTINUOUS
10
28.7582
20
-101.82
11
28.7106
21
-101.868
0
LINE
8
BLACK
6
CONTINUOUS
10
28.7106
20
-101.868
11
28.6154
21
-102.01
0
LINE
8
BLACK
6
CONTINUOUS
10
28.6154
20
-102.01
11
28.5678
21
-102.201
0
LINE
8
BLACK
6
CONTINUOUS
10
28.5678
20
-102.201
11
28.5678
21
-102.582
0
LINE
8
BLACK
6
CONTINUOUS
10
28.5678
20
-102.582
11
28.6154
21
-102.677
0
LINE
8
BLACK
6
CONTINUOUS
10
28.6154
20
-102.677
11
28.663
21
-102.725
0
LINE
8
BLACK
6
CONTINUOUS
10
28.663
20
-102.725
11
28.7582
21
-102.772
0
LINE
8
BLACK
6
CONTINUOUS
10
28.7582
20
-102.772
11
28.9487
21
-102.772
0
LINE
8
BLACK
6
CONTINUOUS
10
28.9487
20
-102.772
11
29.044
21
-102.725
0
LINE
8
BLACK
6
CONTINUOUS
10
29.044
20
-102.725
11
29.0916
21
-102.677
0
LINE
8
BLACK
6
CONTINUOUS
10
29.0916
20
-102.677
11
29.1392
21
-102.582
0
LINE
8
BLACK
6
CONTINUOUS
10
29.1392
20
-102.582
11
29.1392
21
-102.344
0
LINE
8
BLACK
6
CONTINUOUS
10
29.1392
20
-102.344
11
29.0916
21
-102.249
0
LINE
8
BLACK
6
CONTINUOUS
10
29.0916
20
-102.249
11
29.044
21
-102.201
0
LINE
8
BLACK
6
CONTINUOUS
10
29.044
20
-102.201
11
28.9487
21
-102.153
0
LINE
8
BLACK
6
CONTINUOUS
10
28.9487
20
-102.153
11
28.7582
21
-102.153
0
LINE
8
BLACK
6
CONTINUOUS
10
28.7582
20
-102.153
11
28.663
21
-102.201
0
LINE
8
BLACK
6
CONTINUOUS
10
28.663
20
-102.201
11
28.6154
21
-102.249
0
LINE
8
BLACK
6
CONTINUOUS
10
28.6154
20
-102.249
11
28.5678
21
-102.344
0
LINE
8
BLACK
6
CONTINUOUS
10
29.9963
20
-101.772
11
29.8059
21
-101.772
0
LINE
8
BLACK
6
CONTINUOUS
10
29.8059
20
-101.772
11
29.7106
21
-101.82
0
LINE
8
BLACK
6
CONTINUOUS
10
29.7106
20
-101.82
11
29.663
21
-101.868
0
LINE
8
BLACK
6
CONTINUOUS
10
29.663
20
-101.868
11
29.5678
21
-102.01
0
LINE
8
BLACK
6
CONTINUOUS
10
29.5678
20
-102.01
11
29.5201
21
-102.201
0
LINE
8
BLACK
6
CONTINUOUS
10
29.5201
20
-102.201
11
29.5201
21
-102.582
0
LINE
8
BLACK
6
CONTINUOUS
10
29.5201
20
-102.582
11
29.5678
21
-102.677
0
LINE
8
BLACK
6
CONTINUOUS
10
29.5678
20
-102.677
11
29.6154
21
-102.725
0
LINE
8
BLACK
6
CONTINUOUS
10
29.6154
20
-102.725
11
29.7106
21
-102.772
0
LINE
8
BLACK
6
CONTINUOUS
10
29.7106
20
-102.772
11
29.9011
21
-102.772
0
LINE
8
BLACK
6
CONTINUOUS
10
29.9011
20
-102.772
11
29.9963
21
-102.725
0
LINE
8
BLACK
6
CONTINUOUS
10
29.9963
20
-102.725
11
30.044
21
-102.677
0
LINE
8
BLACK
6
CONTINUOUS
10
30.044
20
-102.677
11
30.0916
21
-102.582
0
LINE
8
BLACK
6
CONTINUOUS
10
30.0916
20
-102.582
11
30.0916
21
-102.344
0
LINE
8
BLACK
6
CONTINUOUS
10
30.0916
20
-102.344
11
30.044
21
-102.249
0
LINE
8
BLACK
6
CONTINUOUS
10
30.044
20
-102.249
11
29.9963
21
-102.201
0
LINE
8
BLACK
6
CONTINUOUS
10
29.9963
20
-102.201
11
29.9011
21
-102.153
0
LINE
8
BLACK
6
CONTINUOUS
10
29.9011
20
-102.153
11
29.7106
21
-102.153
0
LINE
8
BLACK
6
CONTINUOUS
10
29.7106
20
-102.153
11
29.6154
21
-102.201
0
LINE
8
BLACK
6
CONTINUOUS
10
29.6154
20
-102.201
11
29.5678
21
-102.249
0
LINE
8
BLACK
6
CONTINUOUS
10
29.5678
20
-102.249
11
29.5201
21
-102.344
0
LINE
8
BLACK
6
CONTINUOUS
10
30.5201
20
-102.677
11
30.5678
21
-102.725
0
LINE
8
BLACK
6
CONTINUOUS
10
30.5678
20
-102.725
11
30.5201
21
-102.772
0
LINE
8
BLACK
6
CONTINUOUS
10
30.5201
20
-102.772
11
30.4725
21
-102.725
0
LINE
8
BLACK
6
CONTINUOUS
10
30.4725
20
-102.725
11
30.5201
21
-102.677
0
LINE
8
BLACK
6
CONTINUOUS
10
30.5201
20
-102.677
11
30.5201
21
-102.772
0
LINE
8
BLACK
6
CONTINUOUS
10
31.4725
20
-101.772
11
30.9963
21
-101.772
0
LINE
8
BLACK
6
CONTINUOUS
10
30.9963
20
-101.772
11
30.9487
21
-102.249
0
LINE
8
BLACK
6
CONTINUOUS
10
30.9487
20
-102.249
11
30.9963
21
-102.201
0
LINE
8
BLACK
6
CONTINUOUS
10
30.9963
20
-102.201
11
31.0916
21
-102.153
0
LINE
8
BLACK
6
CONTINUOUS
10
31.0916
20
-102.153
11
31.3297
21
-102.153
0
LINE
8
BLACK
6
CONTINUOUS
10
31.3297
20
-102.153
11
31.4249
21
-102.201
0
LINE
8
BLACK
6
CONTINUOUS
10
31.4249
20
-102.201
11
31.4725
21
-102.249
0
LINE
8
BLACK
6
CONTINUOUS
10
31.4725
20
-102.249
11
31.5201
21
-102.344
0
LINE
8
BLACK
6
CONTINUOUS
10
31.5201
20
-102.344
11
31.5201
21
-102.582
0
LINE
8
BLACK
6
CONTINUOUS
10
31.5201
20
-102.582
11
31.4725
21
-102.677
0
LINE
8
BLACK
6
CONTINUOUS
10
31.4725
20
-102.677
11
31.4249
21
-102.725
0
LINE
8
BLACK
6
CONTINUOUS
10
31.4249
20
-102.725
11
31.3297
21
-102.772
0
LINE
8
BLACK
6
CONTINUOUS
10
31.3297
20
-102.772
11
31.0916
21
-102.772
0
LINE
8
BLACK
6
CONTINUOUS
10
31.0916
20
-102.772
11
30.9963
21
-102.725
0
LINE
8
BLACK
6
CONTINUOUS
10
30.9963
20
-102.725
11
30.9487
21
-102.677
0
LINE
8
BLACK
6
CONTINUOUS
10
31.8535
20
-101.772
11
32.4725
21
-101.772
0
LINE
8
BLACK
6
CONTINUOUS
10
32.4725
20
-101.772
11
32.1392
21
-102.153
0
LINE
8
BLACK
6
CONTINUOUS
10
32.1392
20
-102.153
11
32.2821
21
-102.153
0
LINE
8
BLACK
6
CONTINUOUS
10
32.2821
20
-102.153
11
32.3773
21
-102.201
0
LINE
8
BLACK
6
CONTINUOUS
10
32.3773
20
-102.201
11
32.4249
21
-102.249
0
LINE
8
BLACK
6
CONTINUOUS
10
32.4249
20
-102.249
11
32.4725
21
-102.344
0
LINE
8
BLACK
6
CONTINUOUS
10
32.4725
20
-102.344
11
32.4725
21
-102.582
0
LINE
8
BLACK
6
CONTINUOUS
10
32.4725
20
-102.582
11
32.4249
21
-102.677
0
LINE
8
BLACK
6
CONTINUOUS
10
32.4249
20
-102.677
11
32.3773
21
-102.725
0
LINE
8
BLACK
6
CONTINUOUS
10
32.3773
20
-102.725
11
32.2821
21
-102.772
0
LINE
8
BLACK
6
CONTINUOUS
10
32.2821
20
-102.772
11
31.9963
21
-102.772
0
LINE
8
BLACK
6
CONTINUOUS
10
31.9963
20
-102.772
11
31.9011
21
-102.725
0
LINE
8
BLACK
6
CONTINUOUS
10
31.9011
20
-102.725
11
31.8535
21
-102.677
0
LINE
8
BLACK
6
CONTINUOUS
10
33.4249
20
-102.772
11
32.8535
21
-102.772
0
LINE
8
BLACK
6
CONTINUOUS
10
33.1392
20
-102.772
11
33.1392
21
-101.772
0
LINE
8
BLACK
6
CONTINUOUS
10
33.1392
20
-101.772
11
33.044
21
-101.915
0
LINE
8
BLACK
6
CONTINUOUS
10
33.044
20
-101.915
11
32.9487
21
-102.01
0
LINE
8
BLACK
6
CONTINUOUS
10
32.9487
20
-102.01
11
32.8535
21
-102.058
0
LINE
8
BLACK
6
CONTINUOUS
10
34.6154
20
-102.772
11
34.6154
21
-102.106
0
LINE
8
BLACK
6
CONTINUOUS
10
34.6154
20
-102.201
11
34.663
21
-102.153
0
LINE
8
BLACK
6
CONTINUOUS
10
34.663
20
-102.153
11
34.7582
21
-102.106
0
LINE
8
BLACK
6
CONTINUOUS
10
34.7582
20
-102.106
11
34.9011
21
-102.106
0
LINE
8
BLACK
6
CONTINUOUS
10
34.9011
20
-102.106
11
34.9963
21
-102.153
0
LINE
8
BLACK
6
CONTINUOUS
10
34.9963
20
-102.153
11
35.044
21
-102.249
0
LINE
8
BLACK
6
CONTINUOUS
10
35.044
20
-102.249
11
35.044
21
-102.772
0
LINE
8
BLACK
6
CONTINUOUS
10
35.044
20
-102.249
11
35.0916
21
-102.153
0
LINE
8
BLACK
6
CONTINUOUS
10
35.0916
20
-102.153
11
35.1868
21
-102.106
0
LINE
8
BLACK
6
CONTINUOUS
10
35.1868
20
-102.106
11
35.3297
21
-102.106
0
LINE
8
BLACK
6
CONTINUOUS
10
35.3297
20
-102.106
11
35.4249
21
-102.153
0
LINE
8
BLACK
6
CONTINUOUS
10
35.4249
20
-102.153
11
35.4725
21
-102.249
0
LINE
8
BLACK
6
CONTINUOUS
10
35.4725
20
-102.249
11
35.4725
21
-102.772
0
LINE
8
BLACK
6
CONTINUOUS
10
35.9487
20
-102.772
11
35.9487
21
-102.106
0
LINE
8
BLACK
6
CONTINUOUS
10
35.9487
20
-102.201
11
35.9963
21
-102.153
0
LINE
8
BLACK
6
CONTINUOUS
10
35.9963
20
-102.153
11
36.0916
21
-102.106
0
LINE
8
BLACK
6
CONTINUOUS
10
36.0916
20
-102.106
11
36.2344
21
-102.106
0
LINE
8
BLACK
6
CONTINUOUS
10
36.2344
20
-102.106
11
36.3297
21
-102.153
0
LINE
8
BLACK
6
CONTINUOUS
10
36.3297
20
-102.153
11
36.3773
21
-102.249
0
LINE
8
BLACK
6
CONTINUOUS
10
36.3773
20
-102.249
11
36.3773
21
-102.772
0
LINE
8
BLACK
6
CONTINUOUS
10
36.3773
20
-102.249
11
36.4249
21
-102.153
0
LINE
8
BLACK
6
CONTINUOUS
10
36.4249
20
-102.153
11
36.5201
21
-102.106
0
LINE
8
BLACK
6
CONTINUOUS
10
36.5201
20
-102.106
11
36.663
21
-102.106
0
LINE
8
BLACK
6
CONTINUOUS
10
36.663
20
-102.106
11
36.7582
21
-102.153
0
LINE
8
BLACK
6
CONTINUOUS
10
36.7582
20
-102.153
11
36.8059
21
-102.249
0
LINE
8
BLACK
6
CONTINUOUS
10
36.8059
20
-102.249
11
36.8059
21
-102.772
0
LINE
8
BLACK
6
CONTINUOUS
10
65.9762
20
-101.02
11
-0.555
21
-101.02
0
LINE
8
BLACK
6
CONTINUOUS
10
65.9762
20
-100.9
11
65.9762
21
-101.606
0
LINE
8
BLACK
6
CONTINUOUS
10
-0.555
20
-100.9
11
-0.555
21
-101.606
0
LINE
8
BLACK
6
CONTINUOUS
10
-0.555
20
-101.02
11
0.571504
21
-100.434
0
LINE
8
BLACK
6
CONTINUOUS
10
-0.555
20
-101.02
11
0.571504
21
-101.606
0
LINE
8
BLACK
6
CONTINUOUS
10
65.9762
20
-101.02
11
64.8497
21
-100.434
0
LINE
8
BLACK
6
CONTINUOUS
10
65.9762
20
-101.02
11
64.8497
21
-101.606
0
CIRCLE
8
BLACK
10
18.495
20
-19.075
40
1.1
0
LINE
8
BLACK
6
CONTINUOUS
10
142.988
20
-82.1541
11
142.988
21
-81.5826
0
LINE
8
BLACK
6
CONTINUOUS
10
142.988
20
-81.8684
11
143.988
21
-81.8684
0
LINE
8
BLACK
6
CONTINUOUS
10
143.988
20
-81.8684
11
143.845
21
-81.7731
0
LINE
8
BLACK
6
CONTINUOUS
10
143.845
20
-81.7731
11
143.75
21
-81.6779
0
LINE
8
BLACK
6
CONTINUOUS
10
143.75
20
-81.6779
11
143.702
21
-81.5826
0
LINE
8
BLACK
6
CONTINUOUS
10
142.988
20
-82.6303
11
142.988
21
-82.8207
0
LINE
8
BLACK
6
CONTINUOUS
10
142.988
20
-82.8207
11
143.035
21
-82.916
0
LINE
8
BLACK
6
CONTINUOUS
10
143.035
20
-82.916
11
143.083
21
-82.9636
0
LINE
8
BLACK
6
CONTINUOUS
10
143.083
20
-82.9636
11
143.226
21
-83.0588
0
LINE
8
BLACK
6
CONTINUOUS
10
143.226
20
-83.0588
11
143.416
21
-83.1065
0
LINE
8
BLACK
6
CONTINUOUS
10
143.416
20
-83.1065
11
143.797
21
-83.1065
0
LINE
8
BLACK
6
CONTINUOUS
10
143.797
20
-83.1065
11
143.892
21
-83.0588
0
LINE
8
BLACK
6
CONTINUOUS
10
143.892
20
-83.0588
11
143.94
21
-83.0112
0
LINE
8
BLACK
6
CONTINUOUS
10
143.94
20
-83.0112
11
143.988
21
-82.916
0
LINE
8
BLACK
6
CONTINUOUS
10
143.988
20
-82.916
11
143.988
21
-82.7255
0
LINE
8
BLACK
6
CONTINUOUS
10
143.988
20
-82.7255
11
143.94
21
-82.6303
0
LINE
8
BLACK
6
CONTINUOUS
10
143.94
20
-82.6303
11
143.892
21
-82.5826
0
LINE
8
BLACK
6
CONTINUOUS
10
143.892
20
-82.5826
11
143.797
21
-82.535
0
LINE
8
BLACK
6
CONTINUOUS
10
143.797
20
-82.535
11
143.559
21
-82.535
0
LINE
8
BLACK
6
CONTINUOUS
10
143.559
20
-82.535
11
143.464
21
-82.5826
0
LINE
8
BLACK
6
CONTINUOUS
10
143.464
20
-82.5826
11
143.416
21
-82.6303
0
LINE
8
BLACK
6
CONTINUOUS
10
143.416
20
-82.6303
11
143.369
21
-82.7255
0
LINE
8
BLACK
6
CONTINUOUS
10
143.369
20
-82.7255
11
143.369
21
-82.916
0
LINE
8
BLACK
6
CONTINUOUS
10
143.369
20
-82.916
11
143.416
21
-83.0112
0
LINE
8
BLACK
6
CONTINUOUS
10
143.416
20
-83.0112
11
143.464
21
-83.0588
0
LINE
8
BLACK
6
CONTINUOUS
10
143.464
20
-83.0588
11
143.559
21
-83.1065
0
LINE
8
BLACK
6
CONTINUOUS
10
143.083
20
-83.535
11
143.035
21
-83.5826
0
LINE
8
BLACK
6
CONTINUOUS
10
143.035
20
-83.5826
11
142.988
21
-83.535
0
LINE
8
BLACK
6
CONTINUOUS
10
142.988
20
-83.535
11
143.035
21
-83.4874
0
LINE
8
BLACK
6
CONTINUOUS
10
143.035
20
-83.4874
11
143.083
21
-83.535
0
LINE
8
BLACK
6
CONTINUOUS
10
143.083
20
-83.535
11
142.988
21
-83.535
0
LINE
8
BLACK
6
CONTINUOUS
10
143.988
20
-84.2017
11
143.988
21
-84.2969
0
LINE
8
BLACK
6
CONTINUOUS
10
143.988
20
-84.2969
11
143.94
21
-84.3922
0
LINE
8
BLACK
6
CONTINUOUS
10
143.94
20
-84.3922
11
143.892
21
-84.4398
0
LINE
8
BLACK
6
CONTINUOUS
10
143.892
20
-84.4398
11
143.797
21
-84.4874
0
LINE
8
BLACK
6
CONTINUOUS
10
143.797
20
-84.4874
11
143.607
21
-84.535
0
LINE
8
BLACK
6
CONTINUOUS
10
143.607
20
-84.535
11
143.369
21
-84.535
0
LINE
8
BLACK
6
CONTINUOUS
10
143.369
20
-84.535
11
143.178
21
-84.4874
0
LINE
8
BLACK
6
CONTINUOUS
10
143.178
20
-84.4874
11
143.083
21
-84.4398
0
LINE
8
BLACK
6
CONTINUOUS
10
143.083
20
-84.4398
11
143.035
21
-84.3922
0
LINE
8
BLACK
6
CONTINUOUS
10
143.035
20
-84.3922
11
142.988
21
-84.2969
0
LINE
8
BLACK
6
CONTINUOUS
10
142.988
20
-84.2969
11
142.988
21
-84.2017
0
LINE
8
BLACK
6
CONTINUOUS
10
142.988
20
-84.2017
11
143.035
21
-84.1065
0
LINE
8
BLACK
6
CONTINUOUS
10
143.035
20
-84.1065
11
143.083
21
-84.0588
0
LINE
8
BLACK
6
CONTINUOUS
10
143.083
20
-84.0588
11
143.178
21
-84.0112
0
LINE
8
BLACK
6
CONTINUOUS
10
143.178
20
-84.0112
11
143.369
21
-83.9636
0
LINE
8
BLACK
6
CONTINUOUS
10
143.369
20
-83.9636
11
143.607
21
-83.9636
0
LINE
8
BLACK
6
CONTINUOUS
10
143.607
20
-83.9636
11
143.797
21
-84.0112
0
LINE
8
BLACK
6
CONTINUOUS
10
143.797
20
-84.0112
11
143.892
21
-84.0588
0
LINE
8
BLACK
6
CONTINUOUS
10
143.892
20
-84.0588
11
143.94
21
-84.1065
0
LINE
8
BLACK
6
CONTINUOUS
10
143.94
20
-84.1065
11
143.988
21
-84.2017
0
LINE
8
BLACK
6
CONTINUOUS
10
143.988
20
-85.4398
11
143.988
21
-84.9636
0
LINE
8
BLACK
6
CONTINUOUS
10
143.988
20
-84.9636
11
143.511
21
-84.916
0
LINE
8
BLACK
6
CONTINUOUS
10
143.511
20
-84.916
11
143.559
21
-84.9636
0
LINE
8
BLACK
6
CONTINUOUS
10
143.559
20
-84.9636
11
143.607
21
-85.0588
0
LINE
8
BLACK
6
CONTINUOUS
10
143.607
20
-85.0588
11
143.607
21
-85.2969
0
LINE
8
BLACK
6
CONTINUOUS
10
143.607
20
-85.2969
11
143.559
21
-85.3922
0
LINE
8
BLACK
6
CONTINUOUS
10
143.559
20
-85.3922
11
143.511
21
-85.4398
0
LINE
8
BLACK
6
CONTINUOUS
10
143.511
20
-85.4398
11
143.416
21
-85.4874
0
LINE
8
BLACK
6
CONTINUOUS
10
143.416
20
-85.4874
11
143.178
21
-85.4874
0
LINE
8
BLACK
6
CONTINUOUS
10
143.178
20
-85.4874
11
143.083
21
-85.4398
0
LINE
8
BLACK
6
CONTINUOUS
10
143.083
20
-85.4398
11
143.035
21
-85.3922
0
LINE
8
BLACK
6
CONTINUOUS
10
143.035
20
-85.3922
11
142.988
21
-85.2969
0
LINE
8
BLACK
6
CONTINUOUS
10
142.988
20
-85.2969
11
142.988
21
-85.0588
0
LINE
8
BLACK
6
CONTINUOUS
10
142.988
20
-85.0588
11
143.035
21
-84.9636
0
LINE
8
BLACK
6
CONTINUOUS
10
143.035
20
-84.9636
11
143.083
21
-84.916
0
LINE
8
BLACK
6
CONTINUOUS
10
142.988
20
-86.4398
11
142.988
21
-85.8684
0
LINE
8
BLACK
6
CONTINUOUS
10
142.988
20
-86.1541
11
143.988
21
-86.1541
0
LINE
8
BLACK
6
CONTINUOUS
10
143.988
20
-86.1541
11
143.845
21
-86.0588
0
LINE
8
BLACK
6
CONTINUOUS
10
143.845
20
-86.0588
11
143.75
21
-85.9636
0
LINE
8
BLACK
6
CONTINUOUS
10
143.75
20
-85.9636
11
143.702
21
-85.8684
0
LINE
8
BLACK
6
CONTINUOUS
10
142.988
20
-87.6303
11
143.654
21
-87.6303
0
LINE
8
BLACK
6
CONTINUOUS
10
143.559
20
-87.6303
11
143.607
21
-87.6779
0
LINE
8
BLACK
6
CONTINUOUS
10
143.607
20
-87.6779
11
143.654
21
-87.7731
0
LINE
8
BLACK
6
CONTINUOUS
10
143.654
20
-87.7731
11
143.654
21
-87.916
0
LINE
8
BLACK
6
CONTINUOUS
10
143.654
20
-87.916
11
143.607
21
-88.0112
0
LINE
8
BLACK
6
CONTINUOUS
10
143.607
20
-88.0112
11
143.511
21
-88.0588
0
LINE
8
BLACK
6
CONTINUOUS
10
143.511
20
-88.0588
11
142.988
21
-88.0588
0
LINE
8
BLACK
6
CONTINUOUS
10
143.511
20
-88.0588
11
143.607
21
-88.1065
0
LINE
8
BLACK
6
CONTINUOUS
10
143.607
20
-88.1065
11
143.654
21
-88.2017
0
LINE
8
BLACK
6
CONTINUOUS
10
143.654
20
-88.2017
11
143.654
21
-88.3445
0
LINE
8
BLACK
6
CONTINUOUS
10
143.654
20
-88.3445
11
143.607
21
-88.4398
0
LINE
8
BLACK
6
CONTINUOUS
10
143.607
20
-88.4398
11
143.511
21
-88.4874
0
LINE
8
BLACK
6
CONTINUOUS
10
143.511
20
-88.4874
11
142.988
21
-88.4874
0
LINE
8
BLACK
6
CONTINUOUS
10
142.988
20
-88.9636
11
143.654
21
-88.9636
0
LINE
8
BLACK
6
CONTINUOUS
10
143.559
20
-88.9636
11
143.607
21
-89.0112
0
LINE
8
BLACK
6
CONTINUOUS
10
143.607
20
-89.0112
11
143.654
21
-89.1065
0
LINE
8
BLACK
6
CONTINUOUS
10
143.654
20
-89.1065
11
143.654
21
-89.2493
0
LINE
8
BLACK
6
CONTINUOUS
10
143.654
20
-89.2493
11
143.607
21
-89.3445
0
LINE
8
BLACK
6
CONTINUOUS
10
143.607
20
-89.3445
11
143.511
21
-89.3922
0
LINE
8
BLACK
6
CONTINUOUS
10
143.511
20
-89.3922
11
142.988
21
-89.3922
0
LINE
8
BLACK
6
CONTINUOUS
10
143.511
20
-89.3922
11
143.607
21
-89.4398
0
LINE
8
BLACK
6
CONTINUOUS
10
143.607
20
-89.4398
11
143.654
21
-89.535
0
LINE
8
BLACK
6
CONTINUOUS
10
143.654
20
-89.535
11
143.654
21
-89.6779
0
LINE
8
BLACK
6
CONTINUOUS
10
143.654
20
-89.6779
11
143.607
21
-89.7731
0
LINE
8
BLACK
6
CONTINUOUS
10
143.607
20
-89.7731
11
143.511
21
-89.8207
0
LINE
8
BLACK
6
CONTINUOUS
10
143.511
20
-89.8207
11
142.988
21
-89.8207
0
LINE
8
BLACK
6
CONTINUOUS
10
142.14
20
-76.2
11
142.14
21
-95.251
0
LINE
8
BLACK
6
CONTINUOUS
10
140.882
20
-76.2
11
142.726
21
-76.2
0
LINE
8
BLACK
6
CONTINUOUS
10
140.882
20
-95.251
11
142.726
21
-95.251
0
LINE
8
BLACK
6
CONTINUOUS
10
142.14
20
-95.251
11
141.554
21
-94.1245
0
LINE
8
BLACK
6
CONTINUOUS
10
142.14
20
-95.251
11
142.726
21
-94.1245
0
LINE
8
BLACK
6
CONTINUOUS
10
142.14
20
-76.2
11
141.554
21
-77.3265
0
LINE
8
BLACK
6
CONTINUOUS
10
142.14
20
-76.2
11
142.726
21
-77.3265
0
LINE
8
BLACK
6
CONTINUOUS
10
124.461
20
9.09762
11
124.652
21
9.09762
0
LINE
8
BLACK
6
CONTINUOUS
10
124.652
20
9.09762
11
124.747
21
9.14524
0
LINE
8
BLACK
6
CONTINUOUS
10
124.747
20
9.14524
11
124.794
21
9.19286
0
LINE
8
BLACK
6
CONTINUOUS
10
124.794
20
9.19286
11
124.89
21
9.33571
0
LINE
8
BLACK
6
CONTINUOUS
10
124.89
20
9.33571
11
124.937
21
9.52619
0
LINE
8
BLACK
6
CONTINUOUS
10
124.937
20
9.52619
11
124.937
21
9.90714
0
LINE
8
BLACK
6
CONTINUOUS
10
124.937
20
9.90714
11
124.89
21
10.0024
0
LINE
8
BLACK
6
CONTINUOUS
10
124.89
20
10.0024
11
124.842
21
10.05
0
LINE
8
BLACK
6
CONTINUOUS
10
124.842
20
10.05
11
124.747
21
10.0976
0
LINE
8
BLACK
6
CONTINUOUS
10
124.747
20
10.0976
11
124.556
21
10.0976
0
LINE
8
BLACK
6
CONTINUOUS
10
124.556
20
10.0976
11
124.461
21
10.05
0
LINE
8
BLACK
6
CONTINUOUS
10
124.461
20
10.05
11
124.413
21
10.0024
0
LINE
8
BLACK
6
CONTINUOUS
10
124.413
20
10.0024
11
124.366
21
9.90714
0
LINE
8
BLACK
6
CONTINUOUS
10
124.366
20
9.90714
11
124.366
21
9.66905
0
LINE
8
BLACK
6
CONTINUOUS
10
124.366
20
9.66905
11
124.413
21
9.57381
0
LINE
8
BLACK
6
CONTINUOUS
10
124.413
20
9.57381
11
124.461
21
9.52619
0
LINE
8
BLACK
6
CONTINUOUS
10
124.461
20
9.52619
11
124.556
21
9.47857
0
LINE
8
BLACK
6
CONTINUOUS
10
124.556
20
9.47857
11
124.747
21
9.47857
0
LINE
8
BLACK
6
CONTINUOUS
10
124.747
20
9.47857
11
124.842
21
9.52619
0
LINE
8
BLACK
6
CONTINUOUS
10
124.842
20
9.52619
11
124.89
21
9.57381
0
LINE
8
BLACK
6
CONTINUOUS
10
124.89
20
9.57381
11
124.937
21
9.66905
0
LINE
8
BLACK
6
CONTINUOUS
10
125.366
20
9.19286
11
125.413
21
9.14524
0
LINE
8
BLACK
6
CONTINUOUS
10
125.413
20
9.14524
11
125.366
21
9.09762
0
LINE
8
BLACK
6
CONTINUOUS
10
125.366
20
9.09762
11
125.318
21
9.14524
0
LINE
8
BLACK
6
CONTINUOUS
10
125.318
20
9.14524
11
125.366
21
9.19286
0
LINE
8
BLACK
6
CONTINUOUS
10
125.366
20
9.19286
11
125.366
21
9.09762
0
LINE
8
BLACK
6
CONTINUOUS
10
126.318
20
10.0976
11
125.842
21
10.0976
0
LINE
8
BLACK
6
CONTINUOUS
10
125.842
20
10.0976
11
125.794
21
9.62143
0
LINE
8
BLACK
6
CONTINUOUS
10
125.794
20
9.62143
11
125.842
21
9.66905
0
LINE
8
BLACK
6
CONTINUOUS
10
125.842
20
9.66905
11
125.937
21
9.71667
0
LINE
8
BLACK
6
CONTINUOUS
10
125.937
20
9.71667
11
126.175
21
9.71667
0
LINE
8
BLACK
6
CONTINUOUS
10
126.175
20
9.71667
11
126.271
21
9.66905
0
LINE
8
BLACK
6
CONTINUOUS
10
126.271
20
9.66905
11
126.318
21
9.62143
0
LINE
8
BLACK
6
CONTINUOUS
10
126.318
20
9.62143
11
126.366
21
9.52619
0
LINE
8
BLACK
6
CONTINUOUS
10
126.366
20
9.52619
11
126.366
21
9.2881
0
LINE
8
BLACK
6
CONTINUOUS
10
126.366
20
9.2881
11
126.318
21
9.19286
0
LINE
8
BLACK
6
CONTINUOUS
10
126.318
20
9.19286
11
126.271
21
9.14524
0
LINE
8
BLACK
6
CONTINUOUS
10
126.271
20
9.14524
11
126.175
21
9.09762
0
LINE
8
BLACK
6
CONTINUOUS
10
126.175
20
9.09762
11
125.937
21
9.09762
0
LINE
8
BLACK
6
CONTINUOUS
10
125.937
20
9.09762
11
125.842
21
9.14524
0
LINE
8
BLACK
6
CONTINUOUS
10
125.842
20
9.14524
11
125.794
21
9.19286
0
LINE
8
BLACK
6
CONTINUOUS
10
126.747
20
10.0024
11
126.794
21
10.05
0
LINE
8
BLACK
6
CONTINUOUS
10
126.794
20
10.05
11
126.89
21
10.0976
0
LINE
8
BLACK
6
CONTINUOUS
10
126.89
20
10.0976
11
127.128
21
10.0976
0
LINE
8
BLACK
6
CONTINUOUS
10
127.128
20
10.0976
11
127.223
21
10.05
0
LINE
8
BLACK
6
CONTINUOUS
10
127.223
20
10.05
11
127.271
21
10.0024
0
LINE
8
BLACK
6
CONTINUOUS
10
127.271
20
10.0024
11
127.318
21
9.90714
0
LINE
8
BLACK
6
CONTINUOUS
10
127.318
20
9.90714
11
127.318
21
9.8119
0
LINE
8
BLACK
6
CONTINUOUS
10
127.318
20
9.8119
11
127.271
21
9.66905
0
LINE
8
BLACK
6
CONTINUOUS
10
127.271
20
9.66905
11
126.699
21
9.09762
0
LINE
8
BLACK
6
CONTINUOUS
10
126.699
20
9.09762
11
127.318
21
9.09762
0
LINE
8
BLACK
6
CONTINUOUS
10
128.175
20
10.0976
11
127.985
21
10.0976
0
LINE
8
BLACK
6
CONTINUOUS
10
127.985
20
10.0976
11
127.89
21
10.05
0
LINE
8
BLACK
6
CONTINUOUS
10
127.89
20
10.05
11
127.842
21
10.0024
0
LINE
8
BLACK
6
CONTINUOUS
10
127.842
20
10.0024
11
127.747
21
9.85952
0
LINE
8
BLACK
6
CONTINUOUS
10
127.747
20
9.85952
11
127.699
21
9.66905
0
LINE
8
BLACK
6
CONTINUOUS
10
127.699
20
9.66905
11
127.699
21
9.2881
0
LINE
8
BLACK
6
CONTINUOUS
10
127.699
20
9.2881
11
127.747
21
9.19286
0
LINE
8
BLACK
6
CONTINUOUS
10
127.747
20
9.19286
11
127.794
21
9.14524
0
LINE
8
BLACK
6
CONTINUOUS
10
127.794
20
9.14524
11
127.89
21
9.09762
0
LINE
8
BLACK
6
CONTINUOUS
10
127.89
20
9.09762
11
128.08
21
9.09762
0
LINE
8
BLACK
6
CONTINUOUS
10
128.08
20
9.09762
11
128.175
21
9.14524
0
LINE
8
BLACK
6
CONTINUOUS
10
128.175
20
9.14524
11
128.223
21
9.19286
0
LINE
8
BLACK
6
CONTINUOUS
10
128.223
20
9.19286
11
128.271
21
9.2881
0
LINE
8
BLACK
6
CONTINUOUS
10
128.271
20
9.2881
11
128.271
21
9.52619
0
LINE
8
BLACK
6
CONTINUOUS
10
128.271
20
9.52619
11
128.223
21
9.62143
0
LINE
8
BLACK
6
CONTINUOUS
10
128.223
20
9.62143
11
128.175
21
9.66905
0
LINE
8
BLACK
6
CONTINUOUS
10
128.175
20
9.66905
11
128.08
21
9.71667
0
LINE
8
BLACK
6
CONTINUOUS
10
128.08
20
9.71667
11
127.89
21
9.71667
0
LINE
8
BLACK
6
CONTINUOUS
10
127.89
20
9.71667
11
127.794
21
9.66905
0
LINE
8
BLACK
6
CONTINUOUS
10
127.794
20
9.66905
11
127.747
21
9.62143
0
LINE
8
BLACK
6
CONTINUOUS
10
127.747
20
9.62143
11
127.699
21
9.52619
0
LINE
8
BLACK
6
CONTINUOUS
10
129.461
20
9.09762
11
129.461
21
9.76428
0
LINE
8
BLACK
6
CONTINUOUS
10
129.461
20
9.66905
11
129.509
21
9.71667
0
LINE
8
BLACK
6
CONTINUOUS
10
129.509
20
9.71667
11
129.604
21
9.76428
0
LINE
8
BLACK
6
CONTINUOUS
10
129.604
20
9.76428
11
129.747
21
9.76428
0
LINE
8
BLACK
6
CONTINUOUS
10
129.747
20
9.76428
11
129.842
21
9.71667
0
LINE
8
BLACK
6
CONTINUOUS
10
129.842
20
9.71667
11
129.89
21
9.62143
0
LINE
8
BLACK
6
CONTINUOUS
10
129.89
20
9.62143
11
129.89
21
9.09762
0
LINE
8
BLACK
6
CONTINUOUS
10
129.89
20
9.62143
11
129.937
21
9.71667
0
LINE
8
BLACK
6
CONTINUOUS
10
129.937
20
9.71667
11
130.032
21
9.76428
0
LINE
8
BLACK
6
CONTINUOUS
10
130.032
20
9.76428
11
130.175
21
9.76428
0
LINE
8
BLACK
6
CONTINUOUS
10
130.175
20
9.76428
11
130.271
21
9.71667
0
LINE
8
BLACK
6
CONTINUOUS
10
130.271
20
9.71667
11
130.318
21
9.62143
0
LINE
8
BLACK
6
CONTINUOUS
10
130.318
20
9.62143
11
130.318
21
9.09762
0
LINE
8
BLACK
6
CONTINUOUS
10
130.794
20
9.09762
11
130.794
21
9.76428
0
LINE
8
BLACK
6
CONTINUOUS
10
130.794
20
9.66905
11
130.842
21
9.71667
0
LINE
8
BLACK
6
CONTINUOUS
10
130.842
20
9.71667
11
130.937
21
9.76428
0
LINE
8
BLACK
6
CONTINUOUS
10
130.937
20
9.76428
11
131.08
21
9.76428
0
LINE
8
BLACK
6
CONTINUOUS
10
131.08
20
9.76428
11
131.175
21
9.71667
0
LINE
8
BLACK
6
CONTINUOUS
10
131.175
20
9.71667
11
131.223
21
9.62143
0
LINE
8
BLACK
6
CONTINUOUS
10
131.223
20
9.62143
11
131.223
21
9.09762
0
LINE
8
BLACK
6
CONTINUOUS
10
131.223
20
9.62143
11
131.271
21
9.71667
0
LINE
8
BLACK
6
CONTINUOUS
10
131.271
20
9.71667
11
131.366
21
9.76428
0
LINE
8
BLACK
6
CONTINUOUS
10
131.366
20
9.76428
11
131.509
21
9.76428
0
LINE
8
BLACK
6
CONTINUOUS
10
131.509
20
9.76428
11
131.604
21
9.71667
0
LINE
8
BLACK
6
CONTINUOUS
10
131.604
20
9.71667
11
131.652
21
9.62143
0
LINE
8
BLACK
6
CONTINUOUS
10
131.652
20
9.62143
11
131.652
21
9.09762
0
LINE
8
BLACK
6
CONTINUOUS
10
123.269
20
8.25
11
132.796
21
8.25
0
LINE
8
BLACK
6
CONTINUOUS
10
123.269
20
7.95
11
123.269
21
8.83642
0
LINE
8
BLACK
6
CONTINUOUS
10
132.796
20
7.95
11
132.796
21
8.83642
0
LINE
8
BLACK
6
CONTINUOUS
10
132.796
20
8.25
11
131.669
21
7.66358
0
LINE
8
BLACK
6
CONTINUOUS
10
132.796
20
8.25
11
131.669
21
8.83642
0
LINE
8
BLACK
6
CONTINUOUS
10
123.269
20
8.25
11
124.396
21
7.66358
0
LINE
8
BLACK
6
CONTINUOUS
10
123.269
20
8.25
11
124.396
21
8.83642
0
LINE
8
BLACK
6
CONTINUOUS
10
122.461
20
-84.6357
11
122.461
21
-85.3024
0
LINE
8
BLACK
6
CONTINUOUS
10
122.222
20
-84.2548
11
121.984
21
-84.969
0
LINE
8
BLACK
6
CONTINUOUS
10
121.984
20
-84.969
11
122.603
21
-84.969
0
LINE
8
BLACK
6
CONTINUOUS
10
122.984
20
-85.2071
11
123.032
21
-85.2548
0
LINE
8
BLACK
6
CONTINUOUS
10
123.032
20
-85.2548
11
122.984
21
-85.3024
0
LINE
8
BLACK
6
CONTINUOUS
10
122.984
20
-85.3024
11
122.937
21
-85.2548
0
LINE
8
BLACK
6
CONTINUOUS
10
122.937
20
-85.2548
11
122.984
21
-85.2071
0
LINE
8
BLACK
6
CONTINUOUS
10
122.984
20
-85.2071
11
122.984
21
-85.3024
0
LINE
8
BLACK
6
CONTINUOUS
10
123.365
20
-84.3024
11
124.032
21
-84.3024
0
LINE
8
BLACK
6
CONTINUOUS
10
124.032
20
-84.3024
11
123.603
21
-85.3024
0
LINE
8
BLACK
6
CONTINUOUS
10
124.841
20
-84.3024
11
124.651
21
-84.3024
0
LINE
8
BLACK
6
CONTINUOUS
10
124.651
20
-84.3024
11
124.556
21
-84.35
0
LINE
8
BLACK
6
CONTINUOUS
10
124.556
20
-84.35
11
124.508
21
-84.3976
0
LINE
8
BLACK
6
CONTINUOUS
10
124.508
20
-84.3976
11
124.413
21
-84.5405
0
LINE
8
BLACK
6
CONTINUOUS
10
124.413
20
-84.5405
11
124.365
21
-84.731
0
LINE
8
BLACK
6
CONTINUOUS
10
124.365
20
-84.731
11
124.365
21
-85.1119
0
LINE
8
BLACK
6
CONTINUOUS
10
124.365
20
-85.1119
11
124.413
21
-85.2071
0
LINE
8
BLACK
6
CONTINUOUS
10
124.413
20
-85.2071
11
124.461
21
-85.2548
0
LINE
8
BLACK
6
CONTINUOUS
10
124.461
20
-85.2548
11
124.556
21
-85.3024
0
LINE
8
BLACK
6
CONTINUOUS
10
124.556
20
-85.3024
11
124.746
21
-85.3024
0
LINE
8
BLACK
6
CONTINUOUS
10
124.746
20
-85.3024
11
124.841
21
-85.2548
0
LINE
8
BLACK
6
CONTINUOUS
10
124.841
20
-85.2548
11
124.889
21
-85.2071
0
LINE
8
BLACK
6
CONTINUOUS
10
124.889
20
-85.2071
11
124.937
21
-85.1119
0
LINE
8
BLACK
6
CONTINUOUS
10
124.937
20
-85.1119
11
124.937
21
-84.8738
0
LINE
8
BLACK
6
CONTINUOUS
10
124.937
20
-84.8738
11
124.889
21
-84.7786
0
LINE
8
BLACK
6
CONTINUOUS
10
124.889
20
-84.7786
11
124.841
21
-84.731
0
LINE
8
BLACK
6
CONTINUOUS
10
124.841
20
-84.731
11
124.746
21
-84.6833
0
LINE
8
BLACK
6
CONTINUOUS
10
124.746
20
-84.6833
11
124.556
21
-84.6833
0
LINE
8
BLACK
6
CONTINUOUS
10
124.556
20
-84.6833
11
124.461
21
-84.731
0
LINE
8
BLACK
6
CONTINUOUS
10
124.461
20
-84.731
11
124.413
21
-84.7786
0
LINE
8
BLACK
6
CONTINUOUS
10
124.413
20
-84.7786
11
124.365
21
-84.8738
0
LINE
8
BLACK
6
CONTINUOUS
10
125.27
20
-84.3024
11
125.889
21
-84.3024
0
LINE
8
BLACK
6
CONTINUOUS
10
125.889
20
-84.3024
11
125.556
21
-84.6833
0
LINE
8
BLACK
6
CONTINUOUS
10
125.556
20
-84.6833
11
125.699
21
-84.6833
0
LINE
8
BLACK
6
CONTINUOUS
10
125.699
20
-84.6833
11
125.794
21
-84.731
0
LINE
8
BLACK
6
CONTINUOUS
10
125.794
20
-84.731
11
125.841
21
-84.7786
0
LINE
8
BLACK
6
CONTINUOUS
10
125.841
20
-84.7786
11
125.889
21
-84.8738
0
LINE
8
BLACK
6
CONTINUOUS
10
125.889
20
-84.8738
11
125.889
21
-85.1119
0
LINE
8
BLACK
6
CONTINUOUS
10
125.889
20
-85.1119
11
125.841
21
-85.2071
0
LINE
8
BLACK
6
CONTINUOUS
10
125.841
20
-85.2071
11
125.794
21
-85.2548
0
LINE
8
BLACK
6
CONTINUOUS
10
125.794
20
-85.2548
11
125.699
21
-85.3024
0
LINE
8
BLACK
6
CONTINUOUS
10
125.699
20
-85.3024
11
125.413
21
-85.3024
0
LINE
8
BLACK
6
CONTINUOUS
10
125.413
20
-85.3024
11
125.318
21
-85.2548
0
LINE
8
BLACK
6
CONTINUOUS
10
125.318
20
-85.2548
11
125.27
21
-85.2071
0
LINE
8
BLACK
6
CONTINUOUS
10
127.08
20
-85.3024
11
127.08
21
-84.6357
0
LINE
8
BLACK
6
CONTINUOUS
10
127.08
20
-84.731
11
127.127
21
-84.6833
0
LINE
8
BLACK
6
CONTINUOUS
10
127.127
20
-84.6833
11
127.222
21
-84.6357
0
LINE
8
BLACK
6
CONTINUOUS
10
127.222
20
-84.6357
11
127.365
21
-84.6357
0
LINE
8
BLACK
6
CONTINUOUS
10
127.365
20
-84.6357
11
127.461
21
-84.6833
0
LINE
8
BLACK
6
CONTINUOUS
10
127.461
20
-84.6833
11
127.508
21
-84.7786
0
LINE
8
BLACK
6
CONTINUOUS
10
127.508
20
-84.7786
11
127.508
21
-85.3024
0
LINE
8
BLACK
6
CONTINUOUS
10
127.508
20
-84.7786
11
127.556
21
-84.6833
0
LINE
8
BLACK
6
CONTINUOUS
10
127.556
20
-84.6833
11
127.651
21
-84.6357
0
LINE
8
BLACK
6
CONTINUOUS
10
127.651
20
-84.6357
11
127.794
21
-84.6357
0
LINE
8
BLACK
6
CONTINUOUS
10
127.794
20
-84.6357
11
127.889
21
-84.6833
0
LINE
8
BLACK
6
CONTINUOUS
10
127.889
20
-84.6833
11
127.937
21
-84.7786
0
LINE
8
BLACK
6
CONTINUOUS
10
127.937
20
-84.7786
11
127.937
21
-85.3024
0
LINE
8
BLACK
6
CONTINUOUS
10
128.413
20
-85.3024
11
128.413
21
-84.6357
0
LINE
8
BLACK
6
CONTINUOUS
10
128.413
20
-84.731
11
128.461
21
-84.6833
0
LINE
8
BLACK
6
CONTINUOUS
10
128.461
20
-84.6833
11
128.556
21
-84.6357
0
LINE
8
BLACK
6
CONTINUOUS
10
128.556
20
-84.6357
11
128.699
21
-84.6357
0
LINE
8
BLACK
6
CONTINUOUS
10
128.699
20
-84.6357
11
128.794
21
-84.6833
0
LINE
8
BLACK
6
CONTINUOUS
10
128.794
20
-84.6833
11
128.841
21
-84.7786
0
LINE
8
BLACK
6
CONTINUOUS
10
128.841
20
-84.7786
11
128.841
21
-85.3024
0
LINE
8
BLACK
6
CONTINUOUS
10
128.841
20
-84.7786
11
128.889
21
-84.6833
0
LINE
8
BLACK
6
CONTINUOUS
10
128.889
20
-84.6833
11
128.984
21
-84.6357
0
LINE
8
BLACK
6
CONTINUOUS
10
128.984
20
-84.6357
11
129.127
21
-84.6357
0
LINE
8
BLACK
6
CONTINUOUS
10
129.127
20
-84.6357
11
129.222
21
-84.6833
0
LINE
8
BLACK
6
CONTINUOUS
10
129.222
20
-84.6833
11
129.27
21
-84.7786
0
LINE
8
BLACK
6
CONTINUOUS
10
129.27
20
-84.7786
11
129.27
21
-85.3024
0
LINE
8
BLACK
6
CONTINUOUS
10
123.269
20
-83.55
11
128.032
21
-83.55
0
LINE
8
BLACK
6
CONTINUOUS
10
123.269
20
-83.1
11
123.269
21
-84.1364
0
LINE
8
BLACK
6
CONTINUOUS
10
128.032
20
-83.1
11
128.032
21
-84.1364
0
LINE
8
BLACK
6
CONTINUOUS
10
128.032
20
-83.55
11
126.906
21
-84.1364
0
LINE
8
BLACK
6
CONTINUOUS
10
128.032
20
-83.55
11
126.906
21
-82.9636
0
LINE
8
BLACK
6
CONTINUOUS
10
123.269
20
-83.55
11
124.396
21
-84.1364
0
LINE
8
BLACK
6
CONTINUOUS
10
123.269
20
-83.55
11
124.396
21
-82.9636
0
LINE
8
BLACK
6
CONTINUOUS
10
129.224
20
-80.3524
11
129.414
21
-80.3524
0
LINE
8
BLACK
6
CONTINUOUS
10
129.414
20
-80.3524
11
129.509
21
-80.3048
0
LINE
8
BLACK
6
CONTINUOUS
10
129.509
20
-80.3048
11
129.557
21
-80.2571
0
LINE
8
BLACK
6
CONTINUOUS
10
129.557
20
-80.2571
11
129.652
21
-80.1143
0
LINE
8
BLACK
6
CONTINUOUS
10
129.652
20
-80.1143
11
129.7
21
-79.9238
0
LINE
8
BLACK
6
CONTINUOUS
10
129.7
20
-79.9238
11
129.7
21
-79.5429
0
LINE
8
BLACK
6
CONTINUOUS
10
129.7
20
-79.5429
11
129.652
21
-79.4476
0
LINE
8
BLACK
6
CONTINUOUS
10
129.652
20
-79.4476
11
129.605
21
-79.4
0
LINE
8
BLACK
6
CONTINUOUS
10
129.605
20
-79.4
11
129.509
21
-79.3524
0
LINE
8
BLACK
6
CONTINUOUS
10
129.509
20
-79.3524
11
129.319
21
-79.3524
0
LINE
8
BLACK
6
CONTINUOUS
10
129.319
20
-79.3524
11
129.224
21
-79.4
0
LINE
8
BLACK
6
CONTINUOUS
10
129.224
20
-79.4
11
129.176
21
-79.4476
0
LINE
8
BLACK
6
CONTINUOUS
10
129.176
20
-79.4476
11
129.128
21
-79.5429
0
LINE
8
BLACK
6
CONTINUOUS
10
129.128
20
-79.5429
11
129.128
21
-79.781
0
LINE
8
BLACK
6
CONTINUOUS
10
129.128
20
-79.781
11
129.176
21
-79.8762
0
LINE
8
BLACK
6
CONTINUOUS
10
129.176
20
-79.8762
11
129.224
21
-79.9238
0
LINE
8
BLACK
6
CONTINUOUS
10
129.224
20
-79.9238
11
129.319
21
-79.9714
0
LINE
8
BLACK
6
CONTINUOUS
10
129.319
20
-79.9714
11
129.509
21
-79.9714
0
LINE
8
BLACK
6
CONTINUOUS
10
129.509
20
-79.9714
11
129.605
21
-79.9238
0
LINE
8
BLACK
6
CONTINUOUS
10
129.605
20
-79.9238
11
129.652
21
-79.8762
0
LINE
8
BLACK
6
CONTINUOUS
10
129.652
20
-79.8762
11
129.7
21
-79.781
0
LINE
8
BLACK
6
CONTINUOUS
10
130.128
20
-80.2571
11
130.176
21
-80.3048
0
LINE
8
BLACK
6
CONTINUOUS
10
130.176
20
-80.3048
11
130.128
21
-80.3524
0
LINE
8
BLACK
6
CONTINUOUS
10
130.128
20
-80.3524
11
130.081
21
-80.3048
0
LINE
8
BLACK
6
CONTINUOUS
10
130.081
20
-80.3048
11
130.128
21
-80.2571
0
LINE
8
BLACK
6
CONTINUOUS
10
130.128
20
-80.2571
11
130.128
21
-80.3524
0
LINE
8
BLACK
6
CONTINUOUS
10
131.081
20
-79.3524
11
130.605
21
-79.3524
0
LINE
8
BLACK
6
CONTINUOUS
10
130.605
20
-79.3524
11
130.557
21
-79.8286
0
LINE
8
BLACK
6
CONTINUOUS
10
130.557
20
-79.8286
11
130.605
21
-79.781
0
LINE
8
BLACK
6
CONTINUOUS
10
130.605
20
-79.781
11
130.7
21
-79.7333
0
LINE
8
BLACK
6
CONTINUOUS
10
130.7
20
-79.7333
11
130.938
21
-79.7333
0
LINE
8
BLACK
6
CONTINUOUS
10
130.938
20
-79.7333
11
131.033
21
-79.781
0
LINE
8
BLACK
6
CONTINUOUS
10
131.033
20
-79.781
11
131.081
21
-79.8286
0
LINE
8
BLACK
6
CONTINUOUS
10
131.081
20
-79.8286
11
131.128
21
-79.9238
0
LINE
8
BLACK
6
CONTINUOUS
10
131.128
20
-79.9238
11
131.128
21
-80.1619
0
LINE
8
BLACK
6
CONTINUOUS
10
131.128
20
-80.1619
11
131.081
21
-80.2571
0
LINE
8
BLACK
6
CONTINUOUS
10
131.081
20
-80.2571
11
131.033
21
-80.3048
0
LINE
8
BLACK
6
CONTINUOUS
10
131.033
20
-80.3048
11
130.938
21
-80.3524
0
LINE
8
BLACK
6
CONTINUOUS
10
130.938
20
-80.3524
11
130.7
21
-80.3524
0
LINE
8
BLACK
6
CONTINUOUS
10
130.7
20
-80.3524
11
130.605
21
-80.3048
0
LINE
8
BLACK
6
CONTINUOUS
10
130.605
20
-80.3048
11
130.557
21
-80.2571
0
LINE
8
BLACK
6
CONTINUOUS
10
131.509
20
-79.4476
11
131.557
21
-79.4
0
LINE
8
BLACK
6
CONTINUOUS
10
131.557
20
-79.4
11
131.652
21
-79.3524
0
LINE
8
BLACK
6
CONTINUOUS
10
131.652
20
-79.3524
11
131.89
21
-79.3524
0
LINE
8
BLACK
6
CONTINUOUS
10
131.89
20
-79.3524
11
131.985
21
-79.4
0
LINE
8
BLACK
6
CONTINUOUS
10
131.985
20
-79.4
11
132.033
21
-79.4476
0
LINE
8
BLACK
6
CONTINUOUS
10
132.033
20
-79.4476
11
132.081
21
-79.5429
0
LINE
8
BLACK
6
CONTINUOUS
10
132.081
20
-79.5429
11
132.081
21
-79.6381
0
LINE
8
BLACK
6
CONTINUOUS
10
132.081
20
-79.6381
11
132.033
21
-79.781
0
LINE
8
BLACK
6
CONTINUOUS
10
132.033
20
-79.781
11
131.462
21
-80.3524
0
LINE
8
BLACK
6
CONTINUOUS
10
131.462
20
-80.3524
11
132.081
21
-80.3524
0
LINE
8
BLACK
6
CONTINUOUS
10
132.985
20
-79.3524
11
132.509
21
-79.3524
0
LINE
8
BLACK
6
CONTINUOUS
10
132.509
20
-79.3524
11
132.462
21
-79.8286
0
LINE
8
BLACK
6
CONTINUOUS
10
132.462
20
-79.8286
11
132.509
21
-79.781
0
LINE
8
BLACK
6
CONTINUOUS
10
132.509
20
-79.781
11
132.605
21
-79.7333
0
LINE
8
BLACK
6
CONTINUOUS
10
132.605
20
-79.7333
11
132.843
21
-79.7333
0
LINE
8
BLACK
6
CONTINUOUS
10
132.843
20
-79.7333
11
132.938
21
-79.781
0
LINE
8
BLACK
6
CONTINUOUS
10
132.938
20
-79.781
11
132.985
21
-79.8286
0
LINE
8
BLACK
6
CONTINUOUS
10
132.985
20
-79.8286
11
133.033
21
-79.9238
0
LINE
8
BLACK
6
CONTINUOUS
10
133.033
20
-79.9238
11
133.033
21
-80.1619
0
LINE
8
BLACK
6
CONTINUOUS
10
133.033
20
-80.1619
11
132.985
21
-80.2571
0
LINE
8
BLACK
6
CONTINUOUS
10
132.985
20
-80.2571
11
132.938
21
-80.3048
0
LINE
8
BLACK
6
CONTINUOUS
10
132.938
20
-80.3048
11
132.843
21
-80.3524
0
LINE
8
BLACK
6
CONTINUOUS
10
132.843
20
-80.3524
11
132.605
21
-80.3524
0
LINE
8
BLACK
6
CONTINUOUS
10
132.605
20
-80.3524
11
132.509
21
-80.3048
0
LINE
8
BLACK
6
CONTINUOUS
10
132.509
20
-80.3048
11
132.462
21
-80.2571
0
LINE
8
BLACK
6
CONTINUOUS
10
134.224
20
-80.3524
11
134.224
21
-79.6857
0
LINE
8
BLACK
6
CONTINUOUS
10
134.224
20
-79.781
11
134.271
21
-79.7333
0
LINE
8
BLACK
6
CONTINUOUS
10
134.271
20
-79.7333
11
134.366
21
-79.6857
0
LINE
8
BLACK
6
CONTINUOUS
10
134.366
20
-79.6857
11
134.509
21
-79.6857
0
LINE
8
BLACK
6
CONTINUOUS
10
134.509
20
-79.6857
11
134.605
21
-79.7333
0
LINE
8
BLACK
6
CONTINUOUS
10
134.605
20
-79.7333
11
134.652
21
-79.8286
0
LINE
8
BLACK
6
CONTINUOUS
10
134.652
20
-79.8286
11
134.652
21
-80.3524
0
LINE
8
BLACK
6
CONTINUOUS
10
134.652
20
-79.8286
11
134.7
21
-79.7333
0
LINE
8
BLACK
6
CONTINUOUS
10
134.7
20
-79.7333
11
134.795
21
-79.6857
0
LINE
8
BLACK
6
CONTINUOUS
10
134.795
20
-79.6857
11
134.938
21
-79.6857
0
LINE
8
BLACK
6
CONTINUOUS
10
134.938
20
-79.6857
11
135.033
21
-79.7333
0
LINE
8
BLACK
6
CONTINUOUS
10
135.033
20
-79.7333
11
135.081
21
-79.8286
0
LINE
8
BLACK
6
CONTINUOUS
10
135.081
20
-79.8286
11
135.081
21
-80.3524
0
LINE
8
BLACK
6
CONTINUOUS
10
135.557
20
-80.3524
11
135.557
21
-79.6857
0
LINE
8
BLACK
6
CONTINUOUS
10
135.557
20
-79.781
11
135.605
21
-79.7333
0
LINE
8
BLACK
6
CONTINUOUS
10
135.605
20
-79.7333
11
135.7
21
-79.6857
0
LINE
8
BLACK
6
CONTINUOUS
10
135.7
20
-79.6857
11
135.843
21
-79.6857
0
LINE
8
BLACK
6
CONTINUOUS
10
135.843
20
-79.6857
11
135.938
21
-79.7333
0
LINE
8
BLACK
6
CONTINUOUS
10
135.938
20
-79.7333
11
135.985
21
-79.8286
0
LINE
8
BLACK
6
CONTINUOUS
10
135.985
20
-79.8286
11
135.985
21
-80.3524
0
LINE
8
BLACK
6
CONTINUOUS
10
135.985
20
-79.8286
11
136.033
21
-79.7333
0
LINE
8
BLACK
6
CONTINUOUS
10
136.033
20
-79.7333
11
136.128
21
-79.6857
0
LINE
8
BLACK
6
CONTINUOUS
10
136.128
20
-79.6857
11
136.271
21
-79.6857
0
LINE
8
BLACK
6
CONTINUOUS
10
136.271
20
-79.6857
11
136.366
21
-79.7333
0
LINE
8
BLACK
6
CONTINUOUS
10
136.366
20
-79.7333
11
136.414
21
-79.8286
0
LINE
8
BLACK
6
CONTINUOUS
10
136.414
20
-79.8286
11
136.414
21
-80.3524
0
LINE
8
BLACK
6
CONTINUOUS
10
128.032
20
-78.6
11
137.558
21
-78.6
0
LINE
8
BLACK
6
CONTINUOUS
10
128.032
20
-77.15
11
128.032
21
-79.1864
0
LINE
8
BLACK
6
CONTINUOUS
10
137.558
20
-77.15
11
137.558
21
-79.1864
0
LINE
8
BLACK
6
CONTINUOUS
10
137.558
20
-78.6
11
136.431
21
-79.1864
0
LINE
8
BLACK
6
CONTINUOUS
10
137.558
20
-78.6
11
136.431
21
-78.0136
0
LINE
8
BLACK
6
CONTINUOUS
10
128.032
20
-78.6
11
129.159
21
-79.1864
0
LINE
8
BLACK
6
CONTINUOUS
10
128.032
20
-78.6
11
129.159
21
-78.0136
0
LINE
8
BLACK
6
CONTINUOUS
10
62.0726
20
7.03262
11
61.5012
21
7.03262
0
LINE
8
BLACK
6
CONTINUOUS
10
61.7869
20
7.03262
11
61.7869
21
8.03262
0
LINE
8
BLACK
6
CONTINUOUS
10
61.7869
20
8.03262
11
61.6917
21
7.88976
0
LINE
8
BLACK
6
CONTINUOUS
10
61.6917
20
7.88976
11
61.5964
21
7.79452
0
LINE
8
BLACK
6
CONTINUOUS
10
61.5964
20
7.79452
11
61.5012
21
7.7469
0
LINE
8
BLACK
6
CONTINUOUS
10
62.406
20
8.03262
11
63.025
21
8.03262
0
LINE
8
BLACK
6
CONTINUOUS
10
63.025
20
8.03262
11
62.6917
21
7.65166
0
LINE
8
BLACK
6
CONTINUOUS
10
62.6917
20
7.65166
11
62.8345
21
7.65166
0
LINE
8
BLACK
6
CONTINUOUS
10
62.8345
20
7.65166
11
62.9298
21
7.60405
0
LINE
8
BLACK
6
CONTINUOUS
10
62.9298
20
7.60405
11
62.9774
21
7.55643
0
LINE
8
BLACK
6
CONTINUOUS
10
62.9774
20
7.55643
11
63.025
21
7.46119
0
LINE
8
BLACK
6
CONTINUOUS
10
63.025
20
7.46119
11
63.025
21
7.22309
0
LINE
8
BLACK
6
CONTINUOUS
10
63.025
20
7.22309
11
62.9774
21
7.12786
0
LINE
8
BLACK
6
CONTINUOUS
10
62.9774
20
7.12786
11
62.9298
21
7.08024
0
LINE
8
BLACK
6
CONTINUOUS
10
62.9298
20
7.08024
11
62.8345
21
7.03262
0
LINE
8
BLACK
6
CONTINUOUS
10
62.8345
20
7.03262
11
62.5488
21
7.03262
0
LINE
8
BLACK
6
CONTINUOUS
10
62.5488
20
7.03262
11
62.4536
21
7.08024
0
LINE
8
BLACK
6
CONTINUOUS
10
62.4536
20
7.08024
11
62.406
21
7.12786
0
LINE
8
BLACK
6
CONTINUOUS
10
63.3583
20
8.03262
11
63.9774
21
8.03262
0
LINE
8
BLACK
6
CONTINUOUS
10
63.9774
20
8.03262
11
63.6441
21
7.65166
0
LINE
8
BLACK
6
CONTINUOUS
10
63.6441
20
7.65166
11
63.7869
21
7.65166
0
LINE
8
BLACK
6
CONTINUOUS
10
63.7869
20
7.65166
11
63.8822
21
7.60405
0
LINE
8
BLACK
6
CONTINUOUS
10
63.8822
20
7.60405
11
63.9298
21
7.55643
0
LINE
8
BLACK
6
CONTINUOUS
10
63.9298
20
7.55643
11
63.9774
21
7.46119
0
LINE
8
BLACK
6
CONTINUOUS
10
63.9774
20
7.46119
11
63.9774
21
7.22309
0
LINE
8
BLACK
6
CONTINUOUS
10
63.9774
20
7.22309
11
63.9298
21
7.12786
0
LINE
8
BLACK
6
CONTINUOUS
10
63.9298
20
7.12786
11
63.8822
21
7.08024
0
LINE
8
BLACK
6
CONTINUOUS
10
63.8822
20
7.08024
11
63.7869
21
7.03262
0
LINE
8
BLACK
6
CONTINUOUS
10
63.7869
20
7.03262
11
63.5012
21
7.03262
0
LINE
8
BLACK
6
CONTINUOUS
10
63.5012
20
7.03262
11
63.406
21
7.08024
0
LINE
8
BLACK
6
CONTINUOUS
10
63.406
20
7.08024
11
63.3583
21
7.12786
0
LINE
8
BLACK
6
CONTINUOUS
10
64.406
20
7.12786
11
64.4536
21
7.08024
0
LINE
8
BLACK
6
CONTINUOUS
10
64.4536
20
7.08024
11
64.406
21
7.03262
0
LINE
8
BLACK
6
CONTINUOUS
10
64.406
20
7.03262
11
64.3583
21
7.08024
0
LINE
8
BLACK
6
CONTINUOUS
10
64.3583
20
7.08024
11
64.406
21
7.12786
0
LINE
8
BLACK
6
CONTINUOUS
10
64.406
20
7.12786
11
64.406
21
7.03262
0
LINE
8
BLACK
6
CONTINUOUS
10
64.7869
20
8.03262
11
65.406
21
8.03262
0
LINE
8
BLACK
6
CONTINUOUS
10
65.406
20
8.03262
11
65.0726
21
7.65166
0
LINE
8
BLACK
6
CONTINUOUS
10
65.0726
20
7.65166
11
65.2155
21
7.65166
0
LINE
8
BLACK
6
CONTINUOUS
10
65.2155
20
7.65166
11
65.3107
21
7.60405
0
LINE
8
BLACK
6
CONTINUOUS
10
65.3107
20
7.60405
11
65.3583
21
7.55643
0
LINE
8
BLACK
6
CONTINUOUS
10
65.3583
20
7.55643
11
65.406
21
7.46119
0
LINE
8
BLACK
6
CONTINUOUS
10
65.406
20
7.46119
11
65.406
21
7.22309
0
LINE
8
BLACK
6
CONTINUOUS
10
65.406
20
7.22309
11
65.3583
21
7.12786
0
LINE
8
BLACK
6
CONTINUOUS
10
65.3583
20
7.12786
11
65.3107
21
7.08024
0
LINE
8
BLACK
6
CONTINUOUS
10
65.3107
20
7.08024
11
65.2155
21
7.03262
0
LINE
8
BLACK
6
CONTINUOUS
10
65.2155
20
7.03262
11
64.9298
21
7.03262
0
LINE
8
BLACK
6
CONTINUOUS
10
64.9298
20
7.03262
11
64.8345
21
7.08024
0
LINE
8
BLACK
6
CONTINUOUS
10
64.8345
20
7.08024
11
64.7869
21
7.12786
0
LINE
8
BLACK
6
CONTINUOUS
10
66.3107
20
8.03262
11
65.8345
21
8.03262
0
LINE
8
BLACK
6
CONTINUOUS
10
65.8345
20
8.03262
11
65.7869
21
7.55643
0
LINE
8
BLACK
6
CONTINUOUS
10
65.7869
20
7.55643
11
65.8345
21
7.60405
0
LINE
8
BLACK
6
CONTINUOUS
10
65.8345
20
7.60405
11
65.9298
21
7.65166
0
LINE
8
BLACK
6
CONTINUOUS
10
65.9298
20
7.65166
11
66.1679
21
7.65166
0
LINE
8
BLACK
6
CONTINUOUS
10
66.1679
20
7.65166
11
66.2631
21
7.60405
0
LINE
8
BLACK
6
CONTINUOUS
10
66.2631
20
7.60405
11
66.3107
21
7.55643
0
LINE
8
BLACK
6
CONTINUOUS
10
66.3107
20
7.55643
11
66.3583
21
7.46119
0
LINE
8
BLACK
6
CONTINUOUS
10
66.3583
20
7.46119
11
66.3583
21
7.22309
0
LINE
8
BLACK
6
CONTINUOUS
10
66.3583
20
7.22309
11
66.3107
21
7.12786
0
LINE
8
BLACK
6
CONTINUOUS
10
66.3107
20
7.12786
11
66.2631
21
7.08024
0
LINE
8
BLACK
6
CONTINUOUS
10
66.2631
20
7.08024
11
66.1679
21
7.03262
0
LINE
8
BLACK
6
CONTINUOUS
10
66.1679
20
7.03262
11
65.9298
21
7.03262
0
LINE
8
BLACK
6
CONTINUOUS
10
65.9298
20
7.03262
11
65.8345
21
7.08024
0
LINE
8
BLACK
6
CONTINUOUS
10
65.8345
20
7.08024
11
65.7869
21
7.12786
0
LINE
8
BLACK
6
CONTINUOUS
10
67.3107
20
7.03262
11
66.7393
21
7.03262
0
LINE
8
BLACK
6
CONTINUOUS
10
67.025
20
7.03262
11
67.025
21
8.03262
0
LINE
8
BLACK
6
CONTINUOUS
10
67.025
20
8.03262
11
66.9298
21
7.88976
0
LINE
8
BLACK
6
CONTINUOUS
10
66.9298
20
7.88976
11
66.8345
21
7.79452
0
LINE
8
BLACK
6
CONTINUOUS
10
66.8345
20
7.79452
11
66.7393
21
7.7469
0
LINE
8
BLACK
6
CONTINUOUS
10
68.5012
20
7.03262
11
68.5012
21
7.69928
0
LINE
8
BLACK
6
CONTINUOUS
10
68.5012
20
7.60405
11
68.5488
21
7.65166
0
LINE
8
BLACK
6
CONTINUOUS
10
68.5488
20
7.65166
11
68.6441
21
7.69928
0
LINE
8
BLACK
6
CONTINUOUS
10
68.6441
20
7.69928
11
68.7869
21
7.69928
0
LINE
8
BLACK
6
CONTINUOUS
10
68.7869
20
7.69928
11
68.8822
21
7.65166
0
LINE
8
BLACK
6
CONTINUOUS
10
68.8822
20
7.65166
11
68.9298
21
7.55643
0
LINE
8
BLACK
6
CONTINUOUS
10
68.9298
20
7.55643
11
68.9298
21
7.03262
0
LINE
8
BLACK
6
CONTINUOUS
10
68.9298
20
7.55643
11
68.9774
21
7.65166
0
LINE
8
BLACK
6
CONTINUOUS
10
68.9774
20
7.65166
11
69.0726
21
7.69928
0
LINE
8
BLACK
6
CONTINUOUS
10
69.0726
20
7.69928
11
69.2155
21
7.69928
0
LINE
8
BLACK
6
CONTINUOUS
10
69.2155
20
7.69928
11
69.3107
21
7.65166
0
LINE
8
BLACK
6
CONTINUOUS
10
69.3107
20
7.65166
11
69.3583
21
7.55643
0
LINE
8
BLACK
6
CONTINUOUS
10
69.3583
20
7.55643
11
69.3583
21
7.03262
0
LINE
8
BLACK
6
CONTINUOUS
10
69.8345
20
7.03262
11
69.8345
21
7.69928
0
LINE
8
BLACK
6
CONTINUOUS
10
69.8345
20
7.60405
11
69.8822
21
7.65166
0
LINE
8
BLACK
6
CONTINUOUS
10
69.8822
20
7.65166
11
69.9774
21
7.69928
0
LINE
8
BLACK
6
CONTINUOUS
10
69.9774
20
7.69928
11
70.1202
21
7.69928
0
LINE
8
BLACK
6
CONTINUOUS
10
70.1202
20
7.69928
11
70.2155
21
7.65166
0
LINE
8
BLACK
6
CONTINUOUS
10
70.2155
20
7.65166
11
70.2631
21
7.55643
0
LINE
8
BLACK
6
CONTINUOUS
10
70.2631
20
7.55643
11
70.2631
21
7.03262
0
LINE
8
BLACK
6
CONTINUOUS
10
70.2631
20
7.55643
11
70.3107
21
7.65166
0
LINE
8
BLACK
6
CONTINUOUS
10
70.3107
20
7.65166
11
70.406
21
7.69928
0
LINE
8
BLACK
6
CONTINUOUS
10
70.406
20
7.69928
11
70.5488
21
7.69928
0
LINE
8
BLACK
6
CONTINUOUS
10
70.5488
20
7.69928
11
70.6441
21
7.65166
0
LINE
8
BLACK
6
CONTINUOUS
10
70.6441
20
7.65166
11
70.6917
21
7.55643
0
LINE
8
BLACK
6
CONTINUOUS
10
70.6917
20
7.55643
11
70.6917
21
7.03262
0
LINE
8
BLACK
6
CONTINUOUS
10
132.796
20
6.185
11
-0.555
21
6.185
0
LINE
8
BLACK
6
CONTINUOUS
10
132.796
20
5.875
11
132.796
21
6.77142
0
LINE
8
BLACK
6
CONTINUOUS
10
-0.555
20
5.875
11
-0.555
21
6.77142
0
LINE
8
BLACK
6
CONTINUOUS
10
-0.555
20
6.185
11
0.571504
21
6.77142
0
LINE
8
BLACK
6
CONTINUOUS
10
-0.555
20
6.185
11
0.571504
21
5.59858
0
LINE
8
BLACK
6
CONTINUOUS
10
132.796
20
6.185
11
131.669
21
6.77142
0
LINE
8
BLACK
6
CONTINUOUS
10
132.796
20
6.185
11
131.669
21
5.59858
0
LINE
8
BLACK
6
CONTINUOUS
10
3.77762
20
-25.0036
11
3.77762
21
-24.4321
0
LINE
8
BLACK
6
CONTINUOUS
10
3.77762
20
-24.7179
11
4.77762
21
-24.7179
0
LINE
8
BLACK
6
CONTINUOUS
10
4.77762
20
-24.7179
11
4.63476
21
-24.6226
0
LINE
8
BLACK
6
CONTINUOUS
10
4.63476
20
-24.6226
11
4.53952
21
-24.5274
0
LINE
8
BLACK
6
CONTINUOUS
10
4.53952
20
-24.5274
11
4.4919
21
-24.4321
0
LINE
8
BLACK
6
CONTINUOUS
10
4.44428
20
-25.8607
11
3.77762
21
-25.8607
0
LINE
8
BLACK
6
CONTINUOUS
10
4.82524
20
-25.6226
11
4.11095
21
-25.3845
0
LINE
8
BLACK
6
CONTINUOUS
10
4.11095
20
-25.3845
11
4.11095
21
-26.0036
0
LINE
8
BLACK
6
CONTINUOUS
10
3.87286
20
-26.3845
11
3.82524
21
-26.4321
0
LINE
8
BLACK
6
CONTINUOUS
10
3.82524
20
-26.4321
11
3.77762
21
-26.3845
0
LINE
8
BLACK
6
CONTINUOUS
10
3.77762
20
-26.3845
11
3.82524
21
-26.3369
0
LINE
8
BLACK
6
CONTINUOUS
10
3.82524
20
-26.3369
11
3.87286
21
-26.3845
0
LINE
8
BLACK
6
CONTINUOUS
10
3.87286
20
-26.3845
11
3.77762
21
-26.3845
0
LINE
8
BLACK
6
CONTINUOUS
10
4.77762
20
-27.0512
11
4.77762
21
-27.1464
0
LINE
8
BLACK
6
CONTINUOUS
10
4.77762
20
-27.1464
11
4.73
21
-27.2417
0
LINE
8
BLACK
6
CONTINUOUS
10
4.73
20
-27.2417
11
4.68238
21
-27.2893
0
LINE
8
BLACK
6
CONTINUOUS
10
4.68238
20
-27.2893
11
4.58714
21
-27.3369
0
LINE
8
BLACK
6
CONTINUOUS
10
4.58714
20
-27.3369
11
4.39667
21
-27.3845
0
LINE
8
BLACK
6
CONTINUOUS
10
4.39667
20
-27.3845
11
4.15857
21
-27.3845
0
LINE
8
BLACK
6
CONTINUOUS
10
4.15857
20
-27.3845
11
3.96809
21
-27.3369
0
LINE
8
BLACK
6
CONTINUOUS
10
3.96809
20
-27.3369
11
3.87286
21
-27.2893
0
LINE
8
BLACK
6
CONTINUOUS
10
3.87286
20
-27.2893
11
3.82524
21
-27.2417
0
LINE
8
BLACK
6
CONTINUOUS
10
3.82524
20
-27.2417
11
3.77762
21
-27.1464
0
LINE
8
BLACK
6
CONTINUOUS
10
3.77762
20
-27.1464
11
3.77762
21
-27.0512
0
LINE
8
BLACK
6
CONTINUOUS
10
3.77762
20
-27.0512
11
3.82524
21
-26.956
0
LINE
8
BLACK
6
CONTINUOUS
10
3.82524
20
-26.956
11
3.87286
21
-26.9083
0
LINE
8
BLACK
6
CONTINUOUS
10
3.87286
20
-26.9083
11
3.96809
21
-26.8607
0
LINE
8
BLACK
6
CONTINUOUS
10
3.96809
20
-26.8607
11
4.15857
21
-26.8131
0
LINE
8
BLACK
6
CONTINUOUS
10
4.15857
20
-26.8131
11
4.39667
21
-26.8131
0
LINE
8
BLACK
6
CONTINUOUS
10
4.39667
20
-26.8131
11
4.58714
21
-26.8607
0
LINE
8
BLACK
6
CONTINUOUS
10
4.58714
20
-26.8607
11
4.68238
21
-26.9083
0
LINE
8
BLACK
6
CONTINUOUS
10
4.68238
20
-26.9083
11
4.73
21
-26.956
0
LINE
8
BLACK
6
CONTINUOUS
10
4.73
20
-26.956
11
4.77762
21
-27.0512
0
LINE
8
BLACK
6
CONTINUOUS
10
4.77762
20
-28.0036
11
4.77762
21
-28.0988
0
LINE
8
BLACK
6
CONTINUOUS
10
4.77762
20
-28.0988
11
4.73
21
-28.194
0
LINE
8
BLACK
6
CONTINUOUS
10
4.73
20
-28.194
11
4.68238
21
-28.2417
0
LINE
8
BLACK
6
CONTINUOUS
10
4.68238
20
-28.2417
11
4.58714
21
-28.2893
0
LINE
8
BLACK
6
CONTINUOUS
10
4.58714
20
-28.2893
11
4.39667
21
-28.3369
0
LINE
8
BLACK
6
CONTINUOUS
10
4.39667
20
-28.3369
11
4.15857
21
-28.3369
0
LINE
8
BLACK
6
CONTINUOUS
10
4.15857
20
-28.3369
11
3.96809
21
-28.2893
0
LINE
8
BLACK
6
CONTINUOUS
10
3.96809
20
-28.2893
11
3.87286
21
-28.2417
0
LINE
8
BLACK
6
CONTINUOUS
10
3.87286
20
-28.2417
11
3.82524
21
-28.194
0
LINE
8
BLACK
6
CONTINUOUS
10
3.82524
20
-28.194
11
3.77762
21
-28.0988
0
LINE
8
BLACK
6
CONTINUOUS
10
3.77762
20
-28.0988
11
3.77762
21
-28.0036
0
LINE
8
BLACK
6
CONTINUOUS
10
3.77762
20
-28.0036
11
3.82524
21
-27.9083
0
LINE
8
BLACK
6
CONTINUOUS
10
3.82524
20
-27.9083
11
3.87286
21
-27.8607
0
LINE
8
BLACK
6
CONTINUOUS
10
3.87286
20
-27.8607
11
3.96809
21
-27.8131
0
LINE
8
BLACK
6
CONTINUOUS
10
3.96809
20
-27.8131
11
4.15857
21
-27.7655
0
LINE
8
BLACK
6
CONTINUOUS
10
4.15857
20
-27.7655
11
4.39667
21
-27.7655
0
LINE
8
BLACK
6
CONTINUOUS
10
4.39667
20
-27.7655
11
4.58714
21
-27.8131
0
LINE
8
BLACK
6
CONTINUOUS
10
4.58714
20
-27.8131
11
4.68238
21
-27.8607
0
LINE
8
BLACK
6
CONTINUOUS
10
4.68238
20
-27.8607
11
4.73
21
-27.9083
0
LINE
8
BLACK
6
CONTINUOUS
10
4.73
20
-27.9083
11
4.77762
21
-28.0036
0
LINE
8
BLACK
6
CONTINUOUS
10
4.77762
20
-28.956
11
4.77762
21
-29.0512
0
LINE
8
BLACK
6
CONTINUOUS
10
4.77762
20
-29.0512
11
4.73
21
-29.1464
0
LINE
8
BLACK
6
CONTINUOUS
10
4.73
20
-29.1464
11
4.68238
21
-29.194
0
LINE
8
BLACK
6
CONTINUOUS
10
4.68238
20
-29.194
11
4.58714
21
-29.2417
0
LINE
8
BLACK
6
CONTINUOUS
10
4.58714
20
-29.2417
11
4.39667
21
-29.2893
0
LINE
8
BLACK
6
CONTINUOUS
10
4.39667
20
-29.2893
11
4.15857
21
-29.2893
0
LINE
8
BLACK
6
CONTINUOUS
10
4.15857
20
-29.2893
11
3.96809
21
-29.2417
0
LINE
8
BLACK
6
CONTINUOUS
10
3.96809
20
-29.2417
11
3.87286
21
-29.194
0
LINE
8
BLACK
6
CONTINUOUS
10
3.87286
20
-29.194
11
3.82524
21
-29.1464
0
LINE
8
BLACK
6
CONTINUOUS
10
3.82524
20
-29.1464
11
3.77762
21
-29.0512
0
LINE
8
BLACK
6
CONTINUOUS
10
3.77762
20
-29.0512
11
3.77762
21
-28.956
0
LINE
8
BLACK
6
CONTINUOUS
10
3.77762
20
-28.956
11
3.82524
21
-28.8607
0
LINE
8
BLACK
6
CONTINUOUS
10
3.82524
20
-28.8607
11
3.87286
21
-28.8131
0
LINE
8
BLACK
6
CONTINUOUS
10
3.87286
20
-28.8131
11
3.96809
21
-28.7655
0
LINE
8
BLACK
6
CONTINUOUS
10
3.96809
20
-28.7655
11
4.15857
21
-28.7179
0
LINE
8
BLACK
6
CONTINUOUS
10
4.15857
20
-28.7179
11
4.39667
21
-28.7179
0
LINE
8
BLACK
6
CONTINUOUS
10
4.39667
20
-28.7179
11
4.58714
21
-28.7655
0
LINE
8
BLACK
6
CONTINUOUS
10
4.58714
20
-28.7655
11
4.68238
21
-28.8131
0
LINE
8
BLACK
6
CONTINUOUS
10
4.68238
20
-28.8131
11
4.73
21
-28.8607
0
LINE
8
BLACK
6
CONTINUOUS
10
4.73
20
-28.8607
11
4.77762
21
-28.956
0
LINE
8
BLACK
6
CONTINUOUS
10
3.77762
20
-30.4798
11
4.44428
21
-30.4798
0
LINE
8
BLACK
6
CONTINUOUS
10
4.34905
20
-30.4798
11
4.39667
21
-30.5274
0
LINE
8
BLACK
6
CONTINUOUS
10
4.39667
20
-30.5274
11
4.44428
21
-30.6226
0
LINE
8
BLACK
6
CONTINUOUS
10
4.44428
20
-30.6226
11
4.44428
21
-30.7655
0
LINE
8
BLACK
6
CONTINUOUS
10
4.44428
20
-30.7655
11
4.39667
21
-30.8607
0
LINE
8
BLACK
6
CONTINUOUS
10
4.39667
20
-30.8607
11
4.30143
21
-30.9083
0
LINE
8
BLACK
6
CONTINUOUS
10
4.30143
20
-30.9083
11
3.77762
21
-30.9083
0
LINE
8
BLACK
6
CONTINUOUS
10
4.30143
20
-30.9083
11
4.39667
21
-30.956
0
LINE
8
BLACK
6
CONTINUOUS
10
4.39667
20
-30.956
11
4.44428
21
-31.0512
0
LINE
8
BLACK
6
CONTINUOUS
10
4.44428
20
-31.0512
11
4.44428
21
-31.194
0
LINE
8
BLACK
6
CONTINUOUS
10
4.44428
20
-31.194
11
4.39667
21
-31.2893
0
LINE
8
BLACK
6
CONTINUOUS
10
4.39667
20
-31.2893
11
4.30143
21
-31.3369
0
LINE
8
BLACK
6
CONTINUOUS
10
4.30143
20
-31.3369
11
3.77762
21
-31.3369
0
LINE
8
BLACK
6
CONTINUOUS
10
3.77762
20
-31.8131
11
4.44428
21
-31.8131
0
LINE
8
BLACK
6
CONTINUOUS
10
4.34905
20
-31.8131
11
4.39667
21
-31.8607
0
LINE
8
BLACK
6
CONTINUOUS
10
4.39667
20
-31.8607
11
4.44428
21
-31.956
0
LINE
8
BLACK
6
CONTINUOUS
10
4.44428
20
-31.956
11
4.44428
21
-32.0988
0
LINE
8
BLACK
6
CONTINUOUS
10
4.44428
20
-32.0988
11
4.39667
21
-32.194
0
LINE
8
BLACK
6
CONTINUOUS
10
4.39667
20
-32.194
11
4.30143
21
-32.2417
0
LINE
8
BLACK
6
CONTINUOUS
10
4.30143
20
-32.2417
11
3.77762
21
-32.2417
0
LINE
8
BLACK
6
CONTINUOUS
10
4.30143
20
-32.2417
11
4.39667
21
-32.2893
0
LINE
8
BLACK
6
CONTINUOUS
10
4.39667
20
-32.2893
11
4.44428
21
-32.3845
0
LINE
8
BLACK
6
CONTINUOUS
10
4.44428
20
-32.3845
11
4.44428
21
-32.5274
0
LINE
8
BLACK
6
CONTINUOUS
10
4.44428
20
-32.5274
11
4.39667
21
-32.6226
0
LINE
8
BLACK
6
CONTINUOUS
10
4.39667
20
-32.6226
11
4.30143
21
-32.6702
0
LINE
8
BLACK
6
CONTINUOUS
10
4.30143
20
-32.6702
11
3.77762
21
-32.6702
0
LINE
8
BLACK
6
CONTINUOUS
10
5.53
20
-21.575
11
5.53
21
-35.575
0
LINE
8
BLACK
6
CONTINUOUS
10
5.7325
20
-21.575
11
4.94358
21
-21.575
0
LINE
8
BLACK
6
CONTINUOUS
10
5.7325
20
-35.575
11
4.94358
21
-35.575
0
LINE
8
BLACK
6
CONTINUOUS
10
5.53
20
-35.575
11
4.94358
21
-34.4485
0
LINE
8
BLACK
6
CONTINUOUS
10
5.53
20
-35.575
11
6.11642
21
-34.4485
0
LINE
8
BLACK
6
CONTINUOUS
10
5.53
20
-21.575
11
4.94358
21
-22.7015
0
LINE
8
BLACK
6
CONTINUOUS
10
5.53
20
-21.575
11
6.11642
21
-22.7015
0
LINE
8
BLACK
6
CONTINUOUS
10
10.1611
20
-37.1124
11
9.58964
21
-37.1124
0
LINE
8
BLACK
6
CONTINUOUS
10
9.87536
20
-37.1124
11
9.87536
21
-36.1124
0
LINE
8
BLACK
6
CONTINUOUS
10
9.87536
20
-36.1124
11
9.78012
21
-36.2552
0
LINE
8
BLACK
6
CONTINUOUS
10
9.78012
20
-36.2552
11
9.68488
21
-36.3505
0
LINE
8
BLACK
6
CONTINUOUS
10
9.68488
20
-36.3505
11
9.58964
21
-36.3981
0
LINE
8
BLACK
6
CONTINUOUS
10
11.0182
20
-36.4457
11
11.0182
21
-37.1124
0
LINE
8
BLACK
6
CONTINUOUS
10
10.7801
20
-36.0648
11
10.542
21
-36.779
0
LINE
8
BLACK
6
CONTINUOUS
10
10.542
20
-36.779
11
11.1611
21
-36.779
0
LINE
8
BLACK
6
CONTINUOUS
10
11.542
20
-37.0171
11
11.5896
21
-37.0648
0
LINE
8
BLACK
6
CONTINUOUS
10
11.5896
20
-37.0648
11
11.542
21
-37.1124
0
LINE
8
BLACK
6
CONTINUOUS
10
11.542
20
-37.1124
11
11.4944
21
-37.0648
0
LINE
8
BLACK
6
CONTINUOUS
10
11.4944
20
-37.0648
11
11.542
21
-37.0171
0
LINE
8
BLACK
6
CONTINUOUS
10
11.542
20
-37.0171
11
11.542
21
-37.1124
0
LINE
8
BLACK
6
CONTINUOUS
10
12.2087
20
-36.1124
11
12.3039
21
-36.1124
0
LINE
8
BLACK
6
CONTINUOUS
10
12.3039
20
-36.1124
11
12.3992
21
-36.16
0
LINE
8
BLACK
6
CONTINUOUS
10
12.3992
20
-36.16
11
12.4468
21
-36.2076
0
LINE
8
BLACK
6
CONTINUOUS
10
12.4468
20
-36.2076
11
12.4944
21
-36.3029
0
LINE
8
BLACK
6
CONTINUOUS
10
12.4944
20
-36.3029
11
12.542
21
-36.4933
0
LINE
8
BLACK
6
CONTINUOUS
10
12.542
20
-36.4933
11
12.542
21
-36.7314
0
LINE
8
BLACK
6
CONTINUOUS
10
12.542
20
-36.7314
11
12.4944
21
-36.9219
0
LINE
8
BLACK
6
CONTINUOUS
10
12.4944
20
-36.9219
11
12.4468
21
-37.0171
0
LINE
8
BLACK
6
CONTINUOUS
10
12.4468
20
-37.0171
11
12.3992
21
-37.0648
0
LINE
8
BLACK
6
CONTINUOUS
10
12.3992
20
-37.0648
11
12.3039
21
-37.1124
0
LINE
8
BLACK
6
CONTINUOUS
10
12.3039
20
-37.1124
11
12.2087
21
-37.1124
0
LINE
8
BLACK
6
CONTINUOUS
10
12.2087
20
-37.1124
11
12.1135
21
-37.0648
0
LINE
8
BLACK
6
CONTINUOUS
10
12.1135
20
-37.0648
11
12.0658
21
-37.0171
0
LINE
8
BLACK
6
CONTINUOUS
10
12.0658
20
-37.0171
11
12.0182
21
-36.9219
0
LINE
8
BLACK
6
CONTINUOUS
10
12.0182
20
-36.9219
11
11.9706
21
-36.7314
0
LINE
8
BLACK
6
CONTINUOUS
10
11.9706
20
-36.7314
11
11.9706
21
-36.4933
0
LINE
8
BLACK
6
CONTINUOUS
10
11.9706
20
-36.4933
11
12.0182
21
-36.3029
0
LINE
8
BLACK
6
CONTINUOUS
10
12.0182
20
-36.3029
11
12.0658
21
-36.2076
0
LINE
8
BLACK
6
CONTINUOUS
10
12.0658
20
-36.2076
11
12.1135
21
-36.16
0
LINE
8
BLACK
6
CONTINUOUS
10
12.1135
20
-36.16
11
12.2087
21
-36.1124
0
LINE
8
BLACK
6
CONTINUOUS
10
13.1611
20
-36.1124
11
13.2563
21
-36.1124
0
LINE
8
BLACK
6
CONTINUOUS
10
13.2563
20
-36.1124
11
13.3515
21
-36.16
0
LINE
8
BLACK
6
CONTINUOUS
10
13.3515
20
-36.16
11
13.3992
21
-36.2076
0
LINE
8
BLACK
6
CONTINUOUS
10
13.3992
20
-36.2076
11
13.4468
21
-36.3029
0
LINE
8
BLACK
6
CONTINUOUS
10
13.4468
20
-36.3029
11
13.4944
21
-36.4933
0
LINE
8
BLACK
6
CONTINUOUS
10
13.4944
20
-36.4933
11
13.4944
21
-36.7314
0
LINE
8
BLACK
6
CONTINUOUS
10
13.4944
20
-36.7314
11
13.4468
21
-36.9219
0
LINE
8
BLACK
6
CONTINUOUS
10
13.4468
20
-36.9219
11
13.3992
21
-37.0171
0
LINE
8
BLACK
6
CONTINUOUS
10
13.3992
20
-37.0171
11
13.3515
21
-37.0648
0
LINE
8
BLACK
6
CONTINUOUS
10
13.3515
20
-37.0648
11
13.2563
21
-37.1124
0
LINE
8
BLACK
6
CONTINUOUS
10
13.2563
20
-37.1124
11
13.1611
21
-37.1124
0
LINE
8
BLACK
6
CONTINUOUS
10
13.1611
20
-37.1124
11
13.0658
21
-37.0648
0
LINE
8
BLACK
6
CONTINUOUS
10
13.0658
20
-37.0648
11
13.0182
21
-37.0171
0
LINE
8
BLACK
6
CONTINUOUS
10
13.0182
20
-37.0171
11
12.9706
21
-36.9219
0
LINE
8
BLACK
6
CONTINUOUS
10
12.9706
20
-36.9219
11
12.923
21
-36.7314
0
LINE
8
BLACK
6
CONTINUOUS
10
12.923
20
-36.7314
11
12.923
21
-36.4933
0
LINE
8
BLACK
6
CONTINUOUS
10
12.923
20
-36.4933
11
12.9706
21
-36.3029
0
LINE
8
BLACK
6
CONTINUOUS
10
12.9706
20
-36.3029
11
13.0182
21
-36.2076
0
LINE
8
BLACK
6
CONTINUOUS
10
13.0182
20
-36.2076
11
13.0658
21
-36.16
0
LINE
8
BLACK
6
CONTINUOUS
10
13.0658
20
-36.16
11
13.1611
21
-36.1124
0
LINE
8
BLACK
6
CONTINUOUS
10
14.1135
20
-36.1124
11
14.2087
21
-36.1124
0
LINE
8
BLACK
6
CONTINUOUS
10
14.2087
20
-36.1124
11
14.3039
21
-36.16
0
LINE
8
BLACK
6
CONTINUOUS
10
14.3039
20
-36.16
11
14.3515
21
-36.2076
0
LINE
8
BLACK
6
CONTINUOUS
10
14.3515
20
-36.2076
11
14.3992
21
-36.3029
0
LINE
8
BLACK
6
CONTINUOUS
10
14.3992
20
-36.3029
11
14.4468
21
-36.4933
0
LINE
8
BLACK
6
CONTINUOUS
10
14.4468
20
-36.4933
11
14.4468
21
-36.7314
0
LINE
8
BLACK
6
CONTINUOUS
10
14.4468
20
-36.7314
11
14.3992
21
-36.9219
0
LINE
8
BLACK
6
CONTINUOUS
10
14.3992
20
-36.9219
11
14.3515
21
-37.0171
0
LINE
8
BLACK
6
CONTINUOUS
10
14.3515
20
-37.0171
11
14.3039
21
-37.0648
0
LINE
8
BLACK
6
CONTINUOUS
10
14.3039
20
-37.0648
11
14.2087
21
-37.1124
0
LINE
8
BLACK
6
CONTINUOUS
10
14.2087
20
-37.1124
11
14.1135
21
-37.1124
0
LINE
8
BLACK
6
CONTINUOUS
10
14.1135
20
-37.1124
11
14.0182
21
-37.0648
0
LINE
8
BLACK
6
CONTINUOUS
10
14.0182
20
-37.0648
11
13.9706
21
-37.0171
0
LINE
8
BLACK
6
CONTINUOUS
10
13.9706
20
-37.0171
11
13.923
21
-36.9219
0
LINE
8
BLACK
6
CONTINUOUS
10
13.923
20
-36.9219
11
13.8754
21
-36.7314
0
LINE
8
BLACK
6
CONTINUOUS
10
13.8754
20
-36.7314
11
13.8754
21
-36.4933
0
LINE
8
BLACK
6
CONTINUOUS
10
13.8754
20
-36.4933
11
13.923
21
-36.3029
0
LINE
8
BLACK
6
CONTINUOUS
10
13.923
20
-36.3029
11
13.9706
21
-36.2076
0
LINE
8
BLACK
6
CONTINUOUS
10
13.9706
20
-36.2076
11
14.0182
21
-36.16
0
LINE
8
BLACK
6
CONTINUOUS
10
14.0182
20
-36.16
11
14.1135
21
-36.1124
0
LINE
8
BLACK
6
CONTINUOUS
10
15.6373
20
-37.1124
11
15.6373
21
-36.4457
0
LINE
8
BLACK
6
CONTINUOUS
10
15.6373
20
-36.541
11
15.6849
21
-36.4933
0
LINE
8
BLACK
6
CONTINUOUS
10
15.6849
20
-36.4933
11
15.7801
21
-36.4457
0
LINE
8
BLACK
6
CONTINUOUS
10
15.7801
20
-36.4457
11
15.923
21
-36.4457
0
LINE
8
BLACK
6
CONTINUOUS
10
15.923
20
-36.4457
11
16.0182
21
-36.4933
0
LINE
8
BLACK
6
CONTINUOUS
10
16.0182
20
-36.4933
11
16.0658
21
-36.5886
0
LINE
8
BLACK
6
CONTINUOUS
10
16.0658
20
-36.5886
11
16.0658
21
-37.1124
0
LINE
8
BLACK
6
CONTINUOUS
10
16.0658
20
-36.5886
11
16.1135
21
-36.4933
0
LINE
8
BLACK
6
CONTINUOUS
10
16.1135
20
-36.4933
11
16.2087
21
-36.4457
0
LINE
8
BLACK
6
CONTINUOUS
10
16.2087
20
-36.4457
11
16.3515
21
-36.4457
0
LINE
8
BLACK
6
CONTINUOUS
10
16.3515
20
-36.4457
11
16.4468
21
-36.4933
0
LINE
8
BLACK
6
CONTINUOUS
10
16.4468
20
-36.4933
11
16.4944
21
-36.5886
0
LINE
8
BLACK
6
CONTINUOUS
10
16.4944
20
-36.5886
11
16.4944
21
-37.1124
0
LINE
8
BLACK
6
CONTINUOUS
10
16.9706
20
-37.1124
11
16.9706
21
-36.4457
0
LINE
8
BLACK
6
CONTINUOUS
10
16.9706
20
-36.541
11
17.0182
21
-36.4933
0
LINE
8
BLACK
6
CONTINUOUS
10
17.0182
20
-36.4933
11
17.1135
21
-36.4457
0
LINE
8
BLACK
6
CONTINUOUS
10
17.1135
20
-36.4457
11
17.2563
21
-36.4457
0
LINE
8
BLACK
6
CONTINUOUS
10
17.2563
20
-36.4457
11
17.3515
21
-36.4933
0
LINE
8
BLACK
6
CONTINUOUS
10
17.3515
20
-36.4933
11
17.3992
21
-36.5886
0
LINE
8
BLACK
6
CONTINUOUS
10
17.3992
20
-36.5886
11
17.3992
21
-37.1124
0
LINE
8
BLACK
6
CONTINUOUS
10
17.3992
20
-36.5886
11
17.4468
21
-36.4933
0
LINE
8
BLACK
6
CONTINUOUS
10
17.4468
20
-36.4933
11
17.542
21
-36.4457
0
LINE
8
BLACK
6
CONTINUOUS
10
17.542
20
-36.4457
11
17.6849
21
-36.4457
0
LINE
8
BLACK
6
CONTINUOUS
10
17.6849
20
-36.4457
11
17.7801
21
-36.4933
0
LINE
8
BLACK
6
CONTINUOUS
10
17.7801
20
-36.4933
11
17.8277
21
-36.5886
0
LINE
8
BLACK
6
CONTINUOUS
10
17.8277
20
-36.5886
11
17.8277
21
-37.1124
0
LINE
8
BLACK
6
CONTINUOUS
10
6.7325
20
-37.96
11
20.7325
21
-37.96
0
LINE
8
BLACK
6
CONTINUOUS
10
6.7325
20
-38.075
11
6.7325
21
-37.3736
0
LINE
8
BLACK
6
CONTINUOUS
10
20.7325
20
-38.075
11
20.7325
21
-37.3736
0
LINE
8
BLACK
6
CONTINUOUS
10
20.7325
20
-37.96
11
19.606
21
-38.5464
0
LINE
8
BLACK
6
CONTINUOUS
10
20.7325
20
-37.96
11
19.606
21
-37.3736
0
LINE
8
BLACK
6
CONTINUOUS
10
6.7325
20
-37.96
11
7.859
21
-38.5464
0
LINE
8
BLACK
6
CONTINUOUS
10
6.7325
20
-37.96
11
7.859
21
-37.3736
0
LINE
8
BLACK
6
CONTINUOUS
10
101.694
20
-21.575
11
101.694
21
-35.575
0
LINE
8
BLACK
6
CONTINUOUS
10
87.6945
20
-21.575
11
87.6945
21
-35.575
0
LINE
8
BLACK
6
CONTINUOUS
10
101.694
20
-35.575
11
87.6945
21
-35.575
0
LINE
8
BLACK
6
CONTINUOUS
10
101.694
20
-21.575
11
87.6945
21
-21.575
0
LINE
8
BLACK
6
CONTINUOUS
10
82.6445
20
-21.575
11
82.6445
21
-35.575
0
LINE
8
BLACK
6
CONTINUOUS
10
68.6445
20
-21.575
11
68.6445
21
-35.575
0
LINE
8
BLACK
6
CONTINUOUS
10
82.6445
20
-35.575
11
68.6445
21
-35.575
0
LINE
8
BLACK
6
CONTINUOUS
10
82.6445
20
-21.575
11
68.6445
21
-21.575
0
LINE
8
BLACK
6
CONTINUOUS
10
63.595
20
-21.575
11
63.595
21
-35.575
0
LINE
8
BLACK
6
CONTINUOUS
10
49.595
20
-21.575
11
49.595
21
-35.575
0
LINE
8
BLACK
6
CONTINUOUS
10
63.595
20
-35.575
11
49.595
21
-35.575
0
LINE
8
BLACK
6
CONTINUOUS
10
63.595
20
-21.575
11
49.595
21
-21.575
0
LINE
8
BLACK
6
CONTINUOUS
10
68.3575
20
-40.625
11
68.3575
21
-54.625
0
LINE
8
BLACK
6
CONTINUOUS
10
68.3575
20
-54.625
11
54.3575
21
-54.625
0
LINE
8
BLACK
6
CONTINUOUS
10
68.3575
20
-40.625
11
54.3575
21
-40.625
0
LINE
8
BLACK
6
CONTINUOUS
10
54.3575
20
-40.625
11
54.3575
21
-54.625
0
LINE
8
BLACK
6
CONTINUOUS
10
87.4075
20
-40.625
11
87.4075
21
-54.625
0
LINE
8
BLACK
6
CONTINUOUS
10
87.4075
20
-54.625
11
73.4075
21
-54.625
0
LINE
8
BLACK
6
CONTINUOUS
10
87.4075
20
-40.625
11
73.4075
21
-40.625
0
LINE
8
BLACK
6
CONTINUOUS
10
73.4075
20
-40.625
11
73.4075
21
-54.625
0
LINE
8
BLACK
6
CONTINUOUS
10
106.457
20
-40.625
11
106.457
21
-54.625
0
LINE
8
BLACK
6
CONTINUOUS
10
92.4575
20
-40.625
11
92.4575
21
-54.625
0
LINE
8
BLACK
6
CONTINUOUS
10
106.457
20
-54.625
11
92.4575
21
-54.625
0
LINE
8
BLACK
6
CONTINUOUS
10
106.457
20
-40.625
11
92.4575
21
-40.625
0
LINE
8
BLACK
6
CONTINUOUS
10
49.3075
20
-40.625
11
49.3075
21
-54.625
0
LINE
8
BLACK
6
CONTINUOUS
10
35.3075
20
-40.625
11
35.3075
21
-54.625
0
LINE
8
BLACK
6
CONTINUOUS
10
49.3075
20
-54.625
11
35.3075
21
-54.625
0
LINE
8
BLACK
6
CONTINUOUS
10
49.3075
20
-40.625
11
35.3075
21
-40.625
0
LINE
8
BLACK
6
CONTINUOUS
10
20.7325
20
-21.575
11
20.7325
21
-35.575
0
LINE
8
BLACK
6
CONTINUOUS
10
6.7325
20
-21.575
11
6.7325
21
-35.575
0
LINE
8
BLACK
6
CONTINUOUS
10
20.7325
20
-35.575
11
6.7325
21
-35.575
0
LINE
8
BLACK
6
CONTINUOUS
10
20.7325
20
-21.575
11
6.7325
21
-21.575
0
LINE
8
BLACK
6
CONTINUOUS
10
44.545
20
-21.575
11
44.545
21
-35.575
0
LINE
8
BLACK
6
CONTINUOUS
10
30.545
20
-21.575
11
30.545
21
-35.575
0
LINE
8
BLACK
6
CONTINUOUS
10
44.545
20
-35.575
11
30.545
21
-35.575
0
LINE
8
BLACK
6
CONTINUOUS
10
44.545
20
-21.575
11
30.545
21
-21.575
0
LINE
8
BLACK
6
CONTINUOUS
10
125.507
20
-40.625
11
125.507
21
-54.625
0
LINE
8
BLACK
6
CONTINUOUS
10
111.507
20
-40.625
11
111.507
21
-54.625
0
LINE
8
BLACK
6
CONTINUOUS
10
125.507
20
-54.625
11
111.507
21
-54.625
0
LINE
8
BLACK
6
CONTINUOUS
10
125.507
20
-40.625
11
111.507
21
-40.625
0
LINE
8
BLACK
6
CONTINUOUS
10
120.744
20
-21.575
11
120.744
21
-35.575
0
LINE
8
BLACK
6
CONTINUOUS
10
106.745
20
-21.575
11
106.745
21
-35.575
0
LINE
8
BLACK
6
CONTINUOUS
10
120.744
20
-35.575
11
106.745
21
-35.575
0
LINE
8
BLACK
6
CONTINUOUS
10
120.744
20
-21.575
11
106.745
21
-21.575
0
LINE
8
BLACK
6
CONTINUOUS
10
130.27
20
-2.525
11
130.27
21
-16.525
0
LINE
8
BLACK
6
CONTINUOUS
10
116.27
20
-2.525
11
116.27
21
-16.525
0
LINE
8
BLACK
6
CONTINUOUS
10
130.27
20
-16.525
11
116.27
21
-16.525
0
LINE
8
BLACK
6
CONTINUOUS
10
130.27
20
-2.525
11
116.27
21
-2.525
0
LINE
8
BLACK
6
CONTINUOUS
10
111.221
20
-2.525
11
111.221
21
-16.525
0
LINE
8
BLACK
6
CONTINUOUS
10
97.2205
20
-2.525
11
97.2205
21
-16.525
0
LINE
8
BLACK
6
CONTINUOUS
10
111.221
20
-16.525
11
97.2205
21
-16.525
0
LINE
8
BLACK
6
CONTINUOUS
10
111.221
20
-2.525
11
97.2205
21
-2.525
0
LINE
8
BLACK
6
CONTINUOUS
10
92.1705
20
-2.525
11
92.1705
21
-16.525
0
LINE
8
BLACK
6
CONTINUOUS
10
78.1705
20
-2.525
11
78.1705
21
-16.525
0
LINE
8
BLACK
6
CONTINUOUS
10
92.1705
20
-16.525
11
78.1705
21
-16.525
0
LINE
8
BLACK
6
CONTINUOUS
10
92.1705
20
-2.525
11
78.1705
21
-2.525
0
LINE
8
BLACK
6
CONTINUOUS
10
73.12
20
-2.525
11
73.12
21
-16.525
0
LINE
8
BLACK
6
CONTINUOUS
10
59.12
20
-2.525
11
59.12
21
-16.525
0
LINE
8
BLACK
6
CONTINUOUS
10
73.12
20
-16.525
11
59.12
21
-16.525
0
LINE
8
BLACK
6
CONTINUOUS
10
73.12
20
-2.525
11
59.12
21
-2.525
0
LINE
8
BLACK
6
CONTINUOUS
10
54.07
20
-2.525
11
54.07
21
-16.525
0
LINE
8
BLACK
6
CONTINUOUS
10
40.07
20
-2.525
11
40.07
21
-16.525
0
LINE
8
BLACK
6
CONTINUOUS
10
54.07
20
-16.525
11
40.07
21
-16.525
0
LINE
8
BLACK
6
CONTINUOUS
10
54.07
20
-2.525
11
40.07
21
-2.525
0
LINE
8
BLACK
6
CONTINUOUS
10
35.02
20
-16.525
11
21.02
21
-16.525
0
LINE
8
BLACK
6
CONTINUOUS
10
35.02
20
-2.525
11
21.02
21
-2.525
0
LINE
8
BLACK
6
CONTINUOUS
10
21.02
20
-2.525
11
21.02
21
-16.525
0
LINE
8
BLACK
6
CONTINUOUS
10
35.02
20
-2.525
11
35.02
21
-16.525
0
LINE
8
BLACK
6
CONTINUOUS
10
15.97
20
-16.525
11
1.97
21
-16.525
0
LINE
8
BLACK
6
CONTINUOUS
10
15.97
20
-2.525
11
1.97
21
-2.525
0
LINE
8
BLACK
6
CONTINUOUS
10
1.97
20
-2.525
11
1.97
21
-16.525
0
LINE
8
BLACK
6
CONTINUOUS
10
15.97
20
-2.525
11
15.97
21
-16.525
0
LINE
8
BLACK
6
CONTINUOUS
10
23.1137
20
-54.625
11
9.1137
21
-54.625
0
LINE
8
BLACK
6
CONTINUOUS
10
23.1137
20
-40.625
11
9.1137
21
-40.625
0
LINE
8
BLACK
6
CONTINUOUS
10
9.1137
20
-40.625
11
9.1137
21
-54.625
0
LINE
8
BLACK
6
CONTINUOUS
10
23.1137
20
-40.625
11
23.1137
21
-54.625
0
LINE
8
BLACK
6
CONTINUOUS
10
135.032
20
-73.675
11
121.032
21
-73.675
0
LINE
8
BLACK
6
CONTINUOUS
10
135.032
20
-59.675
11
121.032
21
-59.675
0
LINE
8
BLACK
6
CONTINUOUS
10
121.032
20
-59.675
11
121.032
21
-73.675
0
LINE
8
BLACK
6
CONTINUOUS
10
135.032
20
-59.675
11
135.032
21
-73.675
0
LINE
8
BLACK
6
CONTINUOUS
10
115.983
20
-73.675
11
101.983
21
-73.675
0
LINE
8
BLACK
6
CONTINUOUS
10
115.983
20
-59.675
11
101.983
21
-59.675
0
LINE
8
BLACK
6
CONTINUOUS
10
101.983
20
-59.675
11
101.983
21
-73.675
0
LINE
8
BLACK
6
CONTINUOUS
10
115.983
20
-59.675
11
115.983
21
-73.675
0
LINE
8
BLACK
6
CONTINUOUS
10
96.9325
20
-73.675
11
82.9325
21
-73.675
0
LINE
8
BLACK
6
CONTINUOUS
10
96.9325
20
-59.675
11
82.9325
21
-59.675
0
LINE
8
BLACK
6
CONTINUOUS
10
82.9325
20
-59.675
11
82.9325
21
-73.675
0
LINE
8
BLACK
6
CONTINUOUS
10
96.9325
20
-59.675
11
96.9325
21
-73.675
0
LINE
8
BLACK
6
CONTINUOUS
10
77.8825
20
-73.675
11
63.8825
21
-73.675
0
LINE
8
BLACK
6
CONTINUOUS
10
77.8825
20
-59.675
11
63.8825
21
-59.675
0
LINE
8
BLACK
6
CONTINUOUS
10
63.8825
20
-59.675
11
63.8825
21
-73.675
0
LINE
8
BLACK
6
CONTINUOUS
10
77.8825
20
-59.675
11
77.8825
21
-73.675
0
LINE
8
BLACK
6
CONTINUOUS
10
58.8325
20
-73.675
11
44.8325
21
-73.675
0
LINE
8
BLACK
6
CONTINUOUS
10
58.8325
20
-59.675
11
44.8325
21
-59.675
0
LINE
8
BLACK
6
CONTINUOUS
10
44.8325
20
-59.675
11
44.8325
21
-73.675
0
LINE
8
BLACK
6
CONTINUOUS
10
58.8325
20
-59.675
11
58.8325
21
-73.675
0
LINE
8
BLACK
6
CONTINUOUS
10
30.545
20
-78.726
11
30.545
21
-92.726
0
LINE
8
BLACK
6
CONTINUOUS
10
44.545
20
-78.726
11
30.545
21
-78.726
0
LINE
8
BLACK
6
CONTINUOUS
10
44.545
20
-78.726
11
44.545
21
-92.726
0
LINE
8
BLACK
6
CONTINUOUS
10
44.545
20
-92.726
11
30.545
21
-92.726
0
LINE
8
BLACK
6
CONTINUOUS
10
51.9763
20
-78.726
11
51.9763
21
-92.726
0
LINE
8
BLACK
6
CONTINUOUS
10
70.8825
20
-78.726
11
51.9763
21
-78.726
0
LINE
8
BLACK
6
CONTINUOUS
10
65.9762
20
-99.9
11
65.9762
21
-92.726
0
LINE
8
BLACK
6
CONTINUOUS
10
65.9762
20
-92.726
11
51.9763
21
-92.726
0
LINE
8
BLACK
6
CONTINUOUS
10
20.7325
20
-78.725
11
20.7325
21
-92.725
0
LINE
8
BLACK
6
CONTINUOUS
10
20.7325
20
-92.725
11
6.7325
21
-92.725
0
LINE
8
BLACK
6
CONTINUOUS
10
6.7325
20
-78.725
11
6.7325
21
-92.725
0
LINE
8
BLACK
6
CONTINUOUS
10
20.7325
20
-78.725
11
6.7325
21
-78.725
0
CIRCLE
8
BLACK
10
113.744
20
-19.075
40
1.1
0
CIRCLE
8
BLACK
10
66.12
20
-38.125
40
1.1
0
CIRCLE
8
BLACK
10
118.507
20
-73.225
40
1.1
0
CIRCLE
8
BLACK
10
2.3263
20
-76.225
40
1.1
0
LINE
8
BLACK
6
CONTINUOUS
10
-0.555
20
-99.9
11
65.9762
21
-99.9
0
LINE
8
BLACK
6
CONTINUOUS
10
70.8825
20
-76.2
11
70.8825
21
-78.726
0
LINE
8
BLACK
6
CONTINUOUS
10
137.558
20
-76.2
11
70.8825
21
-76.2
0
LINE
8
BLACK
6
CONTINUOUS
10
137.558
20
-57.15
11
137.558
21
-76.2
0
LINE
8
BLACK
6
CONTINUOUS
10
137.558
20
-57.15
11
132.796
21
-57.15
0
LINE
8
BLACK
6
CONTINUOUS
10
132.796
20
4.875
11
132.796
21
-57.15
0
LINE
8
BLACK
6
CONTINUOUS
10
-0.555
20
-99.9
11
-0.555
21
4.38
0
LINE
8
BLACK
6
CONTINUOUS
10
0
20
4.875
11
132.796
21
4.875
0
ARC
8
BLACK
10
-0.03
20
4.35
40
0.525856
50
86.7295
51
176.73
0
LINE
8
BLACK
6
CONTINUOUS
10
17.305
20
-76.9474
11
16.7336
21
-76.9474
0
LINE
8
BLACK
6
CONTINUOUS
10
17.0193
20
-76.9474
11
17.0193
21
-75.9474
0
LINE
8
BLACK
6
CONTINUOUS
10
17.0193
20
-75.9474
11
16.924
21
-76.0902
0
LINE
8
BLACK
6
CONTINUOUS
10
16.924
20
-76.0902
11
16.8288
21
-76.1855
0
LINE
8
BLACK
6
CONTINUOUS
10
16.8288
20
-76.1855
11
16.7336
21
-76.2331
0
LINE
8
BLACK
6
CONTINUOUS
10
18.1621
20
-76.2807
11
18.1621
21
-76.9474
0
LINE
8
BLACK
6
CONTINUOUS
10
17.924
20
-75.8998
11
17.6859
21
-76.614
0
LINE
8
BLACK
6
CONTINUOUS
10
17.6859
20
-76.614
11
18.305
21
-76.614
0
LINE
8
BLACK
6
CONTINUOUS
10
18.6859
20
-76.8521
11
18.7336
21
-76.8998
0
LINE
8
BLACK
6
CONTINUOUS
10
18.7336
20
-76.8998
11
18.6859
21
-76.9474
0
LINE
8
BLACK
6
CONTINUOUS
10
18.6859
20
-76.9474
11
18.6383
21
-76.8998
0
LINE
8
BLACK
6
CONTINUOUS
10
18.6383
20
-76.8998
11
18.6859
21
-76.8521
0
LINE
8
BLACK
6
CONTINUOUS
10
18.6859
20
-76.8521
11
18.6859
21
-76.9474
0
LINE
8
BLACK
6
CONTINUOUS
10
19.3526
20
-75.9474
11
19.4479
21
-75.9474
0
LINE
8
BLACK
6
CONTINUOUS
10
19.4479
20
-75.9474
11
19.5431
21
-75.995
0
LINE
8
BLACK
6
CONTINUOUS
10
19.5431
20
-75.995
11
19.5907
21
-76.0426
0
LINE
8
BLACK
6
CONTINUOUS
10
19.5907
20
-76.0426
11
19.6383
21
-76.1379
0
LINE
8
BLACK
6
CONTINUOUS
10
19.6383
20
-76.1379
11
19.6859
21
-76.3283
0
LINE
8
BLACK
6
CONTINUOUS
10
19.6859
20
-76.3283
11
19.6859
21
-76.5664
0
LINE
8
BLACK
6
CONTINUOUS
10
19.6859
20
-76.5664
11
19.6383
21
-76.7569
0
LINE
8
BLACK
6
CONTINUOUS
10
19.6383
20
-76.7569
11
19.5907
21
-76.8521
0
LINE
8
BLACK
6
CONTINUOUS
10
19.5907
20
-76.8521
11
19.5431
21
-76.8998
0
LINE
8
BLACK
6
CONTINUOUS
10
19.5431
20
-76.8998
11
19.4479
21
-76.9474
0
LINE
8
BLACK
6
CONTINUOUS
10
19.4479
20
-76.9474
11
19.3526
21
-76.9474
0
LINE
8
BLACK
6
CONTINUOUS
10
19.3526
20
-76.9474
11
19.2574
21
-76.8998
0
LINE
8
BLACK
6
CONTINUOUS
10
19.2574
20
-76.8998
11
19.2098
21
-76.8521
0
LINE
8
BLACK
6
CONTINUOUS
10
19.2098
20
-76.8521
11
19.1621
21
-76.7569
0
LINE
8
BLACK
6
CONTINUOUS
10
19.1621
20
-76.7569
11
19.1145
21
-76.5664
0
LINE
8
BLACK
6
CONTINUOUS
10
19.1145
20
-76.5664
11
19.1145
21
-76.3283
0
LINE
8
BLACK
6
CONTINUOUS
10
19.1145
20
-76.3283
11
19.1621
21
-76.1379
0
LINE
8
BLACK
6
CONTINUOUS
10
19.1621
20
-76.1379
11
19.2098
21
-76.0426
0
LINE
8
BLACK
6
CONTINUOUS
10
19.2098
20
-76.0426
11
19.2574
21
-75.995
0
LINE
8
BLACK
6
CONTINUOUS
10
19.2574
20
-75.995
11
19.3526
21
-75.9474
0
LINE
8
BLACK
6
CONTINUOUS
10
20.305
20
-75.9474
11
20.4002
21
-75.9474
0
LINE
8
BLACK
6
CONTINUOUS
10
20.4002
20
-75.9474
11
20.4955
21
-75.995
0
LINE
8
BLACK
6
CONTINUOUS
10
20.4955
20
-75.995
11
20.5431
21
-76.0426
0
LINE
8
BLACK
6
CONTINUOUS
10
20.5431
20
-76.0426
11
20.5907
21
-76.1379
0
LINE
8
BLACK
6
CONTINUOUS
10
20.5907
20
-76.1379
11
20.6383
21
-76.3283
0
LINE
8
BLACK
6
CONTINUOUS
10
20.6383
20
-76.3283
11
20.6383
21
-76.5664
0
LINE
8
BLACK
6
CONTINUOUS
10
20.6383
20
-76.5664
11
20.5907
21
-76.7569
0
LINE
8
BLACK
6
CONTINUOUS
10
20.5907
20
-76.7569
11
20.5431
21
-76.8521
0
LINE
8
BLACK
6
CONTINUOUS
10
20.5431
20
-76.8521
11
20.4955
21
-76.8998
0
LINE
8
BLACK
6
CONTINUOUS
10
20.4955
20
-76.8998
11
20.4002
21
-76.9474
0
LINE
8
BLACK
6
CONTINUOUS
10
20.4002
20
-76.9474
11
20.305
21
-76.9474
0
LINE
8
BLACK
6
CONTINUOUS
10
20.305
20
-76.9474
11
20.2098
21
-76.8998
0
LINE
8
BLACK
6
CONTINUOUS
10
20.2098
20
-76.8998
11
20.1621
21
-76.8521
0
LINE
8
BLACK
6
CONTINUOUS
10
20.1621
20
-76.8521
11
20.1145
21
-76.7569
0
LINE
8
BLACK
6
CONTINUOUS
10
20.1145
20
-76.7569
11
20.0669
21
-76.5664
0
LINE
8
BLACK
6
CONTINUOUS
10
20.0669
20
-76.5664
11
20.0669
21
-76.3283
0
LINE
8
BLACK
6
CONTINUOUS
10
20.0669
20
-76.3283
11
20.1145
21
-76.1379
0
LINE
8
BLACK
6
CONTINUOUS
10
20.1145
20
-76.1379
11
20.1621
21
-76.0426
0
LINE
8
BLACK
6
CONTINUOUS
10
20.1621
20
-76.0426
11
20.2098
21
-75.995
0
LINE
8
BLACK
6
CONTINUOUS
10
20.2098
20
-75.995
11
20.305
21
-75.9474
0
LINE
8
BLACK
6
CONTINUOUS
10
21.2574
20
-75.9474
11
21.3526
21
-75.9474
0
LINE
8
BLACK
6
CONTINUOUS
10
21.3526
20
-75.9474
11
21.4479
21
-75.995
0
LINE
8
BLACK
6
CONTINUOUS
10
21.4479
20
-75.995
11
21.4955
21
-76.0426
0
LINE
8
BLACK
6
CONTINUOUS
10
21.4955
20
-76.0426
11
21.5431
21
-76.1379
0
LINE
8
BLACK
6
CONTINUOUS
10
21.5431
20
-76.1379
11
21.5907
21
-76.3283
0
LINE
8
BLACK
6
CONTINUOUS
10
21.5907
20
-76.3283
11
21.5907
21
-76.5664
0
LINE
8
BLACK
6
CONTINUOUS
10
21.5907
20
-76.5664
11
21.5431
21
-76.7569
0
LINE
8
BLACK
6
CONTINUOUS
10
21.5431
20
-76.7569
11
21.4955
21
-76.8521
0
LINE
8
BLACK
6
CONTINUOUS
10
21.4955
20
-76.8521
11
21.4479
21
-76.8998
0
LINE
8
BLACK
6
CONTINUOUS
10
21.4479
20
-76.8998
11
21.3526
21
-76.9474
0
LINE
8
BLACK
6
CONTINUOUS
10
21.3526
20
-76.9474
11
21.2574
21
-76.9474
0
LINE
8
BLACK
6
CONTINUOUS
10
21.2574
20
-76.9474
11
21.1621
21
-76.8998
0
LINE
8
BLACK
6
CONTINUOUS
10
21.1621
20
-76.8998
11
21.1145
21
-76.8521
0
LINE
8
BLACK
6
CONTINUOUS
10
21.1145
20
-76.8521
11
21.0669
21
-76.7569
0
LINE
8
BLACK
6
CONTINUOUS
10
21.0669
20
-76.7569
11
21.0193
21
-76.5664
0
LINE
8
BLACK
6
CONTINUOUS
10
21.0193
20
-76.5664
11
21.0193
21
-76.3283
0
LINE
8
BLACK
6
CONTINUOUS
10
21.0193
20
-76.3283
11
21.0669
21
-76.1379
0
LINE
8
BLACK
6
CONTINUOUS
10
21.0669
20
-76.1379
11
21.1145
21
-76.0426
0
LINE
8
BLACK
6
CONTINUOUS
10
21.1145
20
-76.0426
11
21.1621
21
-75.995
0
LINE
8
BLACK
6
CONTINUOUS
10
21.1621
20
-75.995
11
21.2574
21
-75.9474
0
LINE
8
BLACK
6
CONTINUOUS
10
22.7812
20
-76.9474
11
22.7812
21
-76.2807
0
LINE
8
BLACK
6
CONTINUOUS
10
22.7812
20
-76.376
11
22.8288
21
-76.3283
0
LINE
8
BLACK
6
CONTINUOUS
10
22.8288
20
-76.3283
11
22.924
21
-76.2807
0
LINE
8
BLACK
6
CONTINUOUS
10
22.924
20
-76.2807
11
23.0669
21
-76.2807
0
LINE
8
BLACK
6
CONTINUOUS
10
23.0669
20
-76.2807
11
23.1621
21
-76.3283
0
LINE
8
BLACK
6
CONTINUOUS
10
23.1621
20
-76.3283
11
23.2098
21
-76.4236
0
LINE
8
BLACK
6
CONTINUOUS
10
23.2098
20
-76.4236
11
23.2098
21
-76.9474
0
LINE
8
BLACK
6
CONTINUOUS
10
23.2098
20
-76.4236
11
23.2574
21
-76.3283
0
LINE
8
BLACK
6
CONTINUOUS
10
23.2574
20
-76.3283
11
23.3526
21
-76.2807
0
LINE
8
BLACK
6
CONTINUOUS
10
23.3526
20
-76.2807
11
23.4955
21
-76.2807
0
LINE
8
BLACK
6
CONTINUOUS
10
23.4955
20
-76.2807
11
23.5907
21
-76.3283
0
LINE
8
BLACK
6
CONTINUOUS
10
23.5907
20
-76.3283
11
23.6383
21
-76.4236
0
LINE
8
BLACK
6
CONTINUOUS
10
23.6383
20
-76.4236
11
23.6383
21
-76.9474
0
LINE
8
BLACK
6
CONTINUOUS
10
24.1145
20
-76.9474
11
24.1145
21
-76.2807
0
LINE
8
BLACK
6
CONTINUOUS
10
24.1145
20
-76.376
11
24.1621
21
-76.3283
0
LINE
8
BLACK
6
CONTINUOUS
10
24.1621
20
-76.3283
11
24.2574
21
-76.2807
0
LINE
8
BLACK
6
CONTINUOUS
10
24.2574
20
-76.2807
11
24.4002
21
-76.2807
0
LINE
8
BLACK
6
CONTINUOUS
10
24.4002
20
-76.2807
11
24.4955
21
-76.3283
0
LINE
8
BLACK
6
CONTINUOUS
10
24.4955
20
-76.3283
11
24.5431
21
-76.4236
0
LINE
8
BLACK
6
CONTINUOUS
10
24.5431
20
-76.4236
11
24.5431
21
-76.9474
0
LINE
8
BLACK
6
CONTINUOUS
10
24.5431
20
-76.4236
11
24.5907
21
-76.3283
0
LINE
8
BLACK
6
CONTINUOUS
10
24.5907
20
-76.3283
11
24.6859
21
-76.2807
0
LINE
8
BLACK
6
CONTINUOUS
10
24.6859
20
-76.2807
11
24.8288
21
-76.2807
0
LINE
8
BLACK
6
CONTINUOUS
10
24.8288
20
-76.2807
11
24.924
21
-76.3283
0
LINE
8
BLACK
6
CONTINUOUS
10
24.924
20
-76.3283
11
24.9717
21
-76.4236
0
LINE
8
BLACK
6
CONTINUOUS
10
24.9717
20
-76.4236
11
24.9717
21
-76.9474
0
LINE
8
BLACK
6
CONTINUOUS
10
27.8765
20
-75.295
11
13.8763
21
-75.295
0
LINE
8
BLACK
6
CONTINUOUS
10
27.8765
20
-74.675
11
27.8765
21
-75.8814
0
LINE
8
BLACK
6
CONTINUOUS
10
13.8763
20
-74.675
11
13.8763
21
-75.8814
0
LINE
8
BLACK
6
CONTINUOUS
10
13.8763
20
-75.295
11
15.0028
21
-74.7086
0
LINE
8
BLACK
6
CONTINUOUS
10
13.8763
20
-75.295
11
15.0028
21
-75.8814
0
LINE
8
BLACK
6
CONTINUOUS
10
27.8765
20
-75.295
11
26.75
21
-74.7086
0
LINE
8
BLACK
6
CONTINUOUS
10
27.8765
20
-75.295
11
26.75
21
-75.8814
0
LINE
8
BLACK
6
CONTINUOUS
10
27.8765
20
-64.375
11
27.8765
21
-59.675
0
LINE
8
BLACK
6
CONTINUOUS
10
27.8765
20
-59.675
11
13.8765
21
-59.675
0
LINE
8
BLACK
6
CONTINUOUS
10
13.8765
20
-73.675
11
27.8765
21
-73.675
0
LINE
8
BLACK
6
CONTINUOUS
10
27.8765
20
-73.675
11
27.8765
21
-68.975
0
LINE
8
BLACK
6
CONTINUOUS
10
13.8763
20
-73.675
11
13.8763
21
-68.975
0
LINE
8
BLACK
6
CONTINUOUS
10
13.8763
20
-64.375
11
13.8763
21
-59.675
  0
ENDSEC
  0
EOF
