  0
SECTION
  2
HEADER
  9
$ANGBASE
  50
0.0
  9
$ANGDIR
  70
1
  9
$MEASUREMENT
  70
1
  0
ENDSEC
  0
SECTION
  2
TABLES
  0
TABLE
  2
LTYPE
  70
4
  0
LTYPE
  5
40F
  2
CONTINUOUS
  70
0
  3
Solid line
  72
65
  73
0
  40
0.0
  0
LTYPE
  5
410
  2
DASHDOT
 70
0
  3
Dash Dot ____ _ ____ _
 72
65
 73
4
 40
2.0
 49
1.25
 49
-0.25
 49
0.25
 49
-0.25
  0
LTYPE
  5
411
  2
DASHED
 70
0
  3
Dashed __ __ __ __ __
 72
65
 73
2
 40
0.75
 49
0.5
 49
-0.25
  0
LTYPE
  5
43B
  2
DOTTED
 70
0
  3
Dotted .  .  .  .
 72
65
 73
2
 40
0.2
 49
0.0
 49
-0.2
  0
ENDTAB
  0
TABLE
  2
STYLE
  70
4
  0
STYLE
  2
KICAD
  70
0
  40
0
  41
1
  42
1
  50
0
  71
0
  3
isocp.shx
  0
STYLE
  2
KICADB
  70
0
  40
0
  41
1
  42
1
  50
0
  71
0
  3
isocp.shx
  0
STYLE
  2
KICADI
  70
0
  40
0
  41
1
  42
1
  50
15
  71
0
  3
isocp.shx
  0
STYLE
  2
KICADBI
  70
0
  40
0
  41
1
  42
1
  50
15
  71
0
  3
isocp.shx
  0
ENDTAB
  0
TABLE
  2
LAYER
  70
1
  0
LAYER
  2
BLACK
  70
0
  62
7
  6
CONTINUOUS
  0
ENDTAB
  0
ENDSEC
  0
SECTION
  2
ENTITIES
0
LINE
8
BLACK
6
CONTINUOUS
10
7.29762
20
-33.8295
11
7.29762
21
-34.4486
0
LINE
8
BLACK
6
CONTINUOUS
10
7.29762
20
-34.4486
11
6.91667
21
-34.1152
0
LINE
8
BLACK
6
CONTINUOUS
10
6.91667
20
-34.1152
11
6.91667
21
-34.2581
0
LINE
8
BLACK
6
CONTINUOUS
10
6.91667
20
-34.2581
11
6.86905
21
-34.3533
0
LINE
8
BLACK
6
CONTINUOUS
10
6.86905
20
-34.3533
11
6.82143
21
-34.401
0
LINE
8
BLACK
6
CONTINUOUS
10
6.82143
20
-34.401
11
6.72619
21
-34.4486
0
LINE
8
BLACK
6
CONTINUOUS
10
6.72619
20
-34.4486
11
6.48809
21
-34.4486
0
LINE
8
BLACK
6
CONTINUOUS
10
6.48809
20
-34.4486
11
6.39286
21
-34.401
0
LINE
8
BLACK
6
CONTINUOUS
10
6.39286
20
-34.401
11
6.34524
21
-34.3533
0
LINE
8
BLACK
6
CONTINUOUS
10
6.34524
20
-34.3533
11
6.29762
21
-34.2581
0
LINE
8
BLACK
6
CONTINUOUS
10
6.29762
20
-34.2581
11
6.29762
21
-33.9724
0
LINE
8
BLACK
6
CONTINUOUS
10
6.29762
20
-33.9724
11
6.34524
21
-33.8771
0
LINE
8
BLACK
6
CONTINUOUS
10
6.34524
20
-33.8771
11
6.39286
21
-33.8295
0
LINE
8
BLACK
6
CONTINUOUS
10
7.29762
20
-34.7819
11
7.29762
21
-35.4486
0
LINE
8
BLACK
6
CONTINUOUS
10
7.29762
20
-35.4486
11
6.29762
21
-35.02
0
LINE
8
BLACK
6
CONTINUOUS
10
6.39286
20
-35.8295
11
6.34524
21
-35.8771
0
LINE
8
BLACK
6
CONTINUOUS
10
6.34524
20
-35.8771
11
6.29762
21
-35.8295
0
LINE
8
BLACK
6
CONTINUOUS
10
6.29762
20
-35.8295
11
6.34524
21
-35.7819
0
LINE
8
BLACK
6
CONTINUOUS
10
6.34524
20
-35.7819
11
6.39286
21
-35.8295
0
LINE
8
BLACK
6
CONTINUOUS
10
6.39286
20
-35.8295
11
6.29762
21
-35.8295
0
LINE
8
BLACK
6
CONTINUOUS
10
6.86905
20
-36.4486
11
6.91667
21
-36.3533
0
LINE
8
BLACK
6
CONTINUOUS
10
6.91667
20
-36.3533
11
6.96428
21
-36.3057
0
LINE
8
BLACK
6
CONTINUOUS
10
6.96428
20
-36.3057
11
7.05952
21
-36.2581
0
LINE
8
BLACK
6
CONTINUOUS
10
7.05952
20
-36.2581
11
7.10714
21
-36.2581
0
LINE
8
BLACK
6
CONTINUOUS
10
7.10714
20
-36.2581
11
7.20238
21
-36.3057
0
LINE
8
BLACK
6
CONTINUOUS
10
7.20238
20
-36.3057
11
7.25
21
-36.3533
0
LINE
8
BLACK
6
CONTINUOUS
10
7.25
20
-36.3533
11
7.29762
21
-36.4486
0
LINE
8
BLACK
6
CONTINUOUS
10
7.29762
20
-36.4486
11
7.29762
21
-36.639
0
LINE
8
BLACK
6
CONTINUOUS
10
7.29762
20
-36.639
11
7.25
21
-36.7343
0
LINE
8
BLACK
6
CONTINUOUS
10
7.25
20
-36.7343
11
7.20238
21
-36.7819
0
LINE
8
BLACK
6
CONTINUOUS
10
7.20238
20
-36.7819
11
7.10714
21
-36.8295
0
LINE
8
BLACK
6
CONTINUOUS
10
7.10714
20
-36.8295
11
7.05952
21
-36.8295
0
LINE
8
BLACK
6
CONTINUOUS
10
7.05952
20
-36.8295
11
6.96428
21
-36.7819
0
LINE
8
BLACK
6
CONTINUOUS
10
6.96428
20
-36.7819
11
6.91667
21
-36.7343
0
LINE
8
BLACK
6
CONTINUOUS
10
6.91667
20
-36.7343
11
6.86905
21
-36.639
0
LINE
8
BLACK
6
CONTINUOUS
10
6.86905
20
-36.639
11
6.86905
21
-36.4486
0
LINE
8
BLACK
6
CONTINUOUS
10
6.86905
20
-36.4486
11
6.82143
21
-36.3533
0
LINE
8
BLACK
6
CONTINUOUS
10
6.82143
20
-36.3533
11
6.77381
21
-36.3057
0
LINE
8
BLACK
6
CONTINUOUS
10
6.77381
20
-36.3057
11
6.67857
21
-36.2581
0
LINE
8
BLACK
6
CONTINUOUS
10
6.67857
20
-36.2581
11
6.48809
21
-36.2581
0
LINE
8
BLACK
6
CONTINUOUS
10
6.48809
20
-36.2581
11
6.39286
21
-36.3057
0
LINE
8
BLACK
6
CONTINUOUS
10
6.39286
20
-36.3057
11
6.34524
21
-36.3533
0
LINE
8
BLACK
6
CONTINUOUS
10
6.34524
20
-36.3533
11
6.29762
21
-36.4486
0
LINE
8
BLACK
6
CONTINUOUS
10
6.29762
20
-36.4486
11
6.29762
21
-36.639
0
LINE
8
BLACK
6
CONTINUOUS
10
6.29762
20
-36.639
11
6.34524
21
-36.7343
0
LINE
8
BLACK
6
CONTINUOUS
10
6.34524
20
-36.7343
11
6.39286
21
-36.7819
0
LINE
8
BLACK
6
CONTINUOUS
10
6.39286
20
-36.7819
11
6.48809
21
-36.8295
0
LINE
8
BLACK
6
CONTINUOUS
10
6.48809
20
-36.8295
11
6.67857
21
-36.8295
0
LINE
8
BLACK
6
CONTINUOUS
10
6.67857
20
-36.8295
11
6.77381
21
-36.7819
0
LINE
8
BLACK
6
CONTINUOUS
10
6.77381
20
-36.7819
11
6.82143
21
-36.7343
0
LINE
8
BLACK
6
CONTINUOUS
10
6.82143
20
-36.7343
11
6.86905
21
-36.639
0
LINE
8
BLACK
6
CONTINUOUS
10
6.96428
20
-37.6867
11
6.29762
21
-37.6867
0
LINE
8
BLACK
6
CONTINUOUS
10
7.34524
20
-37.4486
11
6.63095
21
-37.2105
0
LINE
8
BLACK
6
CONTINUOUS
10
6.63095
20
-37.2105
11
6.63095
21
-37.8295
0
LINE
8
BLACK
6
CONTINUOUS
10
7.29762
20
-38.401
11
7.29762
21
-38.4962
0
LINE
8
BLACK
6
CONTINUOUS
10
7.29762
20
-38.4962
11
7.25
21
-38.5914
0
LINE
8
BLACK
6
CONTINUOUS
10
7.25
20
-38.5914
11
7.20238
21
-38.639
0
LINE
8
BLACK
6
CONTINUOUS
10
7.20238
20
-38.639
11
7.10714
21
-38.6867
0
LINE
8
BLACK
6
CONTINUOUS
10
7.10714
20
-38.6867
11
6.91667
21
-38.7343
0
LINE
8
BLACK
6
CONTINUOUS
10
6.91667
20
-38.7343
11
6.67857
21
-38.7343
0
LINE
8
BLACK
6
CONTINUOUS
10
6.67857
20
-38.7343
11
6.48809
21
-38.6867
0
LINE
8
BLACK
6
CONTINUOUS
10
6.48809
20
-38.6867
11
6.39286
21
-38.639
0
LINE
8
BLACK
6
CONTINUOUS
10
6.39286
20
-38.639
11
6.34524
21
-38.5914
0
LINE
8
BLACK
6
CONTINUOUS
10
6.34524
20
-38.5914
11
6.29762
21
-38.4962
0
LINE
8
BLACK
6
CONTINUOUS
10
6.29762
20
-38.4962
11
6.29762
21
-38.401
0
LINE
8
BLACK
6
CONTINUOUS
10
6.29762
20
-38.401
11
6.34524
21
-38.3057
0
LINE
8
BLACK
6
CONTINUOUS
10
6.34524
20
-38.3057
11
6.39286
21
-38.2581
0
LINE
8
BLACK
6
CONTINUOUS
10
6.39286
20
-38.2581
11
6.48809
21
-38.2105
0
LINE
8
BLACK
6
CONTINUOUS
10
6.48809
20
-38.2105
11
6.67857
21
-38.1629
0
LINE
8
BLACK
6
CONTINUOUS
10
6.67857
20
-38.1629
11
6.91667
21
-38.1629
0
LINE
8
BLACK
6
CONTINUOUS
10
6.91667
20
-38.1629
11
7.10714
21
-38.2105
0
LINE
8
BLACK
6
CONTINUOUS
10
7.10714
20
-38.2105
11
7.20238
21
-38.2581
0
LINE
8
BLACK
6
CONTINUOUS
10
7.20238
20
-38.2581
11
7.25
21
-38.3057
0
LINE
8
BLACK
6
CONTINUOUS
10
7.25
20
-38.3057
11
7.29762
21
-38.401
0
LINE
8
BLACK
6
CONTINUOUS
10
6.29762
20
-39.9248
11
6.96428
21
-39.9248
0
LINE
8
BLACK
6
CONTINUOUS
10
6.86905
20
-39.9248
11
6.91667
21
-39.9724
0
LINE
8
BLACK
6
CONTINUOUS
10
6.91667
20
-39.9724
11
6.96428
21
-40.0676
0
LINE
8
BLACK
6
CONTINUOUS
10
6.96428
20
-40.0676
11
6.96428
21
-40.2105
0
LINE
8
BLACK
6
CONTINUOUS
10
6.96428
20
-40.2105
11
6.91667
21
-40.3057
0
LINE
8
BLACK
6
CONTINUOUS
10
6.91667
20
-40.3057
11
6.82143
21
-40.3533
0
LINE
8
BLACK
6
CONTINUOUS
10
6.82143
20
-40.3533
11
6.29762
21
-40.3533
0
LINE
8
BLACK
6
CONTINUOUS
10
6.82143
20
-40.3533
11
6.91667
21
-40.401
0
LINE
8
BLACK
6
CONTINUOUS
10
6.91667
20
-40.401
11
6.96428
21
-40.4962
0
LINE
8
BLACK
6
CONTINUOUS
10
6.96428
20
-40.4962
11
6.96428
21
-40.639
0
LINE
8
BLACK
6
CONTINUOUS
10
6.96428
20
-40.639
11
6.91667
21
-40.7343
0
LINE
8
BLACK
6
CONTINUOUS
10
6.91667
20
-40.7343
11
6.82143
21
-40.7819
0
LINE
8
BLACK
6
CONTINUOUS
10
6.82143
20
-40.7819
11
6.29762
21
-40.7819
0
LINE
8
BLACK
6
CONTINUOUS
10
6.29762
20
-41.2581
11
6.96428
21
-41.2581
0
LINE
8
BLACK
6
CONTINUOUS
10
6.86905
20
-41.2581
11
6.91667
21
-41.3057
0
LINE
8
BLACK
6
CONTINUOUS
10
6.91667
20
-41.3057
11
6.96428
21
-41.401
0
LINE
8
BLACK
6
CONTINUOUS
10
6.96428
20
-41.401
11
6.96428
21
-41.5438
0
LINE
8
BLACK
6
CONTINUOUS
10
6.96428
20
-41.5438
11
6.91667
21
-41.639
0
LINE
8
BLACK
6
CONTINUOUS
10
6.91667
20
-41.639
11
6.82143
21
-41.6867
0
LINE
8
BLACK
6
CONTINUOUS
10
6.82143
20
-41.6867
11
6.29762
21
-41.6867
0
LINE
8
BLACK
6
CONTINUOUS
10
6.82143
20
-41.6867
11
6.91667
21
-41.7343
0
LINE
8
BLACK
6
CONTINUOUS
10
6.91667
20
-41.7343
11
6.96428
21
-41.8295
0
LINE
8
BLACK
6
CONTINUOUS
10
6.96428
20
-41.8295
11
6.96428
21
-41.9724
0
LINE
8
BLACK
6
CONTINUOUS
10
6.96428
20
-41.9724
11
6.91667
21
-42.0676
0
LINE
8
BLACK
6
CONTINUOUS
10
6.91667
20
-42.0676
11
6.82143
21
-42.1152
0
LINE
8
BLACK
6
CONTINUOUS
10
6.82143
20
-42.1152
11
6.29762
21
-42.1152
0
LINE
8
BLACK
6
CONTINUOUS
10
8.05
20
-19.1
11
8.05
21
-56.94
0
LINE
8
BLACK
6
CONTINUOUS
10
11.25
20
-19.1
11
7.46358
21
-19.1
0
LINE
8
BLACK
6
CONTINUOUS
10
11.25
20
-56.94
11
7.46358
21
-56.94
0
LINE
8
BLACK
6
CONTINUOUS
10
8.05
20
-56.94
11
7.46358
21
-55.8135
0
LINE
8
BLACK
6
CONTINUOUS
10
8.05
20
-56.94
11
8.63642
21
-55.8135
0
LINE
8
BLACK
6
CONTINUOUS
10
8.05
20
-19.1
11
7.46358
21
-20.2265
0
LINE
8
BLACK
6
CONTINUOUS
10
8.05
20
-19.1
11
8.63642
21
-20.2265
0
LINE
8
BLACK
6
CONTINUOUS
10
25.252
20
-62.0424
11
25.8711
21
-62.0424
0
LINE
8
BLACK
6
CONTINUOUS
10
25.8711
20
-62.0424
11
25.5377
21
-62.4233
0
LINE
8
BLACK
6
CONTINUOUS
10
25.5377
20
-62.4233
11
25.6806
21
-62.4233
0
LINE
8
BLACK
6
CONTINUOUS
10
25.6806
20
-62.4233
11
25.7758
21
-62.471
0
LINE
8
BLACK
6
CONTINUOUS
10
25.7758
20
-62.471
11
25.8235
21
-62.5186
0
LINE
8
BLACK
6
CONTINUOUS
10
25.8235
20
-62.5186
11
25.8711
21
-62.6138
0
LINE
8
BLACK
6
CONTINUOUS
10
25.8711
20
-62.6138
11
25.8711
21
-62.8519
0
LINE
8
BLACK
6
CONTINUOUS
10
25.8711
20
-62.8519
11
25.8235
21
-62.9471
0
LINE
8
BLACK
6
CONTINUOUS
10
25.8235
20
-62.9471
11
25.7758
21
-62.9948
0
LINE
8
BLACK
6
CONTINUOUS
10
25.7758
20
-62.9948
11
25.6806
21
-63.0424
0
LINE
8
BLACK
6
CONTINUOUS
10
25.6806
20
-63.0424
11
25.3949
21
-63.0424
0
LINE
8
BLACK
6
CONTINUOUS
10
25.3949
20
-63.0424
11
25.2996
21
-62.9948
0
LINE
8
BLACK
6
CONTINUOUS
10
25.2996
20
-62.9948
11
25.252
21
-62.9471
0
LINE
8
BLACK
6
CONTINUOUS
10
26.2044
20
-62.0424
11
26.8235
21
-62.0424
0
LINE
8
BLACK
6
CONTINUOUS
10
26.8235
20
-62.0424
11
26.4901
21
-62.4233
0
LINE
8
BLACK
6
CONTINUOUS
10
26.4901
20
-62.4233
11
26.633
21
-62.4233
0
LINE
8
BLACK
6
CONTINUOUS
10
26.633
20
-62.4233
11
26.7282
21
-62.471
0
LINE
8
BLACK
6
CONTINUOUS
10
26.7282
20
-62.471
11
26.7758
21
-62.5186
0
LINE
8
BLACK
6
CONTINUOUS
10
26.7758
20
-62.5186
11
26.8235
21
-62.6138
0
LINE
8
BLACK
6
CONTINUOUS
10
26.8235
20
-62.6138
11
26.8235
21
-62.8519
0
LINE
8
BLACK
6
CONTINUOUS
10
26.8235
20
-62.8519
11
26.7758
21
-62.9471
0
LINE
8
BLACK
6
CONTINUOUS
10
26.7758
20
-62.9471
11
26.7282
21
-62.9948
0
LINE
8
BLACK
6
CONTINUOUS
10
26.7282
20
-62.9948
11
26.633
21
-63.0424
0
LINE
8
BLACK
6
CONTINUOUS
10
26.633
20
-63.0424
11
26.3473
21
-63.0424
0
LINE
8
BLACK
6
CONTINUOUS
10
26.3473
20
-63.0424
11
26.252
21
-62.9948
0
LINE
8
BLACK
6
CONTINUOUS
10
26.252
20
-62.9948
11
26.2044
21
-62.9471
0
LINE
8
BLACK
6
CONTINUOUS
10
27.252
20
-62.9471
11
27.2996
21
-62.9948
0
LINE
8
BLACK
6
CONTINUOUS
10
27.2996
20
-62.9948
11
27.252
21
-63.0424
0
LINE
8
BLACK
6
CONTINUOUS
10
27.252
20
-63.0424
11
27.2044
21
-62.9948
0
LINE
8
BLACK
6
CONTINUOUS
10
27.2044
20
-62.9948
11
27.252
21
-62.9471
0
LINE
8
BLACK
6
CONTINUOUS
10
27.252
20
-62.9471
11
27.252
21
-63.0424
0
LINE
8
BLACK
6
CONTINUOUS
10
28.1568
20
-62.3757
11
28.1568
21
-63.0424
0
LINE
8
BLACK
6
CONTINUOUS
10
27.9187
20
-61.9948
11
27.6806
21
-62.709
0
LINE
8
BLACK
6
CONTINUOUS
10
27.6806
20
-62.709
11
28.2996
21
-62.709
0
LINE
8
BLACK
6
CONTINUOUS
10
28.7282
20
-63.0424
11
28.9187
21
-63.0424
0
LINE
8
BLACK
6
CONTINUOUS
10
28.9187
20
-63.0424
11
29.0139
21
-62.9948
0
LINE
8
BLACK
6
CONTINUOUS
10
29.0139
20
-62.9948
11
29.0615
21
-62.9471
0
LINE
8
BLACK
6
CONTINUOUS
10
29.0615
20
-62.9471
11
29.1568
21
-62.8043
0
LINE
8
BLACK
6
CONTINUOUS
10
29.1568
20
-62.8043
11
29.2044
21
-62.6138
0
LINE
8
BLACK
6
CONTINUOUS
10
29.2044
20
-62.6138
11
29.2044
21
-62.2329
0
LINE
8
BLACK
6
CONTINUOUS
10
29.2044
20
-62.2329
11
29.1568
21
-62.1376
0
LINE
8
BLACK
6
CONTINUOUS
10
29.1568
20
-62.1376
11
29.1092
21
-62.09
0
LINE
8
BLACK
6
CONTINUOUS
10
29.1092
20
-62.09
11
29.0139
21
-62.0424
0
LINE
8
BLACK
6
CONTINUOUS
10
29.0139
20
-62.0424
11
28.8235
21
-62.0424
0
LINE
8
BLACK
6
CONTINUOUS
10
28.8235
20
-62.0424
11
28.7282
21
-62.09
0
LINE
8
BLACK
6
CONTINUOUS
10
28.7282
20
-62.09
11
28.6806
21
-62.1376
0
LINE
8
BLACK
6
CONTINUOUS
10
28.6806
20
-62.1376
11
28.633
21
-62.2329
0
LINE
8
BLACK
6
CONTINUOUS
10
28.633
20
-62.2329
11
28.633
21
-62.471
0
LINE
8
BLACK
6
CONTINUOUS
10
28.633
20
-62.471
11
28.6806
21
-62.5662
0
LINE
8
BLACK
6
CONTINUOUS
10
28.6806
20
-62.5662
11
28.7282
21
-62.6138
0
LINE
8
BLACK
6
CONTINUOUS
10
28.7282
20
-62.6138
11
28.8235
21
-62.6614
0
LINE
8
BLACK
6
CONTINUOUS
10
28.8235
20
-62.6614
11
29.0139
21
-62.6614
0
LINE
8
BLACK
6
CONTINUOUS
10
29.0139
20
-62.6614
11
29.1092
21
-62.6138
0
LINE
8
BLACK
6
CONTINUOUS
10
29.1092
20
-62.6138
11
29.1568
21
-62.5662
0
LINE
8
BLACK
6
CONTINUOUS
10
29.1568
20
-62.5662
11
29.2044
21
-62.471
0
LINE
8
BLACK
6
CONTINUOUS
10
30.1092
20
-62.0424
11
29.633
21
-62.0424
0
LINE
8
BLACK
6
CONTINUOUS
10
29.633
20
-62.0424
11
29.5854
21
-62.5186
0
LINE
8
BLACK
6
CONTINUOUS
10
29.5854
20
-62.5186
11
29.633
21
-62.471
0
LINE
8
BLACK
6
CONTINUOUS
10
29.633
20
-62.471
11
29.7282
21
-62.4233
0
LINE
8
BLACK
6
CONTINUOUS
10
29.7282
20
-62.4233
11
29.9663
21
-62.4233
0
LINE
8
BLACK
6
CONTINUOUS
10
29.9663
20
-62.4233
11
30.0615
21
-62.471
0
LINE
8
BLACK
6
CONTINUOUS
10
30.0615
20
-62.471
11
30.1092
21
-62.5186
0
LINE
8
BLACK
6
CONTINUOUS
10
30.1092
20
-62.5186
11
30.1568
21
-62.6138
0
LINE
8
BLACK
6
CONTINUOUS
10
30.1568
20
-62.6138
11
30.1568
21
-62.8519
0
LINE
8
BLACK
6
CONTINUOUS
10
30.1568
20
-62.8519
11
30.1092
21
-62.9471
0
LINE
8
BLACK
6
CONTINUOUS
10
30.1092
20
-62.9471
11
30.0615
21
-62.9948
0
LINE
8
BLACK
6
CONTINUOUS
10
30.0615
20
-62.9948
11
29.9663
21
-63.0424
0
LINE
8
BLACK
6
CONTINUOUS
10
29.9663
20
-63.0424
11
29.7282
21
-63.0424
0
LINE
8
BLACK
6
CONTINUOUS
10
29.7282
20
-63.0424
11
29.633
21
-62.9948
0
LINE
8
BLACK
6
CONTINUOUS
10
29.633
20
-62.9948
11
29.5854
21
-62.9471
0
LINE
8
BLACK
6
CONTINUOUS
10
31.3473
20
-63.0424
11
31.3473
21
-62.3757
0
LINE
8
BLACK
6
CONTINUOUS
10
31.3473
20
-62.471
11
31.3949
21
-62.4233
0
LINE
8
BLACK
6
CONTINUOUS
10
31.3949
20
-62.4233
11
31.4901
21
-62.3757
0
LINE
8
BLACK
6
CONTINUOUS
10
31.4901
20
-62.3757
11
31.633
21
-62.3757
0
LINE
8
BLACK
6
CONTINUOUS
10
31.633
20
-62.3757
11
31.7282
21
-62.4233
0
LINE
8
BLACK
6
CONTINUOUS
10
31.7282
20
-62.4233
11
31.7758
21
-62.5186
0
LINE
8
BLACK
6
CONTINUOUS
10
31.7758
20
-62.5186
11
31.7758
21
-63.0424
0
LINE
8
BLACK
6
CONTINUOUS
10
31.7758
20
-62.5186
11
31.8235
21
-62.4233
0
LINE
8
BLACK
6
CONTINUOUS
10
31.8235
20
-62.4233
11
31.9187
21
-62.3757
0
LINE
8
BLACK
6
CONTINUOUS
10
31.9187
20
-62.3757
11
32.0615
21
-62.3757
0
LINE
8
BLACK
6
CONTINUOUS
10
32.0615
20
-62.3757
11
32.1568
21
-62.4233
0
LINE
8
BLACK
6
CONTINUOUS
10
32.1568
20
-62.4233
11
32.2044
21
-62.5186
0
LINE
8
BLACK
6
CONTINUOUS
10
32.2044
20
-62.5186
11
32.2044
21
-63.0424
0
LINE
8
BLACK
6
CONTINUOUS
10
32.6806
20
-63.0424
11
32.6806
21
-62.3757
0
LINE
8
BLACK
6
CONTINUOUS
10
32.6806
20
-62.471
11
32.7282
21
-62.4233
0
LINE
8
BLACK
6
CONTINUOUS
10
32.7282
20
-62.4233
11
32.8235
21
-62.3757
0
LINE
8
BLACK
6
CONTINUOUS
10
32.8235
20
-62.3757
11
32.9663
21
-62.3757
0
LINE
8
BLACK
6
CONTINUOUS
10
32.9663
20
-62.3757
11
33.0615
21
-62.4233
0
LINE
8
BLACK
6
CONTINUOUS
10
33.0615
20
-62.4233
11
33.1092
21
-62.5186
0
LINE
8
BLACK
6
CONTINUOUS
10
33.1092
20
-62.5186
11
33.1092
21
-63.0424
0
LINE
8
BLACK
6
CONTINUOUS
10
33.1092
20
-62.5186
11
33.1568
21
-62.4233
0
LINE
8
BLACK
6
CONTINUOUS
10
33.1568
20
-62.4233
11
33.252
21
-62.3757
0
LINE
8
BLACK
6
CONTINUOUS
10
33.252
20
-62.3757
11
33.3949
21
-62.3757
0
LINE
8
BLACK
6
CONTINUOUS
10
33.3949
20
-62.3757
11
33.4901
21
-62.4233
0
LINE
8
BLACK
6
CONTINUOUS
10
33.4901
20
-62.4233
11
33.5377
21
-62.5186
0
LINE
8
BLACK
6
CONTINUOUS
10
33.5377
20
-62.5186
11
33.5377
21
-63.0424
0
LINE
8
BLACK
6
CONTINUOUS
10
46.19
20
-61.29
11
12.695
21
-61.29
0
LINE
8
BLACK
6
CONTINUOUS
10
46.19
20
-58.445
11
46.19
21
-61.8764
0
LINE
8
BLACK
6
CONTINUOUS
10
12.695
20
-58.445
11
12.695
21
-61.8764
0
LINE
8
BLACK
6
CONTINUOUS
10
12.695
20
-61.29
11
13.8215
21
-60.7036
0
LINE
8
BLACK
6
CONTINUOUS
10
12.695
20
-61.29
11
13.8215
21
-61.8764
0
LINE
8
BLACK
6
CONTINUOUS
10
46.19
20
-61.29
11
45.0635
21
-60.7036
0
LINE
8
BLACK
6
CONTINUOUS
10
46.19
20
-61.29
11
45.0635
21
-61.8764
0
CIRCLE
8
BLACK
10
15.245
20
-31.8
40
1.1
0
CIRCLE
8
BLACK
10
15.245
20
-53.705
40
1.1
0
ARC
8
BLACK
10
45.66
20
-56.41
40
0.531154
50
-93.7782
51
-3.7782
0
ARC
8
BLACK
10
45.665
20
-19.625
40
0.525856
50
-3.27049
51
86.7295
0
LINE
8
BLACK
6
CONTINUOUS
10
46.19
20
-56.445
11
46.19
21
-19.655
0
LINE
8
BLACK
6
CONTINUOUS
10
12.695
20
-56.375
11
12.695
21
-19.595
0
ARC
8
BLACK
10
13.225
20
-56.41
40
0.531154
50
-183.778
51
-93.7782
0
LINE
8
BLACK
6
CONTINUOUS
10
45.625
20
-56.94
11
13.19
21
-56.94
0
LINE
8
BLACK
6
CONTINUOUS
10
45.695
20
-19.1
11
13.25
21
-19.1
0
ARC
8
BLACK
10
13.22
20
-19.625
40
0.525856
50
86.7295
51
176.73
  0
ENDSEC
  0
EOF
