  0
SECTION
  2
HEADER
  9
$ANGBASE
  50
0.0
  9
$ANGDIR
  70
1
  9
$MEASUREMENT
  70
1
  0
ENDSEC
  0
SECTION
  2
TABLES
  0
TABLE
  2
LTYPE
  70
4
  0
LTYPE
  5
40F
  2
CONTINUOUS
  70
0
  3
Solid line
  72
65
  73
0
  40
0.0
  0
LTYPE
  5
410
  2
DASHDOT
 70
0
  3
Dash Dot ____ _ ____ _
 72
65
 73
4
 40
2.0
 49
1.25
 49
-0.25
 49
0.25
 49
-0.25
  0
LTYPE
  5
411
  2
DASHED
 70
0
  3
Dashed __ __ __ __ __
 72
65
 73
2
 40
0.75
 49
0.5
 49
-0.25
  0
LTYPE
  5
43B
  2
DOTTED
 70
0
  3
Dotted .  .  .  .
 72
65
 73
2
 40
0.2
 49
0.0
 49
-0.2
  0
ENDTAB
  0
TABLE
  2
STYLE
  70
4
  0
STYLE
  2
KICAD
  70
0
  40
0
  41
1
  42
1
  50
0
  71
0
  3
isocp.shx
  0
STYLE
  2
KICADB
  70
0
  40
0
  41
1
  42
1
  50
0
  71
0
  3
isocp.shx
  0
STYLE
  2
KICADI
  70
0
  40
0
  41
1
  42
1
  50
15
  71
0
  3
isocp.shx
  0
STYLE
  2
KICADBI
  70
0
  40
0
  41
1
  42
1
  50
15
  71
0
  3
isocp.shx
  0
ENDTAB
  0
TABLE
  2
LAYER
  70
1
  0
LAYER
  2
BLACK
  70
0
  62
7
  6
CONTINUOUS
  0
ENDTAB
  0
ENDSEC
  0
SECTION
  2
ENTITIES
0
LINE
8
BLACK
6
CONTINUOUS
10
85.1124
20
-147.382
11
84.541
21
-147.382
0
LINE
8
BLACK
6
CONTINUOUS
10
84.8267
20
-147.382
11
84.8267
21
-146.382
0
LINE
8
BLACK
6
CONTINUOUS
10
84.8267
20
-146.382
11
84.7314
21
-146.525
0
LINE
8
BLACK
6
CONTINUOUS
10
84.7314
20
-146.525
11
84.6362
21
-146.62
0
LINE
8
BLACK
6
CONTINUOUS
10
84.6362
20
-146.62
11
84.541
21
-146.668
0
LINE
8
BLACK
6
CONTINUOUS
10
86.0171
20
-146.382
11
85.541
21
-146.382
0
LINE
8
BLACK
6
CONTINUOUS
10
85.541
20
-146.382
11
85.4933
21
-146.859
0
LINE
8
BLACK
6
CONTINUOUS
10
85.4933
20
-146.859
11
85.541
21
-146.811
0
LINE
8
BLACK
6
CONTINUOUS
10
85.541
20
-146.811
11
85.6362
21
-146.763
0
LINE
8
BLACK
6
CONTINUOUS
10
85.6362
20
-146.763
11
85.8743
21
-146.763
0
LINE
8
BLACK
6
CONTINUOUS
10
85.8743
20
-146.763
11
85.9695
21
-146.811
0
LINE
8
BLACK
6
CONTINUOUS
10
85.9695
20
-146.811
11
86.0171
21
-146.859
0
LINE
8
BLACK
6
CONTINUOUS
10
86.0171
20
-146.859
11
86.0648
21
-146.954
0
LINE
8
BLACK
6
CONTINUOUS
10
86.0648
20
-146.954
11
86.0648
21
-147.192
0
LINE
8
BLACK
6
CONTINUOUS
10
86.0648
20
-147.192
11
86.0171
21
-147.287
0
LINE
8
BLACK
6
CONTINUOUS
10
86.0171
20
-147.287
11
85.9695
21
-147.335
0
LINE
8
BLACK
6
CONTINUOUS
10
85.9695
20
-147.335
11
85.8743
21
-147.382
0
LINE
8
BLACK
6
CONTINUOUS
10
85.8743
20
-147.382
11
85.6362
21
-147.382
0
LINE
8
BLACK
6
CONTINUOUS
10
85.6362
20
-147.382
11
85.541
21
-147.335
0
LINE
8
BLACK
6
CONTINUOUS
10
85.541
20
-147.335
11
85.4933
21
-147.287
0
LINE
8
BLACK
6
CONTINUOUS
10
86.4457
20
-146.478
11
86.4933
21
-146.43
0
LINE
8
BLACK
6
CONTINUOUS
10
86.4933
20
-146.43
11
86.5886
21
-146.382
0
LINE
8
BLACK
6
CONTINUOUS
10
86.5886
20
-146.382
11
86.8267
21
-146.382
0
LINE
8
BLACK
6
CONTINUOUS
10
86.8267
20
-146.382
11
86.9219
21
-146.43
0
LINE
8
BLACK
6
CONTINUOUS
10
86.9219
20
-146.43
11
86.9695
21
-146.478
0
LINE
8
BLACK
6
CONTINUOUS
10
86.9695
20
-146.478
11
87.0171
21
-146.573
0
LINE
8
BLACK
6
CONTINUOUS
10
87.0171
20
-146.573
11
87.0171
21
-146.668
0
LINE
8
BLACK
6
CONTINUOUS
10
87.0171
20
-146.668
11
86.9695
21
-146.811
0
LINE
8
BLACK
6
CONTINUOUS
10
86.9695
20
-146.811
11
86.3981
21
-147.382
0
LINE
8
BLACK
6
CONTINUOUS
10
86.3981
20
-147.382
11
87.0171
21
-147.382
0
LINE
8
BLACK
6
CONTINUOUS
10
87.4457
20
-147.287
11
87.4933
21
-147.335
0
LINE
8
BLACK
6
CONTINUOUS
10
87.4933
20
-147.335
11
87.4457
21
-147.382
0
LINE
8
BLACK
6
CONTINUOUS
10
87.4457
20
-147.382
11
87.3981
21
-147.335
0
LINE
8
BLACK
6
CONTINUOUS
10
87.3981
20
-147.335
11
87.4457
21
-147.287
0
LINE
8
BLACK
6
CONTINUOUS
10
87.4457
20
-147.287
11
87.4457
21
-147.382
0
LINE
8
BLACK
6
CONTINUOUS
10
87.9695
20
-147.382
11
88.16
21
-147.382
0
LINE
8
BLACK
6
CONTINUOUS
10
88.16
20
-147.382
11
88.2552
21
-147.335
0
LINE
8
BLACK
6
CONTINUOUS
10
88.2552
20
-147.335
11
88.3029
21
-147.287
0
LINE
8
BLACK
6
CONTINUOUS
10
88.3029
20
-147.287
11
88.3981
21
-147.144
0
LINE
8
BLACK
6
CONTINUOUS
10
88.3981
20
-147.144
11
88.4457
21
-146.954
0
LINE
8
BLACK
6
CONTINUOUS
10
88.4457
20
-146.954
11
88.4457
21
-146.573
0
LINE
8
BLACK
6
CONTINUOUS
10
88.4457
20
-146.573
11
88.3981
21
-146.478
0
LINE
8
BLACK
6
CONTINUOUS
10
88.3981
20
-146.478
11
88.3505
21
-146.43
0
LINE
8
BLACK
6
CONTINUOUS
10
88.3505
20
-146.43
11
88.2552
21
-146.382
0
LINE
8
BLACK
6
CONTINUOUS
10
88.2552
20
-146.382
11
88.0648
21
-146.382
0
LINE
8
BLACK
6
CONTINUOUS
10
88.0648
20
-146.382
11
87.9695
21
-146.43
0
LINE
8
BLACK
6
CONTINUOUS
10
87.9695
20
-146.43
11
87.9219
21
-146.478
0
LINE
8
BLACK
6
CONTINUOUS
10
87.9219
20
-146.478
11
87.8743
21
-146.573
0
LINE
8
BLACK
6
CONTINUOUS
10
87.8743
20
-146.573
11
87.8743
21
-146.811
0
LINE
8
BLACK
6
CONTINUOUS
10
87.8743
20
-146.811
11
87.9219
21
-146.906
0
LINE
8
BLACK
6
CONTINUOUS
10
87.9219
20
-146.906
11
87.9695
21
-146.954
0
LINE
8
BLACK
6
CONTINUOUS
10
87.9695
20
-146.954
11
88.0648
21
-147.001
0
LINE
8
BLACK
6
CONTINUOUS
10
88.0648
20
-147.001
11
88.2552
21
-147.001
0
LINE
8
BLACK
6
CONTINUOUS
10
88.2552
20
-147.001
11
88.3505
21
-146.954
0
LINE
8
BLACK
6
CONTINUOUS
10
88.3505
20
-146.954
11
88.3981
21
-146.906
0
LINE
8
BLACK
6
CONTINUOUS
10
88.3981
20
-146.906
11
88.4457
21
-146.811
0
LINE
8
BLACK
6
CONTINUOUS
10
88.779
20
-146.382
11
89.3981
21
-146.382
0
LINE
8
BLACK
6
CONTINUOUS
10
89.3981
20
-146.382
11
89.0648
21
-146.763
0
LINE
8
BLACK
6
CONTINUOUS
10
89.0648
20
-146.763
11
89.2076
21
-146.763
0
LINE
8
BLACK
6
CONTINUOUS
10
89.2076
20
-146.763
11
89.3029
21
-146.811
0
LINE
8
BLACK
6
CONTINUOUS
10
89.3029
20
-146.811
11
89.3505
21
-146.859
0
LINE
8
BLACK
6
CONTINUOUS
10
89.3505
20
-146.859
11
89.3981
21
-146.954
0
LINE
8
BLACK
6
CONTINUOUS
10
89.3981
20
-146.954
11
89.3981
21
-147.192
0
LINE
8
BLACK
6
CONTINUOUS
10
89.3981
20
-147.192
11
89.3505
21
-147.287
0
LINE
8
BLACK
6
CONTINUOUS
10
89.3505
20
-147.287
11
89.3029
21
-147.335
0
LINE
8
BLACK
6
CONTINUOUS
10
89.3029
20
-147.335
11
89.2076
21
-147.382
0
LINE
8
BLACK
6
CONTINUOUS
10
89.2076
20
-147.382
11
88.9219
21
-147.382
0
LINE
8
BLACK
6
CONTINUOUS
10
88.9219
20
-147.382
11
88.8267
21
-147.335
0
LINE
8
BLACK
6
CONTINUOUS
10
88.8267
20
-147.335
11
88.779
21
-147.287
0
LINE
8
BLACK
6
CONTINUOUS
10
90.0171
20
-146.382
11
90.1124
21
-146.382
0
LINE
8
BLACK
6
CONTINUOUS
10
90.1124
20
-146.382
11
90.2076
21
-146.43
0
LINE
8
BLACK
6
CONTINUOUS
10
90.2076
20
-146.43
11
90.2552
21
-146.478
0
LINE
8
BLACK
6
CONTINUOUS
10
90.2552
20
-146.478
11
90.3029
21
-146.573
0
LINE
8
BLACK
6
CONTINUOUS
10
90.3029
20
-146.573
11
90.3505
21
-146.763
0
LINE
8
BLACK
6
CONTINUOUS
10
90.3505
20
-146.763
11
90.3505
21
-147.001
0
LINE
8
BLACK
6
CONTINUOUS
10
90.3505
20
-147.001
11
90.3029
21
-147.192
0
LINE
8
BLACK
6
CONTINUOUS
10
90.3029
20
-147.192
11
90.2552
21
-147.287
0
LINE
8
BLACK
6
CONTINUOUS
10
90.2552
20
-147.287
11
90.2076
21
-147.335
0
LINE
8
BLACK
6
CONTINUOUS
10
90.2076
20
-147.335
11
90.1124
21
-147.382
0
LINE
8
BLACK
6
CONTINUOUS
10
90.1124
20
-147.382
11
90.0171
21
-147.382
0
LINE
8
BLACK
6
CONTINUOUS
10
90.0171
20
-147.382
11
89.9219
21
-147.335
0
LINE
8
BLACK
6
CONTINUOUS
10
89.9219
20
-147.335
11
89.8743
21
-147.287
0
LINE
8
BLACK
6
CONTINUOUS
10
89.8743
20
-147.287
11
89.8267
21
-147.192
0
LINE
8
BLACK
6
CONTINUOUS
10
89.8267
20
-147.192
11
89.779
21
-147.001
0
LINE
8
BLACK
6
CONTINUOUS
10
89.779
20
-147.001
11
89.779
21
-146.763
0
LINE
8
BLACK
6
CONTINUOUS
10
89.779
20
-146.763
11
89.8267
21
-146.573
0
LINE
8
BLACK
6
CONTINUOUS
10
89.8267
20
-146.573
11
89.8743
21
-146.478
0
LINE
8
BLACK
6
CONTINUOUS
10
89.8743
20
-146.478
11
89.9219
21
-146.43
0
LINE
8
BLACK
6
CONTINUOUS
10
89.9219
20
-146.43
11
90.0171
21
-146.382
0
LINE
8
BLACK
6
CONTINUOUS
10
91.541
20
-147.382
11
91.541
21
-146.716
0
LINE
8
BLACK
6
CONTINUOUS
10
91.541
20
-146.811
11
91.5886
21
-146.763
0
LINE
8
BLACK
6
CONTINUOUS
10
91.5886
20
-146.763
11
91.6838
21
-146.716
0
LINE
8
BLACK
6
CONTINUOUS
10
91.6838
20
-146.716
11
91.8267
21
-146.716
0
LINE
8
BLACK
6
CONTINUOUS
10
91.8267
20
-146.716
11
91.9219
21
-146.763
0
LINE
8
BLACK
6
CONTINUOUS
10
91.9219
20
-146.763
11
91.9695
21
-146.859
0
LINE
8
BLACK
6
CONTINUOUS
10
91.9695
20
-146.859
11
91.9695
21
-147.382
0
LINE
8
BLACK
6
CONTINUOUS
10
91.9695
20
-146.859
11
92.0171
21
-146.763
0
LINE
8
BLACK
6
CONTINUOUS
10
92.0171
20
-146.763
11
92.1124
21
-146.716
0
LINE
8
BLACK
6
CONTINUOUS
10
92.1124
20
-146.716
11
92.2552
21
-146.716
0
LINE
8
BLACK
6
CONTINUOUS
10
92.2552
20
-146.716
11
92.3505
21
-146.763
0
LINE
8
BLACK
6
CONTINUOUS
10
92.3505
20
-146.763
11
92.3981
21
-146.859
0
LINE
8
BLACK
6
CONTINUOUS
10
92.3981
20
-146.859
11
92.3981
21
-147.382
0
LINE
8
BLACK
6
CONTINUOUS
10
92.8743
20
-147.382
11
92.8743
21
-146.716
0
LINE
8
BLACK
6
CONTINUOUS
10
92.8743
20
-146.811
11
92.9219
21
-146.763
0
LINE
8
BLACK
6
CONTINUOUS
10
92.9219
20
-146.763
11
93.0171
21
-146.716
0
LINE
8
BLACK
6
CONTINUOUS
10
93.0171
20
-146.716
11
93.16
21
-146.716
0
LINE
8
BLACK
6
CONTINUOUS
10
93.16
20
-146.716
11
93.2552
21
-146.763
0
LINE
8
BLACK
6
CONTINUOUS
10
93.2552
20
-146.763
11
93.3029
21
-146.859
0
LINE
8
BLACK
6
CONTINUOUS
10
93.3029
20
-146.859
11
93.3029
21
-147.382
0
LINE
8
BLACK
6
CONTINUOUS
10
93.3029
20
-146.859
11
93.3505
21
-146.763
0
LINE
8
BLACK
6
CONTINUOUS
10
93.3505
20
-146.763
11
93.4457
21
-146.716
0
LINE
8
BLACK
6
CONTINUOUS
10
93.4457
20
-146.716
11
93.5886
21
-146.716
0
LINE
8
BLACK
6
CONTINUOUS
10
93.5886
20
-146.716
11
93.6838
21
-146.763
0
LINE
8
BLACK
6
CONTINUOUS
10
93.6838
20
-146.763
11
93.7314
21
-146.859
0
LINE
8
BLACK
6
CONTINUOUS
10
93.7314
20
-146.859
11
93.7314
21
-147.382
0
LINE
8
BLACK
6
CONTINUOUS
10
165.625
20
-145.63
11
12.695
21
-145.63
0
LINE
8
BLACK
6
CONTINUOUS
10
165.625
20
-143.642
11
165.625
21
-146.216
0
LINE
8
BLACK
6
CONTINUOUS
10
12.695
20
-143.642
11
12.695
21
-146.216
0
LINE
8
BLACK
6
CONTINUOUS
10
12.695
20
-145.63
11
13.8215
21
-145.044
0
LINE
8
BLACK
6
CONTINUOUS
10
12.695
20
-145.63
11
13.8215
21
-146.216
0
LINE
8
BLACK
6
CONTINUOUS
10
165.625
20
-145.63
11
164.498
21
-145.044
0
LINE
8
BLACK
6
CONTINUOUS
10
165.625
20
-145.63
11
164.498
21
-146.216
0
LINE
8
BLACK
6
CONTINUOUS
10
169.968
20
-76.3236
11
169.968
21
-75.7522
0
LINE
8
BLACK
6
CONTINUOUS
10
169.968
20
-76.0379
11
170.968
21
-76.0379
0
LINE
8
BLACK
6
CONTINUOUS
10
170.968
20
-76.0379
11
170.825
21
-75.9427
0
LINE
8
BLACK
6
CONTINUOUS
10
170.825
20
-75.9427
11
170.73
21
-75.8474
0
LINE
8
BLACK
6
CONTINUOUS
10
170.73
20
-75.8474
11
170.682
21
-75.7522
0
LINE
8
BLACK
6
CONTINUOUS
10
170.872
20
-76.7046
11
170.92
21
-76.7522
0
LINE
8
BLACK
6
CONTINUOUS
10
170.92
20
-76.7522
11
170.968
21
-76.8474
0
LINE
8
BLACK
6
CONTINUOUS
10
170.968
20
-76.8474
11
170.968
21
-77.0855
0
LINE
8
BLACK
6
CONTINUOUS
10
170.968
20
-77.0855
11
170.92
21
-77.1808
0
LINE
8
BLACK
6
CONTINUOUS
10
170.92
20
-77.1808
11
170.872
21
-77.2284
0
LINE
8
BLACK
6
CONTINUOUS
10
170.872
20
-77.2284
11
170.777
21
-77.276
0
LINE
8
BLACK
6
CONTINUOUS
10
170.777
20
-77.276
11
170.682
21
-77.276
0
LINE
8
BLACK
6
CONTINUOUS
10
170.682
20
-77.276
11
170.539
21
-77.2284
0
LINE
8
BLACK
6
CONTINUOUS
10
170.539
20
-77.2284
11
169.968
21
-76.657
0
LINE
8
BLACK
6
CONTINUOUS
10
169.968
20
-76.657
11
169.968
21
-77.276
0
LINE
8
BLACK
6
CONTINUOUS
10
170.872
20
-77.657
11
170.92
21
-77.7046
0
LINE
8
BLACK
6
CONTINUOUS
10
170.92
20
-77.7046
11
170.968
21
-77.7998
0
LINE
8
BLACK
6
CONTINUOUS
10
170.968
20
-77.7998
11
170.968
21
-78.0379
0
LINE
8
BLACK
6
CONTINUOUS
10
170.968
20
-78.0379
11
170.92
21
-78.1332
0
LINE
8
BLACK
6
CONTINUOUS
10
170.92
20
-78.1332
11
170.872
21
-78.1808
0
LINE
8
BLACK
6
CONTINUOUS
10
170.872
20
-78.1808
11
170.777
21
-78.2284
0
LINE
8
BLACK
6
CONTINUOUS
10
170.777
20
-78.2284
11
170.682
21
-78.2284
0
LINE
8
BLACK
6
CONTINUOUS
10
170.682
20
-78.2284
11
170.539
21
-78.1808
0
LINE
8
BLACK
6
CONTINUOUS
10
170.539
20
-78.1808
11
169.968
21
-77.6093
0
LINE
8
BLACK
6
CONTINUOUS
10
169.968
20
-77.6093
11
169.968
21
-78.2284
0
LINE
8
BLACK
6
CONTINUOUS
10
170.063
20
-78.657
11
170.015
21
-78.7046
0
LINE
8
BLACK
6
CONTINUOUS
10
170.015
20
-78.7046
11
169.968
21
-78.657
0
LINE
8
BLACK
6
CONTINUOUS
10
169.968
20
-78.657
11
170.015
21
-78.6093
0
LINE
8
BLACK
6
CONTINUOUS
10
170.015
20
-78.6093
11
170.063
21
-78.657
0
LINE
8
BLACK
6
CONTINUOUS
10
170.063
20
-78.657
11
169.968
21
-78.657
0
LINE
8
BLACK
6
CONTINUOUS
10
170.968
20
-79.6093
11
170.968
21
-79.1332
0
LINE
8
BLACK
6
CONTINUOUS
10
170.968
20
-79.1332
11
170.491
21
-79.0855
0
LINE
8
BLACK
6
CONTINUOUS
10
170.491
20
-79.0855
11
170.539
21
-79.1332
0
LINE
8
BLACK
6
CONTINUOUS
10
170.539
20
-79.1332
11
170.587
21
-79.2284
0
LINE
8
BLACK
6
CONTINUOUS
10
170.587
20
-79.2284
11
170.587
21
-79.4665
0
LINE
8
BLACK
6
CONTINUOUS
10
170.587
20
-79.4665
11
170.539
21
-79.5617
0
LINE
8
BLACK
6
CONTINUOUS
10
170.539
20
-79.5617
11
170.491
21
-79.6093
0
LINE
8
BLACK
6
CONTINUOUS
10
170.491
20
-79.6093
11
170.396
21
-79.657
0
LINE
8
BLACK
6
CONTINUOUS
10
170.396
20
-79.657
11
170.158
21
-79.657
0
LINE
8
BLACK
6
CONTINUOUS
10
170.158
20
-79.657
11
170.063
21
-79.6093
0
LINE
8
BLACK
6
CONTINUOUS
10
170.063
20
-79.6093
11
170.015
21
-79.5617
0
LINE
8
BLACK
6
CONTINUOUS
10
170.015
20
-79.5617
11
169.968
21
-79.4665
0
LINE
8
BLACK
6
CONTINUOUS
10
169.968
20
-79.4665
11
169.968
21
-79.2284
0
LINE
8
BLACK
6
CONTINUOUS
10
169.968
20
-79.2284
11
170.015
21
-79.1332
0
LINE
8
BLACK
6
CONTINUOUS
10
170.015
20
-79.1332
11
170.063
21
-79.0855
0
LINE
8
BLACK
6
CONTINUOUS
10
170.634
20
-80.5141
11
169.968
21
-80.5141
0
LINE
8
BLACK
6
CONTINUOUS
10
171.015
20
-80.276
11
170.301
21
-80.0379
0
LINE
8
BLACK
6
CONTINUOUS
10
170.301
20
-80.0379
11
170.301
21
-80.657
0
LINE
8
BLACK
6
CONTINUOUS
10
170.968
20
-80.9427
11
170.968
21
-81.5617
0
LINE
8
BLACK
6
CONTINUOUS
10
170.968
20
-81.5617
11
170.587
21
-81.2284
0
LINE
8
BLACK
6
CONTINUOUS
10
170.587
20
-81.2284
11
170.587
21
-81.3713
0
LINE
8
BLACK
6
CONTINUOUS
10
170.587
20
-81.3713
11
170.539
21
-81.4665
0
LINE
8
BLACK
6
CONTINUOUS
10
170.539
20
-81.4665
11
170.491
21
-81.5141
0
LINE
8
BLACK
6
CONTINUOUS
10
170.491
20
-81.5141
11
170.396
21
-81.5617
0
LINE
8
BLACK
6
CONTINUOUS
10
170.396
20
-81.5617
11
170.158
21
-81.5617
0
LINE
8
BLACK
6
CONTINUOUS
10
170.158
20
-81.5617
11
170.063
21
-81.5141
0
LINE
8
BLACK
6
CONTINUOUS
10
170.063
20
-81.5141
11
170.015
21
-81.4665
0
LINE
8
BLACK
6
CONTINUOUS
10
170.015
20
-81.4665
11
169.968
21
-81.3713
0
LINE
8
BLACK
6
CONTINUOUS
10
169.968
20
-81.3713
11
169.968
21
-81.0855
0
LINE
8
BLACK
6
CONTINUOUS
10
169.968
20
-81.0855
11
170.015
21
-80.9903
0
LINE
8
BLACK
6
CONTINUOUS
10
170.015
20
-80.9903
11
170.063
21
-80.9427
0
LINE
8
BLACK
6
CONTINUOUS
10
169.968
20
-82.7522
11
170.634
21
-82.7522
0
LINE
8
BLACK
6
CONTINUOUS
10
170.539
20
-82.7522
11
170.587
21
-82.7998
0
LINE
8
BLACK
6
CONTINUOUS
10
170.587
20
-82.7998
11
170.634
21
-82.8951
0
LINE
8
BLACK
6
CONTINUOUS
10
170.634
20
-82.8951
11
170.634
21
-83.0379
0
LINE
8
BLACK
6
CONTINUOUS
10
170.634
20
-83.0379
11
170.587
21
-83.1332
0
LINE
8
BLACK
6
CONTINUOUS
10
170.587
20
-83.1332
11
170.491
21
-83.1808
0
LINE
8
BLACK
6
CONTINUOUS
10
170.491
20
-83.1808
11
169.968
21
-83.1808
0
LINE
8
BLACK
6
CONTINUOUS
10
170.491
20
-83.1808
11
170.587
21
-83.2284
0
LINE
8
BLACK
6
CONTINUOUS
10
170.587
20
-83.2284
11
170.634
21
-83.3236
0
LINE
8
BLACK
6
CONTINUOUS
10
170.634
20
-83.3236
11
170.634
21
-83.4665
0
LINE
8
BLACK
6
CONTINUOUS
10
170.634
20
-83.4665
11
170.587
21
-83.5617
0
LINE
8
BLACK
6
CONTINUOUS
10
170.587
20
-83.5617
11
170.491
21
-83.6093
0
LINE
8
BLACK
6
CONTINUOUS
10
170.491
20
-83.6093
11
169.968
21
-83.6093
0
LINE
8
BLACK
6
CONTINUOUS
10
169.968
20
-84.0855
11
170.634
21
-84.0855
0
LINE
8
BLACK
6
CONTINUOUS
10
170.539
20
-84.0855
11
170.587
21
-84.1332
0
LINE
8
BLACK
6
CONTINUOUS
10
170.587
20
-84.1332
11
170.634
21
-84.2284
0
LINE
8
BLACK
6
CONTINUOUS
10
170.634
20
-84.2284
11
170.634
21
-84.3712
0
LINE
8
BLACK
6
CONTINUOUS
10
170.634
20
-84.3712
11
170.587
21
-84.4665
0
LINE
8
BLACK
6
CONTINUOUS
10
170.587
20
-84.4665
11
170.491
21
-84.5141
0
LINE
8
BLACK
6
CONTINUOUS
10
170.491
20
-84.5141
11
169.968
21
-84.5141
0
LINE
8
BLACK
6
CONTINUOUS
10
170.491
20
-84.5141
11
170.587
21
-84.5617
0
LINE
8
BLACK
6
CONTINUOUS
10
170.587
20
-84.5617
11
170.634
21
-84.657
0
LINE
8
BLACK
6
CONTINUOUS
10
170.634
20
-84.657
11
170.634
21
-84.7998
0
LINE
8
BLACK
6
CONTINUOUS
10
170.634
20
-84.7998
11
170.587
21
-84.8951
0
LINE
8
BLACK
6
CONTINUOUS
10
170.587
20
-84.8951
11
170.491
21
-84.9427
0
LINE
8
BLACK
6
CONTINUOUS
10
170.491
20
-84.9427
11
169.968
21
-84.9427
0
LINE
8
BLACK
6
CONTINUOUS
10
169.12
20
-19.1
11
169.12
21
-141.642
0
LINE
8
BLACK
6
CONTINUOUS
10
167.625
20
-19.1
11
169.706
21
-19.1
0
LINE
8
BLACK
6
CONTINUOUS
10
167.625
20
-141.642
11
169.706
21
-141.642
0
LINE
8
BLACK
6
CONTINUOUS
10
169.12
20
-141.642
11
168.534
21
-140.516
0
LINE
8
BLACK
6
CONTINUOUS
10
169.12
20
-141.642
11
169.706
21
-140.516
0
LINE
8
BLACK
6
CONTINUOUS
10
169.12
20
-19.1
11
168.534
21
-20.2265
0
LINE
8
BLACK
6
CONTINUOUS
10
169.12
20
-19.1
11
169.706
21
-20.2265
0
CIRCLE
8
BLACK
10
108.475
20
-76.275
40
1.1
0
CIRCLE
8
BLACK
10
146.575
20
-104.85
40
1.1
0
CIRCLE
8
BLACK
10
70.375
20
-100.088
40
1.1
0
CIRCLE
8
BLACK
10
102.085
20
-139.078
40
1.1
0
CIRCLE
8
BLACK
10
75.835
20
-139.078
40
1.1
0
CIRCLE
8
BLACK
10
102.085
20
-106.418
40
1.1
0
CIRCLE
8
BLACK
10
75.835
20
-106.418
40
1.1
0
CIRCLE
8
BLACK
10
146.575
20
-47.7
40
1.1
0
CIRCLE
8
BLACK
10
70.375
20
-42.9375
40
1.1
0
CIRCLE
8
BLACK
10
15.245
20
-31.8
40
1.1
0
CIRCLE
8
BLACK
10
15.245
20
-53.705
40
1.1
0
CIRCLE
8
BLACK
10
42.745
20
-62.19
40
1.1
0
CIRCLE
8
BLACK
10
16.495
20
-62.19
40
1.1
0
CIRCLE
8
BLACK
10
42.745
20
-94.85
40
1.1
0
CIRCLE
8
BLACK
10
16.495
20
-94.85
40
1.1
0
CIRCLE
8
BLACK
10
42.745
20
-106.418
40
1.1
0
CIRCLE
8
BLACK
10
16.495
20
-106.418
40
1.1
0
CIRCLE
8
BLACK
10
42.745
20
-139.078
40
1.1
0
CIRCLE
8
BLACK
10
16.495
20
-139.078
40
1.1
0
LINE
8
BLACK
6
CONTINUOUS
10
12.695
20
-65.125
11
12.695
21
-19.1
0
LINE
8
BLACK
6
CONTINUOUS
10
33.075
20
-19.1
11
12.695
21
-19.1
0
LINE
8
BLACK
6
CONTINUOUS
10
12.695
20
-141.642
11
12.695
21
-65.125
0
LINE
8
BLACK
6
CONTINUOUS
10
165.625
20
-141.642
11
165.625
21
-124.37
0
LINE
8
BLACK
6
CONTINUOUS
10
165.625
20
-141.642
11
134.755
21
-141.642
0
LINE
8
BLACK
6
CONTINUOUS
10
165.625
20
-124.37
11
165.625
21
-19.1
0
LINE
8
BLACK
6
CONTINUOUS
10
33.075
20
-19.1
11
165.625
21
-19.1
0
LINE
8
BLACK
6
CONTINUOUS
10
134.755
20
-141.642
11
12.695
21
-141.642
  0
ENDSEC
  0
EOF
