  0
SECTION
  2
HEADER
  9
$ANGBASE
  50
0.0
  9
$ANGDIR
  70
1
  9
$MEASUREMENT
  70
1
  0
ENDSEC
  0
SECTION
  2
TABLES
  0
TABLE
  2
LTYPE
  70
4
  0
LTYPE
  5
40F
  2
CONTINUOUS
  70
0
  3
Solid line
  72
65
  73
0
  40
0.0
  0
LTYPE
  5
410
  2
DASHDOT
 70
0
  3
Dash Dot ____ _ ____ _
 72
65
 73
4
 40
2.0
 49
1.25
 49
-0.25
 49
0.25
 49
-0.25
  0
LTYPE
  5
411
  2
DASHED
 70
0
  3
Dashed __ __ __ __ __
 72
65
 73
2
 40
0.75
 49
0.5
 49
-0.25
  0
LTYPE
  5
43B
  2
DOTTED
 70
0
  3
Dotted .  .  .  .
 72
65
 73
2
 40
0.2
 49
0.0
 49
-0.2
  0
ENDTAB
  0
TABLE
  2
STYLE
  70
4
  0
STYLE
  2
KICAD
  70
0
  40
0
  41
1
  42
1
  50
0
  71
0
  3
isocp.shx
  0
STYLE
  2
KICADB
  70
0
  40
0
  41
1
  42
1
  50
0
  71
0
  3
isocp.shx
  0
STYLE
  2
KICADI
  70
0
  40
0
  41
1
  42
1
  50
15
  71
0
  3
isocp.shx
  0
STYLE
  2
KICADBI
  70
0
  40
0
  41
1
  42
1
  50
15
  71
0
  3
isocp.shx
  0
ENDTAB
  0
TABLE
  2
LAYER
  70
1
  0
LAYER
  2
BLACK
  70
0
  62
7
  6
CONTINUOUS
  0
ENDTAB
  0
ENDSEC
  0
SECTION
  2
ENTITIES
0
LINE
8
BLACK
6
CONTINUOUS
10
142.693
20
-144.562
11
142.217
21
-144.562
0
LINE
8
BLACK
6
CONTINUOUS
10
142.217
20
-144.562
11
142.17
21
-145.039
0
LINE
8
BLACK
6
CONTINUOUS
10
142.17
20
-145.039
11
142.217
21
-144.991
0
LINE
8
BLACK
6
CONTINUOUS
10
142.217
20
-144.991
11
142.312
21
-144.943
0
LINE
8
BLACK
6
CONTINUOUS
10
142.312
20
-144.943
11
142.551
21
-144.943
0
LINE
8
BLACK
6
CONTINUOUS
10
142.551
20
-144.943
11
142.646
21
-144.991
0
LINE
8
BLACK
6
CONTINUOUS
10
142.646
20
-144.991
11
142.693
21
-145.039
0
LINE
8
BLACK
6
CONTINUOUS
10
142.693
20
-145.039
11
142.741
21
-145.134
0
LINE
8
BLACK
6
CONTINUOUS
10
142.741
20
-145.134
11
142.741
21
-145.372
0
LINE
8
BLACK
6
CONTINUOUS
10
142.741
20
-145.372
11
142.693
21
-145.467
0
LINE
8
BLACK
6
CONTINUOUS
10
142.693
20
-145.467
11
142.646
21
-145.515
0
LINE
8
BLACK
6
CONTINUOUS
10
142.646
20
-145.515
11
142.551
21
-145.562
0
LINE
8
BLACK
6
CONTINUOUS
10
142.551
20
-145.562
11
142.312
21
-145.562
0
LINE
8
BLACK
6
CONTINUOUS
10
142.312
20
-145.562
11
142.217
21
-145.515
0
LINE
8
BLACK
6
CONTINUOUS
10
142.217
20
-145.515
11
142.17
21
-145.467
0
LINE
8
BLACK
6
CONTINUOUS
10
143.598
20
-144.896
11
143.598
21
-145.562
0
LINE
8
BLACK
6
CONTINUOUS
10
143.36
20
-144.515
11
143.122
21
-145.229
0
LINE
8
BLACK
6
CONTINUOUS
10
143.122
20
-145.229
11
143.741
21
-145.229
0
LINE
8
BLACK
6
CONTINUOUS
10
144.122
20
-145.467
11
144.17
21
-145.515
0
LINE
8
BLACK
6
CONTINUOUS
10
144.17
20
-145.515
11
144.122
21
-145.562
0
LINE
8
BLACK
6
CONTINUOUS
10
144.122
20
-145.562
11
144.074
21
-145.515
0
LINE
8
BLACK
6
CONTINUOUS
10
144.074
20
-145.515
11
144.122
21
-145.467
0
LINE
8
BLACK
6
CONTINUOUS
10
144.122
20
-145.467
11
144.122
21
-145.562
0
LINE
8
BLACK
6
CONTINUOUS
10
145.027
20
-144.562
11
144.836
21
-144.562
0
LINE
8
BLACK
6
CONTINUOUS
10
144.836
20
-144.562
11
144.741
21
-144.61
0
LINE
8
BLACK
6
CONTINUOUS
10
144.741
20
-144.61
11
144.693
21
-144.658
0
LINE
8
BLACK
6
CONTINUOUS
10
144.693
20
-144.658
11
144.598
21
-144.8
0
LINE
8
BLACK
6
CONTINUOUS
10
144.598
20
-144.8
11
144.551
21
-144.991
0
LINE
8
BLACK
6
CONTINUOUS
10
144.551
20
-144.991
11
144.551
21
-145.372
0
LINE
8
BLACK
6
CONTINUOUS
10
144.551
20
-145.372
11
144.598
21
-145.467
0
LINE
8
BLACK
6
CONTINUOUS
10
144.598
20
-145.467
11
144.646
21
-145.515
0
LINE
8
BLACK
6
CONTINUOUS
10
144.646
20
-145.515
11
144.741
21
-145.562
0
LINE
8
BLACK
6
CONTINUOUS
10
144.741
20
-145.562
11
144.932
21
-145.562
0
LINE
8
BLACK
6
CONTINUOUS
10
144.932
20
-145.562
11
145.027
21
-145.515
0
LINE
8
BLACK
6
CONTINUOUS
10
145.027
20
-145.515
11
145.074
21
-145.467
0
LINE
8
BLACK
6
CONTINUOUS
10
145.074
20
-145.467
11
145.122
21
-145.372
0
LINE
8
BLACK
6
CONTINUOUS
10
145.122
20
-145.372
11
145.122
21
-145.134
0
LINE
8
BLACK
6
CONTINUOUS
10
145.122
20
-145.134
11
145.074
21
-145.039
0
LINE
8
BLACK
6
CONTINUOUS
10
145.074
20
-145.039
11
145.027
21
-144.991
0
LINE
8
BLACK
6
CONTINUOUS
10
145.027
20
-144.991
11
144.932
21
-144.943
0
LINE
8
BLACK
6
CONTINUOUS
10
144.932
20
-144.943
11
144.741
21
-144.943
0
LINE
8
BLACK
6
CONTINUOUS
10
144.741
20
-144.943
11
144.646
21
-144.991
0
LINE
8
BLACK
6
CONTINUOUS
10
144.646
20
-144.991
11
144.598
21
-145.039
0
LINE
8
BLACK
6
CONTINUOUS
10
144.598
20
-145.039
11
144.551
21
-145.134
0
LINE
8
BLACK
6
CONTINUOUS
10
145.503
20
-144.658
11
145.551
21
-144.61
0
LINE
8
BLACK
6
CONTINUOUS
10
145.551
20
-144.61
11
145.646
21
-144.562
0
LINE
8
BLACK
6
CONTINUOUS
10
145.646
20
-144.562
11
145.884
21
-144.562
0
LINE
8
BLACK
6
CONTINUOUS
10
145.884
20
-144.562
11
145.979
21
-144.61
0
LINE
8
BLACK
6
CONTINUOUS
10
145.979
20
-144.61
11
146.027
21
-144.658
0
LINE
8
BLACK
6
CONTINUOUS
10
146.027
20
-144.658
11
146.074
21
-144.753
0
LINE
8
BLACK
6
CONTINUOUS
10
146.074
20
-144.753
11
146.074
21
-144.848
0
LINE
8
BLACK
6
CONTINUOUS
10
146.074
20
-144.848
11
146.027
21
-144.991
0
LINE
8
BLACK
6
CONTINUOUS
10
146.027
20
-144.991
11
145.455
21
-145.562
0
LINE
8
BLACK
6
CONTINUOUS
10
145.455
20
-145.562
11
146.074
21
-145.562
0
LINE
8
BLACK
6
CONTINUOUS
10
146.979
20
-144.562
11
146.503
21
-144.562
0
LINE
8
BLACK
6
CONTINUOUS
10
146.503
20
-144.562
11
146.455
21
-145.039
0
LINE
8
BLACK
6
CONTINUOUS
10
146.455
20
-145.039
11
146.503
21
-144.991
0
LINE
8
BLACK
6
CONTINUOUS
10
146.503
20
-144.991
11
146.598
21
-144.943
0
LINE
8
BLACK
6
CONTINUOUS
10
146.598
20
-144.943
11
146.836
21
-144.943
0
LINE
8
BLACK
6
CONTINUOUS
10
146.836
20
-144.943
11
146.932
21
-144.991
0
LINE
8
BLACK
6
CONTINUOUS
10
146.932
20
-144.991
11
146.979
21
-145.039
0
LINE
8
BLACK
6
CONTINUOUS
10
146.979
20
-145.039
11
147.027
21
-145.134
0
LINE
8
BLACK
6
CONTINUOUS
10
147.027
20
-145.134
11
147.027
21
-145.372
0
LINE
8
BLACK
6
CONTINUOUS
10
147.027
20
-145.372
11
146.979
21
-145.467
0
LINE
8
BLACK
6
CONTINUOUS
10
146.979
20
-145.467
11
146.932
21
-145.515
0
LINE
8
BLACK
6
CONTINUOUS
10
146.932
20
-145.515
11
146.836
21
-145.562
0
LINE
8
BLACK
6
CONTINUOUS
10
146.836
20
-145.562
11
146.598
21
-145.562
0
LINE
8
BLACK
6
CONTINUOUS
10
146.598
20
-145.562
11
146.503
21
-145.515
0
LINE
8
BLACK
6
CONTINUOUS
10
146.503
20
-145.515
11
146.455
21
-145.467
0
LINE
8
BLACK
6
CONTINUOUS
10
148.217
20
-145.562
11
148.217
21
-144.896
0
LINE
8
BLACK
6
CONTINUOUS
10
148.217
20
-144.991
11
148.265
21
-144.943
0
LINE
8
BLACK
6
CONTINUOUS
10
148.265
20
-144.943
11
148.36
21
-144.896
0
LINE
8
BLACK
6
CONTINUOUS
10
148.36
20
-144.896
11
148.503
21
-144.896
0
LINE
8
BLACK
6
CONTINUOUS
10
148.503
20
-144.896
11
148.598
21
-144.943
0
LINE
8
BLACK
6
CONTINUOUS
10
148.598
20
-144.943
11
148.646
21
-145.039
0
LINE
8
BLACK
6
CONTINUOUS
10
148.646
20
-145.039
11
148.646
21
-145.562
0
LINE
8
BLACK
6
CONTINUOUS
10
148.646
20
-145.039
11
148.693
21
-144.943
0
LINE
8
BLACK
6
CONTINUOUS
10
148.693
20
-144.943
11
148.789
21
-144.896
0
LINE
8
BLACK
6
CONTINUOUS
10
148.789
20
-144.896
11
148.932
21
-144.896
0
LINE
8
BLACK
6
CONTINUOUS
10
148.932
20
-144.896
11
149.027
21
-144.943
0
LINE
8
BLACK
6
CONTINUOUS
10
149.027
20
-144.943
11
149.074
21
-145.039
0
LINE
8
BLACK
6
CONTINUOUS
10
149.074
20
-145.039
11
149.074
21
-145.562
0
LINE
8
BLACK
6
CONTINUOUS
10
149.551
20
-145.562
11
149.551
21
-144.896
0
LINE
8
BLACK
6
CONTINUOUS
10
149.551
20
-144.991
11
149.598
21
-144.943
0
LINE
8
BLACK
6
CONTINUOUS
10
149.598
20
-144.943
11
149.693
21
-144.896
0
LINE
8
BLACK
6
CONTINUOUS
10
149.693
20
-144.896
11
149.836
21
-144.896
0
LINE
8
BLACK
6
CONTINUOUS
10
149.836
20
-144.896
11
149.932
21
-144.943
0
LINE
8
BLACK
6
CONTINUOUS
10
149.932
20
-144.943
11
149.979
21
-145.039
0
LINE
8
BLACK
6
CONTINUOUS
10
149.979
20
-145.039
11
149.979
21
-145.562
0
LINE
8
BLACK
6
CONTINUOUS
10
149.979
20
-145.039
11
150.027
21
-144.943
0
LINE
8
BLACK
6
CONTINUOUS
10
150.027
20
-144.943
11
150.122
21
-144.896
0
LINE
8
BLACK
6
CONTINUOUS
10
150.122
20
-144.896
11
150.265
21
-144.896
0
LINE
8
BLACK
6
CONTINUOUS
10
150.265
20
-144.896
11
150.36
21
-144.943
0
LINE
8
BLACK
6
CONTINUOUS
10
150.36
20
-144.943
11
150.408
21
-145.039
0
LINE
8
BLACK
6
CONTINUOUS
10
150.408
20
-145.039
11
150.408
21
-145.562
0
LINE
8
BLACK
6
CONTINUOUS
10
119
20
-143.81
11
173.625
21
-143.81
0
LINE
8
BLACK
6
CONTINUOUS
10
119
20
-143.465
11
119
21
-144.396
0
LINE
8
BLACK
6
CONTINUOUS
10
173.625
20
-143.465
11
173.625
21
-144.396
0
LINE
8
BLACK
6
CONTINUOUS
10
173.625
20
-143.81
11
172.498
21
-144.396
0
LINE
8
BLACK
6
CONTINUOUS
10
173.625
20
-143.81
11
172.498
21
-143.224
0
LINE
8
BLACK
6
CONTINUOUS
10
119
20
-143.81
11
120.127
21
-144.396
0
LINE
8
BLACK
6
CONTINUOUS
10
119
20
-143.81
11
120.127
21
-143.224
0
LINE
8
BLACK
6
CONTINUOUS
10
97.8776
20
-46.4061
11
97.8776
21
-45.8346
0
LINE
8
BLACK
6
CONTINUOUS
10
97.8776
20
-46.1204
11
98.8776
21
-46.1204
0
LINE
8
BLACK
6
CONTINUOUS
10
98.8776
20
-46.1204
11
98.7348
21
-46.0251
0
LINE
8
BLACK
6
CONTINUOUS
10
98.7348
20
-46.0251
11
98.6395
21
-45.9299
0
LINE
8
BLACK
6
CONTINUOUS
10
98.6395
20
-45.9299
11
98.5919
21
-45.8346
0
LINE
8
BLACK
6
CONTINUOUS
10
98.5443
20
-47.2632
11
97.8776
21
-47.2632
0
LINE
8
BLACK
6
CONTINUOUS
10
98.9252
20
-47.0251
11
98.211
21
-46.787
0
LINE
8
BLACK
6
CONTINUOUS
10
98.211
20
-46.787
11
98.211
21
-47.4061
0
LINE
8
BLACK
6
CONTINUOUS
10
97.9729
20
-47.787
11
97.9252
21
-47.8346
0
LINE
8
BLACK
6
CONTINUOUS
10
97.9252
20
-47.8346
11
97.8776
21
-47.787
0
LINE
8
BLACK
6
CONTINUOUS
10
97.8776
20
-47.787
11
97.9252
21
-47.7394
0
LINE
8
BLACK
6
CONTINUOUS
10
97.9252
20
-47.7394
11
97.9729
21
-47.787
0
LINE
8
BLACK
6
CONTINUOUS
10
97.9729
20
-47.787
11
97.8776
21
-47.787
0
LINE
8
BLACK
6
CONTINUOUS
10
98.8776
20
-48.4537
11
98.8776
21
-48.5489
0
LINE
8
BLACK
6
CONTINUOUS
10
98.8776
20
-48.5489
11
98.83
21
-48.6442
0
LINE
8
BLACK
6
CONTINUOUS
10
98.83
20
-48.6442
11
98.7824
21
-48.6918
0
LINE
8
BLACK
6
CONTINUOUS
10
98.7824
20
-48.6918
11
98.6871
21
-48.7394
0
LINE
8
BLACK
6
CONTINUOUS
10
98.6871
20
-48.7394
11
98.4967
21
-48.787
0
LINE
8
BLACK
6
CONTINUOUS
10
98.4967
20
-48.787
11
98.2586
21
-48.787
0
LINE
8
BLACK
6
CONTINUOUS
10
98.2586
20
-48.787
11
98.0681
21
-48.7394
0
LINE
8
BLACK
6
CONTINUOUS
10
98.0681
20
-48.7394
11
97.9729
21
-48.6918
0
LINE
8
BLACK
6
CONTINUOUS
10
97.9729
20
-48.6918
11
97.9252
21
-48.6442
0
LINE
8
BLACK
6
CONTINUOUS
10
97.9252
20
-48.6442
11
97.8776
21
-48.5489
0
LINE
8
BLACK
6
CONTINUOUS
10
97.8776
20
-48.5489
11
97.8776
21
-48.4537
0
LINE
8
BLACK
6
CONTINUOUS
10
97.8776
20
-48.4537
11
97.9252
21
-48.3585
0
LINE
8
BLACK
6
CONTINUOUS
10
97.9252
20
-48.3585
11
97.9729
21
-48.3108
0
LINE
8
BLACK
6
CONTINUOUS
10
97.9729
20
-48.3108
11
98.0681
21
-48.2632
0
LINE
8
BLACK
6
CONTINUOUS
10
98.0681
20
-48.2632
11
98.2586
21
-48.2156
0
LINE
8
BLACK
6
CONTINUOUS
10
98.2586
20
-48.2156
11
98.4967
21
-48.2156
0
LINE
8
BLACK
6
CONTINUOUS
10
98.4967
20
-48.2156
11
98.6871
21
-48.2632
0
LINE
8
BLACK
6
CONTINUOUS
10
98.6871
20
-48.2632
11
98.7824
21
-48.3108
0
LINE
8
BLACK
6
CONTINUOUS
10
98.7824
20
-48.3108
11
98.83
21
-48.3585
0
LINE
8
BLACK
6
CONTINUOUS
10
98.83
20
-48.3585
11
98.8776
21
-48.4537
0
LINE
8
BLACK
6
CONTINUOUS
10
98.8776
20
-49.4061
11
98.8776
21
-49.5013
0
LINE
8
BLACK
6
CONTINUOUS
10
98.8776
20
-49.5013
11
98.83
21
-49.5965
0
LINE
8
BLACK
6
CONTINUOUS
10
98.83
20
-49.5965
11
98.7824
21
-49.6442
0
LINE
8
BLACK
6
CONTINUOUS
10
98.7824
20
-49.6442
11
98.6871
21
-49.6918
0
LINE
8
BLACK
6
CONTINUOUS
10
98.6871
20
-49.6918
11
98.4967
21
-49.7394
0
LINE
8
BLACK
6
CONTINUOUS
10
98.4967
20
-49.7394
11
98.2586
21
-49.7394
0
LINE
8
BLACK
6
CONTINUOUS
10
98.2586
20
-49.7394
11
98.0681
21
-49.6918
0
LINE
8
BLACK
6
CONTINUOUS
10
98.0681
20
-49.6918
11
97.9729
21
-49.6442
0
LINE
8
BLACK
6
CONTINUOUS
10
97.9729
20
-49.6442
11
97.9252
21
-49.5965
0
LINE
8
BLACK
6
CONTINUOUS
10
97.9252
20
-49.5965
11
97.8776
21
-49.5013
0
LINE
8
BLACK
6
CONTINUOUS
10
97.8776
20
-49.5013
11
97.8776
21
-49.4061
0
LINE
8
BLACK
6
CONTINUOUS
10
97.8776
20
-49.4061
11
97.9252
21
-49.3108
0
LINE
8
BLACK
6
CONTINUOUS
10
97.9252
20
-49.3108
11
97.9729
21
-49.2632
0
LINE
8
BLACK
6
CONTINUOUS
10
97.9729
20
-49.2632
11
98.0681
21
-49.2156
0
LINE
8
BLACK
6
CONTINUOUS
10
98.0681
20
-49.2156
11
98.2586
21
-49.168
0
LINE
8
BLACK
6
CONTINUOUS
10
98.2586
20
-49.168
11
98.4967
21
-49.168
0
LINE
8
BLACK
6
CONTINUOUS
10
98.4967
20
-49.168
11
98.6871
21
-49.2156
0
LINE
8
BLACK
6
CONTINUOUS
10
98.6871
20
-49.2156
11
98.7824
21
-49.2632
0
LINE
8
BLACK
6
CONTINUOUS
10
98.7824
20
-49.2632
11
98.83
21
-49.3108
0
LINE
8
BLACK
6
CONTINUOUS
10
98.83
20
-49.3108
11
98.8776
21
-49.4061
0
LINE
8
BLACK
6
CONTINUOUS
10
98.8776
20
-50.3585
11
98.8776
21
-50.4537
0
LINE
8
BLACK
6
CONTINUOUS
10
98.8776
20
-50.4537
11
98.83
21
-50.5489
0
LINE
8
BLACK
6
CONTINUOUS
10
98.83
20
-50.5489
11
98.7824
21
-50.5965
0
LINE
8
BLACK
6
CONTINUOUS
10
98.7824
20
-50.5965
11
98.6871
21
-50.6442
0
LINE
8
BLACK
6
CONTINUOUS
10
98.6871
20
-50.6442
11
98.4967
21
-50.6918
0
LINE
8
BLACK
6
CONTINUOUS
10
98.4967
20
-50.6918
11
98.2586
21
-50.6918
0
LINE
8
BLACK
6
CONTINUOUS
10
98.2586
20
-50.6918
11
98.0681
21
-50.6442
0
LINE
8
BLACK
6
CONTINUOUS
10
98.0681
20
-50.6442
11
97.9729
21
-50.5965
0
LINE
8
BLACK
6
CONTINUOUS
10
97.9729
20
-50.5965
11
97.9252
21
-50.5489
0
LINE
8
BLACK
6
CONTINUOUS
10
97.9252
20
-50.5489
11
97.8776
21
-50.4537
0
LINE
8
BLACK
6
CONTINUOUS
10
97.8776
20
-50.4537
11
97.8776
21
-50.3585
0
LINE
8
BLACK
6
CONTINUOUS
10
97.8776
20
-50.3585
11
97.9252
21
-50.2632
0
LINE
8
BLACK
6
CONTINUOUS
10
97.9252
20
-50.2632
11
97.9729
21
-50.2156
0
LINE
8
BLACK
6
CONTINUOUS
10
97.9729
20
-50.2156
11
98.0681
21
-50.168
0
LINE
8
BLACK
6
CONTINUOUS
10
98.0681
20
-50.168
11
98.2586
21
-50.1204
0
LINE
8
BLACK
6
CONTINUOUS
10
98.2586
20
-50.1204
11
98.4967
21
-50.1204
0
LINE
8
BLACK
6
CONTINUOUS
10
98.4967
20
-50.1204
11
98.6871
21
-50.168
0
LINE
8
BLACK
6
CONTINUOUS
10
98.6871
20
-50.168
11
98.7824
21
-50.2156
0
LINE
8
BLACK
6
CONTINUOUS
10
98.7824
20
-50.2156
11
98.83
21
-50.2632
0
LINE
8
BLACK
6
CONTINUOUS
10
98.83
20
-50.2632
11
98.8776
21
-50.3585
0
LINE
8
BLACK
6
CONTINUOUS
10
97.8776
20
-51.8823
11
98.5443
21
-51.8823
0
LINE
8
BLACK
6
CONTINUOUS
10
98.449
20
-51.8823
11
98.4967
21
-51.9299
0
LINE
8
BLACK
6
CONTINUOUS
10
98.4967
20
-51.9299
11
98.5443
21
-52.0251
0
LINE
8
BLACK
6
CONTINUOUS
10
98.5443
20
-52.0251
11
98.5443
21
-52.168
0
LINE
8
BLACK
6
CONTINUOUS
10
98.5443
20
-52.168
11
98.4967
21
-52.2632
0
LINE
8
BLACK
6
CONTINUOUS
10
98.4967
20
-52.2632
11
98.4014
21
-52.3108
0
LINE
8
BLACK
6
CONTINUOUS
10
98.4014
20
-52.3108
11
97.8776
21
-52.3108
0
LINE
8
BLACK
6
CONTINUOUS
10
98.4014
20
-52.3108
11
98.4967
21
-52.3585
0
LINE
8
BLACK
6
CONTINUOUS
10
98.4967
20
-52.3585
11
98.5443
21
-52.4537
0
LINE
8
BLACK
6
CONTINUOUS
10
98.5443
20
-52.4537
11
98.5443
21
-52.5965
0
LINE
8
BLACK
6
CONTINUOUS
10
98.5443
20
-52.5965
11
98.4967
21
-52.6918
0
LINE
8
BLACK
6
CONTINUOUS
10
98.4967
20
-52.6918
11
98.4014
21
-52.7394
0
LINE
8
BLACK
6
CONTINUOUS
10
98.4014
20
-52.7394
11
97.8776
21
-52.7394
0
LINE
8
BLACK
6
CONTINUOUS
10
97.8776
20
-53.2156
11
98.5443
21
-53.2156
0
LINE
8
BLACK
6
CONTINUOUS
10
98.449
20
-53.2156
11
98.4967
21
-53.2632
0
LINE
8
BLACK
6
CONTINUOUS
10
98.4967
20
-53.2632
11
98.5443
21
-53.3585
0
LINE
8
BLACK
6
CONTINUOUS
10
98.5443
20
-53.3585
11
98.5443
21
-53.5013
0
LINE
8
BLACK
6
CONTINUOUS
10
98.5443
20
-53.5013
11
98.4967
21
-53.5965
0
LINE
8
BLACK
6
CONTINUOUS
10
98.4967
20
-53.5965
11
98.4014
21
-53.6442
0
LINE
8
BLACK
6
CONTINUOUS
10
98.4014
20
-53.6442
11
97.8776
21
-53.6442
0
LINE
8
BLACK
6
CONTINUOUS
10
98.4014
20
-53.6442
11
98.4967
21
-53.6918
0
LINE
8
BLACK
6
CONTINUOUS
10
98.4967
20
-53.6918
11
98.5443
21
-53.787
0
LINE
8
BLACK
6
CONTINUOUS
10
98.5443
20
-53.787
11
98.5443
21
-53.9299
0
LINE
8
BLACK
6
CONTINUOUS
10
98.5443
20
-53.9299
11
98.4967
21
-54.0251
0
LINE
8
BLACK
6
CONTINUOUS
10
98.4967
20
-54.0251
11
98.4014
21
-54.0727
0
LINE
8
BLACK
6
CONTINUOUS
10
98.4014
20
-54.0727
11
97.8776
21
-54.0727
0
LINE
8
BLACK
6
CONTINUOUS
10
97.03
20
-42.9775
11
97.03
21
-56.9775
0
LINE
8
BLACK
6
CONTINUOUS
10
95.9
20
-42.9775
11
97.6164
21
-42.9775
0
LINE
8
BLACK
6
CONTINUOUS
10
95.9
20
-56.9775
11
97.6164
21
-56.9775
0
LINE
8
BLACK
6
CONTINUOUS
10
97.03
20
-56.9775
11
96.4436
21
-55.851
0
LINE
8
BLACK
6
CONTINUOUS
10
97.03
20
-56.9775
11
97.6164
21
-55.851
0
LINE
8
BLACK
6
CONTINUOUS
10
97.03
20
-42.9775
11
96.4436
21
-44.104
0
LINE
8
BLACK
6
CONTINUOUS
10
97.03
20
-42.9775
11
97.6164
21
-44.104
0
LINE
8
BLACK
6
CONTINUOUS
10
84.3286
20
-38.7624
11
83.7571
21
-38.7624
0
LINE
8
BLACK
6
CONTINUOUS
10
84.0429
20
-38.7624
11
84.0429
21
-37.7624
0
LINE
8
BLACK
6
CONTINUOUS
10
84.0429
20
-37.7624
11
83.9476
21
-37.9052
0
LINE
8
BLACK
6
CONTINUOUS
10
83.9476
20
-37.9052
11
83.8524
21
-38.0005
0
LINE
8
BLACK
6
CONTINUOUS
10
83.8524
20
-38.0005
11
83.7571
21
-38.0481
0
LINE
8
BLACK
6
CONTINUOUS
10
85.1857
20
-38.0957
11
85.1857
21
-38.7624
0
LINE
8
BLACK
6
CONTINUOUS
10
84.9476
20
-37.7148
11
84.7095
21
-38.429
0
LINE
8
BLACK
6
CONTINUOUS
10
84.7095
20
-38.429
11
85.3286
21
-38.429
0
LINE
8
BLACK
6
CONTINUOUS
10
85.7095
20
-38.6671
11
85.7571
21
-38.7148
0
LINE
8
BLACK
6
CONTINUOUS
10
85.7571
20
-38.7148
11
85.7095
21
-38.7624
0
LINE
8
BLACK
6
CONTINUOUS
10
85.7095
20
-38.7624
11
85.6619
21
-38.7148
0
LINE
8
BLACK
6
CONTINUOUS
10
85.6619
20
-38.7148
11
85.7095
21
-38.6671
0
LINE
8
BLACK
6
CONTINUOUS
10
85.7095
20
-38.6671
11
85.7095
21
-38.7624
0
LINE
8
BLACK
6
CONTINUOUS
10
86.3762
20
-37.7624
11
86.4714
21
-37.7624
0
LINE
8
BLACK
6
CONTINUOUS
10
86.4714
20
-37.7624
11
86.5667
21
-37.81
0
LINE
8
BLACK
6
CONTINUOUS
10
86.5667
20
-37.81
11
86.6143
21
-37.8576
0
LINE
8
BLACK
6
CONTINUOUS
10
86.6143
20
-37.8576
11
86.6619
21
-37.9529
0
LINE
8
BLACK
6
CONTINUOUS
10
86.6619
20
-37.9529
11
86.7095
21
-38.1433
0
LINE
8
BLACK
6
CONTINUOUS
10
86.7095
20
-38.1433
11
86.7095
21
-38.3814
0
LINE
8
BLACK
6
CONTINUOUS
10
86.7095
20
-38.3814
11
86.6619
21
-38.5719
0
LINE
8
BLACK
6
CONTINUOUS
10
86.6619
20
-38.5719
11
86.6143
21
-38.6671
0
LINE
8
BLACK
6
CONTINUOUS
10
86.6143
20
-38.6671
11
86.5667
21
-38.7148
0
LINE
8
BLACK
6
CONTINUOUS
10
86.5667
20
-38.7148
11
86.4714
21
-38.7624
0
LINE
8
BLACK
6
CONTINUOUS
10
86.4714
20
-38.7624
11
86.3762
21
-38.7624
0
LINE
8
BLACK
6
CONTINUOUS
10
86.3762
20
-38.7624
11
86.281
21
-38.7148
0
LINE
8
BLACK
6
CONTINUOUS
10
86.281
20
-38.7148
11
86.2333
21
-38.6671
0
LINE
8
BLACK
6
CONTINUOUS
10
86.2333
20
-38.6671
11
86.1857
21
-38.5719
0
LINE
8
BLACK
6
CONTINUOUS
10
86.1857
20
-38.5719
11
86.1381
21
-38.3814
0
LINE
8
BLACK
6
CONTINUOUS
10
86.1381
20
-38.3814
11
86.1381
21
-38.1433
0
LINE
8
BLACK
6
CONTINUOUS
10
86.1381
20
-38.1433
11
86.1857
21
-37.9529
0
LINE
8
BLACK
6
CONTINUOUS
10
86.1857
20
-37.9529
11
86.2333
21
-37.8576
0
LINE
8
BLACK
6
CONTINUOUS
10
86.2333
20
-37.8576
11
86.281
21
-37.81
0
LINE
8
BLACK
6
CONTINUOUS
10
86.281
20
-37.81
11
86.3762
21
-37.7624
0
LINE
8
BLACK
6
CONTINUOUS
10
87.3286
20
-37.7624
11
87.4238
21
-37.7624
0
LINE
8
BLACK
6
CONTINUOUS
10
87.4238
20
-37.7624
11
87.519
21
-37.81
0
LINE
8
BLACK
6
CONTINUOUS
10
87.519
20
-37.81
11
87.5667
21
-37.8576
0
LINE
8
BLACK
6
CONTINUOUS
10
87.5667
20
-37.8576
11
87.6143
21
-37.9529
0
LINE
8
BLACK
6
CONTINUOUS
10
87.6143
20
-37.9529
11
87.6619
21
-38.1433
0
LINE
8
BLACK
6
CONTINUOUS
10
87.6619
20
-38.1433
11
87.6619
21
-38.3814
0
LINE
8
BLACK
6
CONTINUOUS
10
87.6619
20
-38.3814
11
87.6143
21
-38.5719
0
LINE
8
BLACK
6
CONTINUOUS
10
87.6143
20
-38.5719
11
87.5667
21
-38.6671
0
LINE
8
BLACK
6
CONTINUOUS
10
87.5667
20
-38.6671
11
87.519
21
-38.7148
0
LINE
8
BLACK
6
CONTINUOUS
10
87.519
20
-38.7148
11
87.4238
21
-38.7624
0
LINE
8
BLACK
6
CONTINUOUS
10
87.4238
20
-38.7624
11
87.3286
21
-38.7624
0
LINE
8
BLACK
6
CONTINUOUS
10
87.3286
20
-38.7624
11
87.2333
21
-38.7148
0
LINE
8
BLACK
6
CONTINUOUS
10
87.2333
20
-38.7148
11
87.1857
21
-38.6671
0
LINE
8
BLACK
6
CONTINUOUS
10
87.1857
20
-38.6671
11
87.1381
21
-38.5719
0
LINE
8
BLACK
6
CONTINUOUS
10
87.1381
20
-38.5719
11
87.0905
21
-38.3814
0
LINE
8
BLACK
6
CONTINUOUS
10
87.0905
20
-38.3814
11
87.0905
21
-38.1433
0
LINE
8
BLACK
6
CONTINUOUS
10
87.0905
20
-38.1433
11
87.1381
21
-37.9529
0
LINE
8
BLACK
6
CONTINUOUS
10
87.1381
20
-37.9529
11
87.1857
21
-37.8576
0
LINE
8
BLACK
6
CONTINUOUS
10
87.1857
20
-37.8576
11
87.2333
21
-37.81
0
LINE
8
BLACK
6
CONTINUOUS
10
87.2333
20
-37.81
11
87.3286
21
-37.7624
0
LINE
8
BLACK
6
CONTINUOUS
10
88.281
20
-37.7624
11
88.3762
21
-37.7624
0
LINE
8
BLACK
6
CONTINUOUS
10
88.3762
20
-37.7624
11
88.4714
21
-37.81
0
LINE
8
BLACK
6
CONTINUOUS
10
88.4714
20
-37.81
11
88.519
21
-37.8576
0
LINE
8
BLACK
6
CONTINUOUS
10
88.519
20
-37.8576
11
88.5667
21
-37.9529
0
LINE
8
BLACK
6
CONTINUOUS
10
88.5667
20
-37.9529
11
88.6143
21
-38.1433
0
LINE
8
BLACK
6
CONTINUOUS
10
88.6143
20
-38.1433
11
88.6143
21
-38.3814
0
LINE
8
BLACK
6
CONTINUOUS
10
88.6143
20
-38.3814
11
88.5667
21
-38.5719
0
LINE
8
BLACK
6
CONTINUOUS
10
88.5667
20
-38.5719
11
88.519
21
-38.6671
0
LINE
8
BLACK
6
CONTINUOUS
10
88.519
20
-38.6671
11
88.4714
21
-38.7148
0
LINE
8
BLACK
6
CONTINUOUS
10
88.4714
20
-38.7148
11
88.3762
21
-38.7624
0
LINE
8
BLACK
6
CONTINUOUS
10
88.3762
20
-38.7624
11
88.281
21
-38.7624
0
LINE
8
BLACK
6
CONTINUOUS
10
88.281
20
-38.7624
11
88.1857
21
-38.7148
0
LINE
8
BLACK
6
CONTINUOUS
10
88.1857
20
-38.7148
11
88.1381
21
-38.6671
0
LINE
8
BLACK
6
CONTINUOUS
10
88.1381
20
-38.6671
11
88.0905
21
-38.5719
0
LINE
8
BLACK
6
CONTINUOUS
10
88.0905
20
-38.5719
11
88.0429
21
-38.3814
0
LINE
8
BLACK
6
CONTINUOUS
10
88.0429
20
-38.3814
11
88.0429
21
-38.1433
0
LINE
8
BLACK
6
CONTINUOUS
10
88.0429
20
-38.1433
11
88.0905
21
-37.9529
0
LINE
8
BLACK
6
CONTINUOUS
10
88.0905
20
-37.9529
11
88.1381
21
-37.8576
0
LINE
8
BLACK
6
CONTINUOUS
10
88.1381
20
-37.8576
11
88.1857
21
-37.81
0
LINE
8
BLACK
6
CONTINUOUS
10
88.1857
20
-37.81
11
88.281
21
-37.7624
0
LINE
8
BLACK
6
CONTINUOUS
10
89.8048
20
-38.7624
11
89.8048
21
-38.0957
0
LINE
8
BLACK
6
CONTINUOUS
10
89.8048
20
-38.191
11
89.8524
21
-38.1433
0
LINE
8
BLACK
6
CONTINUOUS
10
89.8524
20
-38.1433
11
89.9476
21
-38.0957
0
LINE
8
BLACK
6
CONTINUOUS
10
89.9476
20
-38.0957
11
90.0905
21
-38.0957
0
LINE
8
BLACK
6
CONTINUOUS
10
90.0905
20
-38.0957
11
90.1857
21
-38.1433
0
LINE
8
BLACK
6
CONTINUOUS
10
90.1857
20
-38.1433
11
90.2333
21
-38.2386
0
LINE
8
BLACK
6
CONTINUOUS
10
90.2333
20
-38.2386
11
90.2333
21
-38.7624
0
LINE
8
BLACK
6
CONTINUOUS
10
90.2333
20
-38.2386
11
90.281
21
-38.1433
0
LINE
8
BLACK
6
CONTINUOUS
10
90.281
20
-38.1433
11
90.3762
21
-38.0957
0
LINE
8
BLACK
6
CONTINUOUS
10
90.3762
20
-38.0957
11
90.519
21
-38.0957
0
LINE
8
BLACK
6
CONTINUOUS
10
90.519
20
-38.0957
11
90.6143
21
-38.1433
0
LINE
8
BLACK
6
CONTINUOUS
10
90.6143
20
-38.1433
11
90.6619
21
-38.2386
0
LINE
8
BLACK
6
CONTINUOUS
10
90.6619
20
-38.2386
11
90.6619
21
-38.7624
0
LINE
8
BLACK
6
CONTINUOUS
10
91.1381
20
-38.7624
11
91.1381
21
-38.0957
0
LINE
8
BLACK
6
CONTINUOUS
10
91.1381
20
-38.191
11
91.1857
21
-38.1433
0
LINE
8
BLACK
6
CONTINUOUS
10
91.1857
20
-38.1433
11
91.281
21
-38.0957
0
LINE
8
BLACK
6
CONTINUOUS
10
91.281
20
-38.0957
11
91.4238
21
-38.0957
0
LINE
8
BLACK
6
CONTINUOUS
10
91.4238
20
-38.0957
11
91.519
21
-38.1433
0
LINE
8
BLACK
6
CONTINUOUS
10
91.519
20
-38.1433
11
91.5667
21
-38.2386
0
LINE
8
BLACK
6
CONTINUOUS
10
91.5667
20
-38.2386
11
91.5667
21
-38.7624
0
LINE
8
BLACK
6
CONTINUOUS
10
91.5667
20
-38.2386
11
91.6143
21
-38.1433
0
LINE
8
BLACK
6
CONTINUOUS
10
91.6143
20
-38.1433
11
91.7095
21
-38.0957
0
LINE
8
BLACK
6
CONTINUOUS
10
91.7095
20
-38.0957
11
91.8524
21
-38.0957
0
LINE
8
BLACK
6
CONTINUOUS
10
91.8524
20
-38.0957
11
91.9476
21
-38.1433
0
LINE
8
BLACK
6
CONTINUOUS
10
91.9476
20
-38.1433
11
91.9952
21
-38.2386
0
LINE
8
BLACK
6
CONTINUOUS
10
91.9952
20
-38.2386
11
91.9952
21
-38.7624
0
LINE
8
BLACK
6
CONTINUOUS
10
80.9
20
-39.61
11
94.9
21
-39.61
0
LINE
8
BLACK
6
CONTINUOUS
10
80.9
20
-40.9775
11
80.9
21
-39.0236
0
LINE
8
BLACK
6
CONTINUOUS
10
94.9
20
-40.9775
11
94.9
21
-39.0236
0
LINE
8
BLACK
6
CONTINUOUS
10
94.9
20
-39.61
11
93.7735
21
-40.1964
0
LINE
8
BLACK
6
CONTINUOUS
10
94.9
20
-39.61
11
93.7735
21
-39.0236
0
LINE
8
BLACK
6
CONTINUOUS
10
80.9
20
-39.61
11
82.0265
21
-40.1964
0
LINE
8
BLACK
6
CONTINUOUS
10
80.9
20
-39.61
11
82.0265
21
-39.0236
0
LINE
8
BLACK
6
CONTINUOUS
10
178.852
20
-92.1251
11
178.852
21
-92.6965
0
LINE
8
BLACK
6
CONTINUOUS
10
178.852
20
-92.4108
11
177.852
21
-92.4108
0
LINE
8
BLACK
6
CONTINUOUS
10
177.852
20
-92.4108
11
177.995
21
-92.5061
0
LINE
8
BLACK
6
CONTINUOUS
10
177.995
20
-92.5061
11
178.09
21
-92.6013
0
LINE
8
BLACK
6
CONTINUOUS
10
178.09
20
-92.6013
11
178.138
21
-92.6965
0
LINE
8
BLACK
6
CONTINUOUS
10
177.852
20
-91.5061
11
177.852
21
-91.4108
0
LINE
8
BLACK
6
CONTINUOUS
10
177.852
20
-91.4108
11
177.9
21
-91.3156
0
LINE
8
BLACK
6
CONTINUOUS
10
177.9
20
-91.3156
11
177.948
21
-91.268
0
LINE
8
BLACK
6
CONTINUOUS
10
177.948
20
-91.268
11
178.043
21
-91.2204
0
LINE
8
BLACK
6
CONTINUOUS
10
178.043
20
-91.2204
11
178.233
21
-91.1727
0
LINE
8
BLACK
6
CONTINUOUS
10
178.233
20
-91.1727
11
178.471
21
-91.1727
0
LINE
8
BLACK
6
CONTINUOUS
10
178.471
20
-91.1727
11
178.662
21
-91.2204
0
LINE
8
BLACK
6
CONTINUOUS
10
178.662
20
-91.2204
11
178.757
21
-91.268
0
LINE
8
BLACK
6
CONTINUOUS
10
178.757
20
-91.268
11
178.805
21
-91.3156
0
LINE
8
BLACK
6
CONTINUOUS
10
178.805
20
-91.3156
11
178.852
21
-91.4108
0
LINE
8
BLACK
6
CONTINUOUS
10
178.852
20
-91.4108
11
178.852
21
-91.5061
0
LINE
8
BLACK
6
CONTINUOUS
10
178.852
20
-91.5061
11
178.805
21
-91.6013
0
LINE
8
BLACK
6
CONTINUOUS
10
178.805
20
-91.6013
11
178.757
21
-91.6489
0
LINE
8
BLACK
6
CONTINUOUS
10
178.757
20
-91.6489
11
178.662
21
-91.6965
0
LINE
8
BLACK
6
CONTINUOUS
10
178.662
20
-91.6965
11
178.471
21
-91.7442
0
LINE
8
BLACK
6
CONTINUOUS
10
178.471
20
-91.7442
11
178.233
21
-91.7442
0
LINE
8
BLACK
6
CONTINUOUS
10
178.233
20
-91.7442
11
178.043
21
-91.6965
0
LINE
8
BLACK
6
CONTINUOUS
10
178.043
20
-91.6965
11
177.948
21
-91.6489
0
LINE
8
BLACK
6
CONTINUOUS
10
177.948
20
-91.6489
11
177.9
21
-91.6013
0
LINE
8
BLACK
6
CONTINUOUS
10
177.9
20
-91.6013
11
177.852
21
-91.5061
0
LINE
8
BLACK
6
CONTINUOUS
10
178.186
20
-90.3156
11
178.852
21
-90.3156
0
LINE
8
BLACK
6
CONTINUOUS
10
177.805
20
-90.5537
11
178.519
21
-90.7918
0
LINE
8
BLACK
6
CONTINUOUS
10
178.519
20
-90.7918
11
178.519
21
-90.1727
0
LINE
8
BLACK
6
CONTINUOUS
10
178.757
20
-89.7918
11
178.805
21
-89.7442
0
LINE
8
BLACK
6
CONTINUOUS
10
178.805
20
-89.7442
11
178.852
21
-89.7918
0
LINE
8
BLACK
6
CONTINUOUS
10
178.852
20
-89.7918
11
178.805
21
-89.8394
0
LINE
8
BLACK
6
CONTINUOUS
10
178.805
20
-89.8394
11
178.757
21
-89.7918
0
LINE
8
BLACK
6
CONTINUOUS
10
178.757
20
-89.7918
11
178.852
21
-89.7918
0
LINE
8
BLACK
6
CONTINUOUS
10
177.852
20
-89.4108
11
177.852
21
-88.7442
0
LINE
8
BLACK
6
CONTINUOUS
10
177.852
20
-88.7442
11
178.852
21
-89.1727
0
LINE
8
BLACK
6
CONTINUOUS
10
177.852
20
-88.4585
11
177.852
21
-87.7918
0
LINE
8
BLACK
6
CONTINUOUS
10
177.852
20
-87.7918
11
178.852
21
-88.2204
0
LINE
8
BLACK
6
CONTINUOUS
10
177.852
20
-86.9346
11
177.852
21
-87.4108
0
LINE
8
BLACK
6
CONTINUOUS
10
177.852
20
-87.4108
11
178.329
21
-87.4585
0
LINE
8
BLACK
6
CONTINUOUS
10
178.329
20
-87.4585
11
178.281
21
-87.4108
0
LINE
8
BLACK
6
CONTINUOUS
10
178.281
20
-87.4108
11
178.233
21
-87.3156
0
LINE
8
BLACK
6
CONTINUOUS
10
178.233
20
-87.3156
11
178.233
21
-87.0775
0
LINE
8
BLACK
6
CONTINUOUS
10
178.233
20
-87.0775
11
178.281
21
-86.9823
0
LINE
8
BLACK
6
CONTINUOUS
10
178.281
20
-86.9823
11
178.329
21
-86.9346
0
LINE
8
BLACK
6
CONTINUOUS
10
178.329
20
-86.9346
11
178.424
21
-86.887
0
LINE
8
BLACK
6
CONTINUOUS
10
178.424
20
-86.887
11
178.662
21
-86.887
0
LINE
8
BLACK
6
CONTINUOUS
10
178.662
20
-86.887
11
178.757
21
-86.9346
0
LINE
8
BLACK
6
CONTINUOUS
10
178.757
20
-86.9346
11
178.805
21
-86.9823
0
LINE
8
BLACK
6
CONTINUOUS
10
178.805
20
-86.9823
11
178.852
21
-87.0775
0
LINE
8
BLACK
6
CONTINUOUS
10
178.852
20
-87.0775
11
178.852
21
-87.3156
0
LINE
8
BLACK
6
CONTINUOUS
10
178.852
20
-87.3156
11
178.805
21
-87.4108
0
LINE
8
BLACK
6
CONTINUOUS
10
178.805
20
-87.4108
11
178.757
21
-87.4585
0
LINE
8
BLACK
6
CONTINUOUS
10
178.852
20
-85.6965
11
178.186
21
-85.6965
0
LINE
8
BLACK
6
CONTINUOUS
10
178.281
20
-85.6965
11
178.233
21
-85.6489
0
LINE
8
BLACK
6
CONTINUOUS
10
178.233
20
-85.6489
11
178.186
21
-85.5537
0
LINE
8
BLACK
6
CONTINUOUS
10
178.186
20
-85.5537
11
178.186
21
-85.4108
0
LINE
8
BLACK
6
CONTINUOUS
10
178.186
20
-85.4108
11
178.233
21
-85.3156
0
LINE
8
BLACK
6
CONTINUOUS
10
178.233
20
-85.3156
11
178.329
21
-85.268
0
LINE
8
BLACK
6
CONTINUOUS
10
178.329
20
-85.268
11
178.852
21
-85.268
0
LINE
8
BLACK
6
CONTINUOUS
10
178.329
20
-85.268
11
178.233
21
-85.2204
0
LINE
8
BLACK
6
CONTINUOUS
10
178.233
20
-85.2204
11
178.186
21
-85.1251
0
LINE
8
BLACK
6
CONTINUOUS
10
178.186
20
-85.1251
11
178.186
21
-84.9823
0
LINE
8
BLACK
6
CONTINUOUS
10
178.186
20
-84.9823
11
178.233
21
-84.887
0
LINE
8
BLACK
6
CONTINUOUS
10
178.233
20
-84.887
11
178.329
21
-84.8394
0
LINE
8
BLACK
6
CONTINUOUS
10
178.329
20
-84.8394
11
178.852
21
-84.8394
0
LINE
8
BLACK
6
CONTINUOUS
10
178.852
20
-84.3632
11
178.186
21
-84.3632
0
LINE
8
BLACK
6
CONTINUOUS
10
178.281
20
-84.3632
11
178.233
21
-84.3156
0
LINE
8
BLACK
6
CONTINUOUS
10
178.233
20
-84.3156
11
178.186
21
-84.2204
0
LINE
8
BLACK
6
CONTINUOUS
10
178.186
20
-84.2204
11
178.186
21
-84.0775
0
LINE
8
BLACK
6
CONTINUOUS
10
178.186
20
-84.0775
11
178.233
21
-83.9823
0
LINE
8
BLACK
6
CONTINUOUS
10
178.233
20
-83.9823
11
178.329
21
-83.9346
0
LINE
8
BLACK
6
CONTINUOUS
10
178.329
20
-83.9346
11
178.852
21
-83.9346
0
LINE
8
BLACK
6
CONTINUOUS
10
178.329
20
-83.9346
11
178.233
21
-83.887
0
LINE
8
BLACK
6
CONTINUOUS
10
178.233
20
-83.887
11
178.186
21
-83.7918
0
LINE
8
BLACK
6
CONTINUOUS
10
178.186
20
-83.7918
11
178.186
21
-83.6489
0
LINE
8
BLACK
6
CONTINUOUS
10
178.186
20
-83.6489
11
178.233
21
-83.5537
0
LINE
8
BLACK
6
CONTINUOUS
10
178.233
20
-83.5537
11
178.329
21
-83.5061
0
LINE
8
BLACK
6
CONTINUOUS
10
178.329
20
-83.5061
11
178.852
21
-83.5061
0
LINE
8
BLACK
6
CONTINUOUS
10
177.1
20
-140.465
11
177.1
21
-35.69
0
LINE
8
BLACK
6
CONTINUOUS
10
175.625
20
-140.465
11
177.686
21
-140.465
0
LINE
8
BLACK
6
CONTINUOUS
10
175.625
20
-35.69
11
177.686
21
-35.69
0
LINE
8
BLACK
6
CONTINUOUS
10
177.1
20
-35.69
11
177.686
21
-36.8165
0
LINE
8
BLACK
6
CONTINUOUS
10
177.1
20
-35.69
11
176.514
21
-36.8165
0
LINE
8
BLACK
6
CONTINUOUS
10
177.1
20
-140.465
11
177.686
21
-139.338
0
LINE
8
BLACK
6
CONTINUOUS
10
177.1
20
-140.465
11
176.514
21
-139.338
0
LINE
8
BLACK
6
CONTINUOUS
10
185.202
20
-124.416
11
185.25
21
-124.464
0
LINE
8
BLACK
6
CONTINUOUS
10
185.25
20
-124.464
11
185.298
21
-124.559
0
LINE
8
BLACK
6
CONTINUOUS
10
185.298
20
-124.559
11
185.298
21
-124.797
0
LINE
8
BLACK
6
CONTINUOUS
10
185.298
20
-124.797
11
185.25
21
-124.892
0
LINE
8
BLACK
6
CONTINUOUS
10
185.25
20
-124.892
11
185.202
21
-124.94
0
LINE
8
BLACK
6
CONTINUOUS
10
185.202
20
-124.94
11
185.107
21
-124.987
0
LINE
8
BLACK
6
CONTINUOUS
10
185.107
20
-124.987
11
185.012
21
-124.987
0
LINE
8
BLACK
6
CONTINUOUS
10
185.012
20
-124.987
11
184.869
21
-124.94
0
LINE
8
BLACK
6
CONTINUOUS
10
184.869
20
-124.94
11
184.298
21
-124.368
0
LINE
8
BLACK
6
CONTINUOUS
10
184.298
20
-124.368
11
184.298
21
-124.987
0
LINE
8
BLACK
6
CONTINUOUS
10
185.298
20
-125.321
11
185.298
21
-125.94
0
LINE
8
BLACK
6
CONTINUOUS
10
185.298
20
-125.94
11
184.917
21
-125.606
0
LINE
8
BLACK
6
CONTINUOUS
10
184.917
20
-125.606
11
184.917
21
-125.749
0
LINE
8
BLACK
6
CONTINUOUS
10
184.917
20
-125.749
11
184.869
21
-125.844
0
LINE
8
BLACK
6
CONTINUOUS
10
184.869
20
-125.844
11
184.821
21
-125.892
0
LINE
8
BLACK
6
CONTINUOUS
10
184.821
20
-125.892
11
184.726
21
-125.94
0
LINE
8
BLACK
6
CONTINUOUS
10
184.726
20
-125.94
11
184.488
21
-125.94
0
LINE
8
BLACK
6
CONTINUOUS
10
184.488
20
-125.94
11
184.393
21
-125.892
0
LINE
8
BLACK
6
CONTINUOUS
10
184.393
20
-125.892
11
184.345
21
-125.844
0
LINE
8
BLACK
6
CONTINUOUS
10
184.345
20
-125.844
11
184.298
21
-125.749
0
LINE
8
BLACK
6
CONTINUOUS
10
184.298
20
-125.749
11
184.298
21
-125.464
0
LINE
8
BLACK
6
CONTINUOUS
10
184.298
20
-125.464
11
184.345
21
-125.368
0
LINE
8
BLACK
6
CONTINUOUS
10
184.345
20
-125.368
11
184.393
21
-125.321
0
LINE
8
BLACK
6
CONTINUOUS
10
184.393
20
-126.368
11
184.345
21
-126.416
0
LINE
8
BLACK
6
CONTINUOUS
10
184.345
20
-126.416
11
184.298
21
-126.368
0
LINE
8
BLACK
6
CONTINUOUS
10
184.298
20
-126.368
11
184.345
21
-126.321
0
LINE
8
BLACK
6
CONTINUOUS
10
184.345
20
-126.321
11
184.393
21
-126.368
0
LINE
8
BLACK
6
CONTINUOUS
10
184.393
20
-126.368
11
184.298
21
-126.368
0
LINE
8
BLACK
6
CONTINUOUS
10
184.869
20
-126.987
11
184.917
21
-126.892
0
LINE
8
BLACK
6
CONTINUOUS
10
184.917
20
-126.892
11
184.964
21
-126.844
0
LINE
8
BLACK
6
CONTINUOUS
10
184.964
20
-126.844
11
185.06
21
-126.797
0
LINE
8
BLACK
6
CONTINUOUS
10
185.06
20
-126.797
11
185.107
21
-126.797
0
LINE
8
BLACK
6
CONTINUOUS
10
185.107
20
-126.797
11
185.202
21
-126.844
0
LINE
8
BLACK
6
CONTINUOUS
10
185.202
20
-126.844
11
185.25
21
-126.892
0
LINE
8
BLACK
6
CONTINUOUS
10
185.25
20
-126.892
11
185.298
21
-126.987
0
LINE
8
BLACK
6
CONTINUOUS
10
185.298
20
-126.987
11
185.298
21
-127.178
0
LINE
8
BLACK
6
CONTINUOUS
10
185.298
20
-127.178
11
185.25
21
-127.273
0
LINE
8
BLACK
6
CONTINUOUS
10
185.25
20
-127.273
11
185.202
21
-127.321
0
LINE
8
BLACK
6
CONTINUOUS
10
185.202
20
-127.321
11
185.107
21
-127.368
0
LINE
8
BLACK
6
CONTINUOUS
10
185.107
20
-127.368
11
185.06
21
-127.368
0
LINE
8
BLACK
6
CONTINUOUS
10
185.06
20
-127.368
11
184.964
21
-127.321
0
LINE
8
BLACK
6
CONTINUOUS
10
184.964
20
-127.321
11
184.917
21
-127.273
0
LINE
8
BLACK
6
CONTINUOUS
10
184.917
20
-127.273
11
184.869
21
-127.178
0
LINE
8
BLACK
6
CONTINUOUS
10
184.869
20
-127.178
11
184.869
21
-126.987
0
LINE
8
BLACK
6
CONTINUOUS
10
184.869
20
-126.987
11
184.821
21
-126.892
0
LINE
8
BLACK
6
CONTINUOUS
10
184.821
20
-126.892
11
184.774
21
-126.844
0
LINE
8
BLACK
6
CONTINUOUS
10
184.774
20
-126.844
11
184.679
21
-126.797
0
LINE
8
BLACK
6
CONTINUOUS
10
184.679
20
-126.797
11
184.488
21
-126.797
0
LINE
8
BLACK
6
CONTINUOUS
10
184.488
20
-126.797
11
184.393
21
-126.844
0
LINE
8
BLACK
6
CONTINUOUS
10
184.393
20
-126.844
11
184.345
21
-126.892
0
LINE
8
BLACK
6
CONTINUOUS
10
184.345
20
-126.892
11
184.298
21
-126.987
0
LINE
8
BLACK
6
CONTINUOUS
10
184.298
20
-126.987
11
184.298
21
-127.178
0
LINE
8
BLACK
6
CONTINUOUS
10
184.298
20
-127.178
11
184.345
21
-127.273
0
LINE
8
BLACK
6
CONTINUOUS
10
184.345
20
-127.273
11
184.393
21
-127.321
0
LINE
8
BLACK
6
CONTINUOUS
10
184.393
20
-127.321
11
184.488
21
-127.368
0
LINE
8
BLACK
6
CONTINUOUS
10
184.488
20
-127.368
11
184.679
21
-127.368
0
LINE
8
BLACK
6
CONTINUOUS
10
184.679
20
-127.368
11
184.774
21
-127.321
0
LINE
8
BLACK
6
CONTINUOUS
10
184.774
20
-127.321
11
184.821
21
-127.273
0
LINE
8
BLACK
6
CONTINUOUS
10
184.821
20
-127.273
11
184.869
21
-127.178
0
LINE
8
BLACK
6
CONTINUOUS
10
184.298
20
-128.321
11
184.298
21
-127.749
0
LINE
8
BLACK
6
CONTINUOUS
10
184.298
20
-128.035
11
185.298
21
-128.035
0
LINE
8
BLACK
6
CONTINUOUS
10
185.298
20
-128.035
11
185.155
21
-127.94
0
LINE
8
BLACK
6
CONTINUOUS
10
185.155
20
-127.94
11
185.06
21
-127.844
0
LINE
8
BLACK
6
CONTINUOUS
10
185.06
20
-127.844
11
185.012
21
-127.749
0
LINE
8
BLACK
6
CONTINUOUS
10
185.202
20
-128.702
11
185.25
21
-128.749
0
LINE
8
BLACK
6
CONTINUOUS
10
185.25
20
-128.749
11
185.298
21
-128.844
0
LINE
8
BLACK
6
CONTINUOUS
10
185.298
20
-128.844
11
185.298
21
-129.083
0
LINE
8
BLACK
6
CONTINUOUS
10
185.298
20
-129.083
11
185.25
21
-129.178
0
LINE
8
BLACK
6
CONTINUOUS
10
185.25
20
-129.178
11
185.202
21
-129.225
0
LINE
8
BLACK
6
CONTINUOUS
10
185.202
20
-129.225
11
185.107
21
-129.273
0
LINE
8
BLACK
6
CONTINUOUS
10
185.107
20
-129.273
11
185.012
21
-129.273
0
LINE
8
BLACK
6
CONTINUOUS
10
185.012
20
-129.273
11
184.869
21
-129.225
0
LINE
8
BLACK
6
CONTINUOUS
10
184.869
20
-129.225
11
184.298
21
-128.654
0
LINE
8
BLACK
6
CONTINUOUS
10
184.298
20
-128.654
11
184.298
21
-129.273
0
LINE
8
BLACK
6
CONTINUOUS
10
184.298
20
-130.464
11
184.964
21
-130.464
0
LINE
8
BLACK
6
CONTINUOUS
10
184.869
20
-130.464
11
184.917
21
-130.511
0
LINE
8
BLACK
6
CONTINUOUS
10
184.917
20
-130.511
11
184.964
21
-130.606
0
LINE
8
BLACK
6
CONTINUOUS
10
184.964
20
-130.606
11
184.964
21
-130.749
0
LINE
8
BLACK
6
CONTINUOUS
10
184.964
20
-130.749
11
184.917
21
-130.844
0
LINE
8
BLACK
6
CONTINUOUS
10
184.917
20
-130.844
11
184.821
21
-130.892
0
LINE
8
BLACK
6
CONTINUOUS
10
184.821
20
-130.892
11
184.298
21
-130.892
0
LINE
8
BLACK
6
CONTINUOUS
10
184.821
20
-130.892
11
184.917
21
-130.94
0
LINE
8
BLACK
6
CONTINUOUS
10
184.917
20
-130.94
11
184.964
21
-131.035
0
LINE
8
BLACK
6
CONTINUOUS
10
184.964
20
-131.035
11
184.964
21
-131.178
0
LINE
8
BLACK
6
CONTINUOUS
10
184.964
20
-131.178
11
184.917
21
-131.273
0
LINE
8
BLACK
6
CONTINUOUS
10
184.917
20
-131.273
11
184.821
21
-131.321
0
LINE
8
BLACK
6
CONTINUOUS
10
184.821
20
-131.321
11
184.298
21
-131.321
0
LINE
8
BLACK
6
CONTINUOUS
10
184.298
20
-131.797
11
184.964
21
-131.797
0
LINE
8
BLACK
6
CONTINUOUS
10
184.869
20
-131.797
11
184.917
21
-131.844
0
LINE
8
BLACK
6
CONTINUOUS
10
184.917
20
-131.844
11
184.964
21
-131.94
0
LINE
8
BLACK
6
CONTINUOUS
10
184.964
20
-131.94
11
184.964
21
-132.083
0
LINE
8
BLACK
6
CONTINUOUS
10
184.964
20
-132.083
11
184.917
21
-132.178
0
LINE
8
BLACK
6
CONTINUOUS
10
184.917
20
-132.178
11
184.821
21
-132.225
0
LINE
8
BLACK
6
CONTINUOUS
10
184.821
20
-132.225
11
184.298
21
-132.225
0
LINE
8
BLACK
6
CONTINUOUS
10
184.821
20
-132.225
11
184.917
21
-132.273
0
LINE
8
BLACK
6
CONTINUOUS
10
184.917
20
-132.273
11
184.964
21
-132.368
0
LINE
8
BLACK
6
CONTINUOUS
10
184.964
20
-132.368
11
184.964
21
-132.511
0
LINE
8
BLACK
6
CONTINUOUS
10
184.964
20
-132.511
11
184.917
21
-132.606
0
LINE
8
BLACK
6
CONTINUOUS
10
184.917
20
-132.606
11
184.821
21
-132.654
0
LINE
8
BLACK
6
CONTINUOUS
10
184.821
20
-132.654
11
184.298
21
-132.654
0
LINE
8
BLACK
6
CONTINUOUS
10
186.05
20
-116.652
11
186.05
21
-140.465
0
LINE
8
BLACK
6
CONTINUOUS
10
186.475
20
-116.652
11
185.464
21
-116.652
0
LINE
8
BLACK
6
CONTINUOUS
10
186.475
20
-140.465
11
185.464
21
-140.465
0
LINE
8
BLACK
6
CONTINUOUS
10
186.05
20
-140.465
11
185.464
21
-139.338
0
LINE
8
BLACK
6
CONTINUOUS
10
186.05
20
-140.465
11
186.636
21
-139.338
0
LINE
8
BLACK
6
CONTINUOUS
10
186.05
20
-116.652
11
185.464
21
-117.779
0
LINE
8
BLACK
6
CONTINUOUS
10
186.05
20
-116.652
11
186.636
21
-117.779
0
LINE
8
BLACK
6
CONTINUOUS
10
65.2786
20
-125.482
11
64.7071
21
-125.482
0
LINE
8
BLACK
6
CONTINUOUS
10
64.9929
20
-125.482
11
64.9929
21
-124.482
0
LINE
8
BLACK
6
CONTINUOUS
10
64.9929
20
-124.482
11
64.8976
21
-124.625
0
LINE
8
BLACK
6
CONTINUOUS
10
64.8976
20
-124.625
11
64.8024
21
-124.72
0
LINE
8
BLACK
6
CONTINUOUS
10
64.8024
20
-124.72
11
64.7071
21
-124.768
0
LINE
8
BLACK
6
CONTINUOUS
10
65.7548
20
-125.482
11
65.9452
21
-125.482
0
LINE
8
BLACK
6
CONTINUOUS
10
65.9452
20
-125.482
11
66.0405
21
-125.435
0
LINE
8
BLACK
6
CONTINUOUS
10
66.0405
20
-125.435
11
66.0881
21
-125.387
0
LINE
8
BLACK
6
CONTINUOUS
10
66.0881
20
-125.387
11
66.1833
21
-125.244
0
LINE
8
BLACK
6
CONTINUOUS
10
66.1833
20
-125.244
11
66.231
21
-125.054
0
LINE
8
BLACK
6
CONTINUOUS
10
66.231
20
-125.054
11
66.231
21
-124.673
0
LINE
8
BLACK
6
CONTINUOUS
10
66.231
20
-124.673
11
66.1833
21
-124.578
0
LINE
8
BLACK
6
CONTINUOUS
10
66.1833
20
-124.578
11
66.1357
21
-124.53
0
LINE
8
BLACK
6
CONTINUOUS
10
66.1357
20
-124.53
11
66.0405
21
-124.482
0
LINE
8
BLACK
6
CONTINUOUS
10
66.0405
20
-124.482
11
65.85
21
-124.482
0
LINE
8
BLACK
6
CONTINUOUS
10
65.85
20
-124.482
11
65.7548
21
-124.53
0
LINE
8
BLACK
6
CONTINUOUS
10
65.7548
20
-124.53
11
65.7071
21
-124.578
0
LINE
8
BLACK
6
CONTINUOUS
10
65.7071
20
-124.578
11
65.6595
21
-124.673
0
LINE
8
BLACK
6
CONTINUOUS
10
65.6595
20
-124.673
11
65.6595
21
-124.911
0
LINE
8
BLACK
6
CONTINUOUS
10
65.6595
20
-124.911
11
65.7071
21
-125.006
0
LINE
8
BLACK
6
CONTINUOUS
10
65.7071
20
-125.006
11
65.7548
21
-125.054
0
LINE
8
BLACK
6
CONTINUOUS
10
65.7548
20
-125.054
11
65.85
21
-125.101
0
LINE
8
BLACK
6
CONTINUOUS
10
65.85
20
-125.101
11
66.0405
21
-125.101
0
LINE
8
BLACK
6
CONTINUOUS
10
66.0405
20
-125.101
11
66.1357
21
-125.054
0
LINE
8
BLACK
6
CONTINUOUS
10
66.1357
20
-125.054
11
66.1833
21
-125.006
0
LINE
8
BLACK
6
CONTINUOUS
10
66.1833
20
-125.006
11
66.231
21
-124.911
0
LINE
8
BLACK
6
CONTINUOUS
10
66.6595
20
-125.387
11
66.7071
21
-125.435
0
LINE
8
BLACK
6
CONTINUOUS
10
66.7071
20
-125.435
11
66.6595
21
-125.482
0
LINE
8
BLACK
6
CONTINUOUS
10
66.6595
20
-125.482
11
66.6119
21
-125.435
0
LINE
8
BLACK
6
CONTINUOUS
10
66.6119
20
-125.435
11
66.6595
21
-125.387
0
LINE
8
BLACK
6
CONTINUOUS
10
66.6595
20
-125.387
11
66.6595
21
-125.482
0
LINE
8
BLACK
6
CONTINUOUS
10
67.3262
20
-124.482
11
67.4214
21
-124.482
0
LINE
8
BLACK
6
CONTINUOUS
10
67.4214
20
-124.482
11
67.5167
21
-124.53
0
LINE
8
BLACK
6
CONTINUOUS
10
67.5167
20
-124.53
11
67.5643
21
-124.578
0
LINE
8
BLACK
6
CONTINUOUS
10
67.5643
20
-124.578
11
67.6119
21
-124.673
0
LINE
8
BLACK
6
CONTINUOUS
10
67.6119
20
-124.673
11
67.6595
21
-124.863
0
LINE
8
BLACK
6
CONTINUOUS
10
67.6595
20
-124.863
11
67.6595
21
-125.101
0
LINE
8
BLACK
6
CONTINUOUS
10
67.6595
20
-125.101
11
67.6119
21
-125.292
0
LINE
8
BLACK
6
CONTINUOUS
10
67.6119
20
-125.292
11
67.5643
21
-125.387
0
LINE
8
BLACK
6
CONTINUOUS
10
67.5643
20
-125.387
11
67.5167
21
-125.435
0
LINE
8
BLACK
6
CONTINUOUS
10
67.5167
20
-125.435
11
67.4214
21
-125.482
0
LINE
8
BLACK
6
CONTINUOUS
10
67.4214
20
-125.482
11
67.3262
21
-125.482
0
LINE
8
BLACK
6
CONTINUOUS
10
67.3262
20
-125.482
11
67.231
21
-125.435
0
LINE
8
BLACK
6
CONTINUOUS
10
67.231
20
-125.435
11
67.1833
21
-125.387
0
LINE
8
BLACK
6
CONTINUOUS
10
67.1833
20
-125.387
11
67.1357
21
-125.292
0
LINE
8
BLACK
6
CONTINUOUS
10
67.1357
20
-125.292
11
67.0881
21
-125.101
0
LINE
8
BLACK
6
CONTINUOUS
10
67.0881
20
-125.101
11
67.0881
21
-124.863
0
LINE
8
BLACK
6
CONTINUOUS
10
67.0881
20
-124.863
11
67.1357
21
-124.673
0
LINE
8
BLACK
6
CONTINUOUS
10
67.1357
20
-124.673
11
67.1833
21
-124.578
0
LINE
8
BLACK
6
CONTINUOUS
10
67.1833
20
-124.578
11
67.231
21
-124.53
0
LINE
8
BLACK
6
CONTINUOUS
10
67.231
20
-124.53
11
67.3262
21
-124.482
0
LINE
8
BLACK
6
CONTINUOUS
10
68.5643
20
-124.482
11
68.0881
21
-124.482
0
LINE
8
BLACK
6
CONTINUOUS
10
68.0881
20
-124.482
11
68.0405
21
-124.959
0
LINE
8
BLACK
6
CONTINUOUS
10
68.0405
20
-124.959
11
68.0881
21
-124.911
0
LINE
8
BLACK
6
CONTINUOUS
10
68.0881
20
-124.911
11
68.1833
21
-124.863
0
LINE
8
BLACK
6
CONTINUOUS
10
68.1833
20
-124.863
11
68.4214
21
-124.863
0
LINE
8
BLACK
6
CONTINUOUS
10
68.4214
20
-124.863
11
68.5167
21
-124.911
0
LINE
8
BLACK
6
CONTINUOUS
10
68.5167
20
-124.911
11
68.5643
21
-124.959
0
LINE
8
BLACK
6
CONTINUOUS
10
68.5643
20
-124.959
11
68.6119
21
-125.054
0
LINE
8
BLACK
6
CONTINUOUS
10
68.6119
20
-125.054
11
68.6119
21
-125.292
0
LINE
8
BLACK
6
CONTINUOUS
10
68.6119
20
-125.292
11
68.5643
21
-125.387
0
LINE
8
BLACK
6
CONTINUOUS
10
68.5643
20
-125.387
11
68.5167
21
-125.435
0
LINE
8
BLACK
6
CONTINUOUS
10
68.5167
20
-125.435
11
68.4214
21
-125.482
0
LINE
8
BLACK
6
CONTINUOUS
10
68.4214
20
-125.482
11
68.1833
21
-125.482
0
LINE
8
BLACK
6
CONTINUOUS
10
68.1833
20
-125.482
11
68.0881
21
-125.435
0
LINE
8
BLACK
6
CONTINUOUS
10
68.0881
20
-125.435
11
68.0405
21
-125.387
0
LINE
8
BLACK
6
CONTINUOUS
10
69.231
20
-124.482
11
69.3262
21
-124.482
0
LINE
8
BLACK
6
CONTINUOUS
10
69.3262
20
-124.482
11
69.4214
21
-124.53
0
LINE
8
BLACK
6
CONTINUOUS
10
69.4214
20
-124.53
11
69.469
21
-124.578
0
LINE
8
BLACK
6
CONTINUOUS
10
69.469
20
-124.578
11
69.5167
21
-124.673
0
LINE
8
BLACK
6
CONTINUOUS
10
69.5167
20
-124.673
11
69.5643
21
-124.863
0
LINE
8
BLACK
6
CONTINUOUS
10
69.5643
20
-124.863
11
69.5643
21
-125.101
0
LINE
8
BLACK
6
CONTINUOUS
10
69.5643
20
-125.101
11
69.5167
21
-125.292
0
LINE
8
BLACK
6
CONTINUOUS
10
69.5167
20
-125.292
11
69.469
21
-125.387
0
LINE
8
BLACK
6
CONTINUOUS
10
69.469
20
-125.387
11
69.4214
21
-125.435
0
LINE
8
BLACK
6
CONTINUOUS
10
69.4214
20
-125.435
11
69.3262
21
-125.482
0
LINE
8
BLACK
6
CONTINUOUS
10
69.3262
20
-125.482
11
69.231
21
-125.482
0
LINE
8
BLACK
6
CONTINUOUS
10
69.231
20
-125.482
11
69.1357
21
-125.435
0
LINE
8
BLACK
6
CONTINUOUS
10
69.1357
20
-125.435
11
69.0881
21
-125.387
0
LINE
8
BLACK
6
CONTINUOUS
10
69.0881
20
-125.387
11
69.0405
21
-125.292
0
LINE
8
BLACK
6
CONTINUOUS
10
69.0405
20
-125.292
11
68.9929
21
-125.101
0
LINE
8
BLACK
6
CONTINUOUS
10
68.9929
20
-125.101
11
68.9929
21
-124.863
0
LINE
8
BLACK
6
CONTINUOUS
10
68.9929
20
-124.863
11
69.0405
21
-124.673
0
LINE
8
BLACK
6
CONTINUOUS
10
69.0405
20
-124.673
11
69.0881
21
-124.578
0
LINE
8
BLACK
6
CONTINUOUS
10
69.0881
20
-124.578
11
69.1357
21
-124.53
0
LINE
8
BLACK
6
CONTINUOUS
10
69.1357
20
-124.53
11
69.231
21
-124.482
0
LINE
8
BLACK
6
CONTINUOUS
10
70.7548
20
-125.482
11
70.7548
21
-124.816
0
LINE
8
BLACK
6
CONTINUOUS
10
70.7548
20
-124.911
11
70.8024
21
-124.863
0
LINE
8
BLACK
6
CONTINUOUS
10
70.8024
20
-124.863
11
70.8976
21
-124.816
0
LINE
8
BLACK
6
CONTINUOUS
10
70.8976
20
-124.816
11
71.0405
21
-124.816
0
LINE
8
BLACK
6
CONTINUOUS
10
71.0405
20
-124.816
11
71.1357
21
-124.863
0
LINE
8
BLACK
6
CONTINUOUS
10
71.1357
20
-124.863
11
71.1833
21
-124.959
0
LINE
8
BLACK
6
CONTINUOUS
10
71.1833
20
-124.959
11
71.1833
21
-125.482
0
LINE
8
BLACK
6
CONTINUOUS
10
71.1833
20
-124.959
11
71.231
21
-124.863
0
LINE
8
BLACK
6
CONTINUOUS
10
71.231
20
-124.863
11
71.3262
21
-124.816
0
LINE
8
BLACK
6
CONTINUOUS
10
71.3262
20
-124.816
11
71.469
21
-124.816
0
LINE
8
BLACK
6
CONTINUOUS
10
71.469
20
-124.816
11
71.5643
21
-124.863
0
LINE
8
BLACK
6
CONTINUOUS
10
71.5643
20
-124.863
11
71.6119
21
-124.959
0
LINE
8
BLACK
6
CONTINUOUS
10
71.6119
20
-124.959
11
71.6119
21
-125.482
0
LINE
8
BLACK
6
CONTINUOUS
10
72.0881
20
-125.482
11
72.0881
21
-124.816
0
LINE
8
BLACK
6
CONTINUOUS
10
72.0881
20
-124.911
11
72.1357
21
-124.863
0
LINE
8
BLACK
6
CONTINUOUS
10
72.1357
20
-124.863
11
72.231
21
-124.816
0
LINE
8
BLACK
6
CONTINUOUS
10
72.231
20
-124.816
11
72.3738
21
-124.816
0
LINE
8
BLACK
6
CONTINUOUS
10
72.3738
20
-124.816
11
72.469
21
-124.863
0
LINE
8
BLACK
6
CONTINUOUS
10
72.469
20
-124.863
11
72.5167
21
-124.959
0
LINE
8
BLACK
6
CONTINUOUS
10
72.5167
20
-124.959
11
72.5167
21
-125.482
0
LINE
8
BLACK
6
CONTINUOUS
10
72.5167
20
-124.959
11
72.5643
21
-124.863
0
LINE
8
BLACK
6
CONTINUOUS
10
72.5643
20
-124.863
11
72.6595
21
-124.816
0
LINE
8
BLACK
6
CONTINUOUS
10
72.6595
20
-124.816
11
72.8024
21
-124.816
0
LINE
8
BLACK
6
CONTINUOUS
10
72.8024
20
-124.816
11
72.8976
21
-124.863
0
LINE
8
BLACK
6
CONTINUOUS
10
72.8976
20
-124.863
11
72.9452
21
-124.959
0
LINE
8
BLACK
6
CONTINUOUS
10
72.9452
20
-124.959
11
72.9452
21
-125.482
0
LINE
8
BLACK
6
CONTINUOUS
10
78.375
20
-123.73
11
59.325
21
-123.73
0
LINE
8
BLACK
6
CONTINUOUS
10
78.375
20
-123.415
11
78.375
21
-124.316
0
LINE
8
BLACK
6
CONTINUOUS
10
59.325
20
-123.415
11
59.325
21
-124.316
0
LINE
8
BLACK
6
CONTINUOUS
10
59.325
20
-123.73
11
60.4515
21
-123.144
0
LINE
8
BLACK
6
CONTINUOUS
10
59.325
20
-123.73
11
60.4515
21
-124.316
0
LINE
8
BLACK
6
CONTINUOUS
10
78.375
20
-123.73
11
77.2485
21
-123.144
0
LINE
8
BLACK
6
CONTINUOUS
10
78.375
20
-123.73
11
77.2485
21
-124.316
0
LINE
8
BLACK
6
CONTINUOUS
10
54.829
20
-74.6001
11
54.8767
21
-74.5049
0
LINE
8
BLACK
6
CONTINUOUS
10
54.8767
20
-74.5049
11
54.9243
21
-74.4573
0
LINE
8
BLACK
6
CONTINUOUS
10
54.9243
20
-74.4573
11
55.0195
21
-74.4096
0
LINE
8
BLACK
6
CONTINUOUS
10
55.0195
20
-74.4096
11
55.0671
21
-74.4096
0
LINE
8
BLACK
6
CONTINUOUS
10
55.0671
20
-74.4096
11
55.1624
21
-74.4573
0
LINE
8
BLACK
6
CONTINUOUS
10
55.1624
20
-74.4573
11
55.21
21
-74.5049
0
LINE
8
BLACK
6
CONTINUOUS
10
55.21
20
-74.5049
11
55.2576
21
-74.6001
0
LINE
8
BLACK
6
CONTINUOUS
10
55.2576
20
-74.6001
11
55.2576
21
-74.7906
0
LINE
8
BLACK
6
CONTINUOUS
10
55.2576
20
-74.7906
11
55.21
21
-74.8858
0
LINE
8
BLACK
6
CONTINUOUS
10
55.21
20
-74.8858
11
55.1624
21
-74.9335
0
LINE
8
BLACK
6
CONTINUOUS
10
55.1624
20
-74.9335
11
55.0671
21
-74.9811
0
LINE
8
BLACK
6
CONTINUOUS
10
55.0671
20
-74.9811
11
55.0195
21
-74.9811
0
LINE
8
BLACK
6
CONTINUOUS
10
55.0195
20
-74.9811
11
54.9243
21
-74.9335
0
LINE
8
BLACK
6
CONTINUOUS
10
54.9243
20
-74.9335
11
54.8767
21
-74.8858
0
LINE
8
BLACK
6
CONTINUOUS
10
54.8767
20
-74.8858
11
54.829
21
-74.7906
0
LINE
8
BLACK
6
CONTINUOUS
10
54.829
20
-74.7906
11
54.829
21
-74.6001
0
LINE
8
BLACK
6
CONTINUOUS
10
54.829
20
-74.6001
11
54.7814
21
-74.5049
0
LINE
8
BLACK
6
CONTINUOUS
10
54.7814
20
-74.5049
11
54.7338
21
-74.4573
0
LINE
8
BLACK
6
CONTINUOUS
10
54.7338
20
-74.4573
11
54.6386
21
-74.4096
0
LINE
8
BLACK
6
CONTINUOUS
10
54.6386
20
-74.4096
11
54.4481
21
-74.4096
0
LINE
8
BLACK
6
CONTINUOUS
10
54.4481
20
-74.4096
11
54.3529
21
-74.4573
0
LINE
8
BLACK
6
CONTINUOUS
10
54.3529
20
-74.4573
11
54.3052
21
-74.5049
0
LINE
8
BLACK
6
CONTINUOUS
10
54.3052
20
-74.5049
11
54.2576
21
-74.6001
0
LINE
8
BLACK
6
CONTINUOUS
10
54.2576
20
-74.6001
11
54.2576
21
-74.7906
0
LINE
8
BLACK
6
CONTINUOUS
10
54.2576
20
-74.7906
11
54.3052
21
-74.8858
0
LINE
8
BLACK
6
CONTINUOUS
10
54.3052
20
-74.8858
11
54.3529
21
-74.9335
0
LINE
8
BLACK
6
CONTINUOUS
10
54.3529
20
-74.9335
11
54.4481
21
-74.9811
0
LINE
8
BLACK
6
CONTINUOUS
10
54.4481
20
-74.9811
11
54.6386
21
-74.9811
0
LINE
8
BLACK
6
CONTINUOUS
10
54.6386
20
-74.9811
11
54.7338
21
-74.9335
0
LINE
8
BLACK
6
CONTINUOUS
10
54.7338
20
-74.9335
11
54.7814
21
-74.8858
0
LINE
8
BLACK
6
CONTINUOUS
10
54.7814
20
-74.8858
11
54.829
21
-74.7906
0
LINE
8
BLACK
6
CONTINUOUS
10
55.2576
20
-75.8858
11
55.2576
21
-75.4096
0
LINE
8
BLACK
6
CONTINUOUS
10
55.2576
20
-75.4096
11
54.7814
21
-75.362
0
LINE
8
BLACK
6
CONTINUOUS
10
54.7814
20
-75.362
11
54.829
21
-75.4096
0
LINE
8
BLACK
6
CONTINUOUS
10
54.829
20
-75.4096
11
54.8767
21
-75.5049
0
LINE
8
BLACK
6
CONTINUOUS
10
54.8767
20
-75.5049
11
54.8767
21
-75.743
0
LINE
8
BLACK
6
CONTINUOUS
10
54.8767
20
-75.743
11
54.829
21
-75.8382
0
LINE
8
BLACK
6
CONTINUOUS
10
54.829
20
-75.8382
11
54.7814
21
-75.8858
0
LINE
8
BLACK
6
CONTINUOUS
10
54.7814
20
-75.8858
11
54.6862
21
-75.9335
0
LINE
8
BLACK
6
CONTINUOUS
10
54.6862
20
-75.9335
11
54.4481
21
-75.9335
0
LINE
8
BLACK
6
CONTINUOUS
10
54.4481
20
-75.9335
11
54.3529
21
-75.8858
0
LINE
8
BLACK
6
CONTINUOUS
10
54.3529
20
-75.8858
11
54.3052
21
-75.8382
0
LINE
8
BLACK
6
CONTINUOUS
10
54.3052
20
-75.8382
11
54.2576
21
-75.743
0
LINE
8
BLACK
6
CONTINUOUS
10
54.2576
20
-75.743
11
54.2576
21
-75.5049
0
LINE
8
BLACK
6
CONTINUOUS
10
54.2576
20
-75.5049
11
54.3052
21
-75.4096
0
LINE
8
BLACK
6
CONTINUOUS
10
54.3052
20
-75.4096
11
54.3529
21
-75.362
0
LINE
8
BLACK
6
CONTINUOUS
10
54.3529
20
-76.362
11
54.3052
21
-76.4096
0
LINE
8
BLACK
6
CONTINUOUS
10
54.3052
20
-76.4096
11
54.2576
21
-76.362
0
LINE
8
BLACK
6
CONTINUOUS
10
54.2576
20
-76.362
11
54.3052
21
-76.3144
0
LINE
8
BLACK
6
CONTINUOUS
10
54.3052
20
-76.3144
11
54.3529
21
-76.362
0
LINE
8
BLACK
6
CONTINUOUS
10
54.3529
20
-76.362
11
54.2576
21
-76.362
0
LINE
8
BLACK
6
CONTINUOUS
10
55.2576
20
-76.743
11
55.2576
21
-77.4096
0
LINE
8
BLACK
6
CONTINUOUS
10
55.2576
20
-77.4096
11
54.2576
21
-76.9811
0
LINE
8
BLACK
6
CONTINUOUS
10
55.1624
20
-77.743
11
55.21
21
-77.7906
0
LINE
8
BLACK
6
CONTINUOUS
10
55.21
20
-77.7906
11
55.2576
21
-77.8858
0
LINE
8
BLACK
6
CONTINUOUS
10
55.2576
20
-77.8858
11
55.2576
21
-78.1239
0
LINE
8
BLACK
6
CONTINUOUS
10
55.2576
20
-78.1239
11
55.21
21
-78.2192
0
LINE
8
BLACK
6
CONTINUOUS
10
55.21
20
-78.2192
11
55.1624
21
-78.2668
0
LINE
8
BLACK
6
CONTINUOUS
10
55.1624
20
-78.2668
11
55.0671
21
-78.3144
0
LINE
8
BLACK
6
CONTINUOUS
10
55.0671
20
-78.3144
11
54.9719
21
-78.3144
0
LINE
8
BLACK
6
CONTINUOUS
10
54.9719
20
-78.3144
11
54.829
21
-78.2668
0
LINE
8
BLACK
6
CONTINUOUS
10
54.829
20
-78.2668
11
54.2576
21
-77.6954
0
LINE
8
BLACK
6
CONTINUOUS
10
54.2576
20
-77.6954
11
54.2576
21
-78.3144
0
LINE
8
BLACK
6
CONTINUOUS
10
55.2576
20
-79.2192
11
55.2576
21
-78.743
0
LINE
8
BLACK
6
CONTINUOUS
10
55.2576
20
-78.743
11
54.7814
21
-78.6954
0
LINE
8
BLACK
6
CONTINUOUS
10
54.7814
20
-78.6954
11
54.829
21
-78.743
0
LINE
8
BLACK
6
CONTINUOUS
10
54.829
20
-78.743
11
54.8767
21
-78.8382
0
LINE
8
BLACK
6
CONTINUOUS
10
54.8767
20
-78.8382
11
54.8767
21
-79.0763
0
LINE
8
BLACK
6
CONTINUOUS
10
54.8767
20
-79.0763
11
54.829
21
-79.1715
0
LINE
8
BLACK
6
CONTINUOUS
10
54.829
20
-79.1715
11
54.7814
21
-79.2192
0
LINE
8
BLACK
6
CONTINUOUS
10
54.7814
20
-79.2192
11
54.6862
21
-79.2668
0
LINE
8
BLACK
6
CONTINUOUS
10
54.6862
20
-79.2668
11
54.4481
21
-79.2668
0
LINE
8
BLACK
6
CONTINUOUS
10
54.4481
20
-79.2668
11
54.3529
21
-79.2192
0
LINE
8
BLACK
6
CONTINUOUS
10
54.3529
20
-79.2192
11
54.3052
21
-79.1715
0
LINE
8
BLACK
6
CONTINUOUS
10
54.3052
20
-79.1715
11
54.2576
21
-79.0763
0
LINE
8
BLACK
6
CONTINUOUS
10
54.2576
20
-79.0763
11
54.2576
21
-78.8382
0
LINE
8
BLACK
6
CONTINUOUS
10
54.2576
20
-78.8382
11
54.3052
21
-78.743
0
LINE
8
BLACK
6
CONTINUOUS
10
54.3052
20
-78.743
11
54.3529
21
-78.6954
0
LINE
8
BLACK
6
CONTINUOUS
10
54.2576
20
-80.4573
11
54.9243
21
-80.4573
0
LINE
8
BLACK
6
CONTINUOUS
10
54.829
20
-80.4573
11
54.8767
21
-80.5049
0
LINE
8
BLACK
6
CONTINUOUS
10
54.8767
20
-80.5049
11
54.9243
21
-80.6001
0
LINE
8
BLACK
6
CONTINUOUS
10
54.9243
20
-80.6001
11
54.9243
21
-80.743
0
LINE
8
BLACK
6
CONTINUOUS
10
54.9243
20
-80.743
11
54.8767
21
-80.8382
0
LINE
8
BLACK
6
CONTINUOUS
10
54.8767
20
-80.8382
11
54.7814
21
-80.8858
0
LINE
8
BLACK
6
CONTINUOUS
10
54.7814
20
-80.8858
11
54.2576
21
-80.8858
0
LINE
8
BLACK
6
CONTINUOUS
10
54.7814
20
-80.8858
11
54.8767
21
-80.9335
0
LINE
8
BLACK
6
CONTINUOUS
10
54.8767
20
-80.9335
11
54.9243
21
-81.0287
0
LINE
8
BLACK
6
CONTINUOUS
10
54.9243
20
-81.0287
11
54.9243
21
-81.1715
0
LINE
8
BLACK
6
CONTINUOUS
10
54.9243
20
-81.1715
11
54.8767
21
-81.2668
0
LINE
8
BLACK
6
CONTINUOUS
10
54.8767
20
-81.2668
11
54.7814
21
-81.3144
0
LINE
8
BLACK
6
CONTINUOUS
10
54.7814
20
-81.3144
11
54.2576
21
-81.3144
0
LINE
8
BLACK
6
CONTINUOUS
10
54.2576
20
-81.7906
11
54.9243
21
-81.7906
0
LINE
8
BLACK
6
CONTINUOUS
10
54.829
20
-81.7906
11
54.8767
21
-81.8382
0
LINE
8
BLACK
6
CONTINUOUS
10
54.8767
20
-81.8382
11
54.9243
21
-81.9335
0
LINE
8
BLACK
6
CONTINUOUS
10
54.9243
20
-81.9335
11
54.9243
21
-82.0763
0
LINE
8
BLACK
6
CONTINUOUS
10
54.9243
20
-82.0763
11
54.8767
21
-82.1715
0
LINE
8
BLACK
6
CONTINUOUS
10
54.8767
20
-82.1715
11
54.7814
21
-82.2192
0
LINE
8
BLACK
6
CONTINUOUS
10
54.7814
20
-82.2192
11
54.2576
21
-82.2192
0
LINE
8
BLACK
6
CONTINUOUS
10
54.7814
20
-82.2192
11
54.8767
21
-82.2668
0
LINE
8
BLACK
6
CONTINUOUS
10
54.8767
20
-82.2668
11
54.9243
21
-82.362
0
LINE
8
BLACK
6
CONTINUOUS
10
54.9243
20
-82.362
11
54.9243
21
-82.5049
0
LINE
8
BLACK
6
CONTINUOUS
10
54.9243
20
-82.5049
11
54.8767
21
-82.6001
0
LINE
8
BLACK
6
CONTINUOUS
10
54.8767
20
-82.6001
11
54.7814
21
-82.6477
0
LINE
8
BLACK
6
CONTINUOUS
10
54.7814
20
-82.6477
11
54.2576
21
-82.6477
0
LINE
8
BLACK
6
CONTINUOUS
10
56.01
20
-35.69
11
56.01
21
-121.415
0
LINE
8
BLACK
6
CONTINUOUS
10
57.325
20
-35.69
11
55.4236
21
-35.69
0
LINE
8
BLACK
6
CONTINUOUS
10
57.325
20
-121.415
11
55.4236
21
-121.415
0
LINE
8
BLACK
6
CONTINUOUS
10
56.01
20
-121.415
11
55.4236
21
-120.288
0
LINE
8
BLACK
6
CONTINUOUS
10
56.01
20
-121.415
11
56.5964
21
-120.288
0
LINE
8
BLACK
6
CONTINUOUS
10
56.01
20
-35.69
11
55.4236
21
-36.8165
0
LINE
8
BLACK
6
CONTINUOUS
10
56.01
20
-35.69
11
56.5964
21
-36.8165
0
LINE
8
BLACK
6
CONTINUOUS
10
112.427
20
-28.5524
11
111.856
21
-28.5524
0
LINE
8
BLACK
6
CONTINUOUS
10
112.142
20
-28.5524
11
112.142
21
-27.5524
0
LINE
8
BLACK
6
CONTINUOUS
10
112.142
20
-27.5524
11
112.046
21
-27.6952
0
LINE
8
BLACK
6
CONTINUOUS
10
112.046
20
-27.6952
11
111.951
21
-27.7905
0
LINE
8
BLACK
6
CONTINUOUS
10
111.951
20
-27.7905
11
111.856
21
-27.8381
0
LINE
8
BLACK
6
CONTINUOUS
10
113.38
20
-28.5524
11
112.808
21
-28.5524
0
LINE
8
BLACK
6
CONTINUOUS
10
113.094
20
-28.5524
11
113.094
21
-27.5524
0
LINE
8
BLACK
6
CONTINUOUS
10
113.094
20
-27.5524
11
112.999
21
-27.6952
0
LINE
8
BLACK
6
CONTINUOUS
10
112.999
20
-27.6952
11
112.904
21
-27.7905
0
LINE
8
BLACK
6
CONTINUOUS
10
112.904
20
-27.7905
11
112.808
21
-27.8381
0
LINE
8
BLACK
6
CONTINUOUS
10
114.237
20
-27.8857
11
114.237
21
-28.5524
0
LINE
8
BLACK
6
CONTINUOUS
10
113.999
20
-27.5048
11
113.761
21
-28.219
0
LINE
8
BLACK
6
CONTINUOUS
10
113.761
20
-28.219
11
114.38
21
-28.219
0
LINE
8
BLACK
6
CONTINUOUS
10
114.761
20
-28.4571
11
114.808
21
-28.5048
0
LINE
8
BLACK
6
CONTINUOUS
10
114.808
20
-28.5048
11
114.761
21
-28.5524
0
LINE
8
BLACK
6
CONTINUOUS
10
114.761
20
-28.5524
11
114.713
21
-28.5048
0
LINE
8
BLACK
6
CONTINUOUS
10
114.713
20
-28.5048
11
114.761
21
-28.4571
0
LINE
8
BLACK
6
CONTINUOUS
10
114.761
20
-28.4571
11
114.761
21
-28.5524
0
LINE
8
BLACK
6
CONTINUOUS
10
115.142
20
-27.5524
11
115.761
21
-27.5524
0
LINE
8
BLACK
6
CONTINUOUS
10
115.761
20
-27.5524
11
115.427
21
-27.9333
0
LINE
8
BLACK
6
CONTINUOUS
10
115.427
20
-27.9333
11
115.57
21
-27.9333
0
LINE
8
BLACK
6
CONTINUOUS
10
115.57
20
-27.9333
11
115.665
21
-27.981
0
LINE
8
BLACK
6
CONTINUOUS
10
115.665
20
-27.981
11
115.713
21
-28.0286
0
LINE
8
BLACK
6
CONTINUOUS
10
115.713
20
-28.0286
11
115.761
21
-28.1238
0
LINE
8
BLACK
6
CONTINUOUS
10
115.761
20
-28.1238
11
115.761
21
-28.3619
0
LINE
8
BLACK
6
CONTINUOUS
10
115.761
20
-28.3619
11
115.713
21
-28.4571
0
LINE
8
BLACK
6
CONTINUOUS
10
115.713
20
-28.4571
11
115.665
21
-28.5048
0
LINE
8
BLACK
6
CONTINUOUS
10
115.665
20
-28.5048
11
115.57
21
-28.5524
0
LINE
8
BLACK
6
CONTINUOUS
10
115.57
20
-28.5524
11
115.285
21
-28.5524
0
LINE
8
BLACK
6
CONTINUOUS
10
115.285
20
-28.5524
11
115.189
21
-28.5048
0
LINE
8
BLACK
6
CONTINUOUS
10
115.189
20
-28.5048
11
115.142
21
-28.4571
0
LINE
8
BLACK
6
CONTINUOUS
10
116.38
20
-27.5524
11
116.475
21
-27.5524
0
LINE
8
BLACK
6
CONTINUOUS
10
116.475
20
-27.5524
11
116.57
21
-27.6
0
LINE
8
BLACK
6
CONTINUOUS
10
116.57
20
-27.6
11
116.618
21
-27.6476
0
LINE
8
BLACK
6
CONTINUOUS
10
116.618
20
-27.6476
11
116.665
21
-27.7429
0
LINE
8
BLACK
6
CONTINUOUS
10
116.665
20
-27.7429
11
116.713
21
-27.9333
0
LINE
8
BLACK
6
CONTINUOUS
10
116.713
20
-27.9333
11
116.713
21
-28.1714
0
LINE
8
BLACK
6
CONTINUOUS
10
116.713
20
-28.1714
11
116.665
21
-28.3619
0
LINE
8
BLACK
6
CONTINUOUS
10
116.665
20
-28.3619
11
116.618
21
-28.4571
0
LINE
8
BLACK
6
CONTINUOUS
10
116.618
20
-28.4571
11
116.57
21
-28.5048
0
LINE
8
BLACK
6
CONTINUOUS
10
116.57
20
-28.5048
11
116.475
21
-28.5524
0
LINE
8
BLACK
6
CONTINUOUS
10
116.475
20
-28.5524
11
116.38
21
-28.5524
0
LINE
8
BLACK
6
CONTINUOUS
10
116.38
20
-28.5524
11
116.285
21
-28.5048
0
LINE
8
BLACK
6
CONTINUOUS
10
116.285
20
-28.5048
11
116.237
21
-28.4571
0
LINE
8
BLACK
6
CONTINUOUS
10
116.237
20
-28.4571
11
116.189
21
-28.3619
0
LINE
8
BLACK
6
CONTINUOUS
10
116.189
20
-28.3619
11
116.142
21
-28.1714
0
LINE
8
BLACK
6
CONTINUOUS
10
116.142
20
-28.1714
11
116.142
21
-27.9333
0
LINE
8
BLACK
6
CONTINUOUS
10
116.142
20
-27.9333
11
116.189
21
-27.7429
0
LINE
8
BLACK
6
CONTINUOUS
10
116.189
20
-27.7429
11
116.237
21
-27.6476
0
LINE
8
BLACK
6
CONTINUOUS
10
116.237
20
-27.6476
11
116.285
21
-27.6
0
LINE
8
BLACK
6
CONTINUOUS
10
116.285
20
-27.6
11
116.38
21
-27.5524
0
LINE
8
BLACK
6
CONTINUOUS
10
117.332
20
-27.5524
11
117.427
21
-27.5524
0
LINE
8
BLACK
6
CONTINUOUS
10
117.427
20
-27.5524
11
117.523
21
-27.6
0
LINE
8
BLACK
6
CONTINUOUS
10
117.523
20
-27.6
11
117.57
21
-27.6476
0
LINE
8
BLACK
6
CONTINUOUS
10
117.57
20
-27.6476
11
117.618
21
-27.7429
0
LINE
8
BLACK
6
CONTINUOUS
10
117.618
20
-27.7429
11
117.665
21
-27.9333
0
LINE
8
BLACK
6
CONTINUOUS
10
117.665
20
-27.9333
11
117.665
21
-28.1714
0
LINE
8
BLACK
6
CONTINUOUS
10
117.665
20
-28.1714
11
117.618
21
-28.3619
0
LINE
8
BLACK
6
CONTINUOUS
10
117.618
20
-28.3619
11
117.57
21
-28.4571
0
LINE
8
BLACK
6
CONTINUOUS
10
117.57
20
-28.4571
11
117.523
21
-28.5048
0
LINE
8
BLACK
6
CONTINUOUS
10
117.523
20
-28.5048
11
117.427
21
-28.5524
0
LINE
8
BLACK
6
CONTINUOUS
10
117.427
20
-28.5524
11
117.332
21
-28.5524
0
LINE
8
BLACK
6
CONTINUOUS
10
117.332
20
-28.5524
11
117.237
21
-28.5048
0
LINE
8
BLACK
6
CONTINUOUS
10
117.237
20
-28.5048
11
117.189
21
-28.4571
0
LINE
8
BLACK
6
CONTINUOUS
10
117.189
20
-28.4571
11
117.142
21
-28.3619
0
LINE
8
BLACK
6
CONTINUOUS
10
117.142
20
-28.3619
11
117.094
21
-28.1714
0
LINE
8
BLACK
6
CONTINUOUS
10
117.094
20
-28.1714
11
117.094
21
-27.9333
0
LINE
8
BLACK
6
CONTINUOUS
10
117.094
20
-27.9333
11
117.142
21
-27.7429
0
LINE
8
BLACK
6
CONTINUOUS
10
117.142
20
-27.7429
11
117.189
21
-27.6476
0
LINE
8
BLACK
6
CONTINUOUS
10
117.189
20
-27.6476
11
117.237
21
-27.6
0
LINE
8
BLACK
6
CONTINUOUS
10
117.237
20
-27.6
11
117.332
21
-27.5524
0
LINE
8
BLACK
6
CONTINUOUS
10
118.856
20
-28.5524
11
118.856
21
-27.8857
0
LINE
8
BLACK
6
CONTINUOUS
10
118.856
20
-27.981
11
118.904
21
-27.9333
0
LINE
8
BLACK
6
CONTINUOUS
10
118.904
20
-27.9333
11
118.999
21
-27.8857
0
LINE
8
BLACK
6
CONTINUOUS
10
118.999
20
-27.8857
11
119.142
21
-27.8857
0
LINE
8
BLACK
6
CONTINUOUS
10
119.142
20
-27.8857
11
119.237
21
-27.9333
0
LINE
8
BLACK
6
CONTINUOUS
10
119.237
20
-27.9333
11
119.285
21
-28.0286
0
LINE
8
BLACK
6
CONTINUOUS
10
119.285
20
-28.0286
11
119.285
21
-28.5524
0
LINE
8
BLACK
6
CONTINUOUS
10
119.285
20
-28.0286
11
119.332
21
-27.9333
0
LINE
8
BLACK
6
CONTINUOUS
10
119.332
20
-27.9333
11
119.427
21
-27.8857
0
LINE
8
BLACK
6
CONTINUOUS
10
119.427
20
-27.8857
11
119.57
21
-27.8857
0
LINE
8
BLACK
6
CONTINUOUS
10
119.57
20
-27.8857
11
119.665
21
-27.9333
0
LINE
8
BLACK
6
CONTINUOUS
10
119.665
20
-27.9333
11
119.713
21
-28.0286
0
LINE
8
BLACK
6
CONTINUOUS
10
119.713
20
-28.0286
11
119.713
21
-28.5524
0
LINE
8
BLACK
6
CONTINUOUS
10
120.189
20
-28.5524
11
120.189
21
-27.8857
0
LINE
8
BLACK
6
CONTINUOUS
10
120.189
20
-27.981
11
120.237
21
-27.9333
0
LINE
8
BLACK
6
CONTINUOUS
10
120.237
20
-27.9333
11
120.332
21
-27.8857
0
LINE
8
BLACK
6
CONTINUOUS
10
120.332
20
-27.8857
11
120.475
21
-27.8857
0
LINE
8
BLACK
6
CONTINUOUS
10
120.475
20
-27.8857
11
120.57
21
-27.9333
0
LINE
8
BLACK
6
CONTINUOUS
10
120.57
20
-27.9333
11
120.618
21
-28.0286
0
LINE
8
BLACK
6
CONTINUOUS
10
120.618
20
-28.0286
11
120.618
21
-28.5524
0
LINE
8
BLACK
6
CONTINUOUS
10
120.618
20
-28.0286
11
120.665
21
-27.9333
0
LINE
8
BLACK
6
CONTINUOUS
10
120.665
20
-27.9333
11
120.761
21
-27.8857
0
LINE
8
BLACK
6
CONTINUOUS
10
120.761
20
-27.8857
11
120.904
21
-27.8857
0
LINE
8
BLACK
6
CONTINUOUS
10
120.904
20
-27.8857
11
120.999
21
-27.9333
0
LINE
8
BLACK
6
CONTINUOUS
10
120.999
20
-27.9333
11
121.046
21
-28.0286
0
LINE
8
BLACK
6
CONTINUOUS
10
121.046
20
-28.0286
11
121.046
21
-28.5524
0
LINE
8
BLACK
6
CONTINUOUS
10
59.325
20
-29.4
11
173.625
21
-29.4
0
LINE
8
BLACK
6
CONTINUOUS
10
59.325
20
-33.69
11
59.325
21
-28.8136
0
LINE
8
BLACK
6
CONTINUOUS
10
173.625
20
-33.69
11
173.625
21
-28.8136
0
LINE
8
BLACK
6
CONTINUOUS
10
173.625
20
-29.4
11
172.498
21
-29.9864
0
LINE
8
BLACK
6
CONTINUOUS
10
173.625
20
-29.4
11
172.498
21
-28.8136
0
LINE
8
BLACK
6
CONTINUOUS
10
59.325
20
-29.4
11
60.4515
21
-29.9864
0
LINE
8
BLACK
6
CONTINUOUS
10
59.325
20
-29.4
11
60.4515
21
-28.8136
0
CIRCLE
8
BLACK
10
78.375
20
-59.5275
40
1.1
0
CIRCLE
8
BLACK
10
78.375
20
-116.678
40
1.1
0
CIRCLE
8
BLACK
10
116.475
20
-92.865
40
1.1
0
CIRCLE
8
BLACK
10
154.575
20
-121.44
40
1.1
0
CIRCLE
8
BLACK
10
154.575
20
-64.29
40
1.1
0
LINE
8
BLACK
6
CONTINUOUS
10
80.9
20
-56.9775
11
94.9
21
-56.9775
0
LINE
8
BLACK
6
CONTINUOUS
10
80.9
20
-42.9775
11
80.9
21
-56.9775
0
LINE
8
BLACK
6
CONTINUOUS
10
94.9
20
-42.9775
11
94.9
21
-56.9775
0
LINE
8
BLACK
6
CONTINUOUS
10
80.9
20
-42.9775
11
94.9
21
-42.9775
0
LINE
8
BLACK
6
CONTINUOUS
10
99.95
20
-52.215
11
113.95
21
-52.215
0
LINE
8
BLACK
6
CONTINUOUS
10
99.95
20
-38.215
11
99.95
21
-52.215
0
LINE
8
BLACK
6
CONTINUOUS
10
113.95
20
-38.215
11
113.95
21
-52.215
0
LINE
8
BLACK
6
CONTINUOUS
10
99.95
20
-38.215
11
113.95
21
-38.215
0
LINE
8
BLACK
6
CONTINUOUS
10
99.95
20
-71.265
11
113.95
21
-71.265
0
LINE
8
BLACK
6
CONTINUOUS
10
99.95
20
-57.265
11
99.95
21
-71.265
0
LINE
8
BLACK
6
CONTINUOUS
10
113.95
20
-57.265
11
113.95
21
-71.265
0
LINE
8
BLACK
6
CONTINUOUS
10
99.95
20
-57.265
11
113.95
21
-57.265
0
LINE
8
BLACK
6
CONTINUOUS
10
80.9
20
-76.0275
11
94.9
21
-76.0275
0
LINE
8
BLACK
6
CONTINUOUS
10
80.9
20
-62.0275
11
80.9
21
-76.0275
0
LINE
8
BLACK
6
CONTINUOUS
10
94.9
20
-62.0275
11
94.9
21
-76.0275
0
LINE
8
BLACK
6
CONTINUOUS
10
80.9
20
-62.0275
11
94.9
21
-62.0275
0
LINE
8
BLACK
6
CONTINUOUS
10
80.9
20
-95.0775
11
94.9
21
-95.0775
0
LINE
8
BLACK
6
CONTINUOUS
10
80.9
20
-81.0775
11
80.9
21
-95.0775
0
LINE
8
BLACK
6
CONTINUOUS
10
94.9
20
-81.0775
11
94.9
21
-95.0775
0
LINE
8
BLACK
6
CONTINUOUS
10
80.9
20
-81.0775
11
94.9
21
-81.0775
0
LINE
8
BLACK
6
CONTINUOUS
10
99.95
20
-90.315
11
113.95
21
-90.315
0
LINE
8
BLACK
6
CONTINUOUS
10
99.95
20
-76.315
11
99.95
21
-90.315
0
LINE
8
BLACK
6
CONTINUOUS
10
113.95
20
-76.315
11
113.95
21
-90.315
0
LINE
8
BLACK
6
CONTINUOUS
10
99.95
20
-76.315
11
113.95
21
-76.315
0
LINE
8
BLACK
6
CONTINUOUS
10
119
20
-56.9775
11
133
21
-56.9775
0
LINE
8
BLACK
6
CONTINUOUS
10
119
20
-42.9775
11
119
21
-56.9775
0
LINE
8
BLACK
6
CONTINUOUS
10
133
20
-42.9775
11
133
21
-56.9775
0
LINE
8
BLACK
6
CONTINUOUS
10
119
20
-42.9775
11
133
21
-42.9775
0
LINE
8
BLACK
6
CONTINUOUS
10
119
20
-114.127
11
133
21
-114.127
0
LINE
8
BLACK
6
CONTINUOUS
10
119
20
-100.127
11
119
21
-114.127
0
LINE
8
BLACK
6
CONTINUOUS
10
133
20
-100.127
11
133
21
-114.127
0
LINE
8
BLACK
6
CONTINUOUS
10
119
20
-100.127
11
133
21
-100.127
0
LINE
8
BLACK
6
CONTINUOUS
10
119
20
-95.0775
11
133
21
-95.0775
0
LINE
8
BLACK
6
CONTINUOUS
10
119
20
-81.0775
11
119
21
-95.0775
0
LINE
8
BLACK
6
CONTINUOUS
10
133
20
-81.0775
11
133
21
-95.0775
0
LINE
8
BLACK
6
CONTINUOUS
10
119
20
-81.0775
11
133
21
-81.0775
0
LINE
8
BLACK
6
CONTINUOUS
10
119
20
-76.0275
11
133
21
-76.0275
0
LINE
8
BLACK
6
CONTINUOUS
10
119
20
-62.0275
11
119
21
-76.0275
0
LINE
8
BLACK
6
CONTINUOUS
10
133
20
-62.0275
11
133
21
-76.0275
0
LINE
8
BLACK
6
CONTINUOUS
10
119
20
-62.0275
11
133
21
-62.0275
0
LINE
8
BLACK
6
CONTINUOUS
10
75.85
20
-47.74
11
75.85
21
-61.74
0
LINE
8
BLACK
6
CONTINUOUS
10
61.85
20
-47.74
11
75.85
21
-47.74
0
LINE
8
BLACK
6
CONTINUOUS
10
61.85
20
-47.74
11
61.85
21
-61.74
0
LINE
8
BLACK
6
CONTINUOUS
10
61.85
20
-61.74
11
75.85
21
-61.74
0
LINE
8
BLACK
6
CONTINUOUS
10
75.85
20
-66.79
11
75.85
21
-80.79
0
LINE
8
BLACK
6
CONTINUOUS
10
61.85
20
-66.79
11
75.85
21
-66.79
0
LINE
8
BLACK
6
CONTINUOUS
10
61.85
20
-66.79
11
61.85
21
-80.79
0
LINE
8
BLACK
6
CONTINUOUS
10
61.85
20
-80.79
11
75.85
21
-80.79
0
LINE
8
BLACK
6
CONTINUOUS
10
75.85
20
-85.84
11
75.85
21
-99.84
0
LINE
8
BLACK
6
CONTINUOUS
10
61.85
20
-85.84
11
75.85
21
-85.84
0
LINE
8
BLACK
6
CONTINUOUS
10
61.85
20
-85.84
11
61.85
21
-99.84
0
LINE
8
BLACK
6
CONTINUOUS
10
61.85
20
-99.84
11
75.85
21
-99.84
0
LINE
8
BLACK
6
CONTINUOUS
10
171.1
20
-47.74
11
171.1
21
-61.74
0
LINE
8
BLACK
6
CONTINUOUS
10
157.1
20
-47.74
11
171.1
21
-47.74
0
LINE
8
BLACK
6
CONTINUOUS
10
157.1
20
-47.74
11
157.1
21
-61.74
0
LINE
8
BLACK
6
CONTINUOUS
10
157.1
20
-61.74
11
171.1
21
-61.74
0
LINE
8
BLACK
6
CONTINUOUS
10
152.05
20
-47.74
11
152.05
21
-61.74
0
LINE
8
BLACK
6
CONTINUOUS
10
138.05
20
-47.74
11
152.05
21
-47.74
0
LINE
8
BLACK
6
CONTINUOUS
10
138.05
20
-47.74
11
138.05
21
-61.74
0
LINE
8
BLACK
6
CONTINUOUS
10
138.05
20
-61.74
11
152.05
21
-61.74
0
LINE
8
BLACK
6
CONTINUOUS
10
171.1
20
-66.79
11
171.1
21
-80.79
0
LINE
8
BLACK
6
CONTINUOUS
10
157.1
20
-66.79
11
171.1
21
-66.79
0
LINE
8
BLACK
6
CONTINUOUS
10
157.1
20
-66.79
11
157.1
21
-80.79
0
LINE
8
BLACK
6
CONTINUOUS
10
157.1
20
-80.79
11
171.1
21
-80.79
0
LINE
8
BLACK
6
CONTINUOUS
10
152.05
20
-66.79
11
152.05
21
-80.79
0
LINE
8
BLACK
6
CONTINUOUS
10
138.05
20
-66.79
11
152.05
21
-66.79
0
LINE
8
BLACK
6
CONTINUOUS
10
138.05
20
-66.79
11
138.05
21
-80.79
0
LINE
8
BLACK
6
CONTINUOUS
10
138.05
20
-80.79
11
152.05
21
-80.79
0
LINE
8
BLACK
6
CONTINUOUS
10
171.1
20
-85.84
11
171.1
21
-99.84
0
LINE
8
BLACK
6
CONTINUOUS
10
157.1
20
-85.84
11
171.1
21
-85.84
0
LINE
8
BLACK
6
CONTINUOUS
10
157.1
20
-85.84
11
157.1
21
-99.84
0
LINE
8
BLACK
6
CONTINUOUS
10
157.1
20
-99.84
11
171.1
21
-99.84
0
LINE
8
BLACK
6
CONTINUOUS
10
152.05
20
-85.84
11
152.05
21
-99.84
0
LINE
8
BLACK
6
CONTINUOUS
10
138.05
20
-85.84
11
152.05
21
-85.84
0
LINE
8
BLACK
6
CONTINUOUS
10
138.05
20
-85.84
11
138.05
21
-99.84
0
LINE
8
BLACK
6
CONTINUOUS
10
138.05
20
-99.84
11
152.05
21
-99.84
0
LINE
8
BLACK
6
CONTINUOUS
10
171.1
20
-104.89
11
171.1
21
-118.89
0
LINE
8
BLACK
6
CONTINUOUS
10
157.1
20
-104.89
11
171.1
21
-104.89
0
LINE
8
BLACK
6
CONTINUOUS
10
157.1
20
-104.89
11
157.1
21
-118.89
0
LINE
8
BLACK
6
CONTINUOUS
10
157.1
20
-118.89
11
171.1
21
-118.89
0
LINE
8
BLACK
6
CONTINUOUS
10
152.05
20
-104.89
11
152.05
21
-118.89
0
LINE
8
BLACK
6
CONTINUOUS
10
138.05
20
-104.89
11
152.05
21
-104.89
0
LINE
8
BLACK
6
CONTINUOUS
10
138.05
20
-104.89
11
138.05
21
-118.89
0
LINE
8
BLACK
6
CONTINUOUS
10
138.05
20
-118.89
11
152.05
21
-118.89
0
LINE
8
BLACK
6
CONTINUOUS
10
171.1
20
-123.94
11
171.1
21
-137.94
0
LINE
8
BLACK
6
CONTINUOUS
10
157.1
20
-123.94
11
171.1
21
-123.94
0
LINE
8
BLACK
6
CONTINUOUS
10
157.1
20
-123.94
11
157.1
21
-137.94
0
LINE
8
BLACK
6
CONTINUOUS
10
157.1
20
-137.94
11
171.1
21
-137.94
0
LINE
8
BLACK
6
CONTINUOUS
10
152.05
20
-123.94
11
152.05
21
-137.94
0
LINE
8
BLACK
6
CONTINUOUS
10
138.05
20
-123.94
11
152.05
21
-123.94
0
LINE
8
BLACK
6
CONTINUOUS
10
138.05
20
-123.94
11
138.05
21
-137.94
0
LINE
8
BLACK
6
CONTINUOUS
10
138.05
20
-137.94
11
152.05
21
-137.94
0
LINE
8
BLACK
6
CONTINUOUS
10
133
20
-119.178
11
133
21
-133.178
0
LINE
8
BLACK
6
CONTINUOUS
10
116.475
20
-119.178
11
133
21
-119.178
0
LINE
8
BLACK
6
CONTINUOUS
10
116.475
20
-116.652
11
116.475
21
-119.178
0
LINE
8
BLACK
6
CONTINUOUS
10
119
20
-133.178
11
133
21
-133.178
0
LINE
8
BLACK
6
CONTINUOUS
10
113.95
20
-95.365
11
113.95
21
-109.365
0
LINE
8
BLACK
6
CONTINUOUS
10
99.95
20
-95.365
11
113.95
21
-95.365
0
LINE
8
BLACK
6
CONTINUOUS
10
99.95
20
-95.365
11
99.95
21
-109.365
0
LINE
8
BLACK
6
CONTINUOUS
10
99.95
20
-109.365
11
113.95
21
-109.365
0
LINE
8
BLACK
6
CONTINUOUS
10
94.9
20
-100.127
11
94.9
21
-114.127
0
LINE
8
BLACK
6
CONTINUOUS
10
80.9
20
-100.127
11
94.9
21
-100.127
0
LINE
8
BLACK
6
CONTINUOUS
10
80.9
20
-100.127
11
80.9
21
-114.127
0
LINE
8
BLACK
6
CONTINUOUS
10
80.9
20
-114.127
11
94.9
21
-114.127
0
LINE
8
BLACK
6
CONTINUOUS
10
61.85
20
-118.89
11
75.85
21
-118.89
0
LINE
8
BLACK
6
CONTINUOUS
10
61.85
20
-104.89
11
75.85
21
-104.89
0
LINE
8
BLACK
6
CONTINUOUS
10
75.85
20
-104.89
11
75.85
21
-118.89
0
LINE
8
BLACK
6
CONTINUOUS
10
61.85
20
-104.89
11
61.85
21
-118.89
0
LINE
8
BLACK
6
CONTINUOUS
10
78.375
20
-121.415
11
84.15
21
-116.652
0
LINE
8
BLACK
6
CONTINUOUS
10
116.475
20
-116.652
11
84.15
21
-116.652
0
LINE
8
BLACK
6
CONTINUOUS
10
78.375
20
-121.415
11
59.325
21
-121.415
0
LINE
8
BLACK
6
CONTINUOUS
10
119
20
-133.178
11
119
21
-140.465
0
LINE
8
BLACK
6
CONTINUOUS
10
59.325
20
-121.415
11
59.325
21
-35.69
0
LINE
8
BLACK
6
CONTINUOUS
10
173.625
20
-140.465
11
119
21
-140.465
0
LINE
8
BLACK
6
CONTINUOUS
10
173.625
20
-140.465
11
173.625
21
-35.69
0
LINE
8
BLACK
6
CONTINUOUS
10
59.325
20
-35.69
11
173.625
21
-35.69
  0
ENDSEC
  0
EOF
